<?xml version="1.0" encoding="utf-8"?>
<!-- Generator: Adobe Illustrator 21.1.0, SVG Export Plug-In . SVG Version: 6.00 Build 0)  -->
<svg version="1.1" id="Calque_1" xmlns="http://www.w3.org/2000/svg" xmlns:xlink="http://www.w3.org/1999/xlink" x="0px" y="0px"
	 viewBox="0 0 212 161" style="enable-background:new 0 0 212 161;" xml:space="preserve">
<style type="text/css">
	.st0{fill:#BAC4D4;}
	.st1{fill:none;stroke:#BAC4D4;stroke-width:8;stroke-linecap:round;stroke-linejoin:round;}
	.st2{fill:none;stroke:#F9A427;stroke-width:8;stroke-linecap:round;stroke-linejoin:round;}
	.st3{fill:url(#SVGID_1_);}
	.st4{fill:url(#SVGID_2_);}
	.st5{fill:#F9A427;}
	.st6{fill:#F9A930;}
	.st7{fill:#FAAE39;}
	.st8{fill:#FAB343;}
	.st9{fill:#FAB84C;}
	.st10{fill:#FBBD55;}
	.st11{fill:#FBC35E;}
	.st12{fill:#FCC867;}
	.st13{fill:#FCCD70;}
	.st14{fill:#FCD27A;}
	.st15{fill:#FDD783;}
	.st16{fill:#FDDC8C;}
	.st17{fill:#FDD986;}
	.st18{fill:#FDD57F;}
	.st19{fill:#FCD279;}
	.st20{fill:#FCCE73;}
	.st21{fill:#FCCB6C;}
	.st22{fill:#FCC766;}
	.st23{fill:#FBC460;}
	.st24{fill:#FBC05A;}
	.st25{fill:#FBBD53;}
	.st26{fill:#FBB94D;}
	.st27{fill:#FAB647;}
	.st28{fill:#FAB240;}
	.st29{fill:#FAAF3A;}
	.st30{fill:#FAAB34;}
	.st31{fill:#F9A82D;}
	.st32{fill:#F4A026;}
	.st33{fill:#F09D25;}
	.st34{fill:#EB9924;}
	.st35{fill:#E79623;}
	.st36{fill:#E29222;}
	.st37{fill:#DE8E21;}
	.st38{fill:#D98B20;}
	.st39{fill:#D48720;}
	.st40{fill:#D0831F;}
	.st41{fill:#CB801E;}
	.st42{fill:#C77C1D;}
	.st43{fill:#C2791C;}
	.st44{fill:#BE751B;}
	.st45{fill:#B9711A;}
	.st46{fill:#B56E19;}
	.st47{fill:#B06A18;}
	.st48{fill:url(#SVGID_3_);}
	.st49{fill:url(#SVGID_4_);}
	.st50{fill:#B2B3B6;}
	.st51{fill:#B0B1B4;}
	.st52{fill:#AEAFB2;}
	.st53{fill:#ABACAF;}
	.st54{fill:#A9AAAD;}
	.st55{fill:#A7A8AB;}
	.st56{fill:#A5A6A9;}
	.st57{fill:#A3A4A7;}
	.st58{fill:#A1A2A4;}
	.st59{fill:#9E9FA2;}
	.st60{fill:#9C9DA0;}
	.st61{fill:#9A9B9E;}
	.st62{fill:#98999C;}
	.st63{fill:#96979A;}
	.st64{fill:#939497;}
	.st65{fill:#919295;}
	.st66{fill:#8F9093;}
	.st67{fill:#9D9EA1;}
	.st68{fill:#A4A5A7;}
	.st69{fill:#ABACAE;}
	.st70{fill:#B2B3B5;}
	.st71{fill:#B9BABB;}
	.st72{fill:#C0C1C2;}
	.st73{fill:#C7C8C9;}
	.st74{fill:#CECED0;}
	.st75{fill:#D5D5D7;}
	.st76{fill:#DCDCDD;}
	.st77{fill:#E3E3E4;}
	.st78{fill:#EAEAEB;}
	.st79{fill:#F1F1F2;}
	.st80{fill:#F8F8F8;}
	.st81{fill:#FFFFFF;}
	.st82{fill:url(#SVGID_5_);}
	.st83{fill:url(#SVGID_6_);}
	.st84{fill:url(#SVGID_7_);}
	.st85{fill:url(#SVGID_8_);}
	.st86{fill:url(#SVGID_9_);}
</style>
<g>
	<g>
		<path class="st0" d="M116.6,57.4v12.5c0,0.4,0.3,0.8,0.8,0.8h2.1c0,0,0,0,0.1,0.1l11.7,10c0,0,2.2,2.3,4.8,2.3h22
			c1.2,0,2.2-1,2.2-2.2v-3h3.9v-0.2h6.8v-0.1h8.7c0,0,0,0,0,0c1.4,0,2.5-1.1,2.5-2.5c0-1.4-1.1-2.5-2.5-2.5c0,0,0,0,0,0h-8.7v-0.1
			h-6.8v-0.2h-3.9V53.7h3.9v-0.2h6.8v-0.1h8.7c0,0,0,0,0,0c1.4,0,2.5-1.1,2.5-2.5c0-1.4-1.1-2.5-2.5-2.5c0,0,0,0,0,0h-8.7v-0.1h-6.8
			v-0.2h-3.9v-1.9c0-1.2-1-2.2-2.2-2.2h-22c-2.6,0-4.8,2.3-4.8,2.3l-11.7,10c0,0-0.1,0.1-0.1,0.2h-2.1C117,56.6,116.6,57,116.6,57.4
			z"/>
		<path class="st1" d="M116.6,63c-14.3,0-31.2-0.2-38.9,31.5c-3.2,13.3-7.1,39.2-30.9,39.2c-19.3,0-28.4-14.5-29.2-29"/>
	</g>
	<path class="st2" d="M116.4,61.2c-14.5,0-32.2-1.1-40.1,31.5c-3.2,13.3-7.1,39.2-30.9,39.2c-19.3,0-28.4-14.5-29.2-29"/>
	<g>
		
			<linearGradient id="SVGID_1_" gradientUnits="userSpaceOnUse" x1="-246.7861" y1="54.7206" x2="-246.7861" y2="68.828" gradientTransform="matrix(-1 0 0 1 -130.0811 0)">
			<stop  offset="0" style="stop-color:#F9A427"/>
			<stop  offset="2.956228e-03" style="stop-color:#F9AA31"/>
			<stop  offset="1.563922e-02" style="stop-color:#FBBF58"/>
			<stop  offset="2.729018e-02" style="stop-color:#FCCF75"/>
			<stop  offset="3.743588e-02" style="stop-color:#FDD986"/>
			<stop  offset="4.494400e-02" style="stop-color:#FDDC8C"/>
			<stop  offset="7.353818e-02" style="stop-color:#FCC969"/>
			<stop  offset="0.1035" style="stop-color:#FAB94C"/>
			<stop  offset="0.1333" style="stop-color:#FAAD38"/>
			<stop  offset="0.1627" style="stop-color:#F9A62B"/>
			<stop  offset="0.191" style="stop-color:#F9A427"/>
			<stop  offset="0.7809" style="stop-color:#F9A427"/>
			<stop  offset="0.8201" style="stop-color:#F4A026"/>
			<stop  offset="0.8677" style="stop-color:#E59423"/>
			<stop  offset="0.9194" style="stop-color:#CD811E"/>
			<stop  offset="0.9663" style="stop-color:#B06A18"/>
			<stop  offset="1" style="stop-color:#F9A427"/>
		</linearGradient>
		<path class="st3" d="M115.2,68.1c0,0.4,0.3,0.8,0.8,0.8h2.2V54.7H116c-0.4,0-0.8,0.3-0.8,0.8V68.1z"/>
		<g>
			
				<linearGradient id="SVGID_2_" gradientUnits="userSpaceOnUse" x1="-256.3496" y1="42.1818" x2="-256.3496" y2="81.1984" gradientTransform="matrix(-1 0 0 1 -130.0811 0)">
				<stop  offset="0" style="stop-color:#F9A427"/>
				<stop  offset="2.956228e-03" style="stop-color:#F9AA31"/>
				<stop  offset="1.563922e-02" style="stop-color:#FBBF58"/>
				<stop  offset="2.729018e-02" style="stop-color:#FCCF75"/>
				<stop  offset="3.743588e-02" style="stop-color:#FDD986"/>
				<stop  offset="4.494400e-02" style="stop-color:#FDDC8C"/>
				<stop  offset="7.353818e-02" style="stop-color:#FCC969"/>
				<stop  offset="0.1035" style="stop-color:#FAB94C"/>
				<stop  offset="0.1333" style="stop-color:#FAAD38"/>
				<stop  offset="0.1627" style="stop-color:#F9A62B"/>
				<stop  offset="0.191" style="stop-color:#F9A427"/>
				<stop  offset="0.7809" style="stop-color:#F9A427"/>
				<stop  offset="0.8201" style="stop-color:#F4A026"/>
				<stop  offset="0.8677" style="stop-color:#E59423"/>
				<stop  offset="0.9194" style="stop-color:#CD811E"/>
				<stop  offset="0.9663" style="stop-color:#B06A18"/>
				<stop  offset="1" style="stop-color:#F9A427"/>
			</linearGradient>
			<path class="st4" d="M118.2,54.6l11.7-10c0,0,2.2-2.3,4.8-2.3c-0.3,0-0.6,0.1-0.8,0.2c-0.8,0.3-1.3,1.1-1.3,2v0v34.7v0
				c0,1,0.7,1.9,1.7,2.1c0.1,0,0.3,0,0.4,0c-2.6,0-4.8-2.3-4.8-2.3l-11.7-10c-0.3-0.2-0.4-0.9-0.4-2.2c0,0,0-9,0-9.7
				C117.8,56.3,117.7,55.1,118.2,54.6z"/>
		</g>
		<g>
			<path class="st5" d="M117.8,55.8c0-0.5,0.1-0.9,0.4-1.2l5.9-5l5.9-5c0,0,2.2-2.3,4.8-2.3c-0.3,0-1.7,0.9-1.7,0.9l-7.6,6.3
				L117.8,55.8z"/>
			<path class="st6" d="M134.6,42.3c-0.1,0-0.5,0.2-0.8,0.4c-0.4,0.2-0.9,0.5-0.9,0.5l-7.2,6l-0.4,0.3l-7.6,6.3c0-0.2,0-0.4,0.1-0.5
				c0-0.2,0.2-0.5,0.3-0.6l5.8-5l1.8-1.5l4-3.4C129.9,44.7,132.3,42.3,134.6,42.3z"/>
			<path class="st7" d="M134.5,42.4c-0.1,0-0.4,0.3-0.7,0.5c-0.4,0.2-0.8,0.5-0.8,0.5l-7.2,5.9l-0.4,0.3l-7.6,6.2c0-0.1,0-0.4,0-0.5
				c0-0.2,0.2-0.5,0.4-0.6l5.8-4.9l1.8-1.5l4-3.4C129.9,44.9,132.4,42.4,134.5,42.4z"/>
			<path class="st8" d="M134.4,42.5c-0.1,0-0.4,0.4-0.6,0.5c-0.3,0.2-0.8,0.5-0.8,0.5l-7.2,5.9l-0.4,0.3l-7.6,6.2c0-0.1,0-0.4,0-0.5
				c0-0.2,0.3-0.5,0.4-0.6l5.8-4.9l1.8-1.5l4-3.4C129.8,45,132.5,42.5,134.4,42.5z"/>
			<path class="st9" d="M134.3,42.5c-0.1,0-0.3,0.5-0.6,0.6c-0.3,0.2-0.8,0.5-0.8,0.5l-7.2,5.8l-0.4,0.3l-7.6,6.1c0-0.1,0-0.4,0-0.5
				c0-0.2,0.3-0.5,0.4-0.6L124,50l1.8-1.5l4-3.3C129.8,45.2,132.6,42.5,134.3,42.5z"/>
			<path class="st10" d="M134.2,42.6c-0.1,0-0.3,0.5-0.5,0.6c-0.2,0.1-0.8,0.5-0.8,0.5l-7.2,5.8l-0.4,0.3l-7.6,6.1
				c0-0.1,0-0.4,0-0.5c0-0.1,0.3-0.5,0.4-0.5l5.7-4.8l1.8-1.5l4-3.3C129.7,45.3,132.8,42.6,134.2,42.6z"/>
			<path class="st11" d="M134.1,42.7c-0.1,0-0.2,0.6-0.4,0.7c-0.2,0.1-0.8,0.5-0.8,0.5l-7.2,5.7l-0.4,0.3l-7.5,6c0-0.1,0-0.4,0-0.5
				c0-0.1,0.3-0.4,0.4-0.5l5.7-4.7l1.8-1.4l4-3.3C129.7,45.5,132.9,42.7,134.1,42.7z"/>
			<path class="st12" d="M134,42.8c0,0-0.2,0.7-0.3,0.7c-0.2,0.1-0.8,0.5-0.8,0.5l-7.1,5.7l-0.4,0.3l-7.5,6c0-0.1,0-0.4,0-0.5
				c0-0.1,0.4-0.4,0.4-0.5l5.7-4.7l1.8-1.4l3.9-3.2C129.7,45.6,133,42.8,134,42.8z"/>
			<path class="st13" d="M133.8,42.9c0,0-0.1,0.7-0.2,0.8c-0.1,0.1-0.8,0.6-0.8,0.6l-7.1,5.6l-0.3,0.3l-7.5,5.9c0,0,0-0.4,0-0.5
				c0-0.1,0.4-0.4,0.5-0.5l5.7-4.6l1.7-1.4l3.9-3.2C129.6,45.8,133.1,42.9,133.8,42.9z"/>
			<path class="st14" d="M133.7,42.9c0,0-0.1,0.8-0.2,0.8c-0.1,0-0.8,0.6-0.8,0.6l-7.1,5.5l-0.3,0.3l-7.5,5.9c0,0,0-0.4,0-0.5
				c0,0,0.4-0.4,0.5-0.5l5.7-4.6l1.7-1.4l3.9-3.1C129.6,45.9,133.3,42.9,133.7,42.9z"/>
			<path class="st15" d="M133.6,43c0,0,0,0.9-0.1,0.9c0,0-0.8,0.6-0.8,0.6l-7.1,5.5l-0.3,0.3l-7.5,5.8c0,0,0-0.5,0-0.5
				c0,0,0.5-0.4,0.5-0.4l5.6-4.5l1.7-1.4l3.9-3.1C129.6,46.1,133.4,43,133.6,43z"/>
			<polygon class="st16" points="133.5,43.1 125.7,49.3 117.8,55.6 117.8,56 125.7,50 133.5,44 			"/>
		</g>
		<g>
			<g>
				<polygon class="st16" points="133.5,43.1 117.8,55.6 117.8,56 133.5,44 				"/>
				<path class="st17" d="M117.8,55.7l15.8-12.4v1.1l-15.8,11.7C117.8,56.1,117.8,55.7,117.8,55.7z"/>
				<path class="st18" d="M117.8,55.7l15.9-12.3v1.4l-15.9,11.4C117.8,56.2,117.8,55.8,117.8,55.7z"/>
				<path class="st19" d="M117.8,55.8l16-12.1v1.6l-16,11.1C117.8,56.3,117.8,55.8,117.8,55.8z"/>
				<path class="st20" d="M117.8,55.9l16.1-12v1.8l-16.1,10.7C117.8,56.3,117.8,55.9,117.8,55.9z"/>
				<path class="st21" d="M117.8,56L134,44.1v2l-16.2,10.4C117.8,56.4,117.8,56,117.8,56z"/>
				<path class="st22" d="M117.8,56.1l16.2-11.8v2.2l-16.2,10.1C117.8,56.5,117.8,56.1,117.8,56.1z"/>
				<path class="st23" d="M117.8,56.2l16.3-11.7v2.4l-16.3,9.8C117.8,56.6,117.8,56.2,117.8,56.2z"/>
				<path class="st24" d="M117.8,56.3l16.4-11.6v2.6l-16.4,9.5C117.8,56.6,117.8,56.3,117.8,56.3z"/>
				<path class="st25" d="M117.8,56.4l16.5-11.4v2.9l-16.5,9.1C117.8,56.7,117.8,56.4,117.8,56.4z"/>
				<path class="st26" d="M117.8,56.4l16.6-11.3v3.1L117.8,57C117.8,56.8,117.8,56.5,117.8,56.4z"/>
				<path class="st27" d="M117.8,56.5l16.7-11.2v3.3l-16.7,8.5C117.8,56.9,117.8,56.6,117.8,56.5z"/>
				<path class="st28" d="M117.8,56.6l16.8-11.1V49l-16.8,8.2C117.8,57,117.8,56.7,117.8,56.6z"/>
				<path class="st29" d="M117.8,56.7l16.9-11v3.7l-16.9,7.8C117.8,57,117.8,56.8,117.8,56.7z"/>
				<path class="st30" d="M117.8,56.8l17-10.9v3.9l-17,7.5C117.8,57.1,117.8,56.9,117.8,56.8z"/>
				<path class="st31" d="M117.8,56.9l17.1-10.7v4.1l-17.1,7.2C117.8,57.2,117.8,57,117.8,56.9z"/>
				<path class="st5" d="M117.8,57L135,46.3v4.3l-17.2,6.9C117.8,57.3,117.8,57,117.8,57z"/>
			</g>
			<g>
				<path class="st5" d="M117.8,67.7c0,0.5,0.1,0.9,0.4,1.2l5.9,5l5.9,5c0,0,2.2,2.3,4.8,2.3c-0.3,0-1.7-0.9-1.7-0.9l-7.6-6.3
					L117.8,67.7z"/>
				<path class="st32" d="M117.8,67.7l7.6,6.3l0.3,0.3l7.2,6c0,0,0.4,0.3,0.9,0.5c0.3,0.2,0.7,0.4,0.8,0.4c-2.4,0-4.8-2.4-4.8-2.4
					l-4.1-3.5l-1.8-1.5l-5.9-5c-0.2-0.2-0.3-0.4-0.3-0.6C117.8,68.1,117.8,67.9,117.8,67.7z"/>
				<path class="st33" d="M117.8,67.7l7.6,6.3l0.3,0.3l7.2,6c0,0,0.5,0.3,0.9,0.5c0.3,0.2,0.6,0.4,0.8,0.4c-2.3,0-4.7-2.4-4.7-2.4
					l-4-3.4l-1.8-1.5l-5.8-4.9c-0.1-0.1-0.3-0.4-0.3-0.6C117.8,68.1,117.8,67.9,117.8,67.7z"/>
				<path class="st34" d="M117.8,67.7l7.6,6.2l0.3,0.3l7.2,5.9c0,0,0.5,0.3,0.8,0.5c0.3,0.2,0.6,0.5,0.7,0.5c-2.1,0-4.6-2.5-4.6-2.5
					l-4-3.4l-1.8-1.5l-5.8-4.9c-0.1-0.1-0.3-0.4-0.4-0.6C117.8,68.1,117.8,67.8,117.8,67.7z"/>
				<path class="st35" d="M117.8,67.7l7.6,6.2l0.3,0.3l7.2,5.9c0,0,0.5,0.3,0.8,0.5c0.3,0.1,0.5,0.5,0.6,0.5c-2,0-4.6-2.5-4.6-2.5
					l-4-3.4l-1.8-1.5l-5.8-4.9c-0.1-0.1-0.3-0.4-0.4-0.6C117.8,68.1,117.8,67.8,117.8,67.7z"/>
				<path class="st36" d="M117.8,67.7l7.6,6.1l0.3,0.3l7.2,5.9c0,0,0.5,0.4,0.8,0.5c0.2,0.1,0.5,0.5,0.6,0.5c-1.8,0-4.5-2.6-4.5-2.6
					l-4-3.4l-1.8-1.5l-5.8-4.8c-0.1-0.1-0.4-0.4-0.4-0.6C117.8,68.1,117.8,67.8,117.8,67.7z"/>
				<path class="st37" d="M117.8,67.7l7.6,6.1l0.3,0.3l7.2,5.8c0,0,0.5,0.4,0.8,0.5c0.2,0.1,0.5,0.6,0.5,0.6c-1.6,0-4.5-2.6-4.5-2.6
					l-4-3.3l-1.8-1.5l-5.8-4.8c-0.1-0.1-0.4-0.4-0.4-0.6C117.8,68.1,117.8,67.8,117.8,67.7z"/>
				<path class="st38" d="M117.8,67.6l7.5,6.1l0.3,0.3l7.2,5.8c0,0,0.6,0.4,0.8,0.5c0.2,0.1,0.4,0.6,0.5,0.6c-1.5,0-4.4-2.7-4.4-2.7
					l-4-3.3l-1.8-1.5l-5.7-4.8c-0.1-0.1-0.4-0.4-0.4-0.6C117.8,68.1,117.8,67.7,117.8,67.6z"/>
				<path class="st39" d="M117.8,67.6l7.5,6l0.3,0.3l7.2,5.7c0,0,0.6,0.4,0.8,0.5c0.2,0.1,0.4,0.7,0.4,0.7c-1.3,0-4.4-2.7-4.4-2.7
					l-4-3.3l-1.8-1.5l-5.7-4.7c-0.1-0.1-0.4-0.4-0.4-0.5C117.8,68,117.8,67.7,117.8,67.6z"/>
				<path class="st40" d="M117.8,67.6l7.5,6l0.3,0.3l7.2,5.7c0,0,0.6,0.4,0.8,0.5c0.2,0.1,0.3,0.7,0.4,0.7c-1.1,0-4.3-2.8-4.3-2.8
					l-4-3.3l-1.8-1.4l-5.7-4.7c-0.1-0.1-0.4-0.4-0.4-0.5C117.8,68,117.8,67.7,117.8,67.6z"/>
				<path class="st41" d="M117.8,67.6l7.5,6l0.4,0.3l7.2,5.7c0,0,0.6,0.4,0.8,0.5c0.1,0.1,0.3,0.7,0.3,0.7c-1,0-4.3-2.8-4.3-2.8
					l-3.9-3.2l-1.8-1.4l-5.7-4.7c-0.1-0.1-0.4-0.4-0.5-0.5C117.8,68,117.8,67.7,117.8,67.6z"/>
				<path class="st42" d="M117.8,67.6l7.5,5.9l0.4,0.3l7.2,5.6c0,0,0.6,0.5,0.8,0.5c0.1,0.1,0.2,0.8,0.3,0.8c-0.8,0-4.2-2.9-4.2-2.9
					l-3.9-3.2l-1.7-1.4l-5.7-4.6c-0.1-0.1-0.5-0.4-0.5-0.5C117.8,68,117.8,67.7,117.8,67.6z"/>
				<path class="st43" d="M117.8,67.6l7.5,5.9l0.4,0.3l7.1,5.6c0,0,0.7,0.5,0.8,0.5c0.1,0,0.2,0.8,0.2,0.8c-0.7,0-4.2-3-4.2-3
					l-3.9-3.2l-1.7-1.4l-5.6-4.6c0,0-0.5-0.4-0.5-0.5C117.8,68,117.8,67.6,117.8,67.6z"/>
				<path class="st44" d="M117.8,67.6l7.5,5.8l0.4,0.3l7.1,5.6c0,0,0.7,0.5,0.8,0.5c0.1,0,0.1,0.8,0.2,0.8c-0.5,0-4.1-3-4.1-3
					l-3.9-3.2l-1.7-1.4l-5.6-4.5c0,0-0.5-0.4-0.5-0.5C117.8,68,117.8,67.6,117.8,67.6z"/>
				<path class="st45" d="M117.8,67.6l7.5,5.8l0.4,0.3l7.1,5.5c0,0,0.7,0.5,0.7,0.6c0,0,0.1,0.9,0.1,0.9c-0.3,0-4.1-3.1-4.1-3.1
					l-3.9-3.1L124,73l-5.6-4.5c0,0-0.5-0.4-0.5-0.5C117.8,68,117.8,67.6,117.8,67.6z"/>
				<path class="st46" d="M117.8,67.5l7.5,5.8l0.4,0.3l7.1,5.5c0,0,0.7,0.5,0.7,0.6c0,0,0,0.9,0.1,0.9c-0.2,0-4-3.1-4-3.1l-3.9-3.1
					l-1.7-1.4l-5.6-4.5c0,0-0.5-0.4-0.5-0.4C117.8,68,117.8,67.6,117.8,67.5z"/>
				<polygon class="st47" points="133.5,80.5 125.7,74.2 117.8,68 117.8,67.5 125.7,73.5 133.5,79.6 				"/>
				<path class="st46" d="M133.6,80.2l-15.8-12.3c0,0,0-0.5,0-0.5l15.8,11.6V80.2z"/>
				<path class="st45" d="M133.7,79.9l-15.9-12c0,0,0-0.4,0-0.5l15.9,11.2V79.9z"/>
				<path class="st44" d="M133.8,79.6l-16-11.8c0,0,0-0.4,0-0.5l16,10.9V79.6z"/>
				<path class="st43" d="M133.9,79.3l-16.1-11.6c0,0,0-0.4,0-0.5l16.1,10.5V79.3z"/>
				<path class="st42" d="M134,79l-16.2-11.4c0,0,0-0.4,0-0.5L134,77.2V79z"/>
				<path class="st41" d="M134.1,78.7l-16.2-11.2c0,0,0-0.4,0-0.5l16.2,9.7V78.7z"/>
				<path class="st40" d="M134.2,78.4l-16.3-10.9c0,0,0-0.4,0-0.5l16.3,9.3V78.4z"/>
				<path class="st39" d="M134.3,78.1l-16.4-10.7c0,0,0-0.4,0-0.6l16.4,8.9V78.1z"/>
				<path class="st38" d="M134.4,77.7l-16.5-10.5c0,0,0-0.3,0-0.6l16.5,8.5V77.7z"/>
				<path class="st37" d="M134.5,77.4l-16.6-10.3c0,0,0-0.3,0-0.6l16.6,8.1V77.4z"/>
				<path class="st36" d="M134.6,77.1l-16.7-10c0,0,0-0.3,0-0.6l16.7,7.8V77.1z"/>
				<path class="st35" d="M134.6,76.8L117.8,67c0,0,0-0.3,0-0.6l16.8,7.4V76.8z"/>
				<path class="st34" d="M134.7,76.5l-16.9-9.6c0,0,0-0.3,0-0.6l16.9,7V76.5z"/>
				<path class="st33" d="M134.8,76.2l-17-9.4c0,0,0-0.3,0-0.6l17,6.6V76.2z"/>
				<path class="st32" d="M134.9,75.9l-17.1-9.2c0,0,0-0.3,0-0.6l17.1,6.2V75.9z"/>
				<path class="st5" d="M135,75.6l-17.2-8.9c0,0,0-0.2,0-0.6l17.2,5.8V75.6z"/>
			</g>
		</g>
		<polygon class="st5" points="117.8,66.8 135,73.2 135,51.1 117.8,57.3 		"/>
		
			<linearGradient id="SVGID_3_" gradientUnits="userSpaceOnUse" x1="-275.8116" y1="42.1818" x2="-275.8116" y2="81.1984" gradientTransform="matrix(-1 0 0 1 -130.0811 0)">
			<stop  offset="0" style="stop-color:#F9A427"/>
			<stop  offset="2.956228e-03" style="stop-color:#F9AA31"/>
			<stop  offset="1.563922e-02" style="stop-color:#FBBF58"/>
			<stop  offset="2.729018e-02" style="stop-color:#FCCF75"/>
			<stop  offset="3.743588e-02" style="stop-color:#FDD986"/>
			<stop  offset="4.494400e-02" style="stop-color:#FDDC8C"/>
			<stop  offset="7.353818e-02" style="stop-color:#FCC969"/>
			<stop  offset="0.1035" style="stop-color:#FAB94C"/>
			<stop  offset="0.1333" style="stop-color:#FAAD38"/>
			<stop  offset="0.1627" style="stop-color:#F9A62B"/>
			<stop  offset="0.191" style="stop-color:#F9A427"/>
			<stop  offset="0.7809" style="stop-color:#F9A427"/>
			<stop  offset="0.8201" style="stop-color:#F4A026"/>
			<stop  offset="0.8677" style="stop-color:#E59423"/>
			<stop  offset="0.9194" style="stop-color:#CD811E"/>
			<stop  offset="0.9663" style="stop-color:#B06A18"/>
			<stop  offset="1" style="stop-color:#F9A427"/>
		</linearGradient>
		<path class="st48" d="M132.6,79.1c0,1.2,1,2.2,2.2,2.2h22c1.2,0,2.2-1,2.2-2.2V44.4c0-1.2-1-2.2-2.2-2.2h-22c-1.2,0-2.2,1-2.2,2.2
			V79.1z"/>
		<g>
			
				<linearGradient id="SVGID_4_" gradientUnits="userSpaceOnUse" x1="-296.1958" y1="46.5677" x2="-296.1958" y2="51.6343" gradientTransform="matrix(-1 0 0 1 -130.0811 0)">
				<stop  offset="0" style="stop-color:#242123"/>
				<stop  offset="2.855780e-02" style="stop-color:#393739"/>
				<stop  offset="8.611478e-02" style="stop-color:#5F5E60"/>
				<stop  offset="0.139" style="stop-color:#7B7A7D"/>
				<stop  offset="0.185" style="stop-color:#8B8B8E"/>
				<stop  offset="0.2191" style="stop-color:#919194"/>
				<stop  offset="0.307" style="stop-color:#7C7B7E"/>
				<stop  offset="0.4841" style="stop-color:#565457"/>
				<stop  offset="0.6468" style="stop-color:#3A383A"/>
				<stop  offset="0.7884" style="stop-color:#2A2729"/>
				<stop  offset="0.8933" style="stop-color:#242123"/>
				<stop  offset="1" style="stop-color:#797A7D"/>
			</linearGradient>
			<rect x="162.7" y="46.5" class="st49" width="6.9" height="5.1"/>
			<g>
				<ellipse class="st50" cx="178.3" cy="49.1" rx="2.5" ry="2.5"/>
				<ellipse class="st51" cx="178.3" cy="49.1" rx="2.5" ry="2.5"/>
				<ellipse class="st52" cx="178.3" cy="49" rx="2.4" ry="2.4"/>
				<ellipse class="st53" cx="178.3" cy="49" rx="2.4" ry="2.3"/>
				<ellipse class="st54" cx="178.4" cy="49" rx="2.3" ry="2.3"/>
				<ellipse class="st55" cx="178.4" cy="49" rx="2.2" ry="2.2"/>
				<ellipse class="st56" cx="178.4" cy="49" rx="2.2" ry="2.2"/>
				<ellipse class="st57" cx="178.4" cy="48.9" rx="2.1" ry="2.1"/>
				<ellipse class="st58" cx="178.5" cy="48.9" rx="2.1" ry="2.1"/>
				<ellipse class="st59" cx="178.5" cy="48.9" rx="2" ry="2"/>
				<ellipse class="st60" cx="178.5" cy="48.9" rx="2" ry="2"/>
				<ellipse class="st61" cx="178.5" cy="48.9" rx="1.9" ry="1.9"/>
				<ellipse class="st62" cx="178.5" cy="48.8" rx="1.9" ry="1.9"/>
				<ellipse class="st63" cx="178.6" cy="48.8" rx="1.8" ry="1.8"/>
				<ellipse class="st64" cx="178.6" cy="48.8" rx="1.8" ry="1.7"/>
				<ellipse class="st65" cx="178.6" cy="48.8" rx="1.7" ry="1.7"/>
				<ellipse class="st66" cx="178.6" cy="48.7" rx="1.6" ry="1.6"/>
				<ellipse class="st63" cx="178.6" cy="48.7" rx="1.6" ry="1.6"/>
				<ellipse class="st67" cx="178.7" cy="48.7" rx="1.5" ry="1.5"/>
				<ellipse class="st68" cx="178.7" cy="48.6" rx="1.5" ry="1.5"/>
				<ellipse class="st69" cx="178.7" cy="48.6" rx="1.4" ry="1.4"/>
				<ellipse class="st70" cx="178.7" cy="48.6" rx="1.3" ry="1.3"/>
				<ellipse class="st71" cx="178.7" cy="48.5" rx="1.3" ry="1.3"/>
				<ellipse class="st72" cx="178.7" cy="48.5" rx="1.2" ry="1.2"/>
				<ellipse class="st73" cx="178.7" cy="48.5" rx="1.1" ry="1.1"/>
				<ellipse class="st74" cx="178.7" cy="48.4" rx="1.1" ry="1.1"/>
				<ellipse class="st75" cx="178.8" cy="48.4" rx="1" ry="1"/>
				<ellipse class="st76" cx="178.8" cy="48.4" rx="0.9" ry="0.9"/>
				<ellipse class="st77" cx="178.8" cy="48.3" rx="0.9" ry="0.9"/>
				<ellipse class="st78" cx="178.8" cy="48.3" rx="0.8" ry="0.8"/>
				<ellipse class="st79" cx="178.8" cy="48.2" rx="0.8" ry="0.8"/>
				<ellipse class="st80" cx="178.8" cy="48.2" rx="0.7" ry="0.7"/>
				<ellipse class="st81" cx="178.8" cy="48.2" rx="0.6" ry="0.6"/>
			</g>
			
				<linearGradient id="SVGID_5_" gradientUnits="userSpaceOnUse" x1="-303.9788" y1="46.6216" x2="-303.9788" y2="51.5801" gradientTransform="matrix(-1 0 0 1 -130.0811 0)">
				<stop  offset="0" style="stop-color:#B2B3B6"/>
				<stop  offset="4.965897e-02" style="stop-color:#CCCCCE"/>
				<stop  offset="0.1168" style="stop-color:#E8E8E9"/>
				<stop  offset="0.1756" style="stop-color:#F9F9F9"/>
				<stop  offset="0.2191" style="stop-color:#FFFFFF"/>
				<stop  offset="0.2875" style="stop-color:#EAEAEB"/>
				<stop  offset="0.4314" style="stop-color:#C3C3C5"/>
				<stop  offset="0.5637" style="stop-color:#A6A7A9"/>
				<stop  offset="0.6788" style="stop-color:#959699"/>
				<stop  offset="0.764" style="stop-color:#8F9093"/>
				<stop  offset="0.8278" style="stop-color:#939497"/>
				<stop  offset="0.897" style="stop-color:#A0A1A4"/>
				<stop  offset="0.9685" style="stop-color:#B6B7B9"/>
				<stop  offset="1" style="stop-color:#C2C3C5"/>
			</linearGradient>
			<rect x="169.5" y="46.6" class="st82" width="8.7" height="5"/>
			
				<linearGradient id="SVGID_6_" gradientUnits="userSpaceOnUse" x1="-290.8916" y1="46.381" x2="-290.8916" y2="51.8244" gradientTransform="matrix(-1 0 0 1 -130.0811 0)">
				<stop  offset="0" style="stop-color:#242123"/>
				<stop  offset="2.855780e-02" style="stop-color:#393739"/>
				<stop  offset="8.611478e-02" style="stop-color:#5F5E60"/>
				<stop  offset="0.139" style="stop-color:#7B7A7D"/>
				<stop  offset="0.185" style="stop-color:#8B8B8E"/>
				<stop  offset="0.2191" style="stop-color:#919194"/>
				<stop  offset="0.307" style="stop-color:#7C7B7E"/>
				<stop  offset="0.4841" style="stop-color:#565457"/>
				<stop  offset="0.6468" style="stop-color:#3A383A"/>
				<stop  offset="0.7884" style="stop-color:#2A2729"/>
				<stop  offset="0.8933" style="stop-color:#242123"/>
				<stop  offset="1" style="stop-color:#797A7D"/>
			</linearGradient>
			<rect x="158.9" y="46.3" class="st83" width="3.9" height="5.5"/>
		</g>
		<g>
			
				<linearGradient id="SVGID_7_" gradientUnits="userSpaceOnUse" x1="-296.1958" y1="70.8704" x2="-296.1958" y2="75.9371" gradientTransform="matrix(-1 0 0 1 -130.0811 0)">
				<stop  offset="0" style="stop-color:#242123"/>
				<stop  offset="2.855780e-02" style="stop-color:#393739"/>
				<stop  offset="8.611478e-02" style="stop-color:#5F5E60"/>
				<stop  offset="0.139" style="stop-color:#7B7A7D"/>
				<stop  offset="0.185" style="stop-color:#8B8B8E"/>
				<stop  offset="0.2191" style="stop-color:#919194"/>
				<stop  offset="0.307" style="stop-color:#7C7B7E"/>
				<stop  offset="0.4841" style="stop-color:#565457"/>
				<stop  offset="0.6468" style="stop-color:#3A383A"/>
				<stop  offset="0.7884" style="stop-color:#2A2729"/>
				<stop  offset="0.8933" style="stop-color:#242123"/>
				<stop  offset="1" style="stop-color:#797A7D"/>
			</linearGradient>
			<rect x="162.7" y="70.8" class="st84" width="6.9" height="5.1"/>
			<g>
				<ellipse class="st50" cx="178.3" cy="73.4" rx="2.5" ry="2.5"/>
				<ellipse class="st51" cx="178.3" cy="73.4" rx="2.5" ry="2.5"/>
				<ellipse class="st52" cx="178.3" cy="73.4" rx="2.4" ry="2.4"/>
				<ellipse class="st53" cx="178.3" cy="73.3" rx="2.4" ry="2.3"/>
				<ellipse class="st54" cx="178.4" cy="73.3" rx="2.3" ry="2.3"/>
				<ellipse class="st55" cx="178.4" cy="73.3" rx="2.2" ry="2.2"/>
				<ellipse class="st56" cx="178.4" cy="73.3" rx="2.2" ry="2.2"/>
				<ellipse class="st57" cx="178.4" cy="73.2" rx="2.1" ry="2.1"/>
				<ellipse class="st58" cx="178.5" cy="73.2" rx="2.1" ry="2.1"/>
				<ellipse class="st59" cx="178.5" cy="73.2" rx="2" ry="2"/>
				<ellipse class="st60" cx="178.5" cy="73.2" rx="2" ry="2"/>
				<ellipse class="st61" cx="178.5" cy="73.2" rx="1.9" ry="1.9"/>
				<ellipse class="st62" cx="178.5" cy="73.1" rx="1.9" ry="1.9"/>
				<ellipse class="st63" cx="178.6" cy="73.1" rx="1.8" ry="1.8"/>
				<ellipse class="st64" cx="178.6" cy="73.1" rx="1.8" ry="1.7"/>
				<ellipse class="st65" cx="178.6" cy="73.1" rx="1.7" ry="1.7"/>
				<ellipse class="st66" cx="178.6" cy="73" rx="1.6" ry="1.6"/>
				<ellipse class="st63" cx="178.6" cy="73" rx="1.6" ry="1.6"/>
				<ellipse class="st67" cx="178.7" cy="73" rx="1.5" ry="1.5"/>
				<ellipse class="st68" cx="178.7" cy="72.9" rx="1.5" ry="1.5"/>
				<ellipse class="st69" cx="178.7" cy="72.9" rx="1.4" ry="1.4"/>
				<ellipse class="st70" cx="178.7" cy="72.9" rx="1.3" ry="1.3"/>
				<ellipse class="st71" cx="178.7" cy="72.8" rx="1.3" ry="1.3"/>
				<ellipse class="st72" cx="178.7" cy="72.8" rx="1.2" ry="1.2"/>
				<ellipse class="st73" cx="178.7" cy="72.8" rx="1.1" ry="1.1"/>
				<ellipse class="st74" cx="178.7" cy="72.7" rx="1.1" ry="1.1"/>
				<ellipse class="st75" cx="178.8" cy="72.7" rx="1" ry="1"/>
				<ellipse class="st76" cx="178.8" cy="72.7" rx="0.9" ry="0.9"/>
				<ellipse class="st77" cx="178.8" cy="72.6" rx="0.9" ry="0.9"/>
				<ellipse class="st78" cx="178.8" cy="72.6" rx="0.8" ry="0.8"/>
				<ellipse class="st79" cx="178.8" cy="72.5" rx="0.8" ry="0.8"/>
				<ellipse class="st80" cx="178.8" cy="72.5" rx="0.7" ry="0.7"/>
				<ellipse class="st81" cx="178.8" cy="72.5" rx="0.6" ry="0.6"/>
			</g>
			
				<linearGradient id="SVGID_8_" gradientUnits="userSpaceOnUse" x1="-303.9788" y1="70.9243" x2="-303.9788" y2="75.8828" gradientTransform="matrix(-1 0 0 1 -130.0811 0)">
				<stop  offset="0" style="stop-color:#B2B3B6"/>
				<stop  offset="4.965897e-02" style="stop-color:#CCCCCE"/>
				<stop  offset="0.1168" style="stop-color:#E8E8E9"/>
				<stop  offset="0.1756" style="stop-color:#F9F9F9"/>
				<stop  offset="0.2191" style="stop-color:#FFFFFF"/>
				<stop  offset="0.2875" style="stop-color:#EAEAEB"/>
				<stop  offset="0.4314" style="stop-color:#C3C3C5"/>
				<stop  offset="0.5637" style="stop-color:#A6A7A9"/>
				<stop  offset="0.6788" style="stop-color:#959699"/>
				<stop  offset="0.764" style="stop-color:#8F9093"/>
				<stop  offset="0.8278" style="stop-color:#939497"/>
				<stop  offset="0.897" style="stop-color:#A0A1A4"/>
				<stop  offset="0.9685" style="stop-color:#B6B7B9"/>
				<stop  offset="1" style="stop-color:#C2C3C5"/>
			</linearGradient>
			<rect x="169.5" y="70.9" class="st85" width="8.7" height="5"/>
			
				<linearGradient id="SVGID_9_" gradientUnits="userSpaceOnUse" x1="-290.8916" y1="70.6828" x2="-290.8916" y2="76.1261" gradientTransform="matrix(-1 0 0 1 -130.0811 0)">
				<stop  offset="0" style="stop-color:#242123"/>
				<stop  offset="2.855780e-02" style="stop-color:#393739"/>
				<stop  offset="8.611478e-02" style="stop-color:#5F5E60"/>
				<stop  offset="0.139" style="stop-color:#7B7A7D"/>
				<stop  offset="0.185" style="stop-color:#8B8B8E"/>
				<stop  offset="0.2191" style="stop-color:#919194"/>
				<stop  offset="0.307" style="stop-color:#7C7B7E"/>
				<stop  offset="0.4841" style="stop-color:#565457"/>
				<stop  offset="0.6468" style="stop-color:#3A383A"/>
				<stop  offset="0.7884" style="stop-color:#2A2729"/>
				<stop  offset="0.8933" style="stop-color:#242123"/>
				<stop  offset="1" style="stop-color:#797A7D"/>
			</linearGradient>
			<rect x="158.9" y="70.6" class="st86" width="3.9" height="5.5"/>
		</g>
	</g>
	<g>
		<image style="overflow:visible;" width="132" height="132" xlink:href="C3A4FC31.png"  transform="matrix(1 0 0 1 -50 37)">
		</image>
	</g>
</g>
</svg>
