<?xml version="1.0" encoding="utf-8"?>
<!-- Generator: Adobe Illustrator 21.1.0, SVG Export Plug-In . SVG Version: 6.00 Build 0)  -->
<svg version="1.1" id="Calque_1" xmlns="http://www.w3.org/2000/svg" xmlns:xlink="http://www.w3.org/1999/xlink" x="0px" y="0px"
	 viewBox="0 0 222.3 140.4" style="enable-background:new 0 0 222.3 140.4;" xml:space="preserve">
<style type="text/css">
	.st0{fill:none;stroke:#559DCC;stroke-width:8;stroke-linecap:round;stroke-linejoin:round;}
	.st1{fill:url(#SVGID_1_);}
	.st2{fill:#5FAFDC;}
	.st3{fill:#49494C;}
	.st4{fill:#B2B3B6;}
	.st5{fill:#B1B2B5;}
	.st6{fill:#B0B1B4;}
	.st7{fill:#AFB0B3;}
	.st8{fill:#AEAFB2;}
	.st9{fill:#ADAEB1;}
	.st10{fill:#ACADB0;}
	.st11{fill:#ABACAF;}
	.st12{fill:#AAABAE;}
	.st13{fill:#A9AAAD;}
	.st14{fill:#A8A9AC;}
	.st15{fill:#A7A8AB;}
	.st16{fill:#A6A7AA;}
	.st17{fill:#A5A6A9;}
	.st18{fill:#A4A5A8;}
	.st19{fill:#A3A4A7;}
	.st20{fill:#A2A3A6;}
	.st21{fill:#A1A2A5;}
	.st22{fill:#A0A1A4;}
	.st23{fill:#9FA0A3;}
	.st24{fill:#9E9FA2;}
	.st25{fill:#9D9EA1;}
	.st26{fill:#9C9DA0;}
	.st27{fill:#9B9C9F;}
	.st28{fill:#9A9B9E;}
	.st29{fill:#999A9D;}
	.st30{fill:#98999C;}
	.st31{fill:#97989B;}
	.st32{fill:#96979A;}
	.st33{fill:#959699;}
	.st34{fill:#949598;}
	.st35{fill:#939497;}
	.st36{fill:#929396;}
	.st37{fill:#919295;}
	.st38{fill:#909194;}
	.st39{fill:#8F9093;}
	.st40{fill:#969799;}
	.st41{fill:#999A9C;}
	.st42{fill:#9B9C9E;}
	.st43{fill:#9C9C9F;}
	.st44{fill:#9E9FA1;}
	.st45{fill:#9F9FA2;}
	.st46{fill:#A0A1A3;}
	.st47{fill:#A1A2A4;}
	.st48{fill:#A2A2A5;}
	.st49{fill:#A3A4A6;}
	.st50{fill:#A4A5A7;}
	.st51{fill:#A5A5A8;}
	.st52{fill:#A5A6A8;}
	.st53{fill:#A6A7A9;}
	.st54{fill:#A7A8AA;}
	.st55{fill:#A8A9AB;}
	.st56{fill:#A9AAAC;}
	.st57{fill:#AAAAAD;}
	.st58{fill:#AAABAD;}
	.st59{fill:#ABACAE;}
	.st60{fill:#ACADAF;}
	.st61{fill:#ADADB0;}
	.st62{fill:#ADAEB0;}
	.st63{fill:#AEAFB1;}
	.st64{fill:#AFB0B2;}
	.st65{fill:#B0B0B2;}
	.st66{fill:#B0B1B3;}
	.st67{fill:#B1B2B4;}
	.st68{fill:#B2B3B5;}
	.st69{fill:#B3B3B5;}
	.st70{fill:#B3B4B6;}
	.st71{fill:#B4B5B7;}
	.st72{fill:#B5B5B7;}
	.st73{fill:#B6B6B8;}
	.st74{fill:#B6B7B9;}
	.st75{fill:#B7B8BA;}
	.st76{fill:#B8B8BA;}
	.st77{fill:#B9B9BB;}
	.st78{fill:#B9BABC;}
	.st79{fill:#BABBBC;}
	.st80{fill:#BBBBBD;}
	.st81{fill:#BCBCBE;}
	.st82{fill:#BCBDBF;}
	.st83{fill:#BDBEBF;}
	.st84{fill:#BEBEC0;}
	.st85{fill:#BEBFC1;}
	.st86{fill:#BFC0C1;}
	.st87{fill:#C0C1C2;}
	.st88{fill:#C1C1C3;}
	.st89{fill:#C1C2C4;}
	.st90{fill:#C2C3C4;}
	.st91{fill:#C3C3C5;}
	.st92{fill:#C4C4C6;}
	.st93{fill:#C4C5C6;}
	.st94{fill:#C5C6C7;}
	.st95{fill:#C6C6C8;}
	.st96{fill:#C7C7C9;}
	.st97{fill:#C7C8C9;}
	.st98{fill:#C8C9CA;}
	.st99{fill:#C9C9CB;}
	.st100{fill:#CACACC;}
	.st101{fill:#CACBCC;}
	.st102{fill:#CBCCCD;}
	.st103{fill:#CCCCCE;}
	.st104{fill:#CDCDCE;}
	.st105{fill:#CDCECF;}
	.st106{fill:#CECED0;}
	.st107{fill:#CFCFD1;}
	.st108{fill:#D0D0D1;}
	.st109{fill:#D0D1D2;}
	.st110{fill:#D1D1D3;}
	.st111{fill:#D2D2D3;}
	.st112{fill:#D2D3D4;}
	.st113{fill:#D3D4D5;}
	.st114{fill:#D4D4D6;}
	.st115{fill:#D5D5D6;}
	.st116{fill:#D5D6D7;}
	.st117{fill:#D6D7D8;}
	.st118{fill:#D7D7D8;}
	.st119{fill:#D8D8D9;}
	.st120{fill:#D8D9DA;}
	.st121{fill:#D9DADB;}
	.st122{fill:#DADADB;}
	.st123{fill:#DBDBDC;}
	.st124{fill:#DBDCDD;}
	.st125{fill:#DCDCDD;}
	.st126{fill:#DDDDDE;}
	.st127{fill:#DEDEDF;}
	.st128{fill:#DEDFE0;}
	.st129{fill:#DFDFE0;}
	.st130{fill:#E0E0E1;}
	.st131{fill:#E1E1E2;}
	.st132{fill:#E1E2E2;}
	.st133{fill:#E2E2E3;}
	.st134{fill:#E3E3E4;}
	.st135{fill:#E4E4E5;}
	.st136{fill:#E4E5E5;}
	.st137{fill:#E5E5E6;}
	.st138{fill:#E6E6E7;}
	.st139{fill:#E7E7E7;}
	.st140{fill:#E7E7E8;}
	.st141{fill:#E8E8E9;}
	.st142{fill:#E9E9EA;}
	.st143{fill:#E9EAEA;}
	.st144{fill:#EAEAEB;}
	.st145{fill:#EBEBEC;}
	.st146{fill:#ECECEC;}
	.st147{fill:#ECEDED;}
	.st148{fill:#EDEDEE;}
	.st149{fill:#EEEEEF;}
	.st150{fill:#EFEFEF;}
	.st151{fill:#EFF0F0;}
	.st152{fill:#F0F0F1;}
	.st153{fill:#F1F1F1;}
	.st154{fill:#F2F2F2;}
	.st155{fill:#F2F3F3;}
	.st156{fill:#F3F3F4;}
	.st157{fill:#F4F4F4;}
	.st158{fill:#F5F5F5;}
	.st159{fill:#F5F5F6;}
	.st160{fill:#F6F6F6;}
	.st161{fill:#F7F7F7;}
	.st162{fill:#F8F8F8;}
	.st163{fill:#F8F8F9;}
	.st164{fill:#F9F9F9;}
	.st165{fill:#FAFAFA;}
	.st166{fill:#FBFBFB;}
	.st167{fill:#FCFCFC;}
	.st168{fill:#FDFDFD;}
	.st169{fill:#FEFEFE;}
	.st170{fill:#FFFFFF;}
	.st171{fill:#100B10;}
	.st172{fill:#B9BABB;}
	.st173{fill:#D5D5D7;}
	.st174{fill:#F1F1F2;}
</style>
<g>
	<path class="st0" d="M67.7,40.4c18,0,30,7.3,34,20s-8,35.3-31.3,40.7s-40,0.3-36.7-7.9s52.7-11.5,86.7,3.2s61.3,16.7,74.7,16"/>
	<g>
		<g>
			<linearGradient id="SVGID_1_" gradientUnits="userSpaceOnUse" x1="59.5607" y1="25.0314" x2="59.5607" y2="78.3246">
				<stop  offset="0" style="stop-color:#B6CFEC"/>
				<stop  offset="0.1348" style="stop-color:#559DCC"/>
				<stop  offset="0.5674" style="stop-color:#316073"/>
				<stop  offset="0.5899" style="stop-color:#1591C6"/>
				<stop  offset="0.9663" style="stop-color:#1591C6"/>
				<stop  offset="1" style="stop-color:#2C5F73"/>
			</linearGradient>
			<path class="st1" d="M46.5,78.4h18.3L72.5,56c2.1-3.2,3.3-6.9,3.3-11c0-11.1-9-20.2-20.2-20.2H43.3L46.5,78.4z"/>
			<g>
				<polygon class="st2" points="34.2,78.4 52.5,78.4 61.9,51.3 24.8,51.3 				"/>
			</g>
			<polygon class="st3" points="28.5,49.7 37.1,74.3 49.6,74.3 58.1,49.7 			"/>
			<g>
				<path class="st4" d="M47.1,67.7h-7.3c-1.2,0-2.1,0.9-2.1,2.1c0,1.2,0.9,2.1,2.1,2.1h7.3c1.2,0,2.1-0.9,2.1-2.1
					C49.2,68.6,48.3,67.7,47.1,67.7z"/>
				<path class="st4" d="M47.1,67.7h-7.3c-1.1,0-2.1,0.9-2.1,2.1c0,1.1,0.9,2.1,2.1,2.1h7.3c1.1,0,2.1-0.9,2.1-2.1
					C49.2,68.6,48.3,67.7,47.1,67.7z"/>
				<path class="st4" d="M47.1,67.7h-7.3c-1.1,0-2.1,0.9-2.1,2.1c0,1.1,0.9,2.1,2.1,2.1h7.3c1.1,0,2.1-0.9,2.1-2.1
					C49.2,68.6,48.3,67.7,47.1,67.7z"/>
				<path class="st5" d="M47.1,67.7h-7.3c-1.1,0-2.1,0.9-2.1,2.1c0,1.1,0.9,2.1,2.1,2.1h7.3c1.1,0,2.1-0.9,2.1-2.1
					C49.2,68.6,48.3,67.7,47.1,67.7z"/>
				<path class="st5" d="M47.1,67.7h-7.3c-1.1,0-2.1,0.9-2.1,2.1c0,1.1,0.9,2.1,2.1,2.1h7.3c1.1,0,2.1-0.9,2.1-2.1
					C49.2,68.6,48.3,67.7,47.1,67.7z"/>
				<path class="st5" d="M47.1,67.7h-7.3c-1.1,0-2.1,0.9-2.1,2.1c0,1.1,0.9,2.1,2.1,2.1h7.3c1.1,0,2.1-0.9,2.1-2.1
					C49.2,68.6,48.3,67.7,47.1,67.7z"/>
				<path class="st5" d="M47.1,67.7h-7.3c-1.1,0-2.1,0.9-2.1,2.1c0,1.1,0.9,2.1,2.1,2.1h7.3c1.1,0,2.1-0.9,2.1-2.1
					C49.2,68.6,48.3,67.7,47.1,67.7z"/>
				<path class="st6" d="M47.1,67.7h-7.3c-1.1,0-2.1,0.9-2.1,2.1c0,1.1,0.9,2,2.1,2h7.3c1.1,0,2.1-0.9,2.1-2
					C49.2,68.6,48.3,67.7,47.1,67.7z"/>
				<path class="st6" d="M47.1,67.7h-7.3c-1.1,0-2,0.9-2,2c0,1.1,0.9,2,2,2h7.3c1.1,0,2-0.9,2-2C49.2,68.6,48.3,67.7,47.1,67.7z"/>
				<path class="st6" d="M47.1,67.7h-7.3c-1.1,0-2,0.9-2,2c0,1.1,0.9,2,2,2h7.3c1.1,0,2-0.9,2-2C49.2,68.6,48.3,67.7,47.1,67.7z"/>
				<path class="st6" d="M47.1,67.7h-7.3c-1.1,0-2,0.9-2,2c0,1.1,0.9,2,2,2h7.3c1.1,0,2-0.9,2-2C49.2,68.6,48.3,67.7,47.1,67.7z"/>
				<path class="st7" d="M47.1,67.7h-7.3c-1.1,0-2,0.9-2,2c0,1.1,0.9,2,2,2h7.3c1.1,0,2-0.9,2-2C49.2,68.6,48.3,67.7,47.1,67.7z"/>
				<path class="st7" d="M47.1,67.7h-7.4c-1.1,0-2,0.9-2,2c0,1.1,0.9,2,2,2h7.4c1.1,0,2-0.9,2-2C49.2,68.6,48.3,67.7,47.1,67.7z"/>
				<path class="st7" d="M47.1,67.7h-7.4c-1.1,0-2,0.9-2,2c0,1.1,0.9,2,2,2h7.4c1.1,0,2-0.9,2-2C49.2,68.6,48.3,67.7,47.1,67.7z"/>
				<path class="st7" d="M47.1,67.7h-7.4c-1.1,0-2,0.9-2,2c0,1.1,0.9,2,2,2h7.4c1.1,0,2-0.9,2-2C49.2,68.6,48.3,67.7,47.1,67.7z"/>
				<path class="st7" d="M47.2,67.7h-7.4c-1.1,0-2,0.9-2,2c0,1.1,0.9,2,2,2h7.4c1.1,0,2-0.9,2-2C49.2,68.6,48.3,67.7,47.2,67.7z"/>
				<path class="st8" d="M47.2,67.7h-7.4c-1.1,0-2,0.9-2,2c0,1.1,0.9,2,2,2h7.4c1.1,0,2-0.9,2-2C49.2,68.6,48.3,67.7,47.2,67.7z"/>
				<path class="st8" d="M47.2,67.7h-7.4c-1.1,0-2,0.9-2,2c0,1.1,0.9,2,2,2h7.4c1.1,0,2-0.9,2-2C49.2,68.6,48.3,67.7,47.2,67.7z"/>
				<path class="st8" d="M47.2,67.7h-7.4c-1.1,0-2,0.9-2,2c0,1.1,0.9,2,2,2h7.4c1.1,0,2-0.9,2-2C49.2,68.6,48.3,67.7,47.2,67.7z"/>
				<path class="st8" d="M47.2,67.7h-7.4c-1.1,0-2,0.9-2,2c0,1.1,0.9,2,2,2h7.4c1.1,0,2-0.9,2-2C49.1,68.6,48.3,67.7,47.2,67.7z"/>
				<path class="st9" d="M47.2,67.7h-7.4c-1.1,0-2,0.9-2,2c0,1.1,0.9,2,2,2h7.4c1.1,0,2-0.9,2-2C49.1,68.6,48.3,67.7,47.2,67.7z"/>
				<path class="st9" d="M47.2,67.8h-7.4c-1.1,0-2,0.9-2,2c0,1.1,0.9,2,2,2h7.4c1.1,0,2-0.9,2-2C49.1,68.6,48.3,67.8,47.2,67.8z"/>
				<path class="st9" d="M47.2,67.8h-7.4c-1.1,0-2,0.9-2,2c0,1.1,0.9,2,2,2h7.4c1.1,0,2-0.9,2-2C49.1,68.6,48.2,67.8,47.2,67.8z"/>
				<path class="st9" d="M47.2,67.8h-7.4c-1.1,0-2,0.9-2,2c0,1.1,0.9,2,2,2h7.4c1.1,0,2-0.9,2-2C49.1,68.6,48.2,67.8,47.2,67.8z"/>
				<path class="st10" d="M47.2,67.8h-7.4c-1.1,0-2,0.9-2,2c0,1.1,0.9,2,2,2h7.4c1.1,0,2-0.9,2-2C49.1,68.6,48.2,67.8,47.2,67.8z"/>
				<path class="st10" d="M47.2,67.8h-7.4c-1.1,0-2,0.9-2,2c0,1.1,0.9,2,2,2h7.4c1.1,0,2-0.9,2-2C49.1,68.6,48.2,67.8,47.2,67.8z"/>
				<path class="st10" d="M47.2,67.8h-7.4c-1.1,0-2,0.9-2,2c0,1.1,0.9,2,2,2h7.4c1.1,0,2-0.9,2-2C49.1,68.6,48.2,67.8,47.2,67.8z"/>
				<path class="st10" d="M47.2,67.8h-7.4c-1.1,0-2,0.9-2,2c0,1.1,0.9,2,2,2h7.4c1.1,0,2-0.9,2-2C49.1,68.6,48.2,67.8,47.2,67.8z"/>
				<path class="st10" d="M47.2,67.8h-7.4c-1.1,0-2,0.9-2,2c0,1.1,0.9,1.9,2,1.9h7.4c1.1,0,2-0.9,2-1.9
					C49.1,68.6,48.2,67.8,47.2,67.8z"/>
				<path class="st11" d="M47.2,67.8h-7.4c-1.1,0-2,0.9-2,1.9c0,1.1,0.9,1.9,2,1.9h7.4c1.1,0,2-0.9,2-1.9
					C49.1,68.6,48.2,67.8,47.2,67.8z"/>
				<path class="st11" d="M47.2,67.8h-7.4c-1.1,0-1.9,0.9-1.9,1.9c0,1.1,0.9,1.9,1.9,1.9h7.4c1.1,0,1.9-0.9,1.9-1.9
					C49.1,68.6,48.2,67.8,47.2,67.8z"/>
				<path class="st11" d="M47.2,67.8h-7.4c-1.1,0-1.9,0.9-1.9,1.9c0,1.1,0.9,1.9,1.9,1.9h7.4c1.1,0,1.9-0.9,1.9-1.9
					C49.1,68.6,48.2,67.8,47.2,67.8z"/>
				<path class="st11" d="M47.2,67.8h-7.4c-1.1,0-1.9,0.9-1.9,1.9c0,1.1,0.9,1.9,1.9,1.9h7.4c1.1,0,1.9-0.9,1.9-1.9
					C49.1,68.6,48.2,67.8,47.2,67.8z"/>
				<path class="st12" d="M47.2,67.8h-7.4c-1.1,0-1.9,0.9-1.9,1.9c0,1.1,0.9,1.9,1.9,1.9h7.4c1.1,0,1.9-0.9,1.9-1.9
					C49.1,68.6,48.2,67.8,47.2,67.8z"/>
				<path class="st12" d="M47.2,67.8h-7.4c-1.1,0-1.9,0.9-1.9,1.9c0,1.1,0.9,1.9,1.9,1.9h7.4c1.1,0,1.9-0.9,1.9-1.9
					C49.1,68.6,48.2,67.8,47.2,67.8z"/>
				<path class="st12" d="M47.2,67.8h-7.4c-1.1,0-1.9,0.9-1.9,1.9c0,1.1,0.9,1.9,1.9,1.9h7.4c1.1,0,1.9-0.9,1.9-1.9
					C49.1,68.6,48.2,67.8,47.2,67.8z"/>
				<path class="st12" d="M47.2,67.8h-7.4c-1.1,0-1.9,0.9-1.9,1.9c0,1.1,0.9,1.9,1.9,1.9h7.4c1.1,0,1.9-0.9,1.9-1.9
					C49.1,68.6,48.2,67.8,47.2,67.8z"/>
				<path class="st13" d="M47.2,67.8h-7.4c-1.1,0-1.9,0.9-1.9,1.9c0,1.1,0.9,1.9,1.9,1.9h7.4c1.1,0,1.9-0.9,1.9-1.9
					C49.1,68.6,48.2,67.8,47.2,67.8z"/>
				<path class="st13" d="M47.2,67.8h-7.4c-1.1,0-1.9,0.9-1.9,1.9c0,1.1,0.9,1.9,1.9,1.9h7.4c1.1,0,1.9-0.9,1.9-1.9
					C49.1,68.7,48.2,67.8,47.2,67.8z"/>
				<path class="st13" d="M47.2,67.8h-7.4c-1.1,0-1.9,0.8-1.9,1.9c0,1,0.9,1.9,1.9,1.9h7.4c1.1,0,1.9-0.8,1.9-1.9
					C49.1,68.7,48.2,67.8,47.2,67.8z"/>
				<path class="st13" d="M47.2,67.8h-7.4c-1,0-1.9,0.8-1.9,1.9c0,1,0.9,1.9,1.9,1.9h7.4c1,0,1.9-0.8,1.9-1.9
					C49.1,68.7,48.2,67.8,47.2,67.8z"/>
				<path class="st14" d="M47.2,67.8h-7.4c-1,0-1.9,0.8-1.9,1.9c0,1,0.8,1.9,1.9,1.9h7.4c1,0,1.9-0.8,1.9-1.9
					C49.1,68.7,48.2,67.8,47.2,67.8z"/>
				<path class="st14" d="M47.2,67.8h-7.4c-1,0-1.9,0.8-1.9,1.9c0,1,0.8,1.9,1.9,1.9h7.4c1,0,1.9-0.8,1.9-1.9
					C49.1,68.7,48.2,67.8,47.2,67.8z"/>
				<path class="st14" d="M47.2,67.8h-7.4c-1,0-1.9,0.8-1.9,1.9c0,1,0.8,1.9,1.9,1.9h7.4c1,0,1.9-0.8,1.9-1.9
					C49,68.7,48.2,67.8,47.2,67.8z"/>
				<path class="st14" d="M47.2,67.8h-7.4c-1,0-1.9,0.8-1.9,1.9c0,1,0.8,1.9,1.9,1.9h7.4c1,0,1.9-0.8,1.9-1.9
					C49,68.7,48.2,67.8,47.2,67.8z"/>
				<path class="st14" d="M47.2,67.8h-7.4c-1,0-1.9,0.8-1.9,1.9c0,1,0.8,1.9,1.9,1.9h7.4c1,0,1.9-0.8,1.9-1.9
					C49,68.7,48.2,67.8,47.2,67.8z"/>
				<path class="st15" d="M47.2,67.8h-7.4c-1,0-1.9,0.8-1.9,1.9c0,1,0.8,1.9,1.9,1.9h7.4c1,0,1.9-0.8,1.9-1.9
					C49,68.7,48.2,67.8,47.2,67.8z"/>
				<path class="st15" d="M47.2,67.8h-7.4c-1,0-1.9,0.8-1.9,1.9c0,1,0.8,1.9,1.9,1.9h7.4c1,0,1.9-0.8,1.9-1.9
					C49,68.7,48.2,67.8,47.2,67.8z"/>
				<path class="st15" d="M47.2,67.8h-7.4c-1,0-1.9,0.8-1.9,1.9c0,1,0.8,1.9,1.9,1.9h7.4c1,0,1.9-0.8,1.9-1.9
					C49,68.7,48.2,67.8,47.2,67.8z"/>
				<path class="st15" d="M47.2,67.8h-7.4c-1,0-1.9,0.8-1.9,1.8c0,1,0.8,1.8,1.9,1.8h7.4c1,0,1.9-0.8,1.9-1.8
					C49,68.7,48.2,67.8,47.2,67.8z"/>
				<path class="st16" d="M47.2,67.8h-7.4c-1,0-1.9,0.8-1.9,1.8c0,1,0.8,1.8,1.9,1.8h7.4c1,0,1.9-0.8,1.9-1.8
					C49,68.7,48.2,67.8,47.2,67.8z"/>
				<path class="st16" d="M47.2,67.8h-7.4c-1,0-1.8,0.8-1.8,1.8c0,1,0.8,1.8,1.8,1.8h7.4c1,0,1.8-0.8,1.8-1.8
					C49,68.7,48.2,67.8,47.2,67.8z"/>
				<path class="st16" d="M47.2,67.8h-7.4c-1,0-1.8,0.8-1.8,1.8c0,1,0.8,1.8,1.8,1.8h7.4c1,0,1.8-0.8,1.8-1.8
					C49,68.7,48.2,67.8,47.2,67.8z"/>
				<path class="st16" d="M47.2,67.8h-7.4c-1,0-1.8,0.8-1.8,1.8c0,1,0.8,1.8,1.8,1.8h7.4c1,0,1.8-0.8,1.8-1.8
					C49,68.7,48.2,67.8,47.2,67.8z"/>
				<path class="st17" d="M47.2,67.8h-7.4c-1,0-1.8,0.8-1.8,1.8c0,1,0.8,1.8,1.8,1.8h7.4c1,0,1.8-0.8,1.8-1.8
					C49,68.7,48.2,67.8,47.2,67.8z"/>
				<path class="st17" d="M47.2,67.8h-7.4c-1,0-1.8,0.8-1.8,1.8c0,1,0.8,1.8,1.8,1.8h7.4c1,0,1.8-0.8,1.8-1.8
					C49,68.7,48.2,67.8,47.2,67.8z"/>
				<path class="st17" d="M47.2,67.9h-7.4c-1,0-1.8,0.8-1.8,1.8c0,1,0.8,1.8,1.8,1.8h7.4c1,0,1.8-0.8,1.8-1.8
					C49,68.7,48.2,67.9,47.2,67.9z"/>
				<path class="st17" d="M47.2,67.9h-7.4c-1,0-1.8,0.8-1.8,1.8c0,1,0.8,1.8,1.8,1.8h7.4c1,0,1.8-0.8,1.8-1.8
					C49,68.7,48.2,67.9,47.2,67.9z"/>
				<path class="st17" d="M47.2,67.9h-7.5c-1,0-1.8,0.8-1.8,1.8c0,1,0.8,1.8,1.8,1.8h7.5c1,0,1.8-0.8,1.8-1.8
					C49,68.7,48.2,67.9,47.2,67.9z"/>
				<path class="st18" d="M47.2,67.9h-7.5c-1,0-1.8,0.8-1.8,1.8c0,1,0.8,1.8,1.8,1.8h7.5c1,0,1.8-0.8,1.8-1.8
					C49,68.7,48.2,67.9,47.2,67.9z"/>
				<path class="st18" d="M47.2,67.9h-7.5c-1,0-1.8,0.8-1.8,1.8c0,1,0.8,1.8,1.8,1.8h7.5c1,0,1.8-0.8,1.8-1.8
					C49,68.7,48.2,67.9,47.2,67.9z"/>
				<path class="st18" d="M47.2,67.9h-7.5c-1,0-1.8,0.8-1.8,1.8c0,1,0.8,1.8,1.8,1.8h7.5c1,0,1.8-0.8,1.8-1.8
					C49,68.7,48.2,67.9,47.2,67.9z"/>
				<path class="st18" d="M47.2,67.9h-7.5c-1,0-1.8,0.8-1.8,1.8c0,1,0.8,1.8,1.8,1.8h7.5c1,0,1.8-0.8,1.8-1.8
					C49,68.7,48.2,67.9,47.2,67.9z"/>
				<path class="st19" d="M47.2,67.9h-7.5c-1,0-1.8,0.8-1.8,1.8c0,1,0.8,1.8,1.8,1.8h7.5c1,0,1.8-0.8,1.8-1.8
					C49,68.7,48.2,67.9,47.2,67.9z"/>
				<path class="st19" d="M47.2,67.9h-7.5c-1,0-1.8,0.8-1.8,1.8c0,1,0.8,1.8,1.8,1.8h7.5c1,0,1.8-0.8,1.8-1.8
					C49,68.7,48.2,67.9,47.2,67.9z"/>
				<path class="st19" d="M47.2,67.9h-7.5c-1,0-1.8,0.8-1.8,1.8c0,1,0.8,1.8,1.8,1.8h7.5c1,0,1.8-0.8,1.8-1.8
					C49,68.7,48.2,67.9,47.2,67.9z"/>
				<path class="st19" d="M47.2,67.9h-7.5c-1,0-1.8,0.8-1.8,1.8c0,1,0.8,1.8,1.8,1.8h7.5c1,0,1.8-0.8,1.8-1.8
					C49,68.7,48.2,67.9,47.2,67.9z"/>
				<path class="st20" d="M47.2,67.9h-7.5c-1,0-1.8,0.8-1.8,1.8c0,1,0.8,1.8,1.8,1.8h7.5c1,0,1.8-0.8,1.8-1.8
					C48.9,68.7,48.2,67.9,47.2,67.9z"/>
				<path class="st20" d="M47.2,67.9h-7.5c-1,0-1.8,0.8-1.8,1.8c0,1,0.8,1.8,1.8,1.8h7.5c1,0,1.8-0.8,1.8-1.8
					C48.9,68.7,48.2,67.9,47.2,67.9z"/>
				<path class="st20" d="M47.2,67.9h-7.5c-1,0-1.8,0.8-1.8,1.8c0,1,0.8,1.8,1.8,1.8h7.5c1,0,1.8-0.8,1.8-1.8
					C48.9,68.7,48.1,67.9,47.2,67.9z"/>
				<path class="st20" d="M47.2,67.9h-7.5c-1,0-1.8,0.8-1.8,1.7c0,1,0.8,1.7,1.8,1.7h7.5c1,0,1.8-0.8,1.8-1.7
					C48.9,68.7,48.1,67.9,47.2,67.9z"/>
				<path class="st20" d="M47.2,67.9h-7.5c-1,0-1.8,0.8-1.8,1.7c0,1,0.8,1.7,1.8,1.7h7.5c1,0,1.8-0.8,1.8-1.7
					C48.9,68.7,48.1,67.9,47.2,67.9z"/>
				<path class="st21" d="M47.2,67.9h-7.5c-1,0-1.8,0.8-1.8,1.7c0,1,0.8,1.7,1.8,1.7h7.5c1,0,1.8-0.8,1.8-1.7
					C48.9,68.7,48.1,67.9,47.2,67.9z"/>
				<path class="st21" d="M47.2,67.9h-7.5c-1,0-1.7,0.8-1.7,1.7c0,1,0.8,1.7,1.7,1.7h7.5c1,0,1.7-0.8,1.7-1.7
					C48.9,68.7,48.1,67.9,47.2,67.9z"/>
				<path class="st21" d="M47.2,67.9h-7.5c-1,0-1.7,0.8-1.7,1.7c0,1,0.8,1.7,1.7,1.7h7.5c1,0,1.7-0.8,1.7-1.7
					C48.9,68.7,48.1,67.9,47.2,67.9z"/>
				<path class="st21" d="M47.2,67.9h-7.5c-1,0-1.7,0.8-1.7,1.7c0,1,0.8,1.7,1.7,1.7h7.5c1,0,1.7-0.8,1.7-1.7
					C48.9,68.7,48.1,67.9,47.2,67.9z"/>
				<path class="st22" d="M47.2,67.9h-7.5c-1,0-1.7,0.8-1.7,1.7c0,0.9,0.8,1.7,1.7,1.7h7.5c1,0,1.7-0.8,1.7-1.7
					C48.9,68.7,48.1,67.9,47.2,67.9z"/>
				<path class="st22" d="M47.2,67.9h-7.5c-1,0-1.7,0.8-1.7,1.7c0,0.9,0.8,1.7,1.7,1.7h7.5c1,0,1.7-0.8,1.7-1.7
					C48.9,68.7,48.1,67.9,47.2,67.9z"/>
				<path class="st22" d="M47.2,67.9h-7.5c-1,0-1.7,0.8-1.7,1.7c0,0.9,0.8,1.7,1.7,1.7h7.5c1,0,1.7-0.8,1.7-1.7
					C48.9,68.7,48.1,67.9,47.2,67.9z"/>
				<path class="st22" d="M47.2,67.9h-7.5c-0.9,0-1.7,0.8-1.7,1.7c0,0.9,0.8,1.7,1.7,1.7h7.5c0.9,0,1.7-0.8,1.7-1.7
					C48.9,68.7,48.1,67.9,47.2,67.9z"/>
				<path class="st23" d="M47.2,67.9h-7.5c-0.9,0-1.7,0.8-1.7,1.7c0,0.9,0.8,1.7,1.7,1.7h7.5c0.9,0,1.7-0.8,1.7-1.7
					C48.9,68.7,48.1,67.9,47.2,67.9z"/>
				<path class="st23" d="M47.2,67.9h-7.5c-0.9,0-1.7,0.8-1.7,1.7c0,0.9,0.8,1.7,1.7,1.7h7.5c0.9,0,1.7-0.8,1.7-1.7
					C48.9,68.7,48.1,67.9,47.2,67.9z"/>
				<path class="st23" d="M47.2,67.9h-7.5c-0.9,0-1.7,0.8-1.7,1.7c0,0.9,0.8,1.7,1.7,1.7h7.5c0.9,0,1.7-0.8,1.7-1.7
					C48.9,68.7,48.1,67.9,47.2,67.9z"/>
				<path class="st23" d="M47.2,67.9h-7.5c-0.9,0-1.7,0.8-1.7,1.7c0,0.9,0.8,1.7,1.7,1.7h7.5c0.9,0,1.7-0.8,1.7-1.7
					C48.9,68.7,48.1,67.9,47.2,67.9z"/>
				<path class="st23" d="M47.2,67.9h-7.5c-0.9,0-1.7,0.8-1.7,1.7c0,0.9,0.8,1.7,1.7,1.7h7.5c0.9,0,1.7-0.8,1.7-1.7
					C48.9,68.7,48.1,67.9,47.2,67.9z"/>
				<path class="st24" d="M47.2,67.9h-7.5c-0.9,0-1.7,0.8-1.7,1.7c0,0.9,0.8,1.7,1.7,1.7h7.5c0.9,0,1.7-0.8,1.7-1.7
					C48.9,68.7,48.1,67.9,47.2,67.9z"/>
				<path class="st24" d="M47.2,67.9h-7.5c-0.9,0-1.7,0.7-1.7,1.7c0,0.9,0.8,1.7,1.7,1.7h7.5c0.9,0,1.7-0.7,1.7-1.7
					C48.9,68.7,48.1,67.9,47.2,67.9z"/>
				<path class="st24" d="M47.2,67.9h-7.5c-0.9,0-1.7,0.7-1.7,1.7c0,0.9,0.8,1.7,1.7,1.7h7.5c0.9,0,1.7-0.7,1.7-1.7
					C48.9,68.7,48.1,67.9,47.2,67.9z"/>
				<path class="st24" d="M47.2,67.9h-7.5c-0.9,0-1.7,0.7-1.7,1.7c0,0.9,0.8,1.7,1.7,1.7h7.5c0.9,0,1.7-0.7,1.7-1.7
					C48.9,68.7,48.1,67.9,47.2,67.9z"/>
				<path class="st25" d="M47.2,67.9h-7.5c-0.9,0-1.7,0.7-1.7,1.7c0,0.9,0.7,1.7,1.7,1.7h7.5c0.9,0,1.7-0.7,1.7-1.7
					C48.9,68.7,48.1,67.9,47.2,67.9z"/>
				<path class="st25" d="M47.2,68h-7.5c-0.9,0-1.7,0.7-1.7,1.7c0,0.9,0.7,1.7,1.7,1.7h7.5c0.9,0,1.7-0.7,1.7-1.7
					C48.9,68.7,48.1,68,47.2,68z"/>
				<path class="st25" d="M47.2,68h-7.5c-0.9,0-1.7,0.7-1.7,1.6c0,0.9,0.7,1.6,1.7,1.6h7.5c0.9,0,1.7-0.7,1.7-1.6
					C48.8,68.7,48.1,68,47.2,68z"/>
				<path class="st25" d="M47.2,68h-7.5c-0.9,0-1.7,0.7-1.7,1.6c0,0.9,0.7,1.6,1.7,1.6h7.5c0.9,0,1.7-0.7,1.7-1.6
					C48.8,68.7,48.1,68,47.2,68z"/>
				<path class="st26" d="M47.2,68h-7.5c-0.9,0-1.7,0.7-1.7,1.6c0,0.9,0.7,1.6,1.7,1.6h7.5c0.9,0,1.7-0.7,1.7-1.6
					C48.8,68.7,48.1,68,47.2,68z"/>
				<path class="st26" d="M47.2,68h-7.5c-0.9,0-1.6,0.7-1.6,1.6c0,0.9,0.7,1.6,1.6,1.6h7.5c0.9,0,1.6-0.7,1.6-1.6
					C48.8,68.7,48.1,68,47.2,68z"/>
				<path class="st26" d="M47.2,68h-7.5c-0.9,0-1.6,0.7-1.6,1.6c0,0.9,0.7,1.6,1.6,1.6h7.5c0.9,0,1.6-0.7,1.6-1.6
					C48.8,68.7,48.1,68,47.2,68z"/>
				<path class="st26" d="M47.2,68h-7.5c-0.9,0-1.6,0.7-1.6,1.6c0,0.9,0.7,1.6,1.6,1.6h7.5c0.9,0,1.6-0.7,1.6-1.6
					C48.8,68.7,48.1,68,47.2,68z"/>
				<path class="st26" d="M47.2,68h-7.5c-0.9,0-1.6,0.7-1.6,1.6c0,0.9,0.7,1.6,1.6,1.6h7.5c0.9,0,1.6-0.7,1.6-1.6
					C48.8,68.7,48.1,68,47.2,68z"/>
				<path class="st27" d="M47.2,68h-7.5c-0.9,0-1.6,0.7-1.6,1.6c0,0.9,0.7,1.6,1.6,1.6h7.5c0.9,0,1.6-0.7,1.6-1.6
					C48.8,68.7,48.1,68,47.2,68z"/>
				<path class="st27" d="M47.2,68h-7.5c-0.9,0-1.6,0.7-1.6,1.6c0,0.9,0.7,1.6,1.6,1.6h7.5c0.9,0,1.6-0.7,1.6-1.6
					C48.8,68.7,48.1,68,47.2,68z"/>
				<path class="st27" d="M47.2,68h-7.5c-0.9,0-1.6,0.7-1.6,1.6c0,0.9,0.7,1.6,1.6,1.6h7.5c0.9,0,1.6-0.7,1.6-1.6
					C48.8,68.7,48.1,68,47.2,68z"/>
				<path class="st27" d="M47.2,68h-7.5c-0.9,0-1.6,0.7-1.6,1.6c0,0.9,0.7,1.6,1.6,1.6h7.5c0.9,0,1.6-0.7,1.6-1.6
					C48.8,68.7,48.1,68,47.2,68z"/>
				<path class="st28" d="M47.2,68h-7.5c-0.9,0-1.6,0.7-1.6,1.6c0,0.9,0.7,1.6,1.6,1.6h7.5c0.9,0,1.6-0.7,1.6-1.6
					C48.8,68.7,48.1,68,47.2,68z"/>
				<path class="st28" d="M47.2,68h-7.6c-0.9,0-1.6,0.7-1.6,1.6c0,0.9,0.7,1.6,1.6,1.6h7.6c0.9,0,1.6-0.7,1.6-1.6
					C48.8,68.7,48.1,68,47.2,68z"/>
				<path class="st28" d="M47.2,68h-7.6c-0.9,0-1.6,0.7-1.6,1.6c0,0.9,0.7,1.6,1.6,1.6h7.6c0.9,0,1.6-0.7,1.6-1.6
					C48.8,68.7,48.1,68,47.2,68z"/>
				<path class="st28" d="M47.2,68h-7.6c-0.9,0-1.6,0.7-1.6,1.6c0,0.9,0.7,1.6,1.6,1.6h7.6c0.9,0,1.6-0.7,1.6-1.6
					C48.8,68.7,48.1,68,47.2,68z"/>
				<path class="st29" d="M47.2,68h-7.6c-0.9,0-1.6,0.7-1.6,1.6c0,0.9,0.7,1.6,1.6,1.6h7.6c0.9,0,1.6-0.7,1.6-1.6
					C48.8,68.7,48.1,68,47.2,68z"/>
				<path class="st29" d="M47.2,68h-7.6c-0.9,0-1.6,0.7-1.6,1.6c0,0.9,0.7,1.6,1.6,1.6h7.6c0.9,0,1.6-0.7,1.6-1.6
					C48.8,68.7,48.1,68,47.2,68z"/>
				<path class="st29" d="M47.2,68h-7.6c-0.9,0-1.6,0.7-1.6,1.6c0,0.9,0.7,1.6,1.6,1.6h7.6c0.9,0,1.6-0.7,1.6-1.6
					C48.8,68.7,48.1,68,47.2,68z"/>
				<path class="st29" d="M47.2,68h-7.6c-0.9,0-1.6,0.7-1.6,1.6c0,0.9,0.7,1.6,1.6,1.6h7.6c0.9,0,1.6-0.7,1.6-1.6
					C48.8,68.7,48.1,68,47.2,68z"/>
				<path class="st29" d="M47.2,68h-7.6c-0.9,0-1.6,0.7-1.6,1.6c0,0.9,0.7,1.6,1.6,1.6h7.6c0.9,0,1.6-0.7,1.6-1.6
					C48.8,68.7,48.1,68,47.2,68z"/>
				<path class="st30" d="M47.2,68h-7.6c-0.9,0-1.6,0.7-1.6,1.6c0,0.9,0.7,1.6,1.6,1.6h7.6c0.9,0,1.6-0.7,1.6-1.6
					C48.8,68.7,48.1,68,47.2,68z"/>
				<path class="st30" d="M47.2,68h-7.6c-0.9,0-1.6,0.7-1.6,1.5c0,0.9,0.7,1.5,1.6,1.5h7.6c0.9,0,1.6-0.7,1.6-1.5
					C48.8,68.7,48.1,68,47.2,68z"/>
				<path class="st30" d="M47.2,68h-7.6c-0.9,0-1.6,0.7-1.6,1.5c0,0.9,0.7,1.5,1.6,1.5h7.6c0.9,0,1.6-0.7,1.6-1.5
					C48.8,68.7,48.1,68,47.2,68z"/>
				<path class="st30" d="M47.2,68h-7.6c-0.9,0-1.6,0.7-1.6,1.5c0,0.8,0.7,1.5,1.6,1.5h7.6c0.9,0,1.6-0.7,1.6-1.5
					C48.8,68.7,48.1,68,47.2,68z"/>
				<path class="st31" d="M47.2,68h-7.6c-0.9,0-1.6,0.7-1.6,1.5c0,0.8,0.7,1.5,1.6,1.5h7.6c0.9,0,1.6-0.7,1.6-1.5
					C48.7,68.7,48.1,68,47.2,68z"/>
				<path class="st31" d="M47.2,68h-7.6c-0.9,0-1.5,0.7-1.5,1.5c0,0.8,0.7,1.5,1.5,1.5h7.6c0.9,0,1.5-0.7,1.5-1.5
					C48.7,68.7,48,68,47.2,68z"/>
				<path class="st31" d="M47.2,68h-7.6c-0.9,0-1.5,0.7-1.5,1.5c0,0.8,0.7,1.5,1.5,1.5h7.6c0.9,0,1.5-0.7,1.5-1.5
					C48.7,68.7,48,68,47.2,68z"/>
				<path class="st31" d="M47.2,68h-7.6c-0.8,0-1.5,0.7-1.5,1.5c0,0.8,0.7,1.5,1.5,1.5h7.6c0.8,0,1.5-0.7,1.5-1.5
					C48.7,68.7,48,68,47.2,68z"/>
				<path class="st32" d="M47.2,68h-7.6c-0.8,0-1.5,0.7-1.5,1.5c0,0.8,0.7,1.5,1.5,1.5h7.6c0.8,0,1.5-0.7,1.5-1.5
					C48.7,68.7,48,68,47.2,68z"/>
				<path class="st32" d="M47.2,68h-7.6c-0.8,0-1.5,0.7-1.5,1.5c0,0.8,0.7,1.5,1.5,1.5h7.6c0.8,0,1.5-0.7,1.5-1.5
					C48.7,68.7,48,68,47.2,68z"/>
				<path class="st32" d="M47.2,68h-7.6c-0.8,0-1.5,0.7-1.5,1.5c0,0.8,0.7,1.5,1.5,1.5h7.6c0.8,0,1.5-0.7,1.5-1.5
					C48.7,68.7,48,68,47.2,68z"/>
				<path class="st32" d="M47.2,68h-7.6c-0.8,0-1.5,0.7-1.5,1.5c0,0.8,0.7,1.5,1.5,1.5h7.6c0.8,0,1.5-0.7,1.5-1.5
					C48.7,68.7,48,68,47.2,68z"/>
				<path class="st33" d="M47.2,68h-7.6c-0.8,0-1.5,0.7-1.5,1.5c0,0.8,0.7,1.5,1.5,1.5h7.6c0.8,0,1.5-0.7,1.5-1.5
					C48.7,68.7,48,68,47.2,68z"/>
				<path class="st33" d="M47.2,68h-7.6c-0.8,0-1.5,0.7-1.5,1.5c0,0.8,0.7,1.5,1.5,1.5h7.6c0.8,0,1.5-0.7,1.5-1.5
					C48.7,68.7,48,68,47.2,68z"/>
				<path class="st33" d="M47.2,68.1h-7.6c-0.8,0-1.5,0.7-1.5,1.5c0,0.8,0.7,1.5,1.5,1.5h7.6c0.8,0,1.5-0.7,1.5-1.5
					C48.7,68.7,48,68.1,47.2,68.1z"/>
				<path class="st33" d="M47.2,68.1h-7.6c-0.8,0-1.5,0.7-1.5,1.5c0,0.8,0.7,1.5,1.5,1.5h7.6c0.8,0,1.5-0.7,1.5-1.5
					C48.7,68.7,48,68.1,47.2,68.1z"/>
				<path class="st33" d="M47.2,68.1h-7.6c-0.8,0-1.5,0.7-1.5,1.5c0,0.8,0.7,1.5,1.5,1.5h7.6c0.8,0,1.5-0.7,1.5-1.5
					C48.7,68.7,48,68.1,47.2,68.1z"/>
				<path class="st34" d="M47.2,68.1h-7.6c-0.8,0-1.5,0.7-1.5,1.5c0,0.8,0.7,1.5,1.5,1.5h7.6c0.8,0,1.5-0.7,1.5-1.5
					C48.7,68.7,48,68.1,47.2,68.1z"/>
				<path class="st34" d="M47.2,68.1h-7.6c-0.8,0-1.5,0.7-1.5,1.5c0,0.8,0.7,1.5,1.5,1.5h7.6c0.8,0,1.5-0.7,1.5-1.5
					C48.7,68.7,48,68.1,47.2,68.1z"/>
				<path class="st34" d="M47.2,68.1h-7.6c-0.8,0-1.5,0.7-1.5,1.5c0,0.8,0.7,1.5,1.5,1.5h7.6c0.8,0,1.5-0.7,1.5-1.5
					C48.7,68.7,48,68.1,47.2,68.1z"/>
				<path class="st34" d="M47.2,68.1h-7.6c-0.8,0-1.5,0.7-1.5,1.5c0,0.8,0.7,1.5,1.5,1.5h7.6c0.8,0,1.5-0.7,1.5-1.5
					C48.7,68.7,48,68.1,47.2,68.1z"/>
				<path class="st35" d="M47.2,68.1h-7.6c-0.8,0-1.5,0.6-1.5,1.5c0,0.8,0.7,1.5,1.5,1.5h7.6c0.8,0,1.5-0.6,1.5-1.5
					C48.7,68.7,48,68.1,47.2,68.1z"/>
				<path class="st35" d="M47.2,68.1h-7.6c-0.8,0-1.5,0.6-1.5,1.4c0,0.8,0.7,1.4,1.5,1.4h7.6c0.8,0,1.5-0.6,1.5-1.4
					C48.7,68.7,48,68.1,47.2,68.1z"/>
				<path class="st35" d="M47.2,68.1h-7.6c-0.8,0-1.5,0.6-1.5,1.4c0,0.8,0.7,1.4,1.5,1.4h7.6c0.8,0,1.5-0.6,1.5-1.4
					C48.7,68.7,48,68.1,47.2,68.1z"/>
				<path class="st35" d="M47.2,68.1h-7.6c-0.8,0-1.5,0.6-1.5,1.4c0,0.8,0.7,1.4,1.5,1.4h7.6c0.8,0,1.5-0.6,1.5-1.4
					C48.7,68.7,48,68.1,47.2,68.1z"/>
				<path class="st36" d="M47.2,68.1h-7.6c-0.8,0-1.5,0.6-1.5,1.4c0,0.8,0.7,1.4,1.5,1.4h7.6c0.8,0,1.5-0.6,1.5-1.4
					C48.7,68.7,48,68.1,47.2,68.1z"/>
				<path class="st36" d="M47.2,68.1h-7.6c-0.8,0-1.4,0.6-1.4,1.4c0,0.8,0.6,1.4,1.4,1.4h7.6c0.8,0,1.4-0.6,1.4-1.4
					C48.7,68.7,48,68.1,47.2,68.1z"/>
				<path class="st36" d="M47.2,68.1h-7.6c-0.8,0-1.4,0.6-1.4,1.4c0,0.8,0.6,1.4,1.4,1.4h7.6c0.8,0,1.4-0.6,1.4-1.4
					C48.6,68.7,48,68.1,47.2,68.1z"/>
				<path class="st36" d="M47.2,68.1h-7.6c-0.8,0-1.4,0.6-1.4,1.4c0,0.8,0.6,1.4,1.4,1.4h7.6c0.8,0,1.4-0.6,1.4-1.4
					C48.6,68.7,48,68.1,47.2,68.1z"/>
				<path class="st36" d="M47.2,68.1h-7.6c-0.8,0-1.4,0.6-1.4,1.4c0,0.8,0.6,1.4,1.4,1.4h7.6c0.8,0,1.4-0.6,1.4-1.4
					C48.6,68.7,48,68.1,47.2,68.1z"/>
				<path class="st37" d="M47.2,68.1h-7.6c-0.8,0-1.4,0.6-1.4,1.4c0,0.8,0.6,1.4,1.4,1.4h7.6c0.8,0,1.4-0.6,1.4-1.4
					C48.6,68.7,48,68.1,47.2,68.1z"/>
				<path class="st37" d="M47.2,68.1h-7.6c-0.8,0-1.4,0.6-1.4,1.4c0,0.8,0.6,1.4,1.4,1.4h7.6c0.8,0,1.4-0.6,1.4-1.4
					C48.6,68.7,48,68.1,47.2,68.1z"/>
				<path class="st37" d="M47.2,68.1h-7.6c-0.8,0-1.4,0.6-1.4,1.4c0,0.8,0.6,1.4,1.4,1.4h7.6c0.8,0,1.4-0.6,1.4-1.4
					C48.6,68.7,48,68.1,47.2,68.1z"/>
				<path class="st37" d="M47.2,68.1h-7.6c-0.8,0-1.4,0.6-1.4,1.4c0,0.8,0.6,1.4,1.4,1.4h7.6c0.8,0,1.4-0.6,1.4-1.4
					C48.6,68.7,48,68.1,47.2,68.1z"/>
				<path class="st38" d="M47.2,68.1h-7.6c-0.8,0-1.4,0.6-1.4,1.4c0,0.8,0.6,1.4,1.4,1.4h7.6c0.8,0,1.4-0.6,1.4-1.4
					C48.6,68.7,48,68.1,47.2,68.1z"/>
				<path class="st38" d="M47.2,68.1h-7.6c-0.8,0-1.4,0.6-1.4,1.4c0,0.8,0.6,1.4,1.4,1.4h7.6c0.8,0,1.4-0.6,1.4-1.4
					C48.6,68.7,48,68.1,47.2,68.1z"/>
				<path class="st38" d="M47.2,68.1h-7.6c-0.8,0-1.4,0.6-1.4,1.4c0,0.8,0.6,1.4,1.4,1.4h7.6c0.8,0,1.4-0.6,1.4-1.4
					C48.6,68.7,48,68.1,47.2,68.1z"/>
				<path class="st38" d="M47.2,68.1h-7.6c-0.8,0-1.4,0.6-1.4,1.4c0,0.8,0.6,1.4,1.4,1.4h7.6c0.8,0,1.4-0.6,1.4-1.4
					C48.6,68.7,48,68.1,47.2,68.1z"/>
				<path class="st39" d="M47.2,68.1h-7.7c-0.8,0-1.4,0.6-1.4,1.4c0,0.8,0.6,1.4,1.4,1.4h7.7c0.8,0,1.4-0.6,1.4-1.4
					C48.6,68.7,48,68.1,47.2,68.1z"/>
				<path class="st39" d="M47.2,68.1h-7.7c-0.8,0-1.4,0.6-1.4,1.4c0,0.8,0.6,1.4,1.4,1.4h7.7c0.8,0,1.4-0.6,1.4-1.4
					C48.6,68.7,48,68.1,47.2,68.1z"/>
				<path class="st39" d="M47.2,68.1h-7.7c-0.8,0-1.4,0.6-1.4,1.4c0,0.8,0.6,1.4,1.4,1.4h7.7c0.8,0,1.4-0.6,1.4-1.4
					C48.6,68.7,48,68.1,47.2,68.1z"/>
				<path class="st38" d="M47.2,68.1h-7.7c-0.8,0-1.4,0.6-1.4,1.4c0,0.7,0.6,1.4,1.4,1.4h7.7c0.8,0,1.4-0.6,1.4-1.4
					C48.6,68.7,48,68.1,47.2,68.1z"/>
				<path class="st38" d="M47.2,68.1h-7.7c-0.8,0-1.4,0.6-1.4,1.3c0,0.7,0.6,1.3,1.4,1.3h7.7c0.8,0,1.4-0.6,1.4-1.3
					C48.6,68.7,48,68.1,47.2,68.1z"/>
				<path class="st37" d="M47.2,68.1h-7.7c-0.8,0-1.4,0.6-1.4,1.3c0,0.7,0.6,1.3,1.4,1.3h7.7c0.8,0,1.4-0.6,1.4-1.3
					C48.6,68.7,48,68.1,47.2,68.1z"/>
				<path class="st36" d="M47.2,68.1h-7.7c-0.8,0-1.4,0.6-1.4,1.3c0,0.7,0.6,1.3,1.4,1.3h7.7c0.8,0,1.4-0.6,1.4-1.3
					C48.6,68.7,48,68.1,47.2,68.1z"/>
				<path class="st35" d="M47.2,68.1h-7.7c-0.7,0-1.4,0.6-1.4,1.3c0,0.7,0.6,1.3,1.4,1.3h7.7c0.7,0,1.4-0.6,1.4-1.3
					C48.6,68.7,48,68.1,47.2,68.1z"/>
				<path class="st35" d="M47.2,68.1h-7.7c-0.7,0-1.3,0.6-1.3,1.3c0,0.7,0.6,1.3,1.3,1.3h7.7c0.7,0,1.3-0.6,1.3-1.3
					C48.6,68.7,48,68.1,47.2,68.1z"/>
				<path class="st34" d="M47.2,68.1h-7.7c-0.7,0-1.3,0.6-1.3,1.3c0,0.7,0.6,1.3,1.3,1.3h7.7c0.7,0,1.3-0.6,1.3-1.3
					C48.6,68.7,48,68.1,47.2,68.1z"/>
				<path class="st33" d="M47.2,68.1h-7.7c-0.7,0-1.3,0.6-1.3,1.3c0,0.7,0.6,1.3,1.3,1.3h7.7c0.7,0,1.3-0.6,1.3-1.3
					C48.6,68.7,48,68.1,47.2,68.1z"/>
				<path class="st40" d="M47.2,68.1h-7.7c-0.7,0-1.3,0.6-1.3,1.3c0,0.7,0.6,1.3,1.3,1.3h7.7c0.7,0,1.3-0.6,1.3-1.3
					C48.5,68.7,48,68.1,47.2,68.1z"/>
				<path class="st32" d="M47.2,68.2h-7.7c-0.7,0-1.3,0.6-1.3,1.3c0,0.7,0.6,1.3,1.3,1.3h7.7c0.7,0,1.3-0.6,1.3-1.3
					C48.5,68.7,48,68.2,47.2,68.2z"/>
				<path class="st31" d="M47.2,68.2h-7.7c-0.7,0-1.3,0.6-1.3,1.3c0,0.7,0.6,1.3,1.3,1.3h7.7c0.7,0,1.3-0.6,1.3-1.3
					C48.5,68.7,47.9,68.2,47.2,68.2z"/>
				<path class="st30" d="M47.2,68.2h-7.7c-0.7,0-1.3,0.6-1.3,1.3c0,0.7,0.6,1.3,1.3,1.3h7.7c0.7,0,1.3-0.6,1.3-1.3
					C48.5,68.7,47.9,68.2,47.2,68.2z"/>
				<path class="st41" d="M47.2,68.2h-7.7c-0.7,0-1.3,0.6-1.3,1.3c0,0.7,0.6,1.3,1.3,1.3h7.7c0.7,0,1.3-0.6,1.3-1.3
					C48.5,68.7,47.9,68.2,47.2,68.2z"/>
				<path class="st29" d="M47.2,68.2h-7.7c-0.7,0-1.3,0.6-1.3,1.3c0,0.7,0.6,1.3,1.3,1.3h7.7c0.7,0,1.3-0.6,1.3-1.3
					C48.5,68.7,47.9,68.2,47.2,68.2z"/>
				<path class="st28" d="M47.2,68.2h-7.7c-0.7,0-1.3,0.6-1.3,1.3c0,0.7,0.6,1.3,1.3,1.3h7.7c0.7,0,1.3-0.6,1.3-1.3
					C48.5,68.7,47.9,68.2,47.2,68.2z"/>
				<path class="st42" d="M47.2,68.2h-7.7c-0.7,0-1.3,0.6-1.3,1.3c0,0.7,0.6,1.3,1.3,1.3h7.7c0.7,0,1.3-0.6,1.3-1.3
					C48.5,68.7,47.9,68.2,47.2,68.2z"/>
				<path class="st43" d="M47.2,68.2h-7.7c-0.7,0-1.3,0.6-1.3,1.3c0,0.7,0.6,1.3,1.3,1.3h7.7c0.7,0,1.3-0.6,1.3-1.3
					C48.5,68.7,47.9,68.2,47.2,68.2z"/>
				<path class="st26" d="M47.2,68.2h-7.7c-0.7,0-1.3,0.6-1.3,1.3c0,0.7,0.6,1.3,1.3,1.3h7.7c0.7,0,1.3-0.6,1.3-1.3
					C48.5,68.7,47.9,68.2,47.2,68.2z"/>
				<path class="st25" d="M47.2,68.2h-7.7c-0.7,0-1.3,0.6-1.3,1.3c0,0.7,0.6,1.3,1.3,1.3h7.7c0.7,0,1.3-0.6,1.3-1.3
					C48.5,68.7,47.9,68.2,47.2,68.2z"/>
				<path class="st44" d="M47.2,68.2h-7.7c-0.7,0-1.3,0.6-1.3,1.2c0,0.7,0.6,1.2,1.3,1.2h7.7c0.7,0,1.3-0.6,1.3-1.2
					C48.5,68.7,47.9,68.2,47.2,68.2z"/>
				<path class="st45" d="M47.2,68.2h-7.7c-0.7,0-1.3,0.6-1.3,1.2c0,0.7,0.6,1.2,1.3,1.2h7.7c0.7,0,1.3-0.6,1.3-1.2
					C48.5,68.7,47.9,68.2,47.2,68.2z"/>
				<path class="st23" d="M47.2,68.2h-7.7c-0.7,0-1.3,0.6-1.3,1.2c0,0.7,0.6,1.2,1.3,1.2h7.7c0.7,0,1.3-0.6,1.3-1.2
					C48.5,68.7,47.9,68.2,47.2,68.2z"/>
				<path class="st46" d="M47.2,68.2h-7.7c-0.7,0-1.3,0.6-1.3,1.2c0,0.7,0.6,1.2,1.3,1.2h7.7c0.7,0,1.3-0.6,1.3-1.2
					C48.5,68.7,47.9,68.2,47.2,68.2z"/>
				<path class="st47" d="M47.2,68.2h-7.7c-0.7,0-1.2,0.5-1.2,1.2c0,0.7,0.6,1.2,1.2,1.2h7.7c0.7,0,1.2-0.5,1.2-1.2
					C48.5,68.7,47.9,68.2,47.2,68.2z"/>
				<path class="st48" d="M47.2,68.2h-7.7c-0.7,0-1.2,0.5-1.2,1.2c0,0.7,0.6,1.2,1.2,1.2h7.7c0.7,0,1.2-0.5,1.2-1.2
					C48.5,68.7,47.9,68.2,47.2,68.2z"/>
				<path class="st20" d="M47.2,68.2h-7.7c-0.7,0-1.2,0.5-1.2,1.2c0,0.7,0.6,1.2,1.2,1.2h7.7c0.7,0,1.2-0.5,1.2-1.2
					C48.5,68.7,47.9,68.2,47.2,68.2z"/>
				<path class="st49" d="M47.2,68.2h-7.7c-0.7,0-1.2,0.5-1.2,1.2c0,0.7,0.6,1.2,1.2,1.2h7.7c0.7,0,1.2-0.5,1.2-1.2
					C48.5,68.7,47.9,68.2,47.2,68.2z"/>
				<path class="st50" d="M47.2,68.2h-7.7c-0.7,0-1.2,0.5-1.2,1.2c0,0.7,0.5,1.2,1.2,1.2h7.7c0.7,0,1.2-0.5,1.2-1.2
					C48.5,68.7,47.9,68.2,47.2,68.2z"/>
				<path class="st51" d="M47.2,68.2h-7.7c-0.7,0-1.2,0.5-1.2,1.2c0,0.7,0.5,1.2,1.2,1.2h7.7c0.7,0,1.2-0.5,1.2-1.2
					C48.4,68.7,47.9,68.2,47.2,68.2z"/>
				<path class="st52" d="M47.2,68.2h-7.7c-0.7,0-1.2,0.5-1.2,1.2c0,0.7,0.5,1.2,1.2,1.2h7.7c0.7,0,1.2-0.5,1.2-1.2
					C48.4,68.7,47.9,68.2,47.2,68.2z"/>
				<path class="st53" d="M47.2,68.2h-7.7c-0.7,0-1.2,0.5-1.2,1.2c0,0.7,0.5,1.2,1.2,1.2h7.7c0.7,0,1.2-0.5,1.2-1.2
					C48.4,68.7,47.9,68.2,47.2,68.2z"/>
				<path class="st54" d="M47.2,68.2h-7.7c-0.7,0-1.2,0.5-1.2,1.2c0,0.7,0.5,1.2,1.2,1.2h7.7c0.7,0,1.2-0.5,1.2-1.2
					C48.4,68.7,47.9,68.2,47.2,68.2z"/>
				<path class="st15" d="M47.2,68.2h-7.7c-0.7,0-1.2,0.5-1.2,1.2c0,0.6,0.5,1.2,1.2,1.2h7.7c0.7,0,1.2-0.5,1.2-1.2
					C48.4,68.7,47.9,68.2,47.2,68.2z"/>
				<path class="st55" d="M47.2,68.2h-7.7c-0.7,0-1.2,0.5-1.2,1.2c0,0.6,0.5,1.2,1.2,1.2h7.7c0.7,0,1.2-0.5,1.2-1.2
					C48.4,68.7,47.9,68.2,47.2,68.2z"/>
				<path class="st56" d="M47.2,68.2h-7.7c-0.7,0-1.2,0.5-1.2,1.2c0,0.6,0.5,1.2,1.2,1.2h7.7c0.7,0,1.2-0.5,1.2-1.2
					C48.4,68.7,47.9,68.2,47.2,68.2z"/>
				<path class="st57" d="M47.2,68.2h-7.7c-0.7,0-1.2,0.5-1.2,1.2c0,0.6,0.5,1.2,1.2,1.2h7.7c0.7,0,1.2-0.5,1.2-1.2
					C48.4,68.7,47.9,68.2,47.2,68.2z"/>
				<path class="st58" d="M47.2,68.2h-7.7c-0.6,0-1.2,0.5-1.2,1.2c0,0.6,0.5,1.2,1.2,1.2h7.7c0.6,0,1.2-0.5,1.2-1.2
					C48.4,68.7,47.9,68.2,47.2,68.2z"/>
				<path class="st59" d="M47.2,68.2h-7.7c-0.6,0-1.2,0.5-1.2,1.1c0,0.6,0.5,1.1,1.2,1.1h7.7c0.6,0,1.2-0.5,1.2-1.1
					C48.4,68.7,47.9,68.2,47.2,68.2z"/>
				<path class="st60" d="M47.2,68.2h-7.7c-0.6,0-1.2,0.5-1.2,1.1c0,0.6,0.5,1.1,1.2,1.1h7.7c0.6,0,1.2-0.5,1.2-1.1
					C48.4,68.7,47.9,68.2,47.2,68.2z"/>
				<path class="st61" d="M47.2,68.2h-7.7c-0.6,0-1.2,0.5-1.2,1.1c0,0.6,0.5,1.1,1.2,1.1h7.7c0.6,0,1.2-0.5,1.2-1.1
					C48.4,68.7,47.9,68.2,47.2,68.2z"/>
				<path class="st62" d="M47.2,68.2h-7.7c-0.6,0-1.2,0.5-1.2,1.1c0,0.6,0.5,1.1,1.2,1.1h7.7c0.6,0,1.2-0.5,1.2-1.1
					C48.4,68.7,47.9,68.2,47.2,68.2z"/>
				<path class="st63" d="M47.2,68.2h-7.7c-0.6,0-1.1,0.5-1.1,1.1c0,0.6,0.5,1.1,1.1,1.1h7.7c0.6,0,1.1-0.5,1.1-1.1
					C48.4,68.7,47.9,68.2,47.2,68.2z"/>
				<path class="st64" d="M47.2,68.2h-7.7c-0.6,0-1.1,0.5-1.1,1.1c0,0.6,0.5,1.1,1.1,1.1h7.7c0.6,0,1.1-0.5,1.1-1.1
					C48.4,68.7,47.9,68.2,47.2,68.2z"/>
				<path class="st65" d="M47.2,68.2h-7.7c-0.6,0-1.1,0.5-1.1,1.1c0,0.6,0.5,1.1,1.1,1.1h7.7c0.6,0,1.1-0.5,1.1-1.1
					C48.4,68.7,47.9,68.2,47.2,68.2z"/>
				<path class="st66" d="M47.2,68.2h-7.7c-0.6,0-1.1,0.5-1.1,1.1c0,0.6,0.5,1.1,1.1,1.1h7.7c0.6,0,1.1-0.5,1.1-1.1
					C48.4,68.7,47.9,68.2,47.2,68.2z"/>
				<path class="st67" d="M47.2,68.2h-7.7c-0.6,0-1.1,0.5-1.1,1.1c0,0.6,0.5,1.1,1.1,1.1h7.7c0.6,0,1.1-0.5,1.1-1.1
					C48.4,68.7,47.9,68.2,47.2,68.2z"/>
				<path class="st68" d="M47.2,68.2h-7.7c-0.6,0-1.1,0.5-1.1,1.1c0,0.6,0.5,1.1,1.1,1.1h7.7c0.6,0,1.1-0.5,1.1-1.1
					C48.4,68.7,47.9,68.2,47.2,68.2z"/>
				<path class="st69" d="M47.2,68.2h-7.7c-0.6,0-1.1,0.5-1.1,1.1c0,0.6,0.5,1.1,1.1,1.1h7.7c0.6,0,1.1-0.5,1.1-1.1
					C48.4,68.7,47.9,68.2,47.2,68.2z"/>
				<path class="st70" d="M47.2,68.2h-7.7c-0.6,0-1.1,0.5-1.1,1.1c0,0.6,0.5,1.1,1.1,1.1h7.7c0.6,0,1.1-0.5,1.1-1.1
					C48.3,68.7,47.9,68.2,47.2,68.2z"/>
				<path class="st71" d="M47.2,68.2h-7.7c-0.6,0-1.1,0.5-1.1,1.1c0,0.6,0.5,1.1,1.1,1.1h7.7c0.6,0,1.1-0.5,1.1-1.1
					C48.3,68.7,47.8,68.2,47.2,68.2z"/>
				<path class="st72" d="M47.2,68.3h-7.7c-0.6,0-1.1,0.5-1.1,1.1c0,0.6,0.5,1.1,1.1,1.1h7.7c0.6,0,1.1-0.5,1.1-1.1
					C48.3,68.7,47.8,68.3,47.2,68.3z"/>
				<path class="st73" d="M47.2,68.3h-7.7c-0.6,0-1.1,0.5-1.1,1.1c0,0.6,0.5,1.1,1.1,1.1h7.7c0.6,0,1.1-0.5,1.1-1.1
					C48.3,68.7,47.8,68.3,47.2,68.3z"/>
				<path class="st74" d="M47.2,68.3h-7.7c-0.6,0-1.1,0.5-1.1,1.1c0,0.6,0.5,1.1,1.1,1.1h7.7c0.6,0,1.1-0.5,1.1-1.1
					C48.3,68.7,47.8,68.3,47.2,68.3z"/>
				<path class="st75" d="M47.2,68.3h-7.8c-0.6,0-1.1,0.5-1.1,1.1c0,0.6,0.5,1.1,1.1,1.1h7.8c0.6,0,1.1-0.5,1.1-1.1
					C48.3,68.7,47.8,68.3,47.2,68.3z"/>
				<path class="st76" d="M47.2,68.3h-7.8c-0.6,0-1.1,0.5-1.1,1.1c0,0.6,0.5,1.1,1.1,1.1h7.8c0.6,0,1.1-0.5,1.1-1.1
					C48.3,68.7,47.8,68.3,47.2,68.3z"/>
				<path class="st77" d="M47.2,68.3h-7.8c-0.6,0-1.1,0.5-1.1,1c0,0.6,0.5,1,1.1,1h7.8c0.6,0,1.1-0.5,1.1-1
					C48.3,68.7,47.8,68.3,47.2,68.3z"/>
				<path class="st78" d="M47.2,68.3h-7.8c-0.6,0-1.1,0.5-1.1,1c0,0.6,0.5,1,1.1,1h7.8c0.6,0,1.1-0.5,1.1-1
					C48.3,68.7,47.8,68.3,47.2,68.3z"/>
				<path class="st79" d="M47.2,68.3h-7.8c-0.6,0-1.1,0.5-1.1,1c0,0.6,0.5,1,1.1,1h7.8c0.6,0,1.1-0.5,1.1-1
					C48.3,68.7,47.8,68.3,47.2,68.3z"/>
				<path class="st80" d="M47.2,68.3h-7.8c-0.6,0-1,0.5-1,1c0,0.6,0.5,1,1,1h7.8c0.6,0,1-0.5,1-1C48.3,68.7,47.8,68.3,47.2,68.3z"/>
				<path class="st81" d="M47.2,68.3h-7.8c-0.6,0-1,0.5-1,1c0,0.6,0.5,1,1,1h7.8c0.6,0,1-0.5,1-1C48.3,68.7,47.8,68.3,47.2,68.3z"/>
				<path class="st82" d="M47.2,68.3h-7.8c-0.6,0-1,0.5-1,1c0,0.6,0.5,1,1,1h7.8c0.6,0,1-0.5,1-1C48.3,68.7,47.8,68.3,47.2,68.3z"/>
				<path class="st83" d="M47.2,68.3h-7.8c-0.6,0-1,0.5-1,1c0,0.6,0.5,1,1,1h7.8c0.6,0,1-0.5,1-1C48.3,68.7,47.8,68.3,47.2,68.3z"/>
				<path class="st84" d="M47.2,68.3h-7.8c-0.6,0-1,0.5-1,1c0,0.6,0.5,1,1,1h7.8c0.6,0,1-0.5,1-1C48.3,68.7,47.8,68.3,47.2,68.3z"/>
				<path class="st85" d="M47.3,68.3h-7.8c-0.6,0-1,0.4-1,1c0,0.6,0.5,1,1,1h7.8c0.6,0,1-0.4,1-1C48.3,68.7,47.8,68.3,47.3,68.3z"/>
				<path class="st86" d="M47.3,68.3h-7.8c-0.6,0-1,0.4-1,1c0,0.6,0.5,1,1,1h7.8c0.6,0,1-0.4,1-1C48.3,68.7,47.8,68.3,47.3,68.3z"/>
				<path class="st87" d="M47.3,68.3h-7.8c-0.6,0-1,0.4-1,1c0,0.5,0.5,1,1,1h7.8c0.6,0,1-0.4,1-1C48.3,68.7,47.8,68.3,47.3,68.3z"/>
				<path class="st88" d="M47.3,68.3h-7.8c-0.6,0-1,0.4-1,1c0,0.5,0.4,1,1,1h7.8c0.6,0,1-0.4,1-1C48.3,68.7,47.8,68.3,47.3,68.3z"/>
				<path class="st89" d="M47.3,68.3h-7.8c-0.6,0-1,0.4-1,1c0,0.5,0.4,1,1,1h7.8c0.6,0,1-0.4,1-1C48.3,68.7,47.8,68.3,47.3,68.3z"/>
				<path class="st90" d="M47.3,68.3h-7.8c-0.5,0-1,0.4-1,1c0,0.5,0.4,1,1,1h7.8c0.5,0,1-0.4,1-1C48.2,68.7,47.8,68.3,47.3,68.3z"/>
				<path class="st91" d="M47.3,68.3h-7.8c-0.5,0-1,0.4-1,1c0,0.5,0.4,1,1,1h7.8c0.5,0,1-0.4,1-1C48.2,68.7,47.8,68.3,47.3,68.3z"/>
				<path class="st92" d="M47.3,68.3h-7.8c-0.5,0-1,0.4-1,1c0,0.5,0.4,1,1,1h7.8c0.5,0,1-0.4,1-1C48.2,68.7,47.8,68.3,47.3,68.3z"/>
				<path class="st93" d="M47.3,68.3h-7.8c-0.5,0-1,0.4-1,1c0,0.5,0.4,1,1,1h7.8c0.5,0,1-0.4,1-1C48.2,68.7,47.8,68.3,47.3,68.3z"/>
				<path class="st94" d="M47.3,68.3h-7.8c-0.5,0-1,0.4-1,1c0,0.5,0.4,1,1,1h7.8c0.5,0,1-0.4,1-1C48.2,68.7,47.8,68.3,47.3,68.3z"/>
				<path class="st95" d="M47.3,68.3h-7.8c-0.5,0-1,0.4-1,0.9c0,0.5,0.4,0.9,1,0.9h7.8c0.5,0,1-0.4,1-0.9
					C48.2,68.7,47.8,68.3,47.3,68.3z"/>
				<path class="st96" d="M47.3,68.3h-7.8c-0.5,0-1,0.4-1,0.9c0,0.5,0.4,0.9,1,0.9h7.8c0.5,0,1-0.4,1-0.9
					C48.2,68.7,47.8,68.3,47.3,68.3z"/>
				<path class="st97" d="M47.3,68.3h-7.8c-0.5,0-1,0.4-1,0.9c0,0.5,0.4,0.9,1,0.9h7.8c0.5,0,1-0.4,1-0.9
					C48.2,68.7,47.8,68.3,47.3,68.3z"/>
				<path class="st98" d="M47.3,68.3h-7.8c-0.5,0-0.9,0.4-0.9,0.9c0,0.5,0.4,0.9,0.9,0.9h7.8c0.5,0,0.9-0.4,0.9-0.9
					C48.2,68.7,47.8,68.3,47.3,68.3z"/>
				<path class="st99" d="M47.3,68.3h-7.8c-0.5,0-0.9,0.4-0.9,0.9c0,0.5,0.4,0.9,0.9,0.9h7.8c0.5,0,0.9-0.4,0.9-0.9
					C48.2,68.7,47.8,68.3,47.3,68.3z"/>
				<path class="st100" d="M47.3,68.3h-7.8c-0.5,0-0.9,0.4-0.9,0.9c0,0.5,0.4,0.9,0.9,0.9h7.8c0.5,0,0.9-0.4,0.9-0.9
					C48.2,68.7,47.8,68.3,47.3,68.3z"/>
				<path class="st101" d="M47.3,68.3h-7.8c-0.5,0-0.9,0.4-0.9,0.9c0,0.5,0.4,0.9,0.9,0.9h7.8c0.5,0,0.9-0.4,0.9-0.9
					C48.2,68.7,47.8,68.3,47.3,68.3z"/>
				<path class="st102" d="M47.3,68.3h-7.8c-0.5,0-0.9,0.4-0.9,0.9c0,0.5,0.4,0.9,0.9,0.9h7.8c0.5,0,0.9-0.4,0.9-0.9
					C48.2,68.7,47.8,68.3,47.3,68.3z"/>
				<path class="st103" d="M47.3,68.3h-7.8c-0.5,0-0.9,0.4-0.9,0.9c0,0.5,0.4,0.9,0.9,0.9h7.8c0.5,0,0.9-0.4,0.9-0.9
					C48.2,68.7,47.8,68.3,47.3,68.3z"/>
				<path class="st104" d="M47.3,68.3h-7.8c-0.5,0-0.9,0.4-0.9,0.9c0,0.5,0.4,0.9,0.9,0.9h7.8c0.5,0,0.9-0.4,0.9-0.9
					C48.2,68.7,47.8,68.3,47.3,68.3z"/>
				<path class="st105" d="M47.3,68.3h-7.8c-0.5,0-0.9,0.4-0.9,0.9c0,0.5,0.4,0.9,0.9,0.9h7.8c0.5,0,0.9-0.4,0.9-0.9
					C48.2,68.7,47.8,68.3,47.3,68.3z"/>
				<path class="st106" d="M47.3,68.3h-7.8c-0.5,0-0.9,0.4-0.9,0.9c0,0.5,0.4,0.9,0.9,0.9h7.8c0.5,0,0.9-0.4,0.9-0.9
					C48.2,68.7,47.8,68.3,47.3,68.3z"/>
				<path class="st107" d="M47.3,68.3h-7.8c-0.5,0-0.9,0.4-0.9,0.9c0,0.5,0.4,0.9,0.9,0.9h7.8c0.5,0,0.9-0.4,0.9-0.9
					C48.2,68.7,47.8,68.3,47.3,68.3z"/>
				<path class="st108" d="M47.3,68.3h-7.8c-0.5,0-0.9,0.4-0.9,0.9c0,0.5,0.4,0.9,0.9,0.9h7.8c0.5,0,0.9-0.4,0.9-0.9
					C48.2,68.7,47.8,68.3,47.3,68.3z"/>
				<path class="st109" d="M47.3,68.3h-7.8c-0.5,0-0.9,0.4-0.9,0.9c0,0.5,0.4,0.9,0.9,0.9h7.8c0.5,0,0.9-0.4,0.9-0.9
					C48.1,68.7,47.8,68.3,47.3,68.3z"/>
				<path class="st110" d="M47.3,68.3h-7.8c-0.5,0-0.9,0.4-0.9,0.9c0,0.5,0.4,0.9,0.9,0.9h7.8c0.5,0,0.9-0.4,0.9-0.9
					C48.1,68.7,47.8,68.3,47.3,68.3z"/>
				<path class="st111" d="M47.3,68.3h-7.8c-0.5,0-0.9,0.4-0.9,0.9c0,0.5,0.4,0.9,0.9,0.9h7.8c0.5,0,0.9-0.4,0.9-0.9
					C48.1,68.7,47.7,68.3,47.3,68.3z"/>
				<path class="st112" d="M47.3,68.3h-7.8c-0.5,0-0.9,0.4-0.9,0.9c0,0.5,0.4,0.9,0.9,0.9h7.8c0.5,0,0.9-0.4,0.9-0.9
					C48.1,68.7,47.7,68.3,47.3,68.3z"/>
				<path class="st113" d="M47.3,68.4h-7.8c-0.5,0-0.9,0.4-0.9,0.8c0,0.5,0.4,0.8,0.9,0.8h7.8c0.5,0,0.9-0.4,0.9-0.8
					C48.1,68.7,47.7,68.4,47.3,68.4z"/>
				<path class="st114" d="M47.3,68.4h-7.8c-0.5,0-0.9,0.4-0.9,0.8c0,0.5,0.4,0.8,0.9,0.8h7.8c0.5,0,0.9-0.4,0.9-0.8
					C48.1,68.7,47.7,68.4,47.3,68.4z"/>
				<path class="st115" d="M47.3,68.4h-7.8c-0.5,0-0.8,0.4-0.8,0.8c0,0.5,0.4,0.8,0.8,0.8h7.8c0.5,0,0.8-0.4,0.8-0.8
					C48.1,68.7,47.7,68.4,47.3,68.4z"/>
				<path class="st116" d="M47.3,68.4h-7.8c-0.5,0-0.8,0.4-0.8,0.8c0,0.5,0.4,0.8,0.8,0.8h7.8c0.5,0,0.8-0.4,0.8-0.8
					C48.1,68.7,47.7,68.4,47.3,68.4z"/>
				<path class="st117" d="M47.3,68.4h-7.8c-0.5,0-0.8,0.4-0.8,0.8c0,0.5,0.4,0.8,0.8,0.8h7.8c0.5,0,0.8-0.4,0.8-0.8
					C48.1,68.7,47.7,68.4,47.3,68.4z"/>
				<path class="st118" d="M47.3,68.4h-7.8c-0.5,0-0.8,0.4-0.8,0.8c0,0.5,0.4,0.8,0.8,0.8h7.8c0.5,0,0.8-0.4,0.8-0.8
					C48.1,68.7,47.7,68.4,47.3,68.4z"/>
				<path class="st119" d="M47.3,68.4h-7.8c-0.5,0-0.8,0.4-0.8,0.8c0,0.4,0.4,0.8,0.8,0.8h7.8c0.5,0,0.8-0.4,0.8-0.8
					C48.1,68.7,47.7,68.4,47.3,68.4z"/>
				<path class="st120" d="M47.3,68.4h-7.8c-0.5,0-0.8,0.4-0.8,0.8c0,0.4,0.4,0.8,0.8,0.8h7.8c0.5,0,0.8-0.4,0.8-0.8
					C48.1,68.7,47.7,68.4,47.3,68.4z"/>
				<path class="st121" d="M47.3,68.4h-7.8c-0.5,0-0.8,0.4-0.8,0.8c0,0.4,0.4,0.8,0.8,0.8h7.8c0.5,0,0.8-0.4,0.8-0.8
					C48.1,68.7,47.7,68.4,47.3,68.4z"/>
				<path class="st122" d="M47.3,68.4h-7.8c-0.4,0-0.8,0.4-0.8,0.8c0,0.4,0.4,0.8,0.8,0.8h7.8c0.4,0,0.8-0.4,0.8-0.8
					C48.1,68.7,47.7,68.4,47.3,68.4z"/>
				<path class="st123" d="M47.3,68.4h-7.8c-0.4,0-0.8,0.4-0.8,0.8c0,0.4,0.4,0.8,0.8,0.8h7.8c0.4,0,0.8-0.4,0.8-0.8
					C48.1,68.7,47.7,68.4,47.3,68.4z"/>
				<path class="st124" d="M47.3,68.4h-7.8c-0.4,0-0.8,0.4-0.8,0.8c0,0.4,0.4,0.8,0.8,0.8h7.8c0.4,0,0.8-0.4,0.8-0.8
					C48.1,68.7,47.7,68.4,47.3,68.4z"/>
				<path class="st125" d="M47.3,68.4h-7.8c-0.4,0-0.8,0.3-0.8,0.8c0,0.4,0.4,0.8,0.8,0.8h7.8c0.4,0,0.8-0.3,0.8-0.8
					C48.1,68.7,47.7,68.4,47.3,68.4z"/>
				<path class="st126" d="M47.3,68.4h-7.8c-0.4,0-0.8,0.3-0.8,0.8c0,0.4,0.4,0.8,0.8,0.8h7.8c0.4,0,0.8-0.3,0.8-0.8
					C48.1,68.7,47.7,68.4,47.3,68.4z"/>
				<path class="st127" d="M47.3,68.4h-7.8c-0.4,0-0.8,0.3-0.8,0.8c0,0.4,0.3,0.8,0.8,0.8h7.8c0.4,0,0.8-0.3,0.8-0.8
					C48.1,68.7,47.7,68.4,47.3,68.4z"/>
				<path class="st128" d="M47.3,68.4h-7.8c-0.4,0-0.8,0.3-0.8,0.8c0,0.4,0.3,0.8,0.8,0.8h7.8c0.4,0,0.8-0.3,0.8-0.8
					C48.1,68.7,47.7,68.4,47.3,68.4z"/>
				<path class="st129" d="M47.3,68.4h-7.8c-0.4,0-0.8,0.3-0.8,0.8c0,0.4,0.3,0.8,0.8,0.8h7.8c0.4,0,0.8-0.3,0.8-0.8
					C48,68.7,47.7,68.4,47.3,68.4z"/>
				<path class="st130" d="M47.3,68.4h-7.8c-0.4,0-0.8,0.3-0.8,0.8c0,0.4,0.3,0.8,0.8,0.8h7.8c0.4,0,0.8-0.3,0.8-0.8
					C48,68.7,47.7,68.4,47.3,68.4z"/>
				<path class="st131" d="M47.3,68.4h-7.8c-0.4,0-0.8,0.3-0.8,0.7c0,0.4,0.3,0.7,0.8,0.7h7.8c0.4,0,0.8-0.3,0.8-0.7
					C48,68.7,47.7,68.4,47.3,68.4z"/>
				<path class="st132" d="M47.3,68.4h-7.9c-0.4,0-0.8,0.3-0.8,0.7c0,0.4,0.3,0.7,0.8,0.7h7.9c0.4,0,0.8-0.3,0.8-0.7
					C48,68.7,47.7,68.4,47.3,68.4z"/>
				<path class="st133" d="M47.3,68.4h-7.9c-0.4,0-0.7,0.3-0.7,0.7c0,0.4,0.3,0.7,0.7,0.7h7.9c0.4,0,0.7-0.3,0.7-0.7
					C48,68.7,47.7,68.4,47.3,68.4z"/>
				<path class="st134" d="M47.3,68.4h-7.9c-0.4,0-0.7,0.3-0.7,0.7c0,0.4,0.3,0.7,0.7,0.7h7.9c0.4,0,0.7-0.3,0.7-0.7
					C48,68.7,47.7,68.4,47.3,68.4z"/>
				<path class="st135" d="M47.3,68.4h-7.9c-0.4,0-0.7,0.3-0.7,0.7c0,0.4,0.3,0.7,0.7,0.7h7.9c0.4,0,0.7-0.3,0.7-0.7
					C48,68.7,47.7,68.4,47.3,68.4z"/>
				<path class="st136" d="M47.3,68.4h-7.9c-0.4,0-0.7,0.3-0.7,0.7c0,0.4,0.3,0.7,0.7,0.7h7.9c0.4,0,0.7-0.3,0.7-0.7
					C48,68.7,47.7,68.4,47.3,68.4z"/>
				<path class="st137" d="M47.3,68.4h-7.9c-0.4,0-0.7,0.3-0.7,0.7c0,0.4,0.3,0.7,0.7,0.7h7.9c0.4,0,0.7-0.3,0.7-0.7
					C48,68.7,47.7,68.4,47.3,68.4z"/>
				<path class="st138" d="M47.3,68.4h-7.9c-0.4,0-0.7,0.3-0.7,0.7c0,0.4,0.3,0.7,0.7,0.7h7.9c0.4,0,0.7-0.3,0.7-0.7
					C48,68.7,47.7,68.4,47.3,68.4z"/>
				<path class="st139" d="M47.3,68.4h-7.9c-0.4,0-0.7,0.3-0.7,0.7c0,0.4,0.3,0.7,0.7,0.7h7.9c0.4,0,0.7-0.3,0.7-0.7
					C48,68.7,47.7,68.4,47.3,68.4z"/>
				<path class="st140" d="M47.3,68.4h-7.9c-0.4,0-0.7,0.3-0.7,0.7c0,0.4,0.3,0.7,0.7,0.7h7.9c0.4,0,0.7-0.3,0.7-0.7
					C48,68.7,47.7,68.4,47.3,68.4z"/>
				<path class="st141" d="M47.3,68.4h-7.9c-0.4,0-0.7,0.3-0.7,0.7c0,0.4,0.3,0.7,0.7,0.7h7.9c0.4,0,0.7-0.3,0.7-0.7
					C48,68.7,47.7,68.4,47.3,68.4z"/>
				<path class="st142" d="M47.3,68.4h-7.9c-0.4,0-0.7,0.3-0.7,0.7c0,0.4,0.3,0.7,0.7,0.7h7.9c0.4,0,0.7-0.3,0.7-0.7
					C48,68.7,47.7,68.4,47.3,68.4z"/>
				<path class="st143" d="M47.3,68.4h-7.9c-0.4,0-0.7,0.3-0.7,0.7c0,0.4,0.3,0.7,0.7,0.7h7.9c0.4,0,0.7-0.3,0.7-0.7
					C48,68.7,47.7,68.4,47.3,68.4z"/>
				<path class="st144" d="M47.3,68.4h-7.9c-0.4,0-0.7,0.3-0.7,0.7c0,0.4,0.3,0.7,0.7,0.7h7.9c0.4,0,0.7-0.3,0.7-0.7
					C48,68.7,47.7,68.4,47.3,68.4z"/>
				<path class="st145" d="M47.3,68.4h-7.9c-0.4,0-0.7,0.3-0.7,0.7c0,0.4,0.3,0.7,0.7,0.7h7.9c0.4,0,0.7-0.3,0.7-0.7
					C48,68.7,47.7,68.4,47.3,68.4z"/>
				<path class="st146" d="M47.3,68.4h-7.9c-0.4,0-0.7,0.3-0.7,0.7c0,0.4,0.3,0.7,0.7,0.7h7.9c0.4,0,0.7-0.3,0.7-0.7
					C48,68.7,47.7,68.4,47.3,68.4z"/>
				<path class="st147" d="M47.3,68.4h-7.9c-0.4,0-0.7,0.3-0.7,0.7c0,0.4,0.3,0.7,0.7,0.7h7.9c0.4,0,0.7-0.3,0.7-0.7
					C48,68.7,47.7,68.4,47.3,68.4z"/>
				<path class="st148" d="M47.3,68.4h-7.9c-0.4,0-0.7,0.3-0.7,0.7c0,0.4,0.3,0.7,0.7,0.7h7.9c0.4,0,0.7-0.3,0.7-0.7
					C48,68.7,47.7,68.4,47.3,68.4z"/>
				<path class="st149" d="M47.3,68.4h-7.9c-0.4,0-0.7,0.3-0.7,0.6c0,0.4,0.3,0.6,0.7,0.6h7.9c0.4,0,0.7-0.3,0.7-0.6
					C47.9,68.7,47.7,68.4,47.3,68.4z"/>
				<path class="st150" d="M47.3,68.4h-7.9c-0.4,0-0.7,0.3-0.7,0.6c0,0.4,0.3,0.6,0.7,0.6h7.9c0.4,0,0.7-0.3,0.7-0.6
					C47.9,68.7,47.7,68.4,47.3,68.4z"/>
				<path class="st151" d="M47.3,68.4h-7.9c-0.4,0-0.6,0.3-0.6,0.6c0,0.4,0.3,0.6,0.6,0.6h7.9c0.4,0,0.6-0.3,0.6-0.6
					C47.9,68.7,47.6,68.4,47.3,68.4z"/>
				<path class="st152" d="M47.3,68.4h-7.9c-0.4,0-0.6,0.3-0.6,0.6c0,0.3,0.3,0.6,0.6,0.6h7.9c0.4,0,0.6-0.3,0.6-0.6
					C47.9,68.7,47.6,68.4,47.3,68.4z"/>
				<path class="st153" d="M47.3,68.5h-7.9c-0.3,0-0.6,0.3-0.6,0.6c0,0.3,0.3,0.6,0.6,0.6h7.9c0.4,0,0.6-0.3,0.6-0.6
					C47.9,68.7,47.6,68.5,47.3,68.5z"/>
				<path class="st154" d="M47.3,68.5h-7.9c-0.3,0-0.6,0.3-0.6,0.6c0,0.3,0.3,0.6,0.6,0.6h7.9c0.3,0,0.6-0.3,0.6-0.6
					C47.9,68.7,47.6,68.5,47.3,68.5z"/>
				<path class="st155" d="M47.3,68.5h-7.9c-0.3,0-0.6,0.3-0.6,0.6c0,0.3,0.3,0.6,0.6,0.6h7.9c0.3,0,0.6-0.3,0.6-0.6
					C47.9,68.7,47.6,68.5,47.3,68.5z"/>
				<path class="st156" d="M47.3,68.5h-7.9c-0.3,0-0.6,0.3-0.6,0.6c0,0.3,0.3,0.6,0.6,0.6h7.9c0.3,0,0.6-0.3,0.6-0.6
					C47.9,68.7,47.6,68.5,47.3,68.5z"/>
				<path class="st157" d="M47.3,68.5h-7.9c-0.3,0-0.6,0.3-0.6,0.6c0,0.3,0.3,0.6,0.6,0.6h7.9c0.3,0,0.6-0.3,0.6-0.6
					C47.9,68.7,47.6,68.5,47.3,68.5z"/>
				<path class="st158" d="M47.3,68.5h-7.9c-0.3,0-0.6,0.3-0.6,0.6c0,0.3,0.3,0.6,0.6,0.6h7.9c0.3,0,0.6-0.3,0.6-0.6
					C47.9,68.7,47.6,68.5,47.3,68.5z"/>
				<path class="st159" d="M47.3,68.5h-7.9c-0.3,0-0.6,0.3-0.6,0.6c0,0.3,0.3,0.6,0.6,0.6h7.9c0.3,0,0.6-0.3,0.6-0.6
					C47.9,68.7,47.6,68.5,47.3,68.5z"/>
				<path class="st160" d="M47.3,68.5h-7.9c-0.3,0-0.6,0.3-0.6,0.6c0,0.3,0.3,0.6,0.6,0.6h7.9c0.3,0,0.6-0.3,0.6-0.6
					C47.9,68.7,47.6,68.5,47.3,68.5z"/>
				<path class="st161" d="M47.3,68.5h-7.9c-0.3,0-0.6,0.3-0.6,0.6c0,0.3,0.3,0.6,0.6,0.6h7.9c0.3,0,0.6-0.3,0.6-0.6
					C47.9,68.7,47.6,68.5,47.3,68.5z"/>
				<path class="st162" d="M47.3,68.5h-7.9c-0.3,0-0.6,0.3-0.6,0.6c0,0.3,0.3,0.6,0.6,0.6h7.9c0.3,0,0.6-0.3,0.6-0.6
					C47.9,68.7,47.6,68.5,47.3,68.5z"/>
				<path class="st163" d="M47.3,68.5h-7.9c-0.3,0-0.6,0.3-0.6,0.6c0,0.3,0.3,0.6,0.6,0.6h7.9c0.3,0,0.6-0.3,0.6-0.6
					C47.9,68.7,47.6,68.5,47.3,68.5z"/>
				<path class="st164" d="M47.3,68.5h-7.9c-0.3,0-0.6,0.3-0.6,0.6c0,0.3,0.3,0.6,0.6,0.6h7.9c0.3,0,0.6-0.3,0.6-0.6
					C47.9,68.7,47.6,68.5,47.3,68.5z"/>
				<path class="st165" d="M47.3,68.5h-7.9c-0.3,0-0.6,0.2-0.6,0.6c0,0.3,0.3,0.6,0.6,0.6h7.9c0.3,0,0.6-0.2,0.6-0.6
					C47.9,68.7,47.6,68.5,47.3,68.5z"/>
				<path class="st166" d="M47.3,68.5h-7.9c-0.3,0-0.6,0.2-0.6,0.6c0,0.3,0.3,0.6,0.6,0.6h7.9c0.3,0,0.6-0.2,0.6-0.6
					C47.9,68.7,47.6,68.5,47.3,68.5z"/>
				<path class="st166" d="M47.3,68.5h-7.9c-0.3,0-0.6,0.2-0.6,0.5c0,0.3,0.2,0.5,0.6,0.5h7.9c0.3,0,0.6-0.2,0.6-0.5
					C47.9,68.7,47.6,68.5,47.3,68.5z"/>
				<path class="st167" d="M47.3,68.5h-7.9c-0.3,0-0.5,0.2-0.5,0.5c0,0.3,0.2,0.5,0.5,0.5h7.9c0.3,0,0.5-0.2,0.5-0.5
					C47.8,68.7,47.6,68.5,47.3,68.5z"/>
				<path class="st168" d="M47.3,68.5h-7.9c-0.3,0-0.5,0.2-0.5,0.5c0,0.3,0.2,0.5,0.5,0.5h7.9c0.3,0,0.5-0.2,0.5-0.5
					C47.8,68.7,47.6,68.5,47.3,68.5z"/>
				<path class="st169" d="M47.3,68.5h-7.9c-0.3,0-0.5,0.2-0.5,0.5c0,0.3,0.2,0.5,0.5,0.5h7.9c0.3,0,0.5-0.2,0.5-0.5
					C47.8,68.7,47.6,68.5,47.3,68.5z"/>
				<path class="st169" d="M47.3,68.5h-7.9c-0.3,0-0.5,0.2-0.5,0.5c0,0.3,0.2,0.5,0.5,0.5h7.9c0.3,0,0.5-0.2,0.5-0.5
					C47.8,68.7,47.6,68.5,47.3,68.5z"/>
				<path class="st170" d="M47.3,68.5h-7.9c-0.3,0-0.5,0.2-0.5,0.5c0,0.3,0.2,0.5,0.5,0.5h7.9c0.3,0,0.5-0.2,0.5-0.5
					C47.8,68.7,47.6,68.5,47.3,68.5z"/>
			</g>
			<circle class="st2" cx="43.3" cy="45" r="20.2"/>
			<ellipse transform="matrix(0.5878 -0.809 0.809 0.5878 -18.5772 53.6334)" class="st3" cx="43.3" cy="45" rx="15.5" ry="15.5"/>
			<circle class="st171" cx="43.3" cy="35.9" r="3.3"/>
			<ellipse transform="matrix(0.951 -0.309 0.309 0.951 -10.505 18.1414)" class="st171" cx="52" cy="42.2" rx="3.3" ry="3.3"/>
			<ellipse transform="matrix(0.8089 -0.588 0.588 0.8089 -21.5143 38.653)" class="st171" cx="48.7" cy="52.4" rx="3.3" ry="3.3"/>
			
				<ellipse transform="matrix(0.5879 -0.8089 0.8089 0.5879 -26.7511 52.3332)" class="st171" cx="38" cy="52.4" rx="3.3" ry="3.3"/>
			
				<ellipse transform="matrix(0.3091 -0.951 0.951 0.3091 -16.2056 62.1529)" class="st171" cx="34.7" cy="42.2" rx="3.3" ry="3.3"/>
		</g>
	</g>
	<g>
		<ellipse class="st4" cx="34.7" cy="42.2" rx="3.4" ry="3.3"/>
		<ellipse class="st6" cx="34.7" cy="42.2" rx="3.3" ry="3.3"/>
		<ellipse class="st8" cx="34.6" cy="42.2" rx="3.3" ry="3.2"/>
		<ellipse class="st11" cx="34.6" cy="42.2" rx="3.2" ry="3.1"/>
		<ellipse class="st13" cx="34.6" cy="42.1" rx="3.1" ry="3.1"/>
		<ellipse class="st15" cx="34.5" cy="42.1" rx="3" ry="3"/>
		<ellipse class="st17" cx="34.5" cy="42.1" rx="3" ry="2.9"/>
		<ellipse class="st19" cx="34.5" cy="42" rx="2.9" ry="2.8"/>
		<ellipse class="st47" cx="34.4" cy="42" rx="2.8" ry="2.8"/>
		<ellipse class="st24" cx="34.4" cy="42" rx="2.7" ry="2.7"/>
		<ellipse class="st26" cx="34.4" cy="42" rx="2.7" ry="2.6"/>
		<ellipse class="st28" cx="34.4" cy="41.9" rx="2.6" ry="2.5"/>
		<ellipse class="st30" cx="34.3" cy="41.9" rx="2.5" ry="2.5"/>
		<ellipse class="st32" cx="34.3" cy="41.9" rx="2.4" ry="2.4"/>
		<ellipse class="st35" cx="34.3" cy="41.8" rx="2.4" ry="2.3"/>
		<ellipse class="st37" cx="34.2" cy="41.8" rx="2.3" ry="2.3"/>
		<ellipse class="st39" cx="34.2" cy="41.8" rx="2.2" ry="2.2"/>
		<ellipse class="st32" cx="34.2" cy="41.7" rx="2.1" ry="2.1"/>
		<ellipse class="st25" cx="34.2" cy="41.7" rx="2.1" ry="2"/>
		<ellipse class="st50" cx="34.2" cy="41.6" rx="2" ry="1.9"/>
		<ellipse class="st59" cx="34.1" cy="41.6" rx="1.9" ry="1.8"/>
		<ellipse class="st68" cx="34.1" cy="41.5" rx="1.8" ry="1.8"/>
		<ellipse class="st172" cx="34.1" cy="41.5" rx="1.7" ry="1.7"/>
		<ellipse class="st87" cx="34.1" cy="41.4" rx="1.6" ry="1.6"/>
		<ellipse class="st97" cx="34.1" cy="41.4" rx="1.5" ry="1.5"/>
		<ellipse class="st106" cx="34.1" cy="41.4" rx="1.4" ry="1.4"/>
		<ellipse class="st173" cx="34" cy="41.3" rx="1.4" ry="1.3"/>
		<ellipse class="st125" cx="34" cy="41.3" rx="1.3" ry="1.3"/>
		<ellipse class="st134" cx="34" cy="41.2" rx="1.2" ry="1.2"/>
		<ellipse class="st144" cx="34" cy="41.2" rx="1.1" ry="1.1"/>
		<ellipse class="st174" cx="34" cy="41.1" rx="1" ry="1"/>
		<ellipse class="st162" cx="34" cy="41.1" rx="0.9" ry="0.9"/>
		<ellipse class="st170" cx="33.9" cy="41" rx="0.8" ry="0.8"/>
	</g>
	<g>
		<ellipse class="st4" cx="52" cy="42.2" rx="3.4" ry="3.3"/>
		<ellipse class="st6" cx="52" cy="42.2" rx="3.3" ry="3.3"/>
		<ellipse class="st8" cx="52" cy="42.2" rx="3.3" ry="3.2"/>
		<ellipse class="st11" cx="51.9" cy="42.2" rx="3.2" ry="3.1"/>
		<ellipse class="st13" cx="51.9" cy="42.1" rx="3.1" ry="3.1"/>
		<ellipse class="st15" cx="51.9" cy="42.1" rx="3" ry="3"/>
		<ellipse class="st17" cx="51.8" cy="42.1" rx="3" ry="2.9"/>
		<ellipse class="st19" cx="51.8" cy="42" rx="2.9" ry="2.8"/>
		<ellipse class="st47" cx="51.8" cy="42" rx="2.8" ry="2.8"/>
		<ellipse class="st24" cx="51.8" cy="42" rx="2.7" ry="2.7"/>
		<ellipse class="st26" cx="51.7" cy="42" rx="2.7" ry="2.6"/>
		<ellipse class="st28" cx="51.7" cy="41.9" rx="2.6" ry="2.5"/>
		<ellipse class="st30" cx="51.7" cy="41.9" rx="2.5" ry="2.5"/>
		<ellipse class="st32" cx="51.6" cy="41.9" rx="2.4" ry="2.4"/>
		<ellipse class="st35" cx="51.6" cy="41.8" rx="2.4" ry="2.3"/>
		<ellipse class="st37" cx="51.6" cy="41.8" rx="2.3" ry="2.3"/>
		<ellipse class="st39" cx="51.5" cy="41.8" rx="2.2" ry="2.2"/>
		<ellipse class="st32" cx="51.5" cy="41.7" rx="2.1" ry="2.1"/>
		<ellipse class="st25" cx="51.5" cy="41.7" rx="2.1" ry="2"/>
		<ellipse class="st50" cx="51.5" cy="41.6" rx="2" ry="1.9"/>
		<ellipse class="st59" cx="51.5" cy="41.6" rx="1.9" ry="1.8"/>
		<ellipse class="st68" cx="51.5" cy="41.5" rx="1.8" ry="1.8"/>
		<ellipse class="st172" cx="51.4" cy="41.5" rx="1.7" ry="1.7"/>
		<ellipse class="st87" cx="51.4" cy="41.4" rx="1.6" ry="1.6"/>
		<ellipse class="st97" cx="51.4" cy="41.4" rx="1.5" ry="1.5"/>
		<ellipse class="st106" cx="51.4" cy="41.4" rx="1.4" ry="1.4"/>
		<ellipse class="st173" cx="51.4" cy="41.3" rx="1.4" ry="1.3"/>
		<ellipse class="st125" cx="51.4" cy="41.3" rx="1.3" ry="1.3"/>
		<ellipse class="st134" cx="51.3" cy="41.2" rx="1.2" ry="1.2"/>
		<ellipse class="st144" cx="51.3" cy="41.2" rx="1.1" ry="1.1"/>
		<ellipse class="st174" cx="51.3" cy="41.1" rx="1" ry="1"/>
		<ellipse class="st162" cx="51.3" cy="41.1" rx="0.9" ry="0.9"/>
		<ellipse class="st170" cx="51.3" cy="41" rx="0.8" ry="0.8"/>
	</g>
	<g>
		<ellipse class="st4" cx="43.4" cy="36" rx="3.4" ry="3.3"/>
		<ellipse class="st6" cx="43.4" cy="35.9" rx="3.3" ry="3.3"/>
		<ellipse class="st8" cx="43.3" cy="35.9" rx="3.3" ry="3.2"/>
		<ellipse class="st11" cx="43.3" cy="35.9" rx="3.2" ry="3.1"/>
		<ellipse class="st13" cx="43.3" cy="35.8" rx="3.1" ry="3.1"/>
		<ellipse class="st15" cx="43.2" cy="35.8" rx="3" ry="3"/>
		<ellipse class="st17" cx="43.2" cy="35.8" rx="3" ry="2.9"/>
		<ellipse class="st19" cx="43.2" cy="35.8" rx="2.9" ry="2.8"/>
		<ellipse class="st47" cx="43.2" cy="35.7" rx="2.8" ry="2.8"/>
		<ellipse class="st24" cx="43.1" cy="35.7" rx="2.7" ry="2.7"/>
		<ellipse class="st26" cx="43.1" cy="35.7" rx="2.7" ry="2.6"/>
		<ellipse class="st28" cx="43.1" cy="35.6" rx="2.6" ry="2.5"/>
		<ellipse class="st30" cx="43" cy="35.6" rx="2.5" ry="2.5"/>
		<ellipse class="st32" cx="43" cy="35.6" rx="2.4" ry="2.4"/>
		<ellipse class="st35" cx="43" cy="35.5" rx="2.4" ry="2.3"/>
		<ellipse class="st37" cx="42.9" cy="35.5" rx="2.3" ry="2.3"/>
		<ellipse class="st39" cx="42.9" cy="35.5" rx="2.2" ry="2.2"/>
		<ellipse class="st32" cx="42.9" cy="35.4" rx="2.1" ry="2.1"/>
		<ellipse class="st25" cx="42.9" cy="35.4" rx="2.1" ry="2"/>
		<ellipse class="st50" cx="42.9" cy="35.3" rx="2" ry="1.9"/>
		<ellipse class="st59" cx="42.8" cy="35.3" rx="1.9" ry="1.8"/>
		<ellipse class="st68" cx="42.8" cy="35.3" rx="1.8" ry="1.8"/>
		<ellipse class="st172" cx="42.8" cy="35.2" rx="1.7" ry="1.7"/>
		<ellipse class="st87" cx="42.8" cy="35.2" rx="1.6" ry="1.6"/>
		<ellipse class="st97" cx="42.8" cy="35.1" rx="1.5" ry="1.5"/>
		<ellipse class="st106" cx="42.8" cy="35.1" rx="1.4" ry="1.4"/>
		<ellipse class="st173" cx="42.7" cy="35" rx="1.4" ry="1.3"/>
		<ellipse class="st125" cx="42.7" cy="35" rx="1.3" ry="1.3"/>
		<ellipse class="st134" cx="42.7" cy="34.9" rx="1.2" ry="1.2"/>
		<ellipse class="st144" cx="42.7" cy="34.9" rx="1.1" ry="1.1"/>
		<ellipse class="st174" cx="42.7" cy="34.8" rx="1" ry="1"/>
		<ellipse class="st162" cx="42.7" cy="34.8" rx="0.9" ry="0.9"/>
		<ellipse class="st170" cx="42.6" cy="34.7" rx="0.8" ry="0.8"/>
	</g>
	<g>
		<ellipse class="st4" cx="38" cy="52.4" rx="3.4" ry="3.3"/>
		<ellipse class="st6" cx="37.9" cy="52.4" rx="3.3" ry="3.3"/>
		<ellipse class="st8" cx="37.9" cy="52.3" rx="3.3" ry="3.2"/>
		<ellipse class="st11" cx="37.9" cy="52.3" rx="3.2" ry="3.1"/>
		<ellipse class="st13" cx="37.9" cy="52.3" rx="3.1" ry="3.1"/>
		<ellipse class="st15" cx="37.8" cy="52.2" rx="3" ry="3"/>
		<ellipse class="st17" cx="37.8" cy="52.2" rx="3" ry="2.9"/>
		<ellipse class="st19" cx="37.8" cy="52.2" rx="2.9" ry="2.8"/>
		<ellipse class="st47" cx="37.7" cy="52.1" rx="2.8" ry="2.8"/>
		<ellipse class="st24" cx="37.7" cy="52.1" rx="2.7" ry="2.7"/>
		<ellipse class="st26" cx="37.7" cy="52.1" rx="2.7" ry="2.6"/>
		<ellipse class="st28" cx="37.6" cy="52.1" rx="2.6" ry="2.5"/>
		<ellipse class="st30" cx="37.6" cy="52" rx="2.5" ry="2.5"/>
		<ellipse class="st32" cx="37.6" cy="52" rx="2.4" ry="2.4"/>
		<ellipse class="st35" cx="37.6" cy="52" rx="2.4" ry="2.3"/>
		<ellipse class="st37" cx="37.5" cy="51.9" rx="2.3" ry="2.3"/>
		<ellipse class="st39" cx="37.5" cy="51.9" rx="2.2" ry="2.2"/>
		<ellipse class="st32" cx="37.5" cy="51.9" rx="2.1" ry="2.1"/>
		<ellipse class="st25" cx="37.5" cy="51.8" rx="2.1" ry="2"/>
		<ellipse class="st50" cx="37.4" cy="51.8" rx="2" ry="1.9"/>
		<ellipse class="st59" cx="37.4" cy="51.7" rx="1.9" ry="1.8"/>
		<ellipse class="st68" cx="37.4" cy="51.7" rx="1.8" ry="1.8"/>
		<ellipse class="st172" cx="37.4" cy="51.6" rx="1.7" ry="1.7"/>
		<ellipse class="st87" cx="37.4" cy="51.6" rx="1.6" ry="1.6"/>
		<ellipse class="st97" cx="37.4" cy="51.5" rx="1.5" ry="1.5"/>
		<ellipse class="st106" cx="37.3" cy="51.5" rx="1.4" ry="1.4"/>
		<ellipse class="st173" cx="37.3" cy="51.4" rx="1.4" ry="1.3"/>
		<ellipse class="st125" cx="37.3" cy="51.4" rx="1.3" ry="1.3"/>
		<ellipse class="st134" cx="37.3" cy="51.3" rx="1.2" ry="1.2"/>
		<ellipse class="st144" cx="37.3" cy="51.3" rx="1.1" ry="1.1"/>
		<ellipse class="st174" cx="37.3" cy="51.3" rx="1" ry="1"/>
		<ellipse class="st162" cx="37.2" cy="51.2" rx="0.9" ry="0.9"/>
		<ellipse class="st170" cx="37.2" cy="51.2" rx="0.8" ry="0.8"/>
	</g>
	<g>
		<ellipse class="st4" cx="48.6" cy="52.4" rx="3.4" ry="3.3"/>
		<ellipse class="st6" cx="48.6" cy="52.4" rx="3.3" ry="3.3"/>
		<ellipse class="st8" cx="48.6" cy="52.3" rx="3.3" ry="3.2"/>
		<ellipse class="st11" cx="48.6" cy="52.3" rx="3.2" ry="3.1"/>
		<ellipse class="st13" cx="48.5" cy="52.3" rx="3.1" ry="3.1"/>
		<ellipse class="st15" cx="48.5" cy="52.2" rx="3" ry="3"/>
		<ellipse class="st17" cx="48.5" cy="52.2" rx="3" ry="2.9"/>
		<ellipse class="st19" cx="48.4" cy="52.2" rx="2.9" ry="2.8"/>
		<ellipse class="st47" cx="48.4" cy="52.1" rx="2.8" ry="2.8"/>
		<ellipse class="st24" cx="48.4" cy="52.1" rx="2.7" ry="2.7"/>
		<ellipse class="st26" cx="48.3" cy="52.1" rx="2.7" ry="2.6"/>
		<ellipse class="st28" cx="48.3" cy="52.1" rx="2.6" ry="2.5"/>
		<ellipse class="st30" cx="48.3" cy="52" rx="2.5" ry="2.5"/>
		<ellipse class="st32" cx="48.3" cy="52" rx="2.4" ry="2.4"/>
		<ellipse class="st35" cx="48.2" cy="52" rx="2.4" ry="2.3"/>
		<ellipse class="st37" cx="48.2" cy="51.9" rx="2.3" ry="2.3"/>
		<ellipse class="st39" cx="48.2" cy="51.9" rx="2.2" ry="2.2"/>
		<ellipse class="st32" cx="48.2" cy="51.9" rx="2.1" ry="2.1"/>
		<ellipse class="st25" cx="48.1" cy="51.8" rx="2.1" ry="2"/>
		<ellipse class="st50" cx="48.1" cy="51.8" rx="2" ry="1.9"/>
		<ellipse class="st59" cx="48.1" cy="51.7" rx="1.9" ry="1.8"/>
		<ellipse class="st68" cx="48.1" cy="51.7" rx="1.8" ry="1.8"/>
		<ellipse class="st172" cx="48.1" cy="51.6" rx="1.7" ry="1.7"/>
		<ellipse class="st87" cx="48" cy="51.6" rx="1.6" ry="1.6"/>
		<ellipse class="st97" cx="48" cy="51.5" rx="1.5" ry="1.5"/>
		<ellipse class="st106" cx="48" cy="51.5" rx="1.4" ry="1.4"/>
		<ellipse class="st173" cx="48" cy="51.4" rx="1.4" ry="1.3"/>
		<ellipse class="st125" cx="48" cy="51.4" rx="1.3" ry="1.3"/>
		<ellipse class="st134" cx="48" cy="51.3" rx="1.2" ry="1.2"/>
		<ellipse class="st144" cx="47.9" cy="51.3" rx="1.1" ry="1.1"/>
		<ellipse class="st174" cx="47.9" cy="51.3" rx="1" ry="1"/>
		<ellipse class="st162" cx="47.9" cy="51.2" rx="0.9" ry="0.9"/>
		<ellipse class="st170" cx="47.9" cy="51.2" rx="0.8" ry="0.8"/>
	</g>
	<g>
		<image style="overflow:visible;" width="131" height="132" xlink:href="ED767052.png"  transform="matrix(1 0 0 1 127.5714 45)">
		</image>
	</g>
</g>
</svg>
