<?xml version="1.0" encoding="utf-8"?>
<!-- Generator: Adobe Illustrator 21.1.0, SVG Export Plug-In . SVG Version: 6.00 Build 0)  -->
<svg version="1.1" id="Calque_1" xmlns="http://www.w3.org/2000/svg" xmlns:xlink="http://www.w3.org/1999/xlink" x="0px" y="0px"
	 viewBox="0 0 274.3 127" style="enable-background:new 0 0 274.3 127;" xml:space="preserve">
<style type="text/css">
	.st0{fill:#BAC4D4;}
	.st1{fill:none;stroke:#8CB43F;stroke-width:8;stroke-linecap:round;stroke-linejoin:round;}
	.st2{fill:url(#SVGID_1_);}
	.st3{fill:#9FBF60;}
	.st4{fill:#FFFFFF;}
	.st5{fill:#231F20;}
	.st6{fill:url(#SVGID_2_);}
	.st7{fill:url(#SVGID_3_);}
	.st8{fill:#B2B3B6;}
	.st9{fill:#B0B1B4;}
	.st10{fill:#AEAFB2;}
	.st11{fill:#ABACAF;}
	.st12{fill:#A9AAAD;}
	.st13{fill:#A7A8AB;}
	.st14{fill:#A5A6A9;}
	.st15{fill:#A3A4A7;}
	.st16{fill:#A1A2A4;}
	.st17{fill:#9E9FA2;}
	.st18{fill:#9C9DA0;}
	.st19{fill:#9A9B9E;}
	.st20{fill:#98999C;}
	.st21{fill:#96979A;}
	.st22{fill:#939497;}
	.st23{fill:#919295;}
	.st24{fill:#8F9093;}
	.st25{fill:#9D9EA1;}
	.st26{fill:#A4A5A7;}
	.st27{fill:#ABACAE;}
	.st28{fill:#B2B3B5;}
	.st29{fill:#B9BABB;}
	.st30{fill:#C0C1C2;}
	.st31{fill:#C7C8C9;}
	.st32{fill:#CECED0;}
	.st33{fill:#D5D5D7;}
	.st34{fill:#DCDCDD;}
	.st35{fill:#E3E3E4;}
	.st36{fill:#EAEAEB;}
	.st37{fill:#F1F1F2;}
	.st38{fill:#F8F8F8;}
	.st39{opacity:0.5;fill:#FFFFFF;}
	.st40{fill:url(#SVGID_4_);}
	.st41{fill:url(#SVGID_5_);}
</style>
<g>
	<path class="st0" d="M112.6,68.1c-0.5-4.2-6.3-7.6-13.1-7.6c-1.9,0-3.8,0.3-5.3,0.8v0l-0.1,0c-0.2,0.1-0.4,0.1-0.7,0.2l-13.3,4.5
		c-0.4,0.1-0.9,0.3-1.3,0.4l0,0l0,0c-3.6,1.4-5.9,3.9-5.8,6.8c0.5,4.4,6.6,8,13.8,8.1c2.8,0,5.3-0.5,7.3-1.4l0,0l12.8-5.2
		c0.1,0,0.1,0,0.2-0.1l0.1,0h0C110.6,73.2,112.7,70.8,112.6,68.1z"/>
	<g>
		<path class="st0" d="M105.6,53.8c32.6-11,47.9,1.7,65.7,16.5c11.7,9.8,35.1,10.4,48,9.9c15.4-0.6,33.9-3.6,38.3-7.6
			c2.4-2.2,3.2-5.2,2.1-8.1c-3.7-9.4-25.8-14.8-59-14.3c-15.9,0.2-68.7,10.2-73.6,26.1c-1,3.2-0.7,7.9,6.3,12.8
			c16.6,11.6,46.6,11.2,75.6,10.8c16.7-0.2,73.1-0.2,86.9,1.9l0.5-3l0,0l0,0l0.5-3c-14.3-2.2-71-2.2-87.9-2
			c-28.1,0.4-57.1,0.8-72.1-9.7c-3.2-2.2-4.5-4.3-4-6.1c3.2-10.5,48.6-21.6,68-21.9c38.7-0.6,51.9,6.6,53.4,10.5
			c0.1,0.3,0.3,0.8-0.5,1.5c-5.5,4.9-60.8,12.3-78.4-2.4c-18.3-15.2-35.6-29.7-71.4-17.6l1,2.8l0,0l0,0L105.6,53.8z"/>
	</g>
	<path class="st1" d="M105.6,48.3c33.7-11.4,49.7,1.3,68.5,17c18.9,15.7,76.2,8,82.4,2.4c6.2-5.6-4.4-17.9-54.9-17.2
		c-20.6,0.3-90.9,15.8-65.7,33.4c25.2,17.6,123.5,6.4,161.3,12.2"/>
	<linearGradient id="SVGID_1_" gradientUnits="userSpaceOnUse" x1="106.4461" y1="69.6065" x2="85.4752" y2="27.0208">
		<stop  offset="5.618000e-03" style="stop-color:#6E913D"/>
		<stop  offset="0.2022" style="stop-color:#8CB43F"/>
		<stop  offset="0.6685" style="stop-color:#DFE56E"/>
		<stop  offset="1" style="stop-color:#FFFFFF"/>
	</linearGradient>
	<path class="st2" d="M118.9,56.2c-0.2-11.8-8.6-23.8-18.9-27c-3-0.9-5.7-1-8.2-0.4l0,0l-0.1,0c-0.4,0.1-0.7,0.2-1,0.3l-22.9,6.7
		l21.7,44.1l20.1-8.4c0.1,0,0.2-0.1,0.3-0.1l0.1,0l0,0C115.2,69.3,118.8,63.8,118.9,56.2z"/>
	<g>
		
			<image style="overflow:visible;" width="131" height="132" xlink:href="879B1CA0.png"  transform="matrix(1 0 0 1 225.4286 31.5714)">
		</image>
	</g>
	<path class="st3" d="M78.1,80.4c-10.9-3.4-19.8-16.1-20-28.5c0.2-12.3,9.1-19.5,20-16.2c10.9,3.4,19.8,16.1,20,28.5
		C97.9,76.5,89,83.8,78.1,80.4z"/>
	<path class="st4" d="M70.2,59.5c0-1.7-1.2-3.5-2.8-4c-1.5-0.5-2.8,0.5-2.8,2.3c0,1.7,1.2,3.5,2.8,4C68.9,62.2,70.2,61.2,70.2,59.5z
		"/>
	<path class="st5" d="M70.3,59.2c0-1.7-1.2-3.5-2.8-4c-1.5-0.5-2.8,0.5-2.8,2.3c0,1.7,1.2,3.5,2.8,4C69.1,61.9,70.3,60.9,70.3,59.2z
		"/>
	<path class="st4" d="M91.4,65.8c0-1.7-1.2-3.5-2.8-4c-1.5-0.5-2.8,0.5-2.8,2.3c0,1.7,1.2,3.5,2.8,4C90.2,68.6,91.4,67.6,91.4,65.8z
		"/>
	<path class="st5" d="M91.5,65.5c0-1.7-1.2-3.5-2.8-4c-1.5-0.5-2.8,0.5-2.8,2.3c0,1.7,1.2,3.5,2.8,4C90.3,68.3,91.5,67.3,91.5,65.5z
		"/>
	<path class="st4" d="M79.6,45.8c0-1.7-1.2-3.5-2.8-4c-1.5-0.5-2.8,0.5-2.8,2.3c0,1.7,1.2,3.5,2.8,4C78.4,48.6,79.6,47.6,79.6,45.8z
		"/>
	<path class="st5" d="M79.8,45.5c0-1.7-1.2-3.5-2.8-4c-1.5-0.5-2.8,0.5-2.8,2.3c0,1.7,1.2,3.5,2.8,4C78.5,48.3,79.8,47.3,79.8,45.5z
		"/>
	<g>
		<g>
			
				<linearGradient id="SVGID_2_" gradientUnits="userSpaceOnUse" x1="258.67" y1="56.3833" x2="256.867" y2="62.671" gradientTransform="matrix(-1 0 0 1 321.2204 0)">
				<stop  offset="0" style="stop-color:#242123"/>
				<stop  offset="2.855780e-02" style="stop-color:#393739"/>
				<stop  offset="8.611478e-02" style="stop-color:#5F5E60"/>
				<stop  offset="0.139" style="stop-color:#7B7A7D"/>
				<stop  offset="0.185" style="stop-color:#8B8B8E"/>
				<stop  offset="0.2191" style="stop-color:#919194"/>
				<stop  offset="0.307" style="stop-color:#7C7B7E"/>
				<stop  offset="0.4841" style="stop-color:#565457"/>
				<stop  offset="0.6468" style="stop-color:#3A383A"/>
				<stop  offset="0.7884" style="stop-color:#2A2729"/>
				<stop  offset="0.8933" style="stop-color:#242123"/>
				<stop  offset="1" style="stop-color:#797A7D"/>
			</linearGradient>
			<path class="st6" d="M56.2,58.3l9.6-3c0.4-0.2,0.9-0.2,1.5,0c1.6,0.5,2.8,2.3,2.8,4.1c0,1.4-0.8,2.3-1.8,2.4l-9.4,2.9L56.2,58.3z
				"/>
			
				<linearGradient id="SVGID_3_" gradientUnits="userSpaceOnUse" x1="268.5192" y1="59.4391" x2="266.6972" y2="65.7933" gradientTransform="matrix(-1 0 0 1 321.2204 0)">
				<stop  offset="0" style="stop-color:#B2B3B6"/>
				<stop  offset="4.965897e-02" style="stop-color:#CCCCCE"/>
				<stop  offset="0.1168" style="stop-color:#E8E8E9"/>
				<stop  offset="0.1756" style="stop-color:#F9F9F9"/>
				<stop  offset="0.2191" style="stop-color:#FFFFFF"/>
				<stop  offset="0.2875" style="stop-color:#EAEAEB"/>
				<stop  offset="0.4314" style="stop-color:#C3C3C5"/>
				<stop  offset="0.5637" style="stop-color:#A6A7A9"/>
				<stop  offset="0.6788" style="stop-color:#959699"/>
				<stop  offset="0.764" style="stop-color:#8F9093"/>
				<stop  offset="0.8278" style="stop-color:#939497"/>
				<stop  offset="0.897" style="stop-color:#A0A1A4"/>
				<stop  offset="0.9685" style="stop-color:#B6B7B9"/>
				<stop  offset="1" style="stop-color:#C2C3C5"/>
			</linearGradient>
			<path class="st7" d="M46.1,61.3l10.1-3c0.4-0.2,1-0.2,1.5,0c1.6,0.5,2.8,2.3,2.8,4.1c0,1.4-0.6,2-1.7,2.4l-9.8,3.1L46.1,61.3z"/>
			<g>
				<path class="st8" d="M50.6,65.5c0-1.8-1.3-3.7-3-4.2c-1.6-0.5-3,0.6-3,2.4c0,1.8,1.3,3.7,3,4.2C49.3,68.3,50.6,67.3,50.6,65.5z"
					/>
				<path class="st9" d="M50.5,65.4c0-1.8-1.3-3.6-2.9-4.1c-1.6-0.5-2.9,0.6-2.9,2.3c0,1.8,1.3,3.6,2.9,4.1
					C49.2,68.3,50.5,67.2,50.5,65.4z"/>
				<path class="st10" d="M50.4,65.4c0-1.8-1.2-3.6-2.8-4.1c-1.6-0.5-2.9,0.5-2.9,2.3c0,1.8,1.2,3.6,2.8,4.1
					C49,68.2,50.3,67.1,50.4,65.4z"/>
				<path class="st11" d="M50.2,65.3c0-1.7-1.2-3.5-2.7-4c-1.5-0.5-2.8,0.5-2.8,2.3c0,1.7,1.2,3.5,2.7,4
					C48.9,68.1,50.2,67.1,50.2,65.3z"/>
				<path class="st12" d="M50.1,65.3c0.1-1.7-1.1-3.5-2.6-4c-1.5-0.5-2.8,0.5-2.8,2.2c-0.1,1.7,1.1,3.5,2.6,4
					C48.8,68,50.1,67,50.1,65.3z"/>
				<path class="st13" d="M50,65.3c0.1-1.7-1-3.5-2.5-3.9c-1.5-0.5-2.7,0.5-2.8,2.2c-0.1,1.7,1,3.5,2.5,3.9C48.7,68,49.9,67,50,65.3
					z"/>
				<path class="st14" d="M49.9,65.2c0.1-1.7-1-3.4-2.4-3.9c-1.4-0.5-2.7,0.5-2.7,2.2c-0.1,1.7,1,3.4,2.4,3.9
					C48.6,67.9,49.8,66.9,49.9,65.2z"/>
				<path class="st15" d="M49.8,65.2c0.1-1.7-0.9-3.4-2.3-3.8c-1.4-0.5-2.6,0.5-2.7,2.1c-0.1,1.7,0.9,3.4,2.3,3.8
					C48.4,67.8,49.7,66.9,49.8,65.2z"/>
				<path class="st16" d="M49.6,65.2c0.1-1.6-0.9-3.3-2.2-3.8c-1.4-0.5-2.6,0.5-2.7,2.1c-0.1,1.6,0.9,3.3,2.2,3.8
					C48.3,67.7,49.5,66.8,49.6,65.2z"/>
				<path class="st17" d="M49.5,65.1c0.1-1.6-0.8-3.3-2.1-3.8c-1.3-0.5-2.5,0.5-2.6,2.1c-0.1,1.6,0.8,3.3,2.1,3.8
					C48.2,67.7,49.4,66.7,49.5,65.1z"/>
				<path class="st18" d="M49.4,65.1c0.1-1.6-0.8-3.3-2.1-3.7c-1.3-0.5-2.4,0.5-2.6,2c-0.2,1.6,0.8,3.3,2.1,3.7
					C48.1,67.6,49.2,66.7,49.4,65.1z"/>
				<path class="st19" d="M49.3,65.1c0.2-1.6-0.7-3.2-2-3.7c-1.3-0.5-2.4,0.4-2.6,2c-0.2,1.6,0.7,3.2,2,3.7
					C48,67.5,49.1,66.6,49.3,65.1z"/>
				<path class="st20" d="M49.2,65c0.2-1.5-0.7-3.2-1.9-3.6c-1.2-0.5-2.3,0.4-2.5,2c-0.2,1.6,0.7,3.2,1.9,3.6
					C47.8,67.5,49,66.6,49.2,65z"/>
				<path class="st21" d="M49,65c0.2-1.5-0.6-3.1-1.8-3.6c-1.2-0.4-2.3,0.4-2.5,1.9c-0.2,1.5,0.6,3.1,1.8,3.6
					C47.7,67.4,48.8,66.5,49,65z"/>
				<path class="st22" d="M48.9,64.9c0.2-1.5-0.5-3.1-1.7-3.5c-1.1-0.4-2.2,0.4-2.5,1.9c-0.2,1.5,0.5,3.1,1.7,3.5
					C47.6,67.3,48.7,66.4,48.9,64.9z"/>
				<path class="st23" d="M48.8,64.9c0.2-1.5-0.5-3-1.6-3.5c-1.1-0.4-2.2,0.4-2.4,1.9c-0.2,1.5,0.5,3,1.6,3.5
					C47.5,67.2,48.6,66.4,48.8,64.9z"/>
				<path class="st24" d="M48.7,64.9c0.2-1.5-0.4-3-1.5-3.4c-1.1-0.4-2.1,0.4-2.4,1.9c-0.2,1.5,0.4,3,1.5,3.4
					C47.4,67.2,48.4,66.3,48.7,64.9z"/>
				<path class="st21" d="M48.6,64.8c0.2-1.4-0.4-2.9-1.4-3.3c-1-0.4-2,0.4-2.3,1.8c-0.2,1.4,0.4,2.9,1.4,3.3
					C47.3,67,48.4,66.2,48.6,64.8z"/>
				<path class="st25" d="M48.5,64.7c0.2-1.3-0.4-2.7-1.4-3.1c-1-0.4-1.9,0.4-2.2,1.7c-0.2,1.3,0.4,2.7,1.4,3.1
					C47.3,66.8,48.3,66,48.5,64.7z"/>
				<path class="st26" d="M48.5,64.6c0.2-1.3-0.4-2.6-1.3-3c-0.9-0.4-1.8,0.3-2,1.6c-0.2,1.3,0.4,2.6,1.3,3
					C47.3,66.6,48.2,65.9,48.5,64.6z"/>
				<path class="st27" d="M48.4,64.5c0.2-1.2-0.4-2.4-1.2-2.8c-0.9-0.4-1.7,0.3-1.9,1.5c-0.2,1.2,0.4,2.4,1.2,2.8
					C47.3,66.4,48.2,65.7,48.4,64.5z"/>
				<path class="st28" d="M48.3,64.5c0.2-1.1-0.3-2.3-1.2-2.6c-0.8-0.3-1.6,0.3-1.8,1.4c-0.2,1.1,0.3,2.3,1.2,2.6
					C47.3,66.2,48.1,65.6,48.3,64.5z"/>
				<path class="st29" d="M48.2,64.4c0.2-1-0.3-2.2-1.1-2.5c-0.8-0.3-1.5,0.3-1.7,1.3c-0.2,1.1,0.3,2.2,1.1,2.5
					C47.3,66,48.1,65.4,48.2,64.4z"/>
				<path class="st30" d="M48.2,64.3c0.2-1-0.3-2-1-2.3c-0.7-0.3-1.4,0.3-1.6,1.2c-0.2,1,0.3,2,1,2.3C47.3,65.8,48,65.3,48.2,64.3z"
					/>
				<path class="st31" d="M48.1,64.2c0.1-0.9-0.3-1.9-0.9-2.1c-0.7-0.3-1.3,0.2-1.5,1.2c-0.1,0.9,0.3,1.9,0.9,2.1
					C47.3,65.6,47.9,65.1,48.1,64.2z"/>
				<path class="st32" d="M48,64.1c0.1-0.8-0.3-1.7-0.9-2c-0.6-0.3-1.2,0.2-1.4,1.1c-0.1,0.8,0.3,1.7,0.9,2
					C47.3,65.4,47.9,65,48,64.1z"/>
				<path class="st33" d="M48,64c0.1-0.8-0.2-1.6-0.8-1.8c-0.6-0.2-1.1,0.2-1.3,1c-0.1,0.8,0.2,1.6,0.8,1.8
					C47.3,65.3,47.8,64.8,48,64z"/>
				<path class="st34" d="M47.9,64c0.1-0.7-0.2-1.4-0.7-1.7c-0.5-0.2-1,0.2-1.1,0.9c-0.1,0.7,0.2,1.4,0.7,1.7
					C47.3,65.1,47.8,64.7,47.9,64z"/>
				<path class="st35" d="M47.8,63.9c0.1-0.6-0.2-1.3-0.7-1.5c-0.5-0.2-0.9,0.2-1,0.8c-0.1,0.6,0.2,1.3,0.7,1.5
					C47.2,64.9,47.7,64.5,47.8,63.9z"/>
				<path class="st36" d="M47.7,63.8c0.1-0.6-0.2-1.2-0.6-1.3c-0.4-0.2-0.8,0.2-0.9,0.7c-0.1,0.6,0.2,1.2,0.6,1.3
					C47.2,64.7,47.7,64.4,47.7,63.8z"/>
				<path class="st37" d="M47.7,63.7c0.1-0.5-0.1-1-0.5-1.2c-0.4-0.1-0.7,0.1-0.8,0.6c-0.1,0.5,0.1,1,0.5,1.2
					C47.2,64.5,47.6,64.2,47.7,63.7z"/>
				<path class="st38" d="M47.6,63.6c0.1-0.4-0.1-0.9-0.4-1c-0.3-0.1-0.6,0.1-0.7,0.5c-0.1,0.4,0.1,0.9,0.4,1
					C47.2,64.3,47.5,64.1,47.6,63.6z"/>
				<path class="st4" d="M47.5,63.6c0.1-0.4-0.1-0.7-0.4-0.8c-0.3-0.1-0.5,0.1-0.6,0.5c-0.1,0.4,0.1,0.7,0.4,0.8
					C47.2,64.1,47.5,63.9,47.5,63.6z"/>
			</g>
		</g>
		<path class="st39" d="M47.2,61.2c2-0.3,4,2.5,3.4,4.8C50.4,63.7,48.8,61.6,47.2,61.2z"/>
	</g>
	<g>
		<g>
			
				<linearGradient id="SVGID_4_" gradientUnits="userSpaceOnUse" x1="236.1768" y1="65.2532" x2="234.3737" y2="71.5412" gradientTransform="matrix(-0.9823 4.880000e-02 6.400000e-03 1.0177 315.333 -14.9809)">
				<stop  offset="0" style="stop-color:#242123"/>
				<stop  offset="2.855780e-02" style="stop-color:#393739"/>
				<stop  offset="8.611478e-02" style="stop-color:#5F5E60"/>
				<stop  offset="0.139" style="stop-color:#7B7A7D"/>
				<stop  offset="0.185" style="stop-color:#8B8B8E"/>
				<stop  offset="0.2191" style="stop-color:#919194"/>
				<stop  offset="0.307" style="stop-color:#7C7B7E"/>
				<stop  offset="0.4841" style="stop-color:#565457"/>
				<stop  offset="0.6468" style="stop-color:#3A383A"/>
				<stop  offset="0.7884" style="stop-color:#2A2729"/>
				<stop  offset="0.8933" style="stop-color:#242123"/>
				<stop  offset="1" style="stop-color:#797A7D"/>
			</linearGradient>
			<path class="st40" d="M77.5,65.2l9.4-3.5c0.4-0.2,0.9-0.3,1.5-0.1c1.5,0.4,2.8,2.2,2.8,4c0,1.4-0.7,2.4-1.8,2.6l-9.2,3.4
				L77.5,65.2z"/>
			
				<linearGradient id="SVGID_5_" gradientUnits="userSpaceOnUse" x1="246.0256" y1="68.3089" x2="244.2035" y2="74.6635" gradientTransform="matrix(-0.9823 4.880000e-02 6.400000e-03 1.0177 315.333 -14.9809)">
				<stop  offset="0" style="stop-color:#B2B3B6"/>
				<stop  offset="4.965897e-02" style="stop-color:#CCCCCE"/>
				<stop  offset="0.1168" style="stop-color:#E8E8E9"/>
				<stop  offset="0.1756" style="stop-color:#F9F9F9"/>
				<stop  offset="0.2191" style="stop-color:#FFFFFF"/>
				<stop  offset="0.2875" style="stop-color:#EAEAEB"/>
				<stop  offset="0.4314" style="stop-color:#C3C3C5"/>
				<stop  offset="0.5637" style="stop-color:#A6A7A9"/>
				<stop  offset="0.6788" style="stop-color:#959699"/>
				<stop  offset="0.764" style="stop-color:#8F9093"/>
				<stop  offset="0.8278" style="stop-color:#939497"/>
				<stop  offset="0.897" style="stop-color:#A0A1A4"/>
				<stop  offset="0.9685" style="stop-color:#B6B7B9"/>
				<stop  offset="1" style="stop-color:#C2C3C5"/>
			</linearGradient>
			<path class="st41" d="M67.6,68.8l9.9-3.6c0.4-0.2,0.9-0.3,1.5-0.1c1.6,0.4,2.7,2.2,2.7,4.1c0,1.4-0.6,2.1-1.7,2.5l-9.6,3.7
				L67.6,68.8z"/>
			<g>
				<path class="st8" d="M72.1,72.8c0-1.8-1.3-3.7-2.9-4.1c-1.6-0.4-2.9,0.7-2.9,2.6s1.3,3.7,2.9,4.1C70.8,75.8,72.1,74.6,72.1,72.8
					z"/>
				<path class="st9" d="M72,72.7c0-1.8-1.3-3.6-2.8-4c-1.6-0.4-2.9,0.7-2.9,2.5c0,1.8,1.3,3.6,2.8,4C70.7,75.7,72,74.6,72,72.7z"/>
				<path class="st10" d="M71.8,72.7c0-1.8-1.2-3.6-2.7-4c-1.5-0.4-2.8,0.7-2.8,2.5c0,1.8,1.2,3.6,2.8,4
					C70.6,75.6,71.8,74.5,71.8,72.7z"/>
				<path class="st11" d="M71.7,72.7c0-1.8-1.2-3.5-2.7-4c-1.5-0.4-2.8,0.7-2.8,2.5c0,1.8,1.2,3.5,2.7,4
					C70.4,75.5,71.7,74.4,71.7,72.7z"/>
				<path class="st12" d="M71.6,72.6c0-1.8-1.1-3.5-2.6-3.9c-1.5-0.4-2.7,0.7-2.7,2.4c0,1.8,1.1,3.5,2.6,3.9
					C70.3,75.5,71.6,74.4,71.6,72.6z"/>
				<path class="st13" d="M71.5,72.6c0.1-1.7-1-3.5-2.5-3.9c-1.4-0.4-2.7,0.7-2.7,2.4c-0.1,1.7,1,3.5,2.5,3.9
					C70.2,75.4,71.4,74.3,71.5,72.6z"/>
				<path class="st14" d="M71.4,72.6c0.1-1.7-1-3.4-2.4-3.8c-1.4-0.4-2.6,0.6-2.7,2.3c-0.1,1.7,1,3.4,2.4,3.8
					C70.1,75.3,71.3,74.3,71.4,72.6z"/>
				<path class="st15" d="M71.2,72.5c0.1-1.7-0.9-3.4-2.3-3.8c-1.4-0.4-2.6,0.6-2.6,2.3c-0.1,1.7,0.9,3.4,2.3,3.8
					C70,75.3,71.2,74.2,71.2,72.5z"/>
				<path class="st16" d="M71.1,72.5c0.1-1.7-0.9-3.4-2.2-3.8c-1.3-0.4-2.5,0.6-2.6,2.3c-0.1,1.7,0.9,3.3,2.2,3.8
					C69.9,75.2,71,74.2,71.1,72.5z"/>
				<path class="st17" d="M71,72.5c0.1-1.6-0.8-3.3-2.1-3.7c-1.3-0.4-2.5,0.6-2.6,2.2c-0.1,1.7,0.8,3.3,2.1,3.7
					C69.7,75.1,70.9,74.1,71,72.5z"/>
				<path class="st18" d="M70.9,72.5c0.1-1.6-0.8-3.3-2-3.7c-1.3-0.4-2.4,0.6-2.5,2.2c-0.1,1.6,0.8,3.3,2,3.7
					C69.6,75.1,70.7,74.1,70.9,72.5z"/>
				<path class="st19" d="M70.8,72.4c0.2-1.6-0.7-3.2-2-3.6c-1.2-0.4-2.4,0.6-2.5,2.2c-0.2,1.6,0.7,3.2,2,3.6
					C69.5,75,70.6,74,70.8,72.4z"/>
				<path class="st20" d="M70.6,72.4c0.2-1.6-0.7-3.2-1.9-3.6c-1.2-0.4-2.3,0.6-2.5,2.1c-0.2,1.6,0.7,3.2,1.9,3.6
					C69.4,74.9,70.5,74,70.6,72.4z"/>
				<path class="st21" d="M70.5,72.4c0.2-1.6-0.6-3.2-1.8-3.6c-1.2-0.4-2.3,0.5-2.4,2.1c-0.2,1.6,0.6,3.2,1.8,3.6
					C69.3,74.9,70.3,73.9,70.5,72.4z"/>
				<path class="st22" d="M70.4,72.3c0.2-1.5-0.6-3.1-1.7-3.5c-1.1-0.4-2.2,0.5-2.4,2.1c-0.2,1.5,0.6,3.1,1.7,3.5
					C69.1,74.8,70.2,73.9,70.4,72.3z"/>
				<path class="st23" d="M70.3,72.3c0.2-1.5-0.5-3.1-1.6-3.5c-1.1-0.4-2.2,0.5-2.4,2c-0.2,1.5,0.5,3.1,1.6,3.5
					C69,74.7,70.1,73.8,70.3,72.3z"/>
				<path class="st24" d="M70.2,72.3c0.2-1.5-0.4-3-1.5-3.4c-1.1-0.4-2.1,0.5-2.3,2c-0.2,1.5,0.4,3,1.5,3.4
					C68.9,74.7,69.9,73.8,70.2,72.3z"/>
				<path class="st21" d="M70.1,72.2c0.2-1.4-0.4-2.9-1.4-3.3c-1-0.4-2,0.5-2.2,1.9c-0.2,1.4,0.4,2.9,1.4,3.3
					C68.9,74.5,69.9,73.6,70.1,72.2z"/>
				<path class="st25" d="M70,72.1c0.2-1.4-0.4-2.8-1.4-3.1c-1-0.4-1.9,0.5-2.1,1.8c-0.2,1.4,0.4,2.8,1.4,3.1
					C68.9,74.3,69.8,73.5,70,72.1z"/>
				<path class="st26" d="M70,72c0.2-1.3-0.4-2.6-1.3-2.9c-0.9-0.3-1.8,0.4-2,1.7c-0.2,1.3,0.4,2.6,1.3,2.9
					C68.9,74.1,69.8,73.3,70,72z"/>
				<path class="st27" d="M69.9,71.9c0.2-1.2-0.4-2.5-1.2-2.8c-0.9-0.3-1.7,0.4-1.9,1.6c-0.2,1.2,0.4,2.5,1.2,2.8
					C68.9,73.9,69.7,73.2,69.9,71.9z"/>
				<path class="st28" d="M69.8,71.9c0.2-1.1-0.3-2.3-1.2-2.6c-0.8-0.3-1.6,0.4-1.8,1.5c-0.2,1.2,0.3,2.3,1.2,2.6
					C68.8,73.7,69.6,73,69.8,71.9z"/>
				<path class="st29" d="M69.7,71.8c0.2-1.1-0.3-2.2-1.1-2.5c-0.8-0.3-1.5,0.4-1.7,1.4c-0.2,1.1,0.3,2.2,1.1,2.5
					C68.8,73.5,69.6,72.9,69.7,71.8z"/>
				<path class="st30" d="M69.7,71.7c0.2-1-0.3-2-1-2.3c-0.7-0.3-1.4,0.3-1.6,1.3c-0.2,1,0.3,2,1,2.3C68.8,73.3,69.5,72.7,69.7,71.7
					z"/>
				<path class="st31" d="M69.6,71.6c0.1-0.9-0.3-1.9-0.9-2.1c-0.7-0.2-1.3,0.3-1.4,1.2c-0.1,0.9,0.3,1.9,0.9,2.1
					C68.8,73.1,69.5,72.6,69.6,71.6z"/>
				<path class="st32" d="M69.5,71.5c0.1-0.9-0.3-1.7-0.9-2c-0.6-0.2-1.2,0.3-1.3,1.2c-0.1,0.9,0.3,1.7,0.9,2
					C68.8,72.9,69.4,72.4,69.5,71.5z"/>
				<path class="st33" d="M69.5,71.5c0.1-0.8-0.2-1.6-0.8-1.8c-0.6-0.2-1.1,0.3-1.2,1.1c-0.1,0.8,0.2,1.6,0.8,1.8
					C68.8,72.7,69.3,72.3,69.5,71.5z"/>
				<path class="st34" d="M69.4,71.4c0.1-0.7-0.2-1.5-0.7-1.6c-0.5-0.2-1,0.2-1.1,1c-0.1,0.7,0.2,1.5,0.7,1.6
					C68.8,72.5,69.3,72.1,69.4,71.4z"/>
				<path class="st35" d="M69.3,71.3c0.1-0.7-0.2-1.3-0.7-1.5c-0.5-0.2-0.9,0.2-1,0.9c-0.1,0.7,0.2,1.3,0.7,1.5
					C68.8,72.3,69.2,72,69.3,71.3z"/>
				<path class="st36" d="M69.3,71.2c0.1-0.6-0.2-1.2-0.6-1.3c-0.4-0.1-0.8,0.2-0.9,0.8c-0.1,0.6,0.2,1.2,0.6,1.3
					C68.8,72.1,69.2,71.8,69.3,71.2z"/>
				<path class="st37" d="M69.2,71.1c0.1-0.5-0.2-1-0.5-1.2c-0.4-0.1-0.7,0.2-0.8,0.7c-0.1,0.5,0.2,1,0.5,1.2
					C68.8,72,69.1,71.6,69.2,71.1z"/>
				<path class="st38" d="M69.1,71.1c0.1-0.4-0.1-0.9-0.4-1c-0.3-0.1-0.6,0.1-0.7,0.6c-0.1,0.4,0.1,0.9,0.4,1
					C68.7,71.8,69.1,71.5,69.1,71.1z"/>
				<path class="st4" d="M69,71c0.1-0.4-0.1-0.7-0.4-0.8c-0.3-0.1-0.5,0.1-0.6,0.5c-0.1,0.4,0.1,0.7,0.4,0.8
					C68.7,71.6,69,71.3,69,71z"/>
			</g>
		</g>
		<path class="st39" d="M68.7,68.6c1.9-0.4,4,2.3,3.4,4.7C71.9,71,70.3,69,68.7,68.6z"/>
	</g>
</g>
</svg>
