<?xml version="1.0" encoding="utf-8"?>
<!-- Generator: Adobe Illustrator 19.0.1, SVG Export Plug-In . SVG Version: 6.00 Build 0)  -->
<svg version="1.1" id="Layer_1" xmlns="http://www.w3.org/2000/svg" xmlns:xlink="http://www.w3.org/1999/xlink" x="0px" y="0px"
	 viewBox="0 0 366.5 105.8" style="enable-background:new 0 0 366.5 105.8;" xml:space="preserve">
<style type="text/css">
	.st0{fill:#4E5C69;}
	.st1{fill:url(#SVGID_1_);}
	.st2{fill:#9A724C;}
	.st3{fill:#FFFFFF;}
	.st4{fill:#E0EAF4;}
	.st5{fill:#829AAC;}
	.st6{fill:url(#SVGID_2_);}
	.st7{fill:#FADDA6;}
	.st8{fill:#F09E52;}
	.st9{fill:url(#SVGID_3_);}
	.st10{fill:#B1B3B6;}
	.st11{fill:#C68343;}
	.st12{clip-path:url(#SVGID_5_);fill:#94622F;}
	.st13{clip-path:url(#SVGID_7_);fill:#94622F;}
	.st14{clip-path:url(#SVGID_9_);fill:url(#SVGID_10_);}
	.st15{clip-path:url(#SVGID_12_);fill:url(#SVGID_13_);}
	.st16{clip-path:url(#SVGID_15_);fill:url(#SVGID_16_);}
	.st17{opacity:0.5;fill:#AB7139;enable-background:new    ;}
</style>
<rect x="6.1" y="0.8" class="st0" width="350" height="79.4"/>
<linearGradient id="SVGID_1_" gradientUnits="userSpaceOnUse" x1="181.086" y1="124.3375" x2="181.086" y2="44.9375" gradientTransform="matrix(1 0 0 -1 0 123.8)">
	<stop  offset="0" style="stop-color:#C6A280"/>
	<stop  offset="1.055223e-002" style="stop-color:#CAA888"/>
	<stop  offset="5.136833e-002" style="stop-color:#D8C0A8"/>
	<stop  offset="7.303400e-002" style="stop-color:#DEC9B5"/>
	<stop  offset="0.1051" style="stop-color:#D1B9A1"/>
	<stop  offset="0.157" style="stop-color:#C3A78B"/>
	<stop  offset="0.2184" style="stop-color:#B8997B"/>
	<stop  offset="0.2943" style="stop-color:#B19070"/>
	<stop  offset="0.4009" style="stop-color:#AD8B6B"/>
	<stop  offset="0.6966" style="stop-color:#AC8A69"/>
</linearGradient>
<rect x="6.1" class="st1" width="350" height="79.4"/>
<polygon class="st2" points="153.7,66.7 107.9,66.7 105.4,64.1 151.2,18.3 153.7,20.9 "/>
<polygon class="st3" points="152.8,19.8 107,65.6 105.4,64.1 105.4,18.3 151.2,18.3 "/>
<rect x="107" y="19.8" class="st4" width="45.8" height="45.8"/>
<circle class="st5" cx="129.9" cy="42.7" r="15.7"/>
<linearGradient id="SVGID_2_" gradientUnits="userSpaceOnUse" x1="129.886" y1="96.4" x2="129.886" y2="65.8" gradientTransform="matrix(1 0 0 -1 0 123.8)">
	<stop  offset="0" style="stop-color:#F09E52"/>
	<stop  offset="2.951567e-002" style="stop-color:#F2A661"/>
	<stop  offset="0.1318" style="stop-color:#F7C290"/>
	<stop  offset="0.2073" style="stop-color:#F9D4AF"/>
	<stop  offset="0.2472" style="stop-color:#FADBBC"/>
	<stop  offset="0.2484" style="stop-color:#FADABB"/>
	<stop  offset="0.3723" style="stop-color:#F7C494"/>
	<stop  offset="0.4911" style="stop-color:#F4B377"/>
	<stop  offset="0.6019" style="stop-color:#F2A863"/>
	<stop  offset="0.7016" style="stop-color:#F1A156"/>
	<stop  offset="0.7809" style="stop-color:#F09E52"/>
	<stop  offset="1" style="stop-color:#754B1F"/>
</linearGradient>
<circle class="st6" cx="129.9" cy="42.7" r="15.3"/>
<g>
	<path class="st7" d="M134.1,31.1c4.8,0,9,2.4,11.5,6.1c-2.3-4.4-7-7.4-12.3-7.4c-7.7,0-13.9,6.2-13.9,13.9c0,2.9,0.9,5.6,2.4,7.8
		c-1-1.9-1.6-4.2-1.6-6.5C120.2,37.3,126.4,31.1,134.1,31.1z"/>
	<path class="st8" d="M133.3,57.6c7.7,0,13.9-6.2,13.9-13.9c0-2.4-0.6-4.6-1.6-6.5c-2.5-3.7-6.7-6.1-11.5-6.1
		c-7.7,0-13.9,6.2-13.9,13.9c0,2.4,0.6,4.6,1.6,6.5C124.3,55.2,128.6,57.6,133.3,57.6z"/>
</g>
<linearGradient id="SVGID_3_" gradientUnits="userSpaceOnUse" x1="133.286" y1="84.1109" x2="133.286" y2="75.9992" gradientTransform="matrix(1 0 0 -1 0 123.8)">
	<stop  offset="0" style="stop-color:#F09E52"/>
	<stop  offset="2.951567e-002" style="stop-color:#F2A661"/>
	<stop  offset="0.1318" style="stop-color:#F7C290"/>
	<stop  offset="0.2073" style="stop-color:#F9D4AF"/>
	<stop  offset="0.2472" style="stop-color:#FADBBC"/>
	<stop  offset="0.2489" style="stop-color:#FADABB"/>
	<stop  offset="0.4237" style="stop-color:#F7C494"/>
	<stop  offset="0.5912" style="stop-color:#F4B377"/>
	<stop  offset="0.7475" style="stop-color:#F2A863"/>
	<stop  offset="0.8882" style="stop-color:#F1A156"/>
	<stop  offset="1" style="stop-color:#F09E52"/>
</linearGradient>
<circle class="st9" cx="133.3" cy="43.7" r="4"/>
<circle class="st10" cx="149.3" cy="22.2" r="1"/>
<circle class="st10" cx="110.5" cy="22.2" r="1"/>
<circle class="st10" cx="149.3" cy="63.1" r="1"/>
<circle class="st10" cx="110.5" cy="63.1" r="1"/>
<g>
	<path class="st8" d="M132.1,43.1c-0.5,1.6,0.1,3.6,1.7,4.3c1.9,0.4,2.7,8.5,3.2,13.8c0.4,4.2,0.9,9,1.8,13.6
		c3.8,18.5,24.4,21,44,21c0.9,0,3.9-0.2,10.5-0.6c30.7-2,124-8.3,157.8-1.2l1.4-6.9c-34.7-7.3-128.8-1-159.7,1.1
		c-5.2,0.3-9.3,0.6-10.1,0.6c-23.9,0-35-4.6-37.2-15.4c-0.9-4.3-1.3-8.6-1.7-12.9c-1-10-1.8-18.6-8.8-20
		C134.3,40.4,132.7,41.5,132.1,43.1z"/>
	<g>
		<path class="st7" d="M352.3,88.3c-35.2-6.4-124.8-0.4-154.7,1.6c-6.6,0.4-9.5,0.6-10.5,0.6c-19.5,0-40-1.7-43.7-20.2
			c-0.9-4.6-1.4-9.4-1.8-13.6c-0.5-5.3-1.2-11.8-3.4-13.3c-1.3-0.9-3.3-1.1-4.9-1.2c1.4,0.8,3.3,1.4,4.2,1.8
			c1.9,0.4,2.7,8.5,3.2,13.8c0.4,4.2,0.9,9,1.8,13.6c3.8,18.5,24.2,20.2,43.7,20.2c0.9,0,3.9-0.2,10.5-0.6
			c30.1-2,120.7-8.1,155.4-1.5L352.3,88.3z"/>
	</g>
	<g>
		<path class="st11" d="M193.9,93c-6.6,0.4-9.6,0.6-10.5,0.6c-19.7,0-40.3-2.5-44-21c-0.9-4.6-1.4-9.4-1.8-13.6
			c-0.5-5.3-1.3-13.4-3.2-13.8c-1.1-0.5-1.7-1.5-1.8-2.6c-0.9,1.2-0.9,4.5,1.3,4.9c1.9,0.4,2.7,8.5,3.2,13.8c0.4,4.2,0.9,9,1.8,13.6
			c3.8,18.5,24.4,21,44,21c0.9,0,3.9-0.2,10.5-0.6c30.7-2,124-8.3,157.8-1.2l0.3-2.3C317.6,84.8,224.5,91,193.9,93z"/>
	</g>
</g>
<g>
	<g>
		<path id="SVGID_56_" class="st3" d="M228.4,84.6V86c-2.1,1.1,2.2,0.8,1.3,2.4c-0.8,1.6-1.9,2.2,0.6,2.7c-1.2,1.1-0.4,1.5-3.6,2.1
			c1.1,1.3,3.8,2.5,6,2.5c5.8,0.2,24-0.4,30-4.2c-5.6,0.2-5.7-1.1-4.7-2c1.1-0.9,2.3-2.3,1-2.5c2-0.7,0.5-2.2-1.3-2.3
			c1-0.6,1.5-1.2,1.7-1.8L228.4,84.6z"/>
	</g>
	<g>
		<defs>
			<path id="SVGID_4_" d="M228.4,84.6V86c-2.1,1.1,2.2,0.8,1.3,2.4c-0.8,1.6-1.9,2.2,0.6,2.7c-1.2,1.1-0.4,1.5-3.6,2.1
				c1.1,1.3,3.8,2.5,6,2.5c5.8,0.2,24-0.4,30-4.2c-5.6,0.2-5.7-1.1-4.7-2c1.1-0.9,2.3-2.3,1-2.5c2-0.7,0.5-2.2-1.3-2.3
				c1-0.6,1.5-1.2,1.7-1.8L228.4,84.6z"/>
		</defs>
		<clipPath id="SVGID_5_">
			<use xlink:href="#SVGID_4_"  style="overflow:visible;"/>
		</clipPath>
		<path class="st12" d="M227.6,93c4.6-0.2,2.8-2.7,2.6-3.1s-0.8-0.9-0.4-2.1s0-2.1-2.1-1.7S227.6,93,227.6,93z"/>
	</g>
	<g>
		<defs>
			<path id="SVGID_6_" d="M228.4,84.6V86c-2.1,1.1,2.2,0.8,1.3,2.4c-0.8,1.6-1.9,2.2,0.6,2.7c-1.2,1.1-0.4,1.5-3.6,2.1
				c1.1,1.3,3.8,2.5,6,2.5c5.8,0.2,24-0.4,30-4.2c-5.6,0.2-5.7-1.1-4.7-2c1.1-0.9,2.3-2.3,1-2.5c2-0.7,0.5-2.2-1.3-2.3
				c1-0.6,1.5-1.2,1.7-1.8L228.4,84.6z"/>
		</defs>
		<clipPath id="SVGID_7_">
			<use xlink:href="#SVGID_6_"  style="overflow:visible;"/>
		</clipPath>
		<path class="st13" d="M258.3,84.7c-2.6,0,0.4,0.9,1.3,2.5c0.2,0.8-3.2,3.2-1,4C261.8,89.2,261.2,84.8,258.3,84.7z"/>
	</g>
	<g>
		<defs>
			<path id="SVGID_8_" d="M228.4,84.6V86c-2.1,1.1,2.2,0.8,1.3,2.4c-0.8,1.6-1.9,2.2,0.6,2.7c-1.2,1.1-0.4,1.5-3.6,2.1
				c1.1,1.3,3.8,2.5,6,2.5c5.8,0.2,24-0.4,30-4.2c-5.6,0.2-5.7-1.1-4.7-2c1.1-0.9,2.3-2.3,1-2.5c2-0.7,0.5-2.2-1.3-2.3
				c1-0.6,1.5-1.2,1.7-1.8L228.4,84.6z"/>
		</defs>
		<clipPath id="SVGID_9_">
			<use xlink:href="#SVGID_8_"  style="overflow:visible;"/>
		</clipPath>
		
			<linearGradient id="SVGID_10_" gradientUnits="userSpaceOnUse" x1="242.937" y1="37.1384" x2="243.0338" y2="35.0855" gradientTransform="matrix(1 0 0 -1 0 123.8)">
			<stop  offset="0" style="stop-color:#75C1EB"/>
			<stop  offset="0.5225" style="stop-color:#00A2E0"/>
			<stop  offset="1" style="stop-color:#007B9C"/>
		</linearGradient>
		<polygon class="st14" points="263,87.8 223.2,89.7 223,87.6 262.9,85.7 		"/>
	</g>
	<g>
		<defs>
			<path id="SVGID_11_" d="M228.4,84.6V86c-2.1,1.1,2.2,0.8,1.3,2.4c-0.8,1.6-1.9,2.2,0.6,2.7c-1.2,1.1-0.4,1.5-3.6,2.1
				c1.1,1.3,3.8,2.5,6,2.5c5.8,0.2,24-0.4,30-4.2c-5.6,0.2-5.7-1.1-4.7-2c1.1-0.9,2.3-2.3,1-2.5c2-0.7,0.5-2.2-1.3-2.3
				c1-0.6,1.5-1.2,1.7-1.8L228.4,84.6z"/>
		</defs>
		<clipPath id="SVGID_12_">
			<use xlink:href="#SVGID_11_"  style="overflow:visible;"/>
		</clipPath>
		
			<linearGradient id="SVGID_13_" gradientUnits="userSpaceOnUse" x1="242.9376" y1="35.2776" x2="243.0344" y2="33.2247" gradientTransform="matrix(1 0 0 -1 0 123.8)">
			<stop  offset="0" style="stop-color:#FFFFFF"/>
			<stop  offset="0.6573" style="stop-color:#00AA4F"/>
			<stop  offset="1" style="stop-color:#036237"/>
		</linearGradient>
		<polygon class="st15" points="263,89.6 223.2,91.5 223,89.5 262.9,87.6 		"/>
	</g>
	<g>
		<defs>
			<path id="SVGID_14_" d="M228.4,84.6V86c-2.1,1.1,2.2,0.8,1.3,2.4c-0.8,1.6-1.9,2.2,0.6,2.7c-1.2,1.1-0.4,1.5-3.6,2.1
				c1.1,1.3,3.8,2.5,6,2.5c5.8,0.2,24-0.4,30-4.2c-5.6,0.2-5.7-1.1-4.7-2c1.1-0.9,2.3-2.3,1-2.5c2-0.7,0.5-2.2-1.3-2.3
				c1-0.6,1.5-1.2,1.7-1.8L228.4,84.6z"/>
		</defs>
		<clipPath id="SVGID_15_">
			<use xlink:href="#SVGID_14_"  style="overflow:visible;"/>
		</clipPath>
		
			<linearGradient id="SVGID_16_" gradientUnits="userSpaceOnUse" x1="242.9382" y1="36.1106" x2="243.035" y2="34.0647" gradientTransform="matrix(1 0 0 -1 0 123.8)">
			<stop  offset="0" style="stop-color:#F6B29E"/>
			<stop  offset="0.6573" style="stop-color:#EA4B40"/>
			<stop  offset="1" style="stop-color:#AF3B37"/>
		</linearGradient>
		<polygon class="st16" points="263,88.8 223.2,90.7 223,88.6 262.9,86.7 		"/>
	</g>
</g>
<path class="st17" d="M208.5,88.2c-1.5,1.3,1.9,2.5,4,2.5c2-0.1,5.2-0.5,3.7-2.5c-0.8,1.1-2.4,1.5-4.8,1.4
	C209.9,89.5,208.5,89,208.5,88.2z"/>
<path class="st17" d="M202,90.6c-1.2,1.6,1.9,2.5,4,2.5C208,93,203.2,89,202,90.6z"/>
<path class="st17" d="M275.9,85.4c0.1,1.8,1.8,1.7,2.7,0.9C279.4,85.6,275.8,83.5,275.9,85.4z"/>
<path class="st17" d="M282.6,89.2c0.2,2.1,3.1,0.3,4.5-1.4C288.5,86.1,282.4,87.1,282.6,89.2z"/>
<path class="st17" d="M224,91.4c0.4-1.8-1.8-2-2.5-0.9C220.9,91.4,223.5,93.3,224,91.4z"/>
<path class="st17" d="M196.9,91.7c1.4-0.1,1.2-1.6,0.2-1.9C196.4,89.6,195.5,91.7,196.9,91.7z"/>
<path class="st17" d="M265.1,89.1c-3.7-0.7-4.5,0.8-2.3,1.4C264.5,91,268.8,89.7,265.1,89.1z"/>
<g>
	<path class="st17" d="M273.3,86.3c0.1,0.4-0.1,0.8-0.6,1.1c-1.3,0.7-4.4-0.5-4.1-1.9c0-0.1,0.1-0.2,0.1-0.3
		c-0.3,0.2-0.5,0.5-0.6,0.9c-0.2,1.4,3.6,2.8,5.2,2.1C274.2,87.9,274,87,273.3,86.3z"/>
</g>
</svg>
