<?xml version="1.0" encoding="utf-8"?>
<!-- Generator: Adobe Illustrator 19.0.1, SVG Export Plug-In . SVG Version: 6.00 Build 0)  -->
<svg version="1.1" id="Calque_2" xmlns="http://www.w3.org/2000/svg" xmlns:xlink="http://www.w3.org/1999/xlink" x="0px" y="0px"
	 viewBox="0 0 438.2 304.6" style="enable-background:new 0 0 438.2 304.6;" xml:space="preserve">
<style type="text/css">
	.st0{fill:#FFFFFF;}
	.st1{fill:#FBFBF6;}
	.st2{fill:#F7F8F0;}
	.st3{fill:#F4F6EA;}
	.st4{fill:#F1F3E5;}
	.st5{fill:#EFF1DF;}
	.st6{fill:#ECEFDA;}
	.st7{fill:#EAEDD4;}
	.st8{fill:#E8EBCF;}
	.st9{fill:#E5E9CA;}
	.st10{fill:#E2E7C4;}
	.st11{fill:#E0E5BF;}
	.st12{fill:#DEE3BA;}
	.st13{fill:#DBE1B5;}
	.st14{fill:#D9DFB0;}
	.st15{fill:#D6DDAA;}
	.st16{fill:#D4DBA5;}
	.st17{fill:#D2DAA0;}
	.st18{fill:#CFD89B;}
	.st19{fill:#CDD696;}
	.st20{fill:#CBD492;}
	.st21{fill:#C8D38D;}
	.st22{fill:#C6D188;}
	.st23{fill:#C3CF84;}
	.st24{fill:#C1CE7F;}
	.st25{fill:#BFCC7A;}
	.st26{fill:#BCCB75;}
	.st27{fill:#D34441;stroke:#862522;stroke-width:1.5;}
	.st28{fill:#D34441;}
	.st29{fill:none;stroke:#862522;stroke-width:1.5;}
	.st30{fill:#75B2DB;}
	.st31{fill:#DEE9F5;}
	.st32{fill:#B53936;stroke:#7E211E;}
	.st33{fill:#7E211E;}
	.st34{fill:#97C2E3;}
	.st35{fill:#70221E;}
	.st36{fill:url(#SVGID_1_);}
	.st37{fill:#999590;}
	.st38{fill:#646563;}
	.st39{fill:none;stroke:#F08B1D;stroke-width:2.6665;stroke-linecap:round;stroke-linejoin:round;}
	.st40{fill:#F08B1D;}
	.st41{fill:none;stroke:#CDCFD0;stroke-width:3.1372;}
	.st42{fill:none;stroke:#FFFFFF;stroke-width:3.1372;}
	.st43{fill:#069FB3;}
	.st44{fill:#4FC9F5;}
	.st45{fill:#828B92;}
	.st46{fill:url(#SVGID_2_);}
	.st47{fill:url(#SVGID_3_);}
	.st48{fill:url(#SVGID_4_);}
	.st49{fill:#393B3A;}
	.st50{fill:#C4C1BE;}
</style>
<g>
	<g>
		<path class="st0" d="M12.2,277.9c0-14.7,95.4-26.7,213-26.7c117.6,0,213,11.9,213,26.7c0,14.7-95.4,26.7-213,26.7
			C107.6,304.6,12.2,292.6,12.2,277.9z"/>
		<path class="st1" d="M19.4,277.6c0-14.2,92.2-25.8,205.8-25.8c113.7,0,205.8,11.5,205.8,25.8c0,14.2-92.1,25.8-205.8,25.8
			C111.5,303.4,19.4,291.8,19.4,277.6z"/>
		<path class="st2" d="M26.5,277.3c0-13.8,88.9-24.9,198.7-24.9c109.7,0,198.7,11.2,198.7,24.9c0,13.8-88.9,24.9-198.7,24.9
			C115.5,302.2,26.5,291,26.5,277.3z"/>
		<path class="st3" d="M33.7,277c0-13.3,85.7-24,191.5-24c105.8,0,191.5,10.8,191.5,24c0,13.3-85.7,24-191.5,24
			C119.5,301,33.7,290.3,33.7,277z"/>
		<path class="st4" d="M40.9,276.7c0-12.8,82.5-23.2,184.3-23.2c101.8,0,184.3,10.4,184.3,23.2c0,12.8-82.5,23.2-184.3,23.2
			C123.4,299.9,40.9,289.5,40.9,276.7z"/>
		<path class="st5" d="M48.1,276.4c0-12.3,79.3-22.3,177.2-22.3c97.8,0,177.1,10,177.1,22.3c0,12.3-79.3,22.3-177.1,22.3
			C127.4,298.7,48.1,288.7,48.1,276.4z"/>
		<path class="st6" d="M55.2,276.1c0-11.8,76.1-21.4,170-21.4c93.9,0,170,9.6,170,21.4c0,11.8-76.1,21.4-170,21.4
			C131.3,297.5,55.2,287.9,55.2,276.1z"/>
		<path class="st7" d="M62.4,275.8c0-11.3,72.9-20.5,162.8-20.5c89.9,0,162.8,9.2,162.8,20.5c0,11.3-72.9,20.5-162.8,20.5
			C135.3,296.3,62.4,287.1,62.4,275.8z"/>
		<path class="st8" d="M69.6,275.5c0-10.9,69.7-19.7,155.6-19.7c86,0,155.6,8.8,155.6,19.7c0,10.9-69.7,19.7-155.6,19.7
			C139.3,295.2,69.6,286.4,69.6,275.5z"/>
		<path class="st9" d="M76.7,275.2c0-10.4,66.5-18.8,148.5-18.8c82,0,148.5,8.4,148.5,18.8c0,10.4-66.5,18.8-148.5,18.8
			C143.2,294,76.7,285.6,76.7,275.2z"/>
		<path class="st10" d="M83.9,274.9c0-9.9,63.3-17.9,141.3-17.9c78,0,141.3,8,141.3,17.9c0,9.9-63.3,17.9-141.3,17.9
			C147.2,292.8,83.9,284.8,83.9,274.9z"/>
		<path class="st11" d="M91.1,274.6c0-9.4,60.1-17,134.1-17c74.1,0,134.1,7.6,134.1,17c0,9.4-60,17-134.1,17
			C151.1,291.6,91.1,284,91.1,274.6z"/>
		<path class="st12" d="M98.2,274.3c0-8.9,56.8-16.2,127-16.2c70.1,0,127,7.2,127,16.2c0,8.9-56.8,16.2-127,16.2
			C155.1,290.5,98.2,283.2,98.2,274.3z"/>
		<path class="st13" d="M105.4,274c0-8.4,53.6-15.3,119.8-15.3c66.2,0,119.8,6.8,119.8,15.3c0,8.5-53.6,15.3-119.8,15.3
			C159.1,289.3,105.4,282.4,105.4,274z"/>
		<path class="st14" d="M112.6,273.7c0-8,50.4-14.4,112.6-14.4c62.2,0,112.6,6.5,112.6,14.4c0,8-50.4,14.4-112.6,14.4
			C163,288.1,112.6,281.7,112.6,273.7z"/>
		<path class="st15" d="M119.8,273.4c0-7.5,47.2-13.5,105.4-13.5c58.2,0,105.4,6.1,105.4,13.5c0,7.5-47.2,13.6-105.4,13.6
			C167,286.9,119.8,280.9,119.8,273.4z"/>
		<ellipse class="st16" cx="225.2" cy="273.1" rx="98.3" ry="12.7"/>
		<ellipse class="st17" cx="225.2" cy="272.8" rx="91.1" ry="11.8"/>
		<ellipse class="st18" cx="225.2" cy="272.5" rx="83.9" ry="10.9"/>
		<ellipse class="st19" cx="225.2" cy="272.2" rx="76.8" ry="10.1"/>
		<ellipse class="st20" cx="225.2" cy="271.9" rx="69.6" ry="9.2"/>
		<ellipse class="st21" cx="225.2" cy="271.6" rx="62.4" ry="8.3"/>
		<ellipse class="st22" cx="225.2" cy="271.3" rx="55.3" ry="7.4"/>
		<ellipse class="st23" cx="225.2" cy="271" rx="48.1" ry="6.6"/>
		<ellipse class="st24" cx="225.2" cy="270.7" rx="40.9" ry="5.7"/>
		<ellipse class="st25" cx="225.2" cy="270.4" rx="33.7" ry="4.8"/>
		<ellipse class="st26" cx="225.2" cy="270.1" rx="26.6" ry="3.9"/>
	</g>
	<polygon class="st27" points="53.3,92 319.5,86.4 323.2,65 53.3,75.2 	"/>
	<g>
		<g>
			<polygon class="st28" points="52.1,283.4 320.7,287.9 322,265.3 51.2,264.5 			"/>
			<polygon class="st29" points="52.1,283.4 320.7,287.9 322,265.3 51.2,264.5 			"/>
		</g>
		<g>
			<polygon class="st28" points="52.1,263.5 320.6,267 321.9,244.4 51.2,244.5 			"/>
			<polygon class="st29" points="52.1,263.5 320.6,267 321.9,244.4 51.2,244.5 			"/>
		</g>
		<g>
			<polygon class="st28" points="52.1,244 320.5,246.5 321.8,223.9 51.2,225 			"/>
			<polygon class="st29" points="52.1,244 320.5,246.5 321.8,223.9 51.2,225 			"/>
		</g>
		<g>
			<polygon class="st28" points="52.1,224.5 320.4,226 321.7,203.4 51.2,205.6 			"/>
			<polygon class="st29" points="52.1,224.5 320.4,226 321.7,203.4 51.2,205.6 			"/>
		</g>
		<g>
			<polygon class="st28" points="52.1,205.1 320.3,205.5 321.6,182.9 51.2,186.1 			"/>
			<polygon class="st29" points="52.1,205.1 320.3,205.5 321.6,182.9 51.2,186.1 			"/>
		</g>
		<g>
			<polygon class="st28" points="52.1,185.3 320.2,184.7 321.5,162.1 51.2,166.3 			"/>
			<polygon class="st29" points="52.1,185.3 320.2,184.7 321.5,162.1 51.2,166.3 			"/>
		</g>
		<g>
			<polygon class="st28" points="52.1,165.3 320.1,163.6 321.4,141.1 51.2,146.3 			"/>
			<polygon class="st29" points="52.1,165.3 320.1,163.6 321.4,141.1 51.2,146.3 			"/>
		</g>
		<g>
			<polygon class="st28" points="52.1,145.3 320,142.6 321.3,120.1 51.2,126.3 			"/>
			<polygon class="st29" points="52.1,145.3 320,142.6 321.3,120.1 51.2,126.3 			"/>
		</g>
		<g>
			<polygon class="st28" points="52.1,125.3 319.9,121.6 321.2,99 51.2,106.3 			"/>
			<polygon class="st29" points="52.1,125.3 319.9,121.6 321.2,99 51.2,106.3 			"/>
		</g>
	</g>
	<polygon class="st27" points="53.7,107.4 321.5,103.7 322.8,85.6 52.9,92.8 	"/>
	<polygon class="st27" points="50,78 310.4,66.6 246,48.7 114.2,51.2 50.8,74.7 	"/>
	<path class="st27" d="M119.5,53.6c23.7-0.3,23.5-0.3,125.1-3.3l-29.2-23.5l-46,0.6L119.5,53.6z"/>
	<path class="st30" d="M40.1,80.9c0,0-3,104-3.5,124.5s-1,80-1,80l22-1.5c0,0,1.5-204.5,1.5-210L40.1,80.9z"/>
	<path class="st31" d="M38.2,80.4c0,0-3,104-3.5,124.5s-1,80-1,80l22-1.5c0,0,1.5-204.5,1.5-210L38.2,80.4z"/>
	<g>
		<polygon class="st30" points="401.9,74.1 341.2,71.1 341.2,77.3 401.9,76.8 		"/>
		<path class="st30" d="M336.7,77.3l-16.6,6.1c0,0,0.5,105,0,125.5s-0.9,79.6-0.9,79.6l16.6-0.1l4.8-1.8l0.6-209.3L336.7,77.3z"/>
		<polygon class="st30" points="405.9,76.8 401.9,76.8 401.5,263.5 405.2,262.1 		"/>
		<polygon class="st32" points="341.2,77.3 340.6,286.6 401.5,263.5 401.9,76.8 		"/>
		<g>
			<polygon class="st33" points="401.6,248.4 340.6,265.8 340.6,266.3 401.6,248.9 			"/>
			<polygon class="st33" points="401.6,248.4 401.6,247.9 340.6,265.3 340.6,265.8 			"/>
			<polygon class="st33" points="401.6,230.4 401.6,229.9 340.7,245.3 340.7,245.8 			"/>
			<polygon class="st33" points="401.6,230.4 340.7,245.8 340.7,246.4 401.6,230.9 			"/>
			<polygon class="st33" points="401.6,212.4 401.6,211.9 340.7,225.4 340.7,225.9 			"/>
			<polygon class="st33" points="401.6,212.4 340.7,225.9 340.7,226.4 401.6,212.9 			"/>
			<polygon class="st33" points="401.7,194.4 340.8,205.9 340.8,206.4 401.7,194.9 			"/>
			<polygon class="st33" points="401.7,194.4 401.7,193.9 340.8,205.4 340.8,205.9 			"/>
			<polygon class="st33" points="401.7,176.3 340.9,185.9 340.9,186.4 401.7,176.8 			"/>
			<polygon class="st33" points="401.7,176.3 401.7,175.8 340.9,185.4 340.9,185.9 			"/>
			<polygon class="st33" points="401.7,158.3 401.7,157.8 340.9,165.4 340.9,165.9 			"/>
			<polygon class="st33" points="401.7,158.3 340.9,165.9 340.9,166.4 401.7,158.8 			"/>
			<polygon class="st33" points="401.8,140.2 341,145.8 341,146.3 401.8,140.7 			"/>
			<polygon class="st33" points="401.8,140.2 401.8,139.7 341,145.3 341,145.8 			"/>
			<polygon class="st33" points="401.8,122.1 401.8,121.6 341,125.3 341,125.8 			"/>
			<polygon class="st33" points="401.8,122.1 341,125.8 341,126.3 401.8,122.6 			"/>
			<polygon class="st33" points="401.8,104 401.8,103.5 341.1,105.2 341.1,105.7 			"/>
			<polygon class="st33" points="401.8,104 341.1,105.7 341.1,106.2 401.8,104.5 			"/>
			
				<rect x="341.2" y="85.8" transform="matrix(1 3.709019e-003 -3.709019e-003 1 0.3215 -1.3773)" class="st33" width="60.7" height="0.5"/>
			<rect x="341.2" y="85.3" class="st33" width="60.7" height="0.5"/>
		</g>
	</g>
	<path class="st31" d="M317.2,70.4c0,0,1.5,117.5,1,138s-1,80-1,80l18.6,0.2c0,0,1.4-207.2,1.4-212.7L317.2,70.4z"/>
	<polygon class="st30" points="17.1,93.4 185.1,35.1 357.8,90.7 412.9,90.5 422.6,69.8 369.8,64.2 181.8,9.4 8.5,73.4 	"/>
	<g>
		<polygon class="st34" points="357.8,90.7 185.1,35.1 37.4,86 37.4,93.7 187.8,47.2 337.2,94.9 405.8,95.3 405.8,90.5 		"/>
	</g>
	<polygon class="st31" points="15.2,91.1 183.1,32.8 355.9,88.4 367.9,63.8 179.9,7.1 6.5,71.1 	"/>
	<polygon class="st35" points="367.9,63.8 179.9,7.1 6.5,71.1 6.2,69.6 179.4,5.2 252.4,13.7 423.9,68.4 422.6,69.8 	"/>
	<path class="st30" d="M257.9,287.8H136.5c0,0-2.7-152,0-180c7.2-2,119.3-0.7,119.3-0.7s1.6,0.7,2,0.7
		C259.2,129.1,257.9,287.8,257.9,287.8z"/>
	<path class="st31" d="M255.9,288.6H134.5c0,0-2.7-153.5,0-181.5c7.3-2,106-0.7,121.3,0C257.2,128.4,255.9,288.6,255.9,288.6z"/>
	<radialGradient id="SVGID_1_" cx="201.2004" cy="200.4471" r="108.9996" gradientUnits="userSpaceOnUse">
		<stop  offset="0" style="stop-color:#F7F5F3"/>
		<stop  offset="0.272" style="stop-color:#E4DDD5"/>
		<stop  offset="0.4382" style="stop-color:#DCD4CA"/>
		<stop  offset="1" style="stop-color:#646563"/>
	</radialGradient>
	<polygon class="st36" points="150.4,288.3 150.7,124.9 238.2,123.8 240.4,289 	"/>
	<polygon class="st37" points="150.4,288.3 150.7,124.9 102.2,108.9 103.7,301.4 	"/>
	<polygon class="st30" points="238,125.1 237.6,122.9 149.9,122.6 149.5,124.8 	"/>
	<polygon class="st31" points="103.7,301.4 100.4,300.7 98,110.8 102.2,108.9 	"/>
	<g>
		<polygon class="st31" points="361.2,101.8 387.5,101.2 390.2,101.4 387,184.4 364,188.7 361.2,188.4 		"/>
		<polygon class="st30" points="363.9,102 390.2,101.4 389.8,184.7 364,188.7 		"/>
		<g>
			<polygon class="st31" points="382.3,114.8 382,172.3 370.9,173.9 370.9,175.6 383.9,173.8 384.3,114.8 			"/>
			<polygon class="st38" points="382.3,114.8 370.6,115.2 370.9,173.9 382,172.3 			"/>
		</g>
		<polygon class="st31" points="382.2,141.5 382.2,140.6 370.7,141.4 370.7,142.3 		"/>
		<g>
			<polygon class="st30" points="375.3,115.1 375.6,173.2 376.9,173 376.6,115 			"/>
			<g>
				<polygon class="st31" points="374.2,173.4 375.6,173.2 375.5,145.2 374,145.3 				"/>
				<polygon class="st31" points="375.3,115.1 373.9,115.1 374,142.1 375.4,142 				"/>
				<polygon class="st30" points="370.7,142.3 370.8,145.5 382.1,144.7 382.2,141.5 				"/>
			</g>
		</g>
	</g>
	<g>
		<g>
			<path class="st39" d="M227.8,247.6c-6.6-14.9-15-33.1-33-34.5"/>
			<g>
				<path class="st0" d="M227.9,254.4l1.8,4.4c0.1,0.3,0.5,0.5,0.9,0.4c0.3-0.1,0.5-0.5,0.4-0.9l-1.8-4.4L227.9,254.4z"/>
			</g>
			<g>
				<path class="st0" d="M231.4,253l1.8,4.4c0.1,0.3,0.5,0.5,0.9,0.4c0.3-0.1,0.5-0.5,0.4-0.9l-1.8-4.4L231.4,253z"/>
			</g>
			<g>
				<path class="st40" d="M234.2,252.5c-2.1,1.8-4.7,2.8-7.5,3c-1-2.5-1.5-3.6-2.5-6.1c2.1-1.8,4.7-2.8,7.5-3
					C232.7,248.8,233.2,250,234.2,252.5z"/>
			</g>
		</g>
		<path class="st41" d="M209.1,268.9c5.1,0,9.8-2.8,6.8-6.9l-15.7-20.2c-2.4-3.5-5.4-7-12-7c-6.6,0-9.6,3.5-12,7l-15.7,20.2
			c-3,4.1,1.6,6.9,6.8,6.9H209.1z"/>
		<g>
			<path class="st42" d="M188.7,210.1c0-3.3,0.2-7-1.3-7.8l-1.8-1.5c-0.7-0.5-1.1,1.8-1.1,3.5c0,1,0,4,0,6.5"/>
			<path class="st43" d="M156.6,237.5c0-16,13-29,29-29c16,0,29,13,29,29c0,16-13,29-29,29C169.5,266.5,156.6,253.5,156.6,237.5z"/>
			<path class="st44" d="M160.1,239.3c0-16,13-29,29-29c16,0,29,13,29,29c0,16-13,29-29,29C173,268.2,160.1,255.3,160.1,239.3z"/>
			<path class="st43" d="M177.6,239.3c0-6.3,5.1-11.4,11.4-11.4c6.3,0,11.4,5.1,11.4,11.4c0,6.3-5.1,11.4-11.4,11.4
				C182.7,250.7,177.6,245.6,177.6,239.3z"/>
			<circle class="st44" cx="189" cy="239.3" r="9.4"/>
			<circle class="st45" cx="189" cy="239.3" r="3.9"/>
			<linearGradient id="SVGID_2_" gradientUnits="userSpaceOnUse" x1="206.0454" y1="223.4951" x2="206.0454" y2="231.5219">
				<stop  offset="0" style="stop-color:#069FB3"/>
				<stop  offset="0.2208" style="stop-color:#30ADC8"/>
				<stop  offset="0.537" style="stop-color:#4ABFE5"/>
				<stop  offset="0.7191" style="stop-color:#4FC9F5"/>
				<stop  offset="0.9944" style="stop-color:#C4E9FB"/>
			</linearGradient>
			<path class="st46" d="M202,227.5c0-2.2,1.8-4,4-4c2.2,0,4,1.8,4,4c0,2.2-1.8,4-4,4C203.8,231.5,202,229.7,202,227.5z"/>
			<linearGradient id="SVGID_3_" gradientUnits="userSpaceOnUse" x1="172.3349" y1="223.4951" x2="172.3349" y2="231.5107">
				<stop  offset="0" style="stop-color:#069FB3"/>
				<stop  offset="0.2208" style="stop-color:#30ADC8"/>
				<stop  offset="0.537" style="stop-color:#4ABFE5"/>
				<stop  offset="0.7191" style="stop-color:#4FC9F5"/>
				<stop  offset="0.9944" style="stop-color:#C4E9FB"/>
			</linearGradient>
			<path class="st47" d="M168.3,227.5c0-2.2,1.8-4,4-4c2.2,0,4,1.8,4,4c0,2.2-1.8,4-4,4C170.1,231.5,168.3,229.7,168.3,227.5z"/>
			<g>
				<path class="st43" d="M175,226.6c0-1.1-0.5-2.1-1.2-2.9c-0.4-0.2-0.9-0.3-1.4-0.3c-2.2,0-4,1.8-4,4c0,1.1,0.5,2.1,1.2,2.9
					c0.4,0.2,0.9,0.3,1.4,0.3C173.2,230.7,175,228.9,175,226.6z"/>
			</g>
			<g>
				<path class="st43" d="M208.7,226.6c0-1.1-0.5-2.1-1.2-2.9c-0.4-0.2-0.9-0.3-1.4-0.3c-2.2,0-4,1.8-4,4c0,1.1,0.5,2.1,1.2,2.9
					c0.4,0.2,0.9,0.3,1.4,0.3C206.9,230.7,208.7,228.9,208.7,226.6z"/>
			</g>
			<linearGradient id="SVGID_4_" gradientUnits="userSpaceOnUse" x1="189.1704" y1="254.7314" x2="189.1704" y2="262.7582">
				<stop  offset="0" style="stop-color:#069FB3"/>
				<stop  offset="0.2208" style="stop-color:#30ADC8"/>
				<stop  offset="0.537" style="stop-color:#4ABFE5"/>
				<stop  offset="0.7191" style="stop-color:#4FC9F5"/>
				<stop  offset="0.9944" style="stop-color:#C4E9FB"/>
			</linearGradient>
			<path class="st48" d="M185.2,258.7c0-2.2,1.8-4,4-4c2.2,0,4,1.8,4,4c0,2.2-1.8,4-4,4C187,262.7,185.2,261,185.2,258.7z"/>
			<g>
				<path class="st43" d="M191.8,257.9c0-1.1-0.5-2.1-1.2-2.9c-0.4-0.2-0.9-0.3-1.4-0.3c-2.2,0-4,1.8-4,4c0,1.1,0.5,2.1,1.2,2.9
					c0.4,0.2,0.9,0.3,1.4,0.3C190,261.9,191.8,260.1,191.8,257.9z"/>
			</g>
			<path class="st42" d="M209.6,273.3c5.1,0,9.8-2.8,6.8-6.9l-15.7-20.2c-2.4-3.5-5.4-7-12-7c-6.6,0-9.6,3.5-12,7L161,266.5
				c-3,4.1,1.6,6.9,6.8,6.9H209.6z"/>
		</g>
		<line class="st42" x1="188.7" y1="239.3" x2="188.7" y2="208.1"/>
		<g>
			<circle class="st49" cx="207.1" cy="227.4" r="0.7"/>
			<circle class="st50" cx="205" cy="224.6" r="0.7"/>
			<circle class="st49" cx="202.9" cy="227.4" r="0.7"/>
		</g>
		<g>
			<circle class="st49" cx="190.2" cy="258.7" r="0.7"/>
			<circle class="st50" cx="188.1" cy="255.9" r="0.7"/>
			<circle class="st49" cx="186" cy="258.7" r="0.7"/>
		</g>
		<g>
			<circle class="st49" cx="173.4" cy="227.4" r="0.7"/>
			<circle class="st50" cx="171.3" cy="224.6" r="0.7"/>
			<circle class="st49" cx="169.1" cy="227.4" r="0.7"/>
		</g>
	</g>
</g>
</svg>
