<?xml version="1.0" encoding="utf-8"?>
<!-- Generator: Adobe Illustrator 19.0.1, SVG Export Plug-In . SVG Version: 6.00 Build 0)  -->
<svg version="1.1" id="Calque_2" xmlns="http://www.w3.org/2000/svg" xmlns:xlink="http://www.w3.org/1999/xlink" x="0px" y="0px"
	 viewBox="0 0 213.7 123" style="enable-background:new 0 0 213.7 123;" xml:space="preserve">
<style type="text/css">
	.st0{fill:#FFFFFF;}
	.st1{fill:#FBFBF6;}
	.st2{fill:#F7F8F0;}
	.st3{fill:#F4F6EA;}
	.st4{fill:#F1F3E5;}
	.st5{fill:#EFF1DF;}
	.st6{fill:#ECEFDA;}
	.st7{fill:#EAEDD4;}
	.st8{fill:#E8EBCF;}
	.st9{fill:#E5E9CA;}
	.st10{fill:#E2E7C4;}
	.st11{fill:#E0E5BF;}
	.st12{fill:#DEE3BA;}
	.st13{fill:#DBE1B5;}
	.st14{fill:#D9DFB0;}
	.st15{fill:#D6DDAA;}
	.st16{fill:#D4DBA5;}
	.st17{fill:#D2DAA0;}
	.st18{fill:#CFD89B;}
	.st19{fill:#CDD696;}
	.st20{fill:#CBD492;}
	.st21{fill:#C8D38D;}
	.st22{fill:#C6D188;}
	.st23{fill:#C3CF84;}
	.st24{fill:#C1CE7F;}
	.st25{fill:#BFCC7A;}
	.st26{fill:#BCCB75;}
	.st27{opacity:0.5;fill:none;stroke:#577337;stroke-width:2.6665;stroke-linecap:round;stroke-linejoin:round;}
	.st28{fill:none;stroke:#F08B1D;stroke-width:2.6665;stroke-linecap:round;stroke-linejoin:round;}
	.st29{fill:#646563;}
	.st30{fill:#F08B1D;}
	.st31{fill:none;stroke:#8B9296;stroke-width:3.1372;}
	.st32{fill:none;stroke:#A5AAAF;stroke-width:3.1372;}
	.st33{fill:#069FB3;}
	.st34{fill:#4FC9F5;}
	.st35{fill:#828B92;}
	.st36{fill:url(#SVGID_1_);}
	.st37{fill:url(#SVGID_2_);}
	.st38{fill:url(#SVGID_3_);}
	.st39{fill:#393B3A;}
	.st40{fill:#C4C1BE;}
	.st41{fill:#C77416;}
	.st42{fill:#559DCC;}
	.st43{fill:none;stroke:#356888;stroke-width:0.6397;}
</style>
<g>
	<g>
		<path class="st0" d="M0,80.9c0-11.3,47.8-20.5,106.9-20.5c59,0,106.8,9.2,106.8,20.5c0,11.3-47.8,20.5-106.8,20.5
			C47.8,101.5,0,92.3,0,80.9z"/>
		<path class="st1" d="M3.6,80.7c0-11,46.2-19.9,103.3-19.9c57,0,103.2,8.9,103.2,19.9c0,11-46.2,19.9-103.2,19.9
			C49.8,100.6,3.6,91.7,3.6,80.7z"/>
		<path class="st2" d="M7.2,80.5c0-10.6,44.6-19.2,99.7-19.2c55,0,99.7,8.6,99.7,19.2c0,10.6-44.6,19.2-99.7,19.2
			C51.8,99.7,7.2,91.1,7.2,80.5z"/>
		<path class="st3" d="M10.8,80.3c0-10.2,43-18.5,96.1-18.5c53.1,0,96.1,8.3,96.1,18.5c0,10.2-43,18.5-96.1,18.5
			C53.8,98.8,10.8,90.5,10.8,80.3z"/>
		<path class="st4" d="M14.4,80c0-9.9,41.4-17.8,92.5-17.8c51.1,0,92.5,8,92.5,17.8c0,9.9-41.4,17.9-92.5,17.9
			C55.8,97.9,14.4,89.9,14.4,80z"/>
		<path class="st5" d="M18,79.8c0-9.5,39.8-17.2,88.9-17.2c49.1,0,88.9,7.7,88.9,17.2c0,9.5-39.8,17.2-88.9,17.2
			C57.8,97,18,89.3,18,79.8z"/>
		<path class="st6" d="M21.6,79.6c0-9.1,38.2-16.5,85.3-16.5c47.1,0,85.3,7.4,85.3,16.5c0,9.1-38.2,16.5-85.3,16.5
			C59.8,96.1,21.6,88.7,21.6,79.6z"/>
		<path class="st7" d="M25.2,79.3c0-8.7,36.6-15.8,81.7-15.8c45.1,0,81.7,7.1,81.7,15.8c0,8.7-36.6,15.8-81.7,15.8
			C61.7,95.2,25.2,88.1,25.2,79.3z"/>
		<path class="st8" d="M28.8,79.1c0-8.4,35-15.2,78.1-15.2c43.1,0,78.1,6.8,78.1,15.2c0,8.4-35,15.2-78.1,15.2
			C63.7,94.3,28.8,87.5,28.8,79.1z"/>
		<ellipse class="st9" cx="106.8" cy="78.9" rx="74.5" ry="14.5"/>
		<ellipse class="st10" cx="106.8" cy="78.6" rx="70.9" ry="13.8"/>
		<ellipse class="st11" cx="106.8" cy="78.4" rx="67.3" ry="13.1"/>
		<ellipse class="st12" cx="106.8" cy="78.2" rx="63.7" ry="12.5"/>
		<ellipse class="st13" cx="106.8" cy="77.9" rx="60.1" ry="11.8"/>
		<ellipse class="st14" cx="106.9" cy="77.7" rx="56.5" ry="11.1"/>
		<ellipse class="st15" cx="106.9" cy="77.5" rx="52.9" ry="10.4"/>
		<ellipse class="st16" cx="106.9" cy="77.3" rx="49.3" ry="9.8"/>
		<ellipse class="st17" cx="106.9" cy="77" rx="45.7" ry="9.1"/>
		<ellipse class="st18" cx="106.9" cy="76.8" rx="42.1" ry="8.4"/>
		<ellipse class="st19" cx="106.9" cy="76.6" rx="38.5" ry="7.7"/>
		<ellipse class="st20" cx="106.9" cy="76.3" rx="34.9" ry="7.1"/>
		<ellipse class="st21" cx="106.9" cy="76.1" rx="31.3" ry="6.4"/>
		<ellipse class="st22" cx="106.9" cy="75.9" rx="27.7" ry="5.7"/>
		<ellipse class="st23" cx="106.9" cy="75.6" rx="24.1" ry="5"/>
		<ellipse class="st24" cx="106.9" cy="75.4" rx="20.5" ry="4.4"/>
		<ellipse class="st25" cx="106.9" cy="75.2" rx="16.9" ry="3.7"/>
		<ellipse class="st26" cx="106.9" cy="74.9" rx="13.3" ry="3"/>
	</g>
	<g>
		<g>
			<path class="st27" d="M140.2,63.8c2.8,2.7,24.4,2.8,25.8,6.2c2,5.3-25.2-0.5-24.5,5.5c0.5,4.5,21.8,3.5,28.5,5.3
				s11.8,12-10.5,12.8c-18,0.6-30.5-0.3-33-3.3c-2.5-3,19-4,25.3-1.3s-2.5,9.8-11.5,9.8s-13,2-18.8,3.8s-13.8,3.3-22.2,1.3
				c-8.5-2-21.3,3.8-18.5,7.5c2.8,3.8,24.5,2,17-3.3c-7.5-5.3-19.8-1.5-25.8-2.5S61,103,58.7,98.3c-4.8-9.8,32-19,41-10.5
				c5.7,5.4-12.7,18.1-47.3,9.5c-4-1-10.3-9.8,1.3-13.3s28.4,1.7,25.5,7c-2.5,4.5-12.4,5.3-22,0.5c-2.5-1.3-7.5-6.2-26.1-6.3"/>
			<path class="st28" d="M117.9,30.2c25.1,4.3,11.6,21.1,23.1,32.6c2.8,2.8,24.4,2.8,25.8,6.3c2,5.3-25.2-0.5-24.5,5.5
				c0.5,4.5,21.8,3.5,28.5,5.3s11.8,12-10.5,12.8c-18,0.6-30.5-0.3-33-3.3s19-4,25.3-1.3s-2.5,9.8-11.5,9.8s-13,2-18.8,3.8
				s-13.8,3.3-22.3,1.3s-21.3,3.7-18.5,7.5s24.5,2,17-3.3c-7.5-5.2-19.8-1.5-25.8-2.5s-10.9-2.5-13.2-7.3c-4.8-9.8,32-19,41-10.5
				c5.7,5.4-12.7,18.1-47.2,9.5c-4-1-10.3-9.8,1.3-13.3s28.4,1.7,25.5,7c-2.5,4.5-12.4,5.3-22,0.5c-2.5-1.3-7.5-6.2-26.1-6.3"/>
			<g>
				<path class="st29" d="M24.5,81l-4.7-0.6c-0.4,0-0.7,0.2-0.8,0.6c0,0.4,0.2,0.7,0.6,0.8l4.7,0.6L24.5,81z"/>
			</g>
			<g>
				<path class="st29" d="M24.1,84.7l-4.7-0.6c-0.4,0-0.7,0.2-0.8,0.6c0,0.4,0.2,0.7,0.6,0.8l4.7,0.6L24.1,84.7z"/>
			</g>
			<g>
				<path class="st30" d="M23.2,87.4c-1.4-0.2-0.4-8,1-8c2.7,0.3,3.9,0.4,6.5,0.7c1.8,0.4,0.9,8.1-1,8
					C27.1,87.8,25.9,87.7,23.2,87.4z"/>
			</g>
		</g>
		<path class="st31" d="M123,75.2c5.1,0,9.8-2.8,6.8-6.9L114,48.2c-2.4-3.5-5.4-7-12-7c-6.6,0-9.6,3.5-12,7L74.4,68.3
			c-3,4.1,1.6,6.9,6.8,6.9H123z"/>
		<g>
			<path class="st32" d="M102.6,16.4c0-3.2,0.2-7-1.3-7.7l-1.8-1.5c-0.7-0.5-1.1,1.8-1.1,3.5c0,1,0,4,0,6.5"/>
			<path class="st33" d="M70.4,43.8c0-16,13-29,29-29c16,0,29,13,29,29c0,16-13,29-29,29C83.4,72.8,70.4,59.8,70.4,43.8z"/>
			<path class="st34" d="M73.9,45.6c0-16,13-29,29-29c16,0,29,13,29,29c0,16-13,29-29,29C86.9,74.5,73.9,61.6,73.9,45.6z"/>
			<path class="st33" d="M91.5,45.6c0-6.3,5.1-11.4,11.4-11.4c6.3,0,11.4,5.1,11.4,11.4c0,6.3-5.1,11.4-11.4,11.4
				C96.6,57,91.5,51.9,91.5,45.6z"/>
			<path class="st34" d="M93.5,45.6c0-5.2,4.2-9.4,9.4-9.4c5.2,0,9.4,4.2,9.4,9.4c0,5.2-4.2,9.4-9.4,9.4
				C97.7,54.9,93.5,50.7,93.5,45.6z"/>
			<circle class="st35" cx="102.9" cy="45.6" r="3.9"/>
			<linearGradient id="SVGID_1_" gradientUnits="userSpaceOnUse" x1="119.9038" y1="29.7871" x2="119.9038" y2="37.8139">
				<stop  offset="0" style="stop-color:#069FB3"/>
				<stop  offset="0.2208" style="stop-color:#30ADC8"/>
				<stop  offset="0.537" style="stop-color:#4ABFE5"/>
				<stop  offset="0.7191" style="stop-color:#4FC9F5"/>
				<stop  offset="0.9944" style="stop-color:#C4E9FB"/>
			</linearGradient>
			<path class="st36" d="M115.9,33.8c0-2.2,1.8-4,4-4c2.2,0,4,1.8,4,4c0,2.2-1.8,4-4,4C117.7,37.8,115.9,36,115.9,33.8z"/>
			<linearGradient id="SVGID_2_" gradientUnits="userSpaceOnUse" x1="86.1933" y1="29.7871" x2="86.1933" y2="37.8027">
				<stop  offset="0" style="stop-color:#069FB3"/>
				<stop  offset="0.2208" style="stop-color:#30ADC8"/>
				<stop  offset="0.537" style="stop-color:#4ABFE5"/>
				<stop  offset="0.7191" style="stop-color:#4FC9F5"/>
				<stop  offset="0.9944" style="stop-color:#C4E9FB"/>
			</linearGradient>
			<path class="st37" d="M82.2,33.8c0-2.2,1.8-4,4-4c2.2,0,4,1.8,4,4c0,2.2-1.8,4-4,4C84,37.8,82.2,36,82.2,33.8z"/>
			<g>
				<path class="st33" d="M88.9,32.9c0-1.1-0.5-2.1-1.2-2.9c-0.4-0.2-0.9-0.3-1.4-0.3c-2.2,0-4,1.8-4,4c0,1.1,0.5,2.1,1.2,2.9
					c0.4,0.2,0.9,0.3,1.4,0.3C87.1,36.9,88.9,35.2,88.9,32.9z"/>
			</g>
			<g>
				<path class="st33" d="M122.6,32.9c0-1.1-0.5-2.1-1.2-2.9c-0.4-0.2-0.9-0.3-1.4-0.3c-2.2,0-4,1.8-4,4c0,1.1,0.5,2.1,1.2,2.9
					c0.4,0.2,0.9,0.3,1.4,0.3C120.8,36.9,122.6,35.2,122.6,32.9z"/>
			</g>
			<linearGradient id="SVGID_3_" gradientUnits="userSpaceOnUse" x1="103.0288" y1="61.0234" x2="103.0288" y2="69.0502">
				<stop  offset="0" style="stop-color:#069FB3"/>
				<stop  offset="0.2208" style="stop-color:#30ADC8"/>
				<stop  offset="0.537" style="stop-color:#4ABFE5"/>
				<stop  offset="0.7191" style="stop-color:#4FC9F5"/>
				<stop  offset="0.9944" style="stop-color:#C4E9FB"/>
			</linearGradient>
			<path class="st38" d="M99,65c0-2.2,1.8-4,4-4c2.2,0,4,1.8,4,4c0,2.2-1.8,4-4,4C100.8,69,99,67.2,99,65z"/>
			<g>
				<path class="st33" d="M105.7,64.2c0-1.1-0.5-2.1-1.2-2.9c-0.4-0.2-0.9-0.3-1.4-0.3c-2.2,0-4,1.8-4,4c0,1.1,0.5,2.1,1.2,2.9
					c0.4,0.2,0.9,0.3,1.4,0.3C103.9,68.2,105.7,66.4,105.7,64.2z"/>
			</g>
			<path class="st32" d="M123.5,79.6c5.1,0,9.8-2.8,6.8-6.9l-15.7-20.2c-2.4-3.5-5.4-7-12-7c-6.6,0-9.6,3.5-12,7L74.9,72.8
				c-3,4.1,1.6,6.9,6.8,6.9H123.5z"/>
		</g>
		<line class="st32" x1="102.6" y1="45.6" x2="102.6" y2="14.4"/>
		<g>
			<circle class="st39" cx="120.9" cy="33.7" r="0.7"/>
			<circle class="st40" cx="118.8" cy="30.9" r="0.7"/>
			<circle class="st39" cx="116.7" cy="33.7" r="0.7"/>
		</g>
		<g>
			<circle class="st39" cx="104.1" cy="65" r="0.7"/>
			<circle class="st40" cx="101.9" cy="62.2" r="0.7"/>
			<circle class="st39" cx="99.8" cy="65" r="0.7"/>
		</g>
		<g>
			<circle class="st39" cx="87.2" cy="33.7" r="0.7"/>
			<circle class="st40" cx="85.1" cy="30.9" r="0.7"/>
			<circle class="st39" cx="83" cy="33.7" r="0.7"/>
		</g>
	</g>
	<path class="st41" d="M31.9,84.2c-0.2,2.2-1.1,4-1.9,4c-0.8,0-1.4-1.8-1.1-4c0.2-2.2,1.1-4,1.9-4C31.6,80.2,32.1,82,31.9,84.2z"/>
	<path class="st42" d="M108.5,104.7c0.5,2,1.9,4.7,3.4,5.9c0,0,2.2-1,4-0.8c-1-1-2.2-2.8-3-5.2C112.3,104.7,108.5,104.7,108.5,104.7
		z"/>
	<path class="st42" d="M117.4,97.7c0.9-1.6,4.5-3,4.5-5.3l3,1c-0.2,1.9-2.8,4-4.5,4.7C118.6,98.9,117.4,97.7,117.4,97.7z"/>
	<path class="st42" d="M103.2,104.7c3.9,1.5,20.7-0.7,23.4-2.6c1.5-1.4,0.9-3.5,0.1-4c-0.8-0.5-7.1-1.2-10.5-0.7
		c-3.4,0.5-11.6,2.9-11.6,2.9c-1.5,0.4-1.7,1.6-1.7,1.6C103.5,102,104.8,103.8,103.2,104.7z"/>
	<path class="st43" d="M103.7,102.6c2,0.1,7.5,2.3,7.5,2.3"/>
	<path class="st43" d="M104.1,100.6c3-0.9,11,4,11,4"/>
	<path class="st43" d="M107.9,99.4c2.9-0.3,11.8,1.6,15.1,3.9"/>
	<path class="st43" d="M127.5,99.7c-1.8-0.1-8.7,1.6-8.7,1.6"/>
	<path class="st43" d="M124,97.6c-2.5-0.2-8.5,2.8-8.5,2.8"/>
	<path class="st43" d="M117.2,104.3c-1.5-0.7-5-1.3-5-1.3"/>
	<path class="st43" d="M118.4,97.3c-0.3,0.7,0,1.8,0,1.8"/>
	<path class="st43" d="M115.2,97.6c-0.3,0.8-0.3,2.7-0.3,2.7"/>
	<path class="st43" d="M123.2,100.4c0.8,1.7,0.3,2.9,0.3,2.9"/>
	<path class="st43" d="M126,99.8c0.2,0.7-0.1,2.2-0.7,2.8"/>
	<path class="st43" d="M126.7,98.2c1.3,0.8,0.8,3.2-0.4,4.1c-1.1,0.9-16,3.7-21.5,3"/>
</g>
</svg>
