<?xml version="1.0" encoding="utf-8"?>
<!-- Generator: Adobe Illustrator 19.0.1, SVG Export Plug-In . SVG Version: 6.00 Build 0)  -->
<svg version="1.1" id="Calque_2" xmlns="http://www.w3.org/2000/svg" xmlns:xlink="http://www.w3.org/1999/xlink" x="0px" y="0px"
	 viewBox="0 0 241.9 184.1" style="enable-background:new 0 0 241.9 184.1;" xml:space="preserve">
<style type="text/css">
	.st0{opacity:0.8;fill:url(#SVGID_1_);}
	.st1{fill:#646563;}
	.st2{fill:#F08B1D;}
	.st3{fill:#FFFFFF;}
	.st4{fill:#FBFBF6;}
	.st5{fill:#F7F8F0;}
	.st6{fill:#F4F6EA;}
	.st7{fill:#F1F3E5;}
	.st8{fill:#EFF1DF;}
	.st9{fill:#ECEFDA;}
	.st10{fill:#EAEDD4;}
	.st11{fill:#E8EBCF;}
	.st12{fill:#E5E9CA;}
	.st13{fill:#E2E7C4;}
	.st14{fill:#E0E5BF;}
	.st15{fill:#DEE3BA;}
	.st16{fill:#DBE1B5;}
	.st17{fill:#D9DFB0;}
	.st18{fill:#D6DDAA;}
	.st19{fill:#D4DBA5;}
	.st20{fill:#D2DAA0;}
	.st21{fill:#CFD89B;}
	.st22{fill:#CDD696;}
	.st23{fill:#CBD492;}
	.st24{fill:#C8D38D;}
	.st25{fill:#C6D188;}
	.st26{fill:#C3CF84;}
	.st27{fill:#C1CE7F;}
	.st28{fill:#BFCC7A;}
	.st29{fill:#BCCB75;}
	.st30{opacity:0.8;fill:url(#SVGID_2_);}
	.st31{opacity:0.8;fill:url(#SVGID_3_);}
	.st32{opacity:0.8;fill:url(#SVGID_4_);}
	.st33{opacity:0.5;fill:none;stroke:#577337;stroke-width:2.6665;stroke-linecap:round;stroke-linejoin:round;}
	.st34{fill:none;stroke:#F08B1D;stroke-width:2.6665;stroke-linecap:round;stroke-linejoin:round;}
	.st35{fill:none;stroke:#8B9296;stroke-width:3.1372;}
	.st36{fill:none;stroke:#A5AAAF;stroke-width:3.1372;}
	.st37{fill:#069FB3;}
	.st38{fill:#4FC9F5;}
	.st39{fill:#828B92;}
	.st40{fill:url(#SVGID_5_);}
	.st41{fill:url(#SVGID_6_);}
	.st42{fill:url(#SVGID_7_);}
	.st43{fill:#393B3A;}
	.st44{fill:#C4C1BE;}
	.st45{fill:#C77416;}
	.st46{fill:#FDFDFC;}
	.st47{fill:#FBFAFA;}
	.st48{fill:#FAF8F8;}
	.st49{fill:#F8F7F6;}
	.st50{fill:#F7F5F4;}
	.st51{fill:#F6F3F3;}
	.st52{fill:#F4F2F1;}
	.st53{fill:#F3F1F0;}
	.st54{fill:#F2EFEF;}
	.st55{fill:#F1EEED;}
	.st56{fill:#F0EDEC;}
	.st57{fill:#EFEBEB;}
	.st58{fill:#EEEAE9;}
	.st59{fill:#EDE9E8;}
	.st60{fill:#ECE8E7;}
	.st61{fill:#EAE6E6;}
	.st62{fill:#B6BABE;}
	.st63{fill:url(#SVGID_8_);}
	.st64{fill:#F58020;}
	.st65{fill:#F1F0B7;}
	.st66{fill:#75B2DB;}
	.st67{fill:#BBD1E8;}
	.st68{fill:#376B8A;}
	.st69{fill:#4987AC;}
</style>
<g>
	<g>
		<linearGradient id="SVGID_1_" gradientUnits="userSpaceOnUse" x1="89.8558" y1="114.2353" x2="91.024" y2="88.5471">
			<stop  offset="0" style="stop-color:#46B1C2"/>
			<stop  offset="1" style="stop-color:#FFFFFF"/>
		</linearGradient>
		<path class="st0" d="M58.4,114.3c6.4-0.9,13,0.6,22.3,0.9c9.3,0.3,17.9-2.2,18.7-4.4c0.8-2.2-2.4-4.4-0.8-5
			c1.6-0.6,7.7-0.6,8.1-3.1c0.5-2.5-6-3.7-9.6-3.4c-3.6,0.3-6.8-2.2-1.6-2.8c5.2-0.6,29.9,0.8,35.1-3c-11.2-4-33-3-41.5-2.6
			c-8.5,0.3-42.9,0.9-37.8,3.4c5.1,2.5,31.1,0.6,31.3,2.2c0.2,1.6-15.2,0.3-15.2,4c0,3.7,8,2.8,10.1,2.5c2.1-0.3,11.7,0.6,11.7,2.8
			c0,2.2-4.4,3.1-8.8,3.1S57.9,108.4,58.4,114.3z"/>
		<g>
			<path class="st1" d="M100.3,92.1l-4.7-0.6c-0.4,0-0.7,0.2-0.8,0.6c0,0.4,0.2,0.7,0.6,0.8l4.7,0.6L100.3,92.1z"/>
		</g>
		<g>
			<path class="st1" d="M99.9,95.8l-4.7-0.6c-0.4,0-0.7,0.2-0.8,0.6c0,0.4,0.2,0.7,0.6,0.8l4.7,0.6L99.9,95.8z"/>
		</g>
		<g>
			<path class="st2" d="M99,98.5c-1.4-0.2-0.4-8,1-8c2.7,0.3,3.9,0.4,6.5,0.7c1.8,0.4,0.9,8.1-1,8C102.9,98.9,101.7,98.8,99,98.5z"
				/>
		</g>
		<g>
			<path class="st3" d="M56.7,137.9c0-11.3,47.8-20.5,106.9-20.5c59,0,106.8,9.2,106.8,20.5c0,11.3-47.8,20.5-106.8,20.5
				C104.6,158.5,56.7,149.3,56.7,137.9z"/>
			<path class="st4" d="M60.3,137.7c0-11,46.2-19.9,103.3-19.9c57,0,103.2,8.9,103.2,19.9c0,11-46.2,19.9-103.2,19.9
				C106.6,157.6,60.3,148.7,60.3,137.7z"/>
			<path class="st5" d="M63.9,137.5c0-10.6,44.6-19.2,99.7-19.2c55,0,99.7,8.6,99.7,19.2c0,10.6-44.6,19.2-99.7,19.2
				C108.6,156.7,63.9,148.1,63.9,137.5z"/>
			<path class="st6" d="M67.5,137.2c0-10.2,43-18.5,96.1-18.5c53.1,0,96.1,8.3,96.1,18.5c0,10.2-43,18.5-96.1,18.5
				C110.5,155.8,67.5,147.5,67.5,137.2z"/>
			<path class="st7" d="M71.1,137c0-9.9,41.4-17.8,92.5-17.8c51.1,0,92.5,8,92.5,17.8c0,9.9-41.4,17.9-92.5,17.9
				C112.5,154.8,71.1,146.9,71.1,137z"/>
			<path class="st8" d="M74.7,136.8c0-9.5,39.8-17.2,88.9-17.2c49.1,0,88.9,7.7,88.9,17.2c0,9.5-39.8,17.2-88.9,17.2
				C114.5,153.9,74.7,146.3,74.7,136.8z"/>
			<path class="st9" d="M78.3,136.5c0-9.1,38.2-16.5,85.3-16.5c47.1,0,85.3,7.4,85.3,16.5c0,9.1-38.2,16.5-85.3,16.5
				C116.5,153,78.3,145.6,78.3,136.5z"/>
			<path class="st10" d="M81.9,136.3c0-8.7,36.6-15.8,81.7-15.8c45.1,0,81.7,7.1,81.7,15.8c0,8.7-36.6,15.8-81.7,15.8
				C118.5,152.1,81.9,145,81.9,136.3z"/>
			<path class="st11" d="M85.5,136.1c0-8.4,35-15.2,78.1-15.2c43.1,0,78.1,6.8,78.1,15.2c0,8.4-35,15.2-78.1,15.2
				C120.5,151.2,85.5,144.4,85.5,136.1z"/>
			<path class="st12" d="M89.1,135.8c0-8,33.3-14.5,74.5-14.5c41.1,0,74.5,6.5,74.5,14.5c0,8-33.3,14.5-74.5,14.5
				C122.5,150.3,89.1,143.8,89.1,135.8z"/>
			<ellipse class="st13" cx="163.6" cy="135.6" rx="70.9" ry="13.8"/>
			<ellipse class="st14" cx="163.6" cy="135.4" rx="67.3" ry="13.1"/>
			<ellipse class="st15" cx="163.6" cy="135.1" rx="63.7" ry="12.5"/>
			<ellipse class="st16" cx="163.6" cy="134.9" rx="60.1" ry="11.8"/>
			<ellipse class="st17" cx="163.6" cy="134.7" rx="56.5" ry="11.1"/>
			<ellipse class="st18" cx="163.6" cy="134.5" rx="52.9" ry="10.4"/>
			<ellipse class="st19" cx="163.6" cy="134.2" rx="49.3" ry="9.8"/>
			<ellipse class="st20" cx="163.6" cy="134" rx="45.7" ry="9.1"/>
			<ellipse class="st21" cx="163.6" cy="133.8" rx="42.1" ry="8.4"/>
			<ellipse class="st22" cx="163.6" cy="133.5" rx="38.5" ry="7.7"/>
			<ellipse class="st23" cx="163.6" cy="133.3" rx="34.9" ry="7.1"/>
			<ellipse class="st24" cx="163.6" cy="133.1" rx="31.3" ry="6.4"/>
			<ellipse class="st25" cx="163.6" cy="132.8" rx="27.7" ry="5.7"/>
			<ellipse class="st26" cx="163.6" cy="132.6" rx="24.1" ry="5"/>
			<ellipse class="st27" cx="163.6" cy="132.4" rx="20.5" ry="4.4"/>
			<ellipse class="st28" cx="163.6" cy="132.1" rx="16.9" ry="3.7"/>
			<ellipse class="st29" cx="163.6" cy="131.9" rx="13.3" ry="3"/>
		</g>
		<linearGradient id="SVGID_2_" gradientUnits="userSpaceOnUse" x1="126.9993" y1="128.1065" x2="128.3448" y2="114.1121">
			<stop  offset="0" style="stop-color:#46B1C2"/>
			<stop  offset="1" style="stop-color:#FFFFFF"/>
		</linearGradient>
		<path class="st30" d="M108,127.3c1.5,1.1,16.1,2,24.6,1.8c8.4-0.3,31.2-1.1,31.2-4.1c0-3-9.7-4.1-13-5.4
			c-3.3-1.3-16.1-6.4-26.6-6.4s-14.8,1.3-7.4,2.3c7.4,1,12.8,1.5,12.5,2.6c-0.3,1-9.7,0.3-15.6,0.3s-25.1,0.5-22,1.8
			c3.1,1.3,29.9,1.5,29.7,2.6C121.1,123.7,103.4,124,108,127.3z"/>
		<linearGradient id="SVGID_3_" gradientUnits="userSpaceOnUse" x1="148.1299" y1="171.364" x2="150.6884" y2="144.7532">
			<stop  offset="0" style="stop-color:#46B1C2"/>
			<stop  offset="1" style="stop-color:#FFFFFF"/>
		</linearGradient>
		<path class="st31" d="M109,149.6c9.7,4.1-14.1,3.1-22,3.1c-7.9,0-12.3,3.3-8.2,4.9c1.8-1,15.1-0.3,21.6,1.1
			c-1.2,1.7-16.7,3.8-24.9,2.8c-8.2-1-13.8,2.6-10.7,4.1c2.1,1.1,5.8-0.6,9.8-0.3c5.7,0.5,12.4,1.5,17.9,1.8
			c9.2,0.5,21-6.7,28.9-7.2c7.9-0.5,28.4-1.8,30.2,1.3c1.8,3.1-9.5,3.3-18.2,1.3c-0.8,2,7.9,3.1,5.4,4.4c-2.6,1.3-9.7-1-14.3-1
			c-4.6,0-7.7,1.8-10.7,4.3c3.8,3.1,12.1-0.2,18.7,1c9.7,1.8,18.7,1,18.4-0.3c-0.3-1.3-5.4-2.8-2.8-3.8c2.6-1,8.2,1,11.8-0.3
			s13-3.1,9.2-0.5c-3.8,2.6-5.6,2.3-7.2,2.8c-1.5,0.5-2.6,2.3,1.8,3.1c4.4,0.8,23,2.3,27.6-0.5c4.6-2.8-12.3-2.6-13.6-2.8
			c-1.3-0.3-8.2-2,0.5-2.8c8.7-0.8,27.1,4.6,37.1,3.6c10-1,15.9-1.8,18.4-4.6c-6.7,0-28.9-1-32.2-3.1c10.5-0.3,25.1-1.8,19.7-3.6
			c-5.4-1.8-41.7-3.1-36.6-1c5.1,2,12.5,1.8,7.2,3.6c-5.4,1.8-16.9,0.8-17.7-2c-0.8-2.8,10.5-5.9,20.2-4.3
			c7.3-0.8,12.6-1.8,18.9-1.4c2.6,0.2-1.7-3.9-16.6-4.4c-14.8-0.5-21,3.1-24.1,3.8c-3.1,0.8-16.9,0.3-15.9-1.8
			c1-2,12.3-1.8,15.6-1.8c3.3,0,5.4-3.3-5.1-3.6c-10.5-0.3-20.5-2-33.5,0.5c13,0.3,17.7,2.3,14.3,3.1
			C136.9,151.3,99.1,145.4,109,149.6z"/>
		<g>
			<g>
				<linearGradient id="SVGID_4_" gradientUnits="userSpaceOnUse" x1="218.6813" y1="136.377" x2="218.6813" y2="132.0429">
					<stop  offset="0" style="stop-color:#46B1C2"/>
					<stop  offset="1" style="stop-color:#FFFFFF"/>
				</linearGradient>
				<path class="st32" d="M195.6,133.7c1.2,1.6,13.3,3,21.3,2.7s15-1,23-2s-11.7-3.3-15.3-3.3C221,131,193.3,130.7,195.6,133.7z"/>
				<path class="st33" d="M196.9,120.7c2.8,2.8,24.4,2.8,25.8,6.3c2,5.3-25.2-0.5-24.5,5.5c0.5,4.5,21.8,3.5,28.5,5.3
					s11.8,12-10.5,12.8c-18,0.6-30.5-0.3-33-3.3s19-4,25.3-1.3s-2.5,9.8-11.5,9.8s-13,2-18.8,3.8s-13.8,3.3-22.3,1.3
					s-21.3,3.8-18.5,7.5s24.5,2,17-3.3s-19.8-1.5-25.8-2.5c-6-1-10.9-2.5-13.2-7.3c-4.8-9.8,32-19,41-10.5
					c5.7,5.4-12.7,18.1-47.2,9.5c-4-1-10.3-9.8,1.3-13.3s28.4,1.7,25.5,7c-2.5,4.5-12.4,5.3-22,0.5c-2.5-1.3-7.5-6.2-26.1-6.3"/>
				<path class="st34" d="M174.6,87.1c25.1,4.3,11.6,21.1,23.1,32.6c2.8,2.8,24.4,2.8,25.8,6.3c2,5.3-25.2-0.5-24.5,5.5
					c0.5,4.5,21.8,3.5,28.5,5.3s11.8,12-10.5,12.8c-18,0.6-30.5-0.3-33-3.3s19-4,25.3-1.3s-2.5,9.8-11.5,9.8s-13,2-18.8,3.8
					s-13.8,3.3-22.3,1.3s-21.3,3.8-18.5,7.5s24.5,2,17-3.3s-19.8-1.5-25.8-2.5s-10.9-2.5-13.3-7.3c-4.8-9.8,32-19,41-10.5
					c5.7,5.4-12.7,18.1-47.3,9.5c-4-1-10.3-9.8,1.3-13.3s28.4,1.7,25.5,7c-2.5,4.5-12.4,5.3-22,0.5c-2.5-1.3-7.5-6.5-26.1-6.3
					c-6.9,0-12.2-2.5-14.2-12c-2-9.5-6.8-41.2-29.6-41.6"/>
			</g>
			<path class="st35" d="M179.7,132.2c5.1,0,9.8-2.8,6.8-6.9l-15.7-20.2c-2.4-3.5-5.4-7-12-7c-6.6,0-9.6,3.5-12,7l-15.7,20.2
				c-3,4.1,1.6,6.9,6.8,6.9H179.7z"/>
			<g>
				<path class="st36" d="M159.3,73.4c0-3.3,0.2-7-1.3-7.8l-1.8-1.5c-0.7-0.5-1.1,1.8-1.1,3.5c0,1,0,4,0,6.5"/>
				<path class="st37" d="M127.2,100.8c0-16,13-29,29-29c16,0,29,13,29,29c0,16-13,29-29,29C140.1,129.8,127.2,116.8,127.2,100.8z"
					/>
				<path class="st38" d="M130.7,102.5c0-16,13-29,29-29c16,0,29,13,29,29c0,16-13,29-29,29C143.6,131.5,130.7,118.5,130.7,102.5z"
					/>
				<path class="st37" d="M148.2,102.5c0-6.3,5.1-11.4,11.4-11.4c6.3,0,11.4,5.1,11.4,11.4c0,6.3-5.1,11.4-11.4,11.4
					C153.3,114,148.2,108.9,148.2,102.5z"/>
				<path class="st38" d="M150.3,102.5c0-5.2,4.2-9.4,9.4-9.4c5.2,0,9.4,4.2,9.4,9.4c0,5.2-4.2,9.4-9.4,9.4
					C154.5,111.9,150.3,107.7,150.3,102.5z"/>
				<circle class="st39" cx="159.6" cy="102.5" r="3.9"/>
				<linearGradient id="SVGID_5_" gradientUnits="userSpaceOnUse" x1="176.6453" y1="86.7578" x2="176.6453" y2="94.7846">
					<stop  offset="0" style="stop-color:#069FB3"/>
					<stop  offset="0.2208" style="stop-color:#30ADC8"/>
					<stop  offset="0.537" style="stop-color:#4ABFE5"/>
					<stop  offset="0.7191" style="stop-color:#4FC9F5"/>
					<stop  offset="0.9944" style="stop-color:#C4E9FB"/>
				</linearGradient>
				<path class="st40" d="M172.6,90.8c0-2.2,1.8-4,4-4c2.2,0,4,1.8,4,4c0,2.2-1.8,4-4,4C174.4,94.8,172.6,93,172.6,90.8z"/>
				<linearGradient id="SVGID_6_" gradientUnits="userSpaceOnUse" x1="142.9348" y1="86.7578" x2="142.9348" y2="94.7734">
					<stop  offset="0" style="stop-color:#069FB3"/>
					<stop  offset="0.2208" style="stop-color:#30ADC8"/>
					<stop  offset="0.537" style="stop-color:#4ABFE5"/>
					<stop  offset="0.7191" style="stop-color:#4FC9F5"/>
					<stop  offset="0.9944" style="stop-color:#C4E9FB"/>
				</linearGradient>
				<path class="st41" d="M138.9,90.8c0-2.2,1.8-4,4-4c2.2,0,4,1.8,4,4c0,2.2-1.8,4-4,4C140.7,94.8,138.9,93,138.9,90.8z"/>
				<g>
					<path class="st37" d="M145.6,89.9c0-1.1-0.5-2.1-1.2-2.9c-0.4-0.2-0.9-0.3-1.4-0.3c-2.2,0-4,1.8-4,4c0,1.1,0.5,2.1,1.2,2.9
						c0.4,0.2,0.9,0.3,1.4,0.3C143.8,93.9,145.6,92.1,145.6,89.9z"/>
				</g>
				<g>
					<path class="st37" d="M179.3,89.9c0-1.1-0.5-2.1-1.2-2.9c-0.4-0.2-0.9-0.3-1.4-0.3c-2.2,0-4,1.8-4,4c0,1.1,0.5,2.1,1.2,2.9
						c0.4,0.2,0.9,0.3,1.4,0.3C177.5,93.9,179.3,92.1,179.3,89.9z"/>
				</g>
				<linearGradient id="SVGID_7_" gradientUnits="userSpaceOnUse" x1="159.7703" y1="117.9941" x2="159.7703" y2="126.0209">
					<stop  offset="0" style="stop-color:#069FB3"/>
					<stop  offset="0.2208" style="stop-color:#30ADC8"/>
					<stop  offset="0.537" style="stop-color:#4ABFE5"/>
					<stop  offset="0.7191" style="stop-color:#4FC9F5"/>
					<stop  offset="0.9944" style="stop-color:#C4E9FB"/>
				</linearGradient>
				<path class="st42" d="M155.8,122c0-2.2,1.8-4,4-4c2.2,0,4,1.8,4,4c0,2.2-1.8,4-4,4C157.6,126,155.8,124.2,155.8,122z"/>
				<g>
					<path class="st37" d="M162.4,121.1c0-1.1-0.5-2.1-1.2-2.9c-0.4-0.2-0.9-0.3-1.4-0.3c-2.2,0-4,1.8-4,4c0,1.1,0.5,2.1,1.2,2.9
						c0.4,0.2,0.9,0.3,1.4,0.3C160.6,125.2,162.4,123.4,162.4,121.1z"/>
				</g>
				<path class="st36" d="M180.2,136.6c5.1,0,9.8-2.8,6.8-6.9l-15.7-20.2c-2.4-3.5-5.4-7-12-7c-6.6,0-9.6,3.5-12,7l-15.7,20.2
					c-3,4.1,1.6,6.9,6.8,6.9H180.2z"/>
			</g>
			<line class="st36" x1="159.3" y1="102.5" x2="159.3" y2="71.4"/>
			<g>
				<circle class="st43" cx="177.7" cy="90.7" r="0.7"/>
				<circle class="st44" cx="175.6" cy="87.9" r="0.7"/>
				<circle class="st43" cx="173.4" cy="90.7" r="0.7"/>
			</g>
			<g>
				<circle class="st43" cx="160.8" cy="121.9" r="0.7"/>
				<circle class="st44" cx="158.7" cy="119.1" r="0.7"/>
				<circle class="st43" cx="156.6" cy="121.9" r="0.7"/>
				<path class="st2" d="M155.9,122c0-2.2,1.8-3.9,3.9-3.9c2.2,0,3.9,1.7,3.9,3.9c0,2.2-1.7,3.9-3.9,3.9
					C157.6,125.9,155.9,124.2,155.9,122z"/>
			</g>
			<g>
				<circle class="st43" cx="144" cy="90.7" r="0.7"/>
				<circle class="st44" cx="141.9" cy="87.9" r="0.7"/>
				<circle class="st43" cx="139.7" cy="90.7" r="0.7"/>
			</g>
		</g>
		<path class="st45" d="M107.7,95.2c-0.2,2.2-1.1,4-1.9,4c-0.8,0-1.4-1.8-1.1-4c0.2-2.2,1.1-4,1.9-4C107.4,91.3,107.9,93,107.7,95.2
			z"/>
	</g>
	<path class="st34" d="M160.1,121.9c-0.7,6.1-21.2,5.2-36.7,4.3s-38.3-5-35.7-0.8c2.6,4.2,28.6,0.7,33.6-2.8c5-3.5-17-9.2-31.8-7.8
		c-14.8,1.4-24.2-4.3-3.8-5.7c20.4-1.4,31.2,1.4,36.4,0.6c5.2-0.8-8.9-7.4-52.1-3.1c-11.9,1.2-32,10.9-49.2,7.5
		c-8.4-1.7,8.3-5.3,23.7-5.7c16.2-0.5,31.1,2.4,17.4,6c-3.3,0.9-57.1-3.6-22.9-9.2c9.6-1.6,35.2-4.2,57.6-4.4
		c15.7-0.2,17.2-3.1,17.2-3.1c0.6-1.3-4.5-2.2-7.6-2.6"/>
	<g>
		<g>
			<polygon class="st3" points="7.3,181.1 58.6,131.5 58.6,-5.2 7.3,-15.5 			"/>
			<polygon class="st46" points="9,179.4 58.6,131.5 58.6,-0.5 9,-10.5 			"/>
			<polygon class="st47" points="10.8,177.7 58.6,131.5 58.6,4.1 10.8,-5.5 			"/>
			<polygon class="st48" points="12.5,176.1 58.6,131.5 58.6,8.7 12.5,-0.6 			"/>
			<polygon class="st49" points="14.3,174.4 58.6,131.5 58.6,13.4 14.3,4.4 			"/>
			<polygon class="st50" points="16,172.7 58.6,131.5 58.6,18 16,9.4 			"/>
			<polygon class="st51" points="17.8,171 58.6,131.5 58.6,22.6 17.8,14.4 			"/>
			<polygon class="st52" points="19.5,169.3 58.6,131.5 58.6,27.3 19.5,19.4 			"/>
			<polygon class="st53" points="21.2,167.6 58.6,131.5 58.6,31.9 21.2,24.4 			"/>
			<polygon class="st54" points="23,166 58.6,131.5 58.6,36.5 23,29.4 			"/>
			<polygon class="st55" points="24.7,164.3 58.6,131.5 58.6,41.2 24.7,34.3 			"/>
			<polygon class="st56" points="26.5,162.6 58.6,131.5 58.6,45.8 26.5,39.3 			"/>
			<polygon class="st57" points="28.2,160.9 58.6,131.5 58.6,50.4 28.2,44.3 			"/>
			<polygon class="st58" points="29.9,159.2 58.6,131.5 58.6,55.1 29.9,49.3 			"/>
			<polygon class="st59" points="31.7,157.5 58.6,131.5 58.6,59.7 31.7,54.3 			"/>
			<polygon class="st60" points="33.4,155.9 58.6,131.5 58.6,64.3 33.4,59.3 			"/>
			<polygon class="st61" points="35.2,154.2 58.6,131.5 58.6,69 35.2,64.3 			"/>
		</g>
		<polygon class="st62" points="28.9,94.9 32.4,96.7 42,93.5 42,82.7 37.6,82.7 		"/>
		<linearGradient id="SVGID_8_" gradientUnits="userSpaceOnUse" x1="60.8092" y1="130.6658" x2="11.5475" y2="169.4106">
			<stop  offset="0" style="stop-color:#848C28"/>
			<stop  offset="1" style="stop-color:#FFFFFF"/>
		</linearGradient>
		<path class="st63" d="M-65.4,250.4c-0.7-9.5,5-20.2,6.8-14.4c0.1-6.8,3.6-9.1,5.4-5.7c-0.7-5.2,4.5-18.3,8.3-12.5
			c-1.4-6.4,2.9-11.5,6.4-8.6c-1.8-4.6-1.4-9.6,1.4-6.7c-3.2-12.9,0.5-17.4,4.2-7.4c-0.8-5.5,1-8.5,2.4-5.3c0.4-8.2,3.4-8.2,4.8-1.8
			c-0.3-4.6,3.7-10.4,3.8,0.3c2.6-10.5,3.7-9.6,7.5-0.9c-1.3-6,0-8.7,2-7.9c-0.8-2-2.6-3.8-2.1-8c0.5-4.2,3-2,4.1,0.1
			c-0.7-9.5,4.3-16.2,6.2-9.7c0.5-4.2,3.5-6.7,3.1,1.5c2.3-6,5-5.9,5.5,3c2.9-9.9,8.7-17.8,11.2-7.7c-0.7-3.6-0.1-7.1,1.9-2.2
			c-2-13.2,1.3-13.4,3.3-4.6c2.6-9.7,4.3-8.3,6.8,0.3c0.2-12,3.6-11.5,5.6-8.6c-1.3-6.8,1.8-13.7,3.5-6.7c0.5-10.2,5.7-15.8,8.5-5
			c1.4-8.7,3.7-0.4,4.5-0.5c0.8,0,5.2-9.2,6.3-3.8c3.6-7.1,4.2-3.5,5.3-1.7c0.2-4.1,2.9-6.3,4.1-4.2c1.2-5.8,3-5.6,2.8,2
			c1.6-4.1,1.9,2.5-0.1,4.8c1.2,0.6-2.3,4-4.6,5.3c-1.6,3.2-11.4,12.5-13.2,13.1c-2,6.3-6.5,6.3-7.1,5.9c-0.6,6.7-5.5,9.2-7.7,8.1
			c-0.5,5.1-9.1,9.7-9.8,10.1c-0.6,2.7-2.4,4.5-3.2,4.1c-0.8,3.2-7.1,7.8-9,6.9c-1.5,4-2.8,3.5-3.5,3.1c-0.2,4.1-4.8,6.2-5.6,5
			c-1.9,3.3-7.7,10.3-10.7,8.7c-0.4,4.6-2.4,2.6-3.4,2.5c-0.6,2.9-4.6,6.3-6.5,7.3c-0.1,3.2-11.3,11.2-11.3,11.2
			c-0.1,2.6-7.8,10.6-9.9,10.4c-2-0.2-2.3,1.9-4.9,4.6c-2.6,2.7-7.6,3.5-10,6.1C-54.8,243.7-54.9,250.1-65.4,250.4z"/>
		<path class="st3" d="M-31.3,194.6c0.1,1.9-1,4.3-2.6,5.2c-1.5,0.9-2.9,0.2-3-1.8c-0.1-1.9,1-4.2,2.6-5.2
			C-32.8,191.9-31.5,192.7-31.3,194.6z"/>
		<path class="st64" d="M27.4,156c0.1,1.9-1,4.3-2.6,5.2c-1.5,0.9-2.9,0.2-3-1.8c-0.1-1.9,1-4.2,2.6-5.2
			C25.9,153.2,27.3,154,27.4,156z"/>
		<path class="st3" d="M-8,197.2c0.1,1.9-1,4.3-2.6,5.2c-1.5,0.9-2.9,0.2-3-1.8c-0.1-1.9,1-4.2,2.6-5.2
			C-9.5,194.5-8.1,195.3-8,197.2z"/>
		<path class="st3" d="M-43.1,233.4c0.1,1.9-1,4.3-2.6,5.2c-1.5,0.9-2.9,0.2-3-1.8c-0.1-1.9,1-4.3,2.6-5.2
			C-44.6,230.7-43.3,231.4-43.1,233.4z"/>
		<path class="st3" d="M-36.5,222.1c-0.7,3.1-2.9,5.3-5,5.1c-2-0.3-3.1-2.9-2.5-6c0.7-3.1,2.9-5.3,5-5.1
			C-36.9,216.3-35.8,219-36.5,222.1z"/>
		<path class="st64" d="M46.2,150.9c1,1.7,0.7,4.1-0.6,5.3c-1.3,1.2-3.2,0.8-4.1-0.9c-1-1.7-0.7-4.1,0.6-5.3
			C43.4,148.8,45.2,149.2,46.2,150.9z"/>
		<path class="st64" d="M49.6,130.2c0.3,2.1-0.6,4.9-2,6.2c-1.4,1.3-2.8,0.6-3.2-1.5c-0.3-2.1,0.6-4.9,2-6.1
			C47.9,127.4,49.3,128.1,49.6,130.2z"/>
		<path class="st64" d="M54.4,137c1,0.8,0.4,3.1-1.4,5c-1.8,1.9-4,2.8-5,2c-1-0.9-0.4-3.1,1.4-5C51.2,137,53.4,136.2,54.4,137z"/>
		<path class="st3" d="M-51.1,225.3c1.9,1.1,2.4,4.3,1.2,7c-1.2,2.8-3.7,4.1-5.6,3c-1.9-1.1-2.4-4.3-1.2-7
			C-55.5,225.5-53,224.2-51.1,225.3z"/>
		<path class="st3" d="M-25.9,198.3c1.7,0.7,2.2,3,1.1,5.3c-1.1,2.2-3.4,3.5-5.1,2.8c-1.7-0.7-2.2-3-1.1-5.3
			C-29.8,198.8-27.5,197.6-25.9,198.3z"/>
		<path class="st3" d="M2,179.9c1.8,0.4,2.3,2.6,1.1,4.9c-1.1,2.3-3.5,4-5.2,3.6c-1.8-0.4-2.3-2.5-1.1-4.9
			C-2.1,181.2,0.3,179.6,2,179.9z"/>
		<path class="st3" d="M16.1,171.1c1.8,0.4,2.3,2.6,1.1,4.9c-1.1,2.3-3.5,4-5.2,3.6c-1.8-0.4-2.3-2.5-1.1-4.9
			C12,172.3,14.3,170.7,16.1,171.1z"/>
		<path class="st65" d="M35.1,147.4c1.4,1.2,1.7,4,0.6,6.3c-1.1,2.3-3.1,3.2-4.6,2.1c-1.4-1.2-1.7-4-0.6-6.2
			C31.6,147.1,33.6,146.2,35.1,147.4z"/>
		<path class="st65" d="M40.1,137.5c1.5,0.4,2.2,2,1.5,3.6c-0.7,1.6-2.5,2.6-4.1,2.2c-1.5-0.4-2.2-2-1.5-3.6
			C36.7,138.1,38.5,137.1,40.1,137.5z"/>
		<path class="st65" d="M62.3,127.8c0.9,1.3,0.9,3.3-0.1,4.5c-1,1.1-2.6,0.9-3.5-0.4c-0.9-1.3-0.9-3.3,0.1-4.5
			C59.7,126.2,61.3,126.4,62.3,127.8z"/>
		<path class="st3" d="M17.2,159.6c0.9,1.3,0.9,3.3-0.1,4.5c-1,1.1-2.6,0.9-3.5-0.4c-0.9-1.3-0.9-3.3,0.1-4.5
			C14.7,158.1,16.3,158.3,17.2,159.6z"/>
		<rect x="28.9" y="82.5" class="st66" width="6.6" height="12.4"/>
		<polygon class="st67" points="35.5,94.9 43.6,92.3 43.6,80.8 35.5,82.5 		"/>
		<polygon class="st3" points="28.9,82.5 37.3,81 43.6,80.8 35.5,82.5 		"/>
		<polygon class="st3" points="46.3,75.7 54.7,74.2 55.3,75.1 47.1,76.9 		"/>
		<path class="st68" d="M37.8,87.9c0-2.3,0.9-4.4,2-4.5c1.1-0.2,2,1.6,2,3.9c0,2.3-0.9,4.4-2,4.5C38.7,92,37.8,90.2,37.8,87.9z"/>
		<path class="st2" d="M37.9,87.9c0-2.2,0.9-4.2,1.9-4.3c1.1-0.2,1.9,1.5,1.9,3.7c0,2.2-0.9,4.2-1.9,4.3
			C38.7,91.8,37.9,90.1,37.9,87.9z"/>
		<g>
			<path class="st3" d="M38.4,81.4l-2.6,0.5l0.1,0.7C36.8,82.7,37.5,82.1,38.4,81.4z"/>
			<path class="st69" d="M44,80.3c0,0-0.1,0-0.1,0l0,0l-5.4,1c-0.9,0.7-1.6,1.3-2.6,1.2l0.1,0.6l8.1-1.9c0,0,0.1,0,0.1,0l0,0v0
				c0.2-0.1,0.3-0.3,0.3-0.5C44.5,80.6,44.2,80.3,44,80.3z"/>
			<g>
				<polygon class="st68" points="51.5,75.9 47.1,76.9 39.1,82.1 44.4,81 				"/>
			</g>
			<polygon class="st69" points="51.5,75.9 44.4,81 45,81.9 55.3,75.1 			"/>
		</g>
		<circle class="st66" cx="35.8" cy="82.6" r="0.7"/>
		<polygon class="st66" points="46.3,75.7 47.1,76.9 36.8,83.7 36,82.5 		"/>
		<g>
			<path class="st2" d="M39.8,91.6c-2.5,0-2.3-7.9,0.1-8c4.8,0,0,0,4.7,0c3.3,0.2,3.3,8-0.1,8C39.8,91.6,44.6,91.6,39.8,91.6z"/>
		</g>
		<path class="st45" d="M47.5,87.4c0.1,2.2-1.1,4.1-2.6,4.2c-1.5,0.1-2.7-1.6-2.8-3.8c-0.1-2.2,1.1-4.1,2.6-4.2
			C46.1,83.5,47.4,85.2,47.5,87.4z"/>
	</g>
	<path class="st34" d="M74.4,129.2c-2-9.5-6.8-41.2-29.6-41.6"/>
</g>
</svg>
