<?xml version="1.0" encoding="utf-8"?>
<!-- Generator: Adobe Illustrator 19.0.1, SVG Export Plug-In . SVG Version: 6.00 Build 0)  -->
<svg version="1.1" id="Layer_1" xmlns="http://www.w3.org/2000/svg" xmlns:xlink="http://www.w3.org/1999/xlink" x="0px" y="0px"
	 viewBox="0 0 96.5 32.5" style="enable-background:new 0 0 96.5 32.5;" xml:space="preserve">
<style type="text/css">
	.st0{fill:#FFFFFF;}
	.st1{fill:#91C84C;}
</style>
<g>
	<path class="st0" d="M29.5,5.2c1.9,0,3.5,1.4,3.5,3.2v11.3c0,0.3,0.3,0.6,0.7,0.6H36c0.4,0,0.7-0.3,0.7-0.6V8.4
		c0-3.6-3.2-6.6-7.2-6.6h-7.6c-0.3,0-0.6,0.3-0.6,0.7v17.2c0,0.4,0.3,0.7,0.6,0.7h2.5c0.3,0,0.6-0.3,0.6-0.7V5.2L29.5,5.2z"/>
	<path class="st0" d="M8.8,5.2h9.7c0.4,0,0.6-0.3,0.6-0.6V2.4c0-0.3-0.3-0.6-0.6-0.6H8.7c-2.7,0-4.9,2-4.9,4.6v9.4
		c0,2.5,2.2,4.6,4.9,4.6h9.8c0.4,0,0.6-0.3,0.6-0.6v-2.2c0-0.3-0.3-0.6-0.6-0.6H8.8c-0.7,0-1.3-0.6-1.3-1.2v-2.6h5.8
		c0.4,0,0.6-0.3,0.6-0.6v-2.2c0-0.3-0.3-0.6-0.6-0.6H7.5V6.4C7.5,5.8,8.1,5.2,8.8,5.2"/>
	<path class="st0" d="M95.6,14c0-0.2,0-0.3,0-0.5c-0.2-2.1-2.3-3.6-4.5-3.6h-5.6h-0.1c-0.9,0-1.6-0.8-1.6-1.8l0-1.3
		c0-0.9,0.8-1.6,1.8-1.6h2.2l0,0h5.5c0.3,0,0.5-0.2,0.6-0.4c0-0.1,0-0.1,0-0.2V2.4c0-0.3-0.3-0.6-0.7-0.6l-8.6,0
		C82.1,1.8,80,3.7,80,6l0,2.6c0,2.5,1.9,4.5,4.2,4.5h6.1c0.9,0,1.6,0.8,1.6,1.8v0.4c0,0.9-0.8,1.6-1.7,1.6h-9.5
		c-0.3,0-0.5,0.2-0.6,0.4c0,0.1,0,0.1,0,0.2v2.2c0,0.3,0.3,0.6,0.7,0.6h7.7l2.6,0c2.5,0,4.5-1.9,4.5-4.2V14z"/>
	<path class="st0" d="M65.3,1.8h-8c-0.3,0-0.6,0.3-0.6,0.7v10.9c0,0.4,0.3,0.7,0.6,0.7h2.5c0.3,0,0.6-0.3,0.6-0.7l0-8.2l4.5,0
		c1.9,0,3.5,1.4,3.5,3.2v6c0,1.8-1.6,2.6-3.5,2.6l-8.2,0v3.4l8.2,0c4,0,7.2-2.3,7.2-6v-6C72.1,4.9,69.1,1.8,65.3,1.8"/>
	<path class="st1" d="M46,17c-1.9,0-3.5-1.4-3.5-3.2l0-0.6h7.4c2.6,0,4.6-1.9,4.6-4.3V6.1c0-2.4-2.1-4.3-4.6-4.3h-6.5
		c-0.4,0-0.7,0-1.1,0.1c-2.1,0.5-3.6,2.2-3.6,4.2v1.6c0,0.4,0.3,0.7,0.6,0.7h2.5c0.3,0,0.6-0.3,0.6-0.7V7.3V6.7
		c0-0.8,0.7-1.5,1.6-1.5h5.1c0.9,0,1.6,0.7,1.6,1.5v1.6c0,0.8-0.7,1.5-1.6,1.5H36.7v3.4h2.1v0.6c0,3.6,3.2,6.6,7.2,6.6h10.7V17H46z"
		/>
	<path class="st0" d="M77.9,13.5l0-6.2c0-0.4-0.3-0.7-0.6-0.7h-2.5c-0.3,0-0.6,0.3-0.6,0.7v6.2l0,6.2c0,0.4,0.3,0.7,0.6,0.7h2.5
		c0.3,0,0.6-0.3,0.6-0.7V13.5z"/>
	<path class="st0" d="M77.9,3.2l0-0.7c0-0.4-0.3-0.7-0.6-0.7h-2.5c-0.3,0-0.6,0.3-0.6,0.7v0.7l0,1.3c0,0.4,0.3,0.7,0.6,0.7h2.5
		c0.3,0,0.6-0.3,0.6-0.7V3.2z"/>
	<path class="st0" d="M3.8,30.3v-4.6c0-0.1,0-0.2,0.1-0.2c0.1,0,0.2-0.1,0.4-0.1c0.1,0,0.3,0,0.4,0.1c0.1,0,0.1,0.1,0.1,0.2v4.1h1.9
		c0.1,0,0.2,0,0.2,0.1c0.1,0.1,0.1,0.2,0.1,0.3c0,0.1,0,0.2-0.1,0.3c-0.1,0.1-0.1,0.1-0.2,0.1H4.2c-0.1,0-0.2,0-0.3-0.1
		C3.8,30.5,3.8,30.4,3.8,30.3"/>
	<path class="st0" d="M9.3,30.3v-4.6c0-0.1,0-0.2,0.1-0.2c0.1-0.1,0.2-0.1,0.3-0.1h2.7c0.1,0,0.2,0,0.2,0.1c0.1,0.1,0.1,0.2,0.1,0.3
		c0,0.1,0,0.2-0.1,0.3c-0.1,0.1-0.1,0.1-0.2,0.1h-2.2v1.4h1.2c0.1,0,0.2,0,0.2,0.1c0.1,0.1,0.1,0.2,0.1,0.3c0,0.1,0,0.2-0.1,0.2
		c-0.1,0.1-0.1,0.1-0.2,0.1h-1.2v1.4h2.2c0.1,0,0.2,0,0.2,0.1c0.1,0.1,0.1,0.2,0.1,0.3c0,0.1,0,0.2-0.1,0.3
		c-0.1,0.1-0.1,0.1-0.2,0.1H9.7c-0.1,0-0.2,0-0.3-0.1C9.3,30.5,9.3,30.4,9.3,30.3"/>
	<path class="st0" d="M13.8,30.3v-4.6c0-0.1,0-0.2,0.1-0.2c0.1,0,0.2-0.1,0.4-0.1c0.1,0,0.3,0,0.4,0.1c0.1,0,0.1,0.1,0.1,0.2v4.1
		h1.9c0.1,0,0.2,0,0.2,0.1C17,30,17,30.1,17,30.2c0,0.1,0,0.2-0.1,0.3c-0.1,0.1-0.1,0.1-0.2,0.1h-2.4c-0.1,0-0.2,0-0.3-0.1
		C13.9,30.5,13.8,30.4,13.8,30.3"/>
	<path class="st0" d="M18,30.3v-4.6c0-0.1,0-0.2,0.1-0.2c0.1-0.1,0.2-0.1,0.3-0.1h2.7c0.1,0,0.2,0,0.2,0.1c0.1,0.1,0.1,0.2,0.1,0.3
		c0,0.1,0,0.2-0.1,0.3c-0.1,0.1-0.1,0.1-0.2,0.1H19v1.4h1.2c0.1,0,0.2,0,0.2,0.1c0.1,0.1,0.1,0.2,0.1,0.3c0,0.1,0,0.2-0.1,0.2
		c-0.1,0.1-0.1,0.1-0.2,0.1H19v1.4h2.2c0.1,0,0.2,0,0.2,0.1c0.1,0.1,0.1,0.2,0.1,0.3c0,0.1,0,0.2-0.1,0.3c-0.1,0.1-0.1,0.1-0.2,0.1
		h-2.7c-0.1,0-0.2,0-0.3-0.1C18,30.5,18,30.4,18,30.3"/>
	<path class="st0" d="M22.4,29.1v-2c0-0.6,0.2-1,0.5-1.2c0.3-0.3,0.8-0.4,1.3-0.4c0.5,0,1,0.1,1.3,0.4c0.3,0.2,0.5,0.6,0.5,1
		c0,0.2,0,0.3-0.1,0.4c-0.1,0.1-0.2,0.1-0.4,0.1c-0.3,0-0.5-0.1-0.5-0.3c0-0.1,0-0.1,0-0.2c0,0,0-0.1-0.1-0.2c0-0.1-0.1-0.1-0.1-0.2
		c-0.1,0-0.1-0.1-0.2-0.1c-0.1,0-0.2-0.1-0.4-0.1c-0.5,0-0.8,0.3-0.8,0.8v2c0,0.5,0.3,0.8,0.8,0.8c0.2,0,0.3,0,0.4-0.1
		c0.1,0,0.2-0.1,0.2-0.2c0-0.1,0.1-0.2,0.1-0.2c0-0.1,0-0.2,0-0.3c0-0.2,0.2-0.3,0.5-0.3c0.2,0,0.3,0,0.4,0.1C26,29,26,29.1,26,29.3
		c0,0.4-0.2,0.8-0.5,1c-0.3,0.3-0.8,0.4-1.3,0.4c-0.5,0-1-0.1-1.3-0.4C22.6,30,22.4,29.6,22.4,29.1"/>
	<path class="st0" d="M26.8,25.9c0-0.1,0-0.2,0.1-0.3c0.1-0.1,0.1-0.1,0.2-0.1h3.2c0.1,0,0.2,0,0.2,0.1c0.1,0.1,0.1,0.2,0.1,0.3
		c0,0.1,0,0.2-0.1,0.3c-0.1,0.1-0.1,0.1-0.2,0.1h-1.1v4c0,0.1,0,0.2-0.1,0.2c-0.1,0.1-0.2,0.1-0.3,0.1c-0.1,0-0.3,0-0.4-0.1
		c-0.1-0.1-0.1-0.1-0.1-0.2v-4h-1.1c-0.1,0-0.2,0-0.2-0.1C26.8,26.1,26.8,26,26.8,25.9"/>
	<path class="st0" d="M31.7,30.3v-4.6c0-0.1,0-0.1,0.1-0.2c0.1-0.1,0.1-0.1,0.2-0.1h1.5c1.2,0,1.8,0.5,1.8,1.5
		c0,0.4-0.1,0.7-0.3,0.9c-0.2,0.2-0.4,0.4-0.7,0.5l1,1.7c0,0,0,0.1,0,0.1c0,0.1-0.1,0.2-0.2,0.3c-0.1,0.1-0.3,0.2-0.4,0.2
		c-0.1,0-0.3-0.1-0.3-0.2l-1.1-1.9h-0.6v1.8c0,0.1,0,0.2-0.1,0.2c-0.1,0.1-0.2,0.1-0.4,0.1c-0.1,0-0.2,0-0.3-0.1
		C31.7,30.5,31.7,30.4,31.7,30.3 M32.7,27.8h0.8c0.5,0,0.8-0.2,0.8-0.7c0-0.5-0.3-0.8-0.8-0.8h-0.8V27.8z"/>
	<path class="st0" d="M36.5,30.3v-4.6c0-0.1,0-0.2,0.1-0.2c0.1,0,0.2-0.1,0.4-0.1c0.1,0,0.3,0,0.4,0.1c0.1,0,0.1,0.1,0.1,0.2v4.6
		c0,0.1,0,0.2-0.1,0.2c-0.1,0.1-0.2,0.1-0.3,0.1c-0.1,0-0.3,0-0.4-0.1C36.6,30.5,36.5,30.4,36.5,30.3"/>
	<path class="st0" d="M38.8,29.1v-2c0-0.6,0.2-1,0.5-1.2c0.3-0.3,0.8-0.4,1.3-0.4c0.5,0,1,0.1,1.3,0.4c0.3,0.2,0.5,0.6,0.5,1
		c0,0.2,0,0.3-0.1,0.4c-0.1,0.1-0.2,0.1-0.4,0.1c-0.3,0-0.5-0.1-0.5-0.3c0-0.1,0-0.1,0-0.2c0,0,0-0.1-0.1-0.2c0-0.1-0.1-0.1-0.1-0.2
		c-0.1,0-0.1-0.1-0.2-0.1c-0.1,0-0.2-0.1-0.4-0.1c-0.5,0-0.8,0.3-0.8,0.8v2c0,0.5,0.3,0.8,0.8,0.8c0.2,0,0.3,0,0.4-0.1
		c0.1,0,0.2-0.1,0.2-0.2c0-0.1,0.1-0.2,0.1-0.2c0-0.1,0-0.2,0-0.3c0-0.2,0.2-0.3,0.5-0.3c0.2,0,0.3,0,0.4,0.1
		c0.1,0.1,0.1,0.2,0.1,0.4c0,0.4-0.2,0.8-0.5,1c-0.3,0.3-0.8,0.4-1.3,0.4c-0.5,0-1-0.1-1.3-0.4C39,30,38.8,29.6,38.8,29.1"/>
	<path class="st0" d="M43.6,30.3v-4.6c0-0.1,0-0.2,0.1-0.2c0.1,0,0.2-0.1,0.4-0.1c0.1,0,0.3,0,0.4,0.1c0.1,0,0.1,0.1,0.1,0.2v4.6
		c0,0.1,0,0.2-0.1,0.2c-0.1,0.1-0.2,0.1-0.3,0.1c-0.1,0-0.3,0-0.4-0.1C43.7,30.5,43.6,30.4,43.6,30.3"/>
	<path class="st0" d="M45.6,25.9c0-0.1,0-0.2,0.1-0.3c0.1-0.1,0.1-0.1,0.2-0.1h3.2c0.1,0,0.2,0,0.2,0.1c0.1,0.1,0.1,0.2,0.1,0.3
		c0,0.1,0,0.2-0.1,0.3c-0.1,0.1-0.1,0.1-0.2,0.1h-1.1v4c0,0.1-0.1,0.2-0.1,0.2c-0.1,0.1-0.2,0.1-0.3,0.1c-0.1,0-0.3,0-0.4-0.1
		c-0.1-0.1-0.1-0.1-0.1-0.2v-4h-1.1c-0.1,0-0.2,0-0.2-0.1C45.7,26.1,45.6,26,45.6,25.9"/>
	<path class="st0" d="M50.5,30.3v-4.6c0-0.1,0-0.2,0.1-0.2c0.1-0.1,0.2-0.1,0.3-0.1h2.7c0.1,0,0.2,0,0.2,0.1
		c0.1,0.1,0.1,0.2,0.1,0.3c0,0.1,0,0.2-0.1,0.3c-0.1,0.1-0.1,0.1-0.2,0.1h-2.2v1.4h1.2c0.1,0,0.2,0,0.2,0.1C53,27.9,53,28,53,28.1
		c0,0.1,0,0.2-0.1,0.2c-0.1,0.1-0.1,0.1-0.2,0.1h-1.2v1.4h2.2c0.1,0,0.2,0,0.2,0.1C54,30,54,30.1,54,30.2c0,0.1,0,0.2-0.1,0.3
		c-0.1,0.1-0.1,0.1-0.2,0.1h-2.7c-0.1,0-0.2,0-0.3-0.1C50.6,30.5,50.5,30.4,50.5,30.3"/>
	<path class="st0" d="M57,30.3v-4.6c0-0.1,0-0.2,0.1-0.2c0.1-0.1,0.2-0.1,0.3-0.1h2.7c0.1,0,0.2,0,0.2,0.1c0.1,0.1,0.1,0.2,0.1,0.3
		c0,0.1,0,0.2-0.1,0.3c-0.1,0.1-0.1,0.1-0.2,0.1H58v1.4h1.2c0.1,0,0.2,0,0.2,0.1c0.1,0.1,0.1,0.2,0.1,0.3c0,0.1,0,0.2-0.1,0.2
		c-0.1,0.1-0.1,0.1-0.2,0.1H58v1.4h2.2c0.1,0,0.2,0,0.2,0.1c0.1,0.1,0.1,0.2,0.1,0.3c0,0.1,0,0.2-0.1,0.3c-0.1,0.1-0.1,0.1-0.2,0.1
		h-2.7c-0.1,0-0.2,0-0.3-0.1C57.1,30.5,57,30.4,57,30.3"/>
	<path class="st0" d="M61.6,30.3v-4.6c0-0.1,0-0.2,0.1-0.2c0.1,0,0.2-0.1,0.4-0.1c0.2,0,0.3,0,0.4,0.1c0.1,0.1,0.2,0.2,0.3,0.4
		l1.5,2.6v-2.8c0-0.1,0-0.2,0.1-0.2c0.1,0,0.2-0.1,0.4-0.1s0.3,0,0.4,0.1c0.1,0,0.1,0.1,0.1,0.2v4.6c0,0.1,0,0.2-0.2,0.2
		c-0.1,0.1-0.2,0.1-0.3,0.1c-0.3,0-0.5-0.1-0.6-0.3l-1.6-2.8v2.8c0,0.1,0,0.2-0.1,0.2c-0.1,0.1-0.2,0.1-0.3,0.1
		c-0.1,0-0.3,0-0.4-0.1C61.6,30.5,61.6,30.4,61.6,30.3"/>
	<path class="st0" d="M68.7,30.3v-4.6c0-0.1,0-0.1,0.1-0.2c0.1-0.1,0.1-0.1,0.2-0.1h1.5c1.2,0,1.8,0.5,1.8,1.5
		c0,0.4-0.1,0.7-0.3,0.9c-0.2,0.2-0.4,0.4-0.7,0.5l1,1.7c0,0,0,0.1,0,0.1c0,0.1-0.1,0.2-0.2,0.3c-0.1,0.1-0.3,0.2-0.4,0.2
		c-0.1,0-0.3-0.1-0.3-0.2l-1.1-1.9h-0.6v1.8c0,0.1,0,0.2-0.1,0.2c-0.1,0.1-0.2,0.1-0.4,0.1c-0.1,0-0.2,0-0.3-0.1
		C68.7,30.5,68.7,30.4,68.7,30.3 M69.7,27.8h0.8c0.5,0,0.8-0.2,0.8-0.7c0-0.5-0.3-0.8-0.8-0.8h-0.8V27.8z"/>
	<path class="st0" d="M73.5,30.3v-4.6c0-0.1,0-0.2,0.1-0.2c0.1-0.1,0.2-0.1,0.3-0.1h2.7c0.1,0,0.2,0,0.2,0.1
		c0.1,0.1,0.1,0.2,0.1,0.3c0,0.1,0,0.2-0.1,0.3c-0.1,0.1-0.1,0.1-0.2,0.1h-2.2v1.4h1.2c0.1,0,0.2,0,0.2,0.1C76,27.9,76,28,76,28.1
		c0,0.1,0,0.2-0.1,0.2c-0.1,0.1-0.1,0.1-0.2,0.1h-1.2v1.4h2.2c0.1,0,0.2,0,0.2,0.1C77,30,77,30.1,77,30.2c0,0.1,0,0.2-0.1,0.3
		c-0.1,0.1-0.1,0.1-0.2,0.1H74c-0.1,0-0.2,0-0.3-0.1C73.6,30.5,73.5,30.4,73.5,30.3"/>
	<path class="st0" d="M77.8,29.8c0-0.1,0-0.2,0.1-0.3c0.1-0.1,0.2-0.2,0.3-0.2c0.1,0,0.1,0,0.2,0.1c0.1,0.1,0.2,0.1,0.2,0.2
		c0.1,0.1,0.2,0.1,0.3,0.2c0.1,0.1,0.3,0.1,0.5,0.1c0.2,0,0.4-0.1,0.6-0.2c0.2-0.1,0.2-0.3,0.2-0.5c0-0.1,0-0.3-0.1-0.4
		c-0.1-0.1-0.2-0.2-0.4-0.3c-0.1-0.1-0.3-0.1-0.5-0.2c-0.2-0.1-0.3-0.1-0.5-0.2c-0.2-0.1-0.3-0.2-0.5-0.3c-0.1-0.1-0.3-0.2-0.4-0.4
		c-0.1-0.2-0.1-0.4-0.1-0.6c0-0.3,0.1-0.5,0.2-0.7c0.1-0.2,0.3-0.3,0.4-0.4c0.2-0.1,0.4-0.2,0.6-0.2c0.2,0,0.4-0.1,0.7-0.1
		c0.1,0,0.3,0,0.4,0s0.3,0,0.5,0.1s0.3,0.1,0.4,0.2c0.1,0.1,0.2,0.2,0.2,0.3c0,0.1,0,0.2-0.1,0.3c-0.1,0.1-0.2,0.2-0.3,0.2
		c0,0-0.2,0-0.4-0.1c-0.2-0.1-0.4-0.1-0.7-0.1c-0.3,0-0.5,0-0.6,0.1c-0.2,0.1-0.2,0.2-0.2,0.4c0,0.1,0.1,0.3,0.2,0.4
		c0.1,0.1,0.3,0.2,0.5,0.2c0.2,0.1,0.4,0.1,0.6,0.2c0.2,0.1,0.4,0.2,0.6,0.3c0.2,0.1,0.3,0.3,0.5,0.5c0.1,0.2,0.2,0.5,0.2,0.7
		c0,0.5-0.2,0.9-0.5,1.1c-0.3,0.3-0.8,0.4-1.3,0.4c-0.5,0-0.9-0.1-1.2-0.3C78,30.2,77.8,30,77.8,29.8"/>
	<path class="st0" d="M82.6,30.3v-4.6c0-0.1,0-0.2,0.1-0.2c0.1-0.1,0.2-0.1,0.3-0.1h2.7c0.1,0,0.2,0,0.2,0.1
		c0.1,0.1,0.1,0.2,0.1,0.3c0,0.1,0,0.2-0.1,0.3c-0.1,0.1-0.1,0.1-0.2,0.1h-2.2v1.4h1.2c0.1,0,0.2,0,0.2,0.1c0.1,0.1,0.1,0.2,0.1,0.3
		c0,0.1,0,0.2-0.1,0.2c-0.1,0.1-0.1,0.1-0.2,0.1h-1.2v1.4h2.2c0.1,0,0.2,0,0.2,0.1c0.1,0.1,0.1,0.2,0.1,0.3c0,0.1,0,0.2-0.1,0.3
		c-0.1,0.1-0.1,0.1-0.2,0.1H83c-0.1,0-0.2,0-0.3-0.1C82.7,30.5,82.6,30.4,82.6,30.3"/>
	<path class="st0" d="M91.9,29.1v-3.3c0-0.1,0-0.2,0.1-0.2c0.1,0,0.2-0.1,0.4-0.1c0.1,0,0.3,0,0.4,0.1c0.1,0,0.1,0.1,0.1,0.2v3.3
		c0,0.5,0.3,0.8,0.8,0.8c0.6,0,0.8-0.3,0.8-0.8v-3.3c0-0.1,0-0.2,0.1-0.2c0.1,0,0.2-0.1,0.4-0.1s0.3,0,0.4,0.1
		c0.1,0,0.1,0.1,0.1,0.2v3.3c0,0.6-0.2,1-0.5,1.2c-0.3,0.3-0.8,0.4-1.3,0.4c-0.6,0-1-0.1-1.3-0.4C92,30,91.9,29.6,91.9,29.1"/>
	<path class="st0" d="M7.5,25.6c0,0,0.1-0.2,0.3-0.1c0,0,0.3,0.1,0.4,0.2c0,0,0.1,0.1,0,0.2L7.7,27c0,0-0.1,0.1-0.3,0.1
		c0,0-0.1,0-0.2-0.1c0,0-0.2-0.2-0.1-0.3L7.5,25.6z"/>
	<path class="st0" d="M89.8,29.5l0.3,0.9c0,0.1,0.2,0.2,0.4,0.2c0.2,0,0.2,0,0.4-0.1c0.2-0.1,0.2-0.2,0.2-0.3c0,0,0,0,0-0.1
		l-1.5-4.3c0-0.1-0.1-0.2-0.2-0.3c-0.2-0.1-0.4-0.1-0.5-0.1c-0.2,0-0.4,0-0.5,0.1c-0.1,0.1-0.2,0.1-0.2,0.3l-1.5,4.3
		c0,0,0,0.1,0,0.1c0,0.1,0.1,0.2,0.2,0.3c0.2,0.1,0.2,0.1,0.4,0.1c0.2,0,0.3-0.1,0.4-0.2l0.3-0.9H89.8z M88.1,28.8l0.7-2.4l0.7,2.4
		H88.1z"/>
</g>
</svg>
