<svg xmlns="http://www.w3.org/2000/svg" xmlns:xlink="http://www.w3.org/1999/xlink" viewBox="0 0 83.56 96.38">
  <defs>
    <clipPath id="a" transform="translate(-9.51 -9.48)">
      <path d="M9.92,100.77h0.16a0.76,0.76,0,0,1,.22,0h0.08a1.48,1.48,0,0,1-.26-0.24Zm49.74-3.86a0.77,0.77,0,0,1-.33.12h0a0.64,0.64,0,0,0-.33.19l-0.19.14H58.9l0.68,0.09L60.1,97l0.51,0c-0.19,0-.39-0.11-0.6-0.13h0a0.74,0.74,0,0,0-.32.11M61,96.74a1,1,0,0,1-.27.18L61.4,97l0.2-.1a0.46,0.46,0,0,0-.21-0.33h0a0.68,0.68,0,0,0-.34.2M35,99.85a0.57,0.57,0,0,1,0-.55l0,0a1,1,0,0,0,.35.09c0,0.15,0,.3,0,0.44h0a1.07,1.07,0,0,0,0,.48l0,0.07h0A0.64,0.64,0,0,1,35,99.85m2.33-2.94h0v0Zm-0.94.24a3.54,3.54,0,0,0,.54-0.58H37a0.3,0.3,0,0,1,.26.19l0.07,0.18s-0.09.2-.18,0.35a0.63,0.63,0,0,1-.4.37l-0.08,0A1.81,1.81,0,0,1,36.12,97a0.56,0.56,0,0,0,.26.1h0M37,94.93a3,3,0,0,0-1.1,1.7S36,96.84,36.12,97l0,0a0.71,0.71,0,0,0-.33-0.12h0c-0.21,0-.38,1.3-0.61,1.31h0a1,1,0,0,1-.34-0.55,0.94,0.94,0,0,0-.35-0.55h0c-0.21,0-.43.93-0.66,0.93H33.11c-0.21,0-.43-0.41-0.66-0.41S32,97.42,31.8,97.41s-0.42-.81-0.64-0.81h0l-0.31,0-0.3,0h0c-0.22,0-.43-0.23-0.65-0.23h0a0.78,0.78,0,0,0-.34.44,0.78,0.78,0,0,1-.34.44h0a1.09,1.09,0,0,0-.35.6,1.07,1.07,0,0,1-.35.6h0c-0.22,0-.37-1.8-0.59-1.81s-0.41-.59-0.63-0.6h0a0.6,0.6,0,0,0-.33.24,0.6,0.6,0,0,1-.33.24h0c-0.23,0-.45-0.33-0.67-0.33h0a0.94,0.94,0,0,0-.36.54,1,1,0,0,1-.35.54h0c-0.23,0-.43-1.09-0.65-1.09h0c-0.23,0-.46,1-0.68,1s-0.46-.85-0.68-0.85h0c-0.23,0-.46.19-0.67,0.19h0a0.68,0.68,0,0,1-.35-0.17,0.66,0.66,0,0,0-.34-0.18h0c-0.23,0-.33,1.84-0.53,1.85h0a1.59,1.59,0,0,1-.43-0.79,1.81,1.81,0,0,0-.41-0.79h0c-0.24,0-.33,1-0.52,1s0,0.94-.11,1a0.17,0.17,0,0,1-.09,0,0.91,0.91,0,0,1-.4-0.16A2.16,2.16,0,0,0,19,98.21s0,0,0,0a1.61,1.61,0,0,0,.37.69c0.14,0.09.12,0.1,0.06,0.1h0l-0.16,0c0,0.14.75,1.24,0.4,1.3h0a1.79,1.79,0,0,1-.4-0.72A1.36,1.36,0,0,0,18.83,99h0c-0.2,0-.38,1.7-0.62,1.71h0c-0.21,0-.45-1.3-0.68-1.3s-0.43-.69-0.66-0.7-0.43,0-.66,0a1.08,1.08,0,0,0-.33.61,1,1,0,0,1-.34.61h0c-0.22,0-.44.41-0.66,0.41S14.43,100,14.21,100h0a0.64,0.64,0,0,1-.33-0.15,0.64,0.64,0,0,0-.33-0.15h0a0.82,0.82,0,0,1-.32-0.1,0.83,0.83,0,0,0-.32-0.1h0a0.67,0.67,0,0,1-.35-0.32l-0.09-.12h0l-0.51.38H11.3a2.63,2.63,0,0,1-.28,1l-0.14.06H11c0.21,0,.36.88,0.6,0.88s0.41-.27.65-0.27h0c0.2,0,.42-0.4.65-0.4s0.43-.39.66-0.39,0.43,0.33.65,0.33,0.43-.38.65-0.38,0.43,1.94.65,1.94,0.43,0.14.66,0.14,0.43-.61.66-0.62,0.43-1.14.65-1.14a0.94,0.94,0,0,1,.33.55,0.92,0.92,0,0,0,.33.55c0.22,0,.44.15,0.66,0.15h0.66c0.22,0,.43-1.15.65-1.15l0.66,0h0a1,1,0,0,1,.33.08,1,1,0,0,0,.33.08c0.22,0,.43-0.51.65-0.51h0a0.64,0.64,0,0,1,.33.34,0.63,0.63,0,0,0,.33.34h0c0.22,0,.43-0.85.65-0.85s0.43-.24.65-0.24h0a0.73,0.73,0,0,1,.33.12,0.71,0.71,0,0,0,.32.12h0a0.59,0.59,0,0,1,.33.26,0.59,0.59,0,0,0,.33.26h0a0.61,0.61,0,0,1,.33.18A0.61,0.61,0,0,0,26,101h0c0.22,0,.42-0.61.64-0.62h0a0.59,0.59,0,0,1,.33.2,0.6,0.6,0,0,0,.32.2h0c0.22,0,.42-0.47.64-0.48h0a0.59,0.59,0,0,1,.33.26,0.6,0.6,0,0,0,.33.26h0a0.81,0.81,0,0,1,.34.46,0.8,0.8,0,0,0,.34.45h0c0.22,0,.37-1.74.59-1.74h0a0.69,0.69,0,0,1,.34.37,0.7,0.7,0,0,0,.34.37h0c0.22,0,.41-0.55.62-0.56s0.41-.42.63-0.43h0a1.6,1.6,0,0,1,.38.8,1.69,1.69,0,0,0,.37.81h0a1,1,0,0,1,.31.07,1,1,0,0,0,.3.07h0c0.23,0,.46-0.08.66-0.1s0.33-1.12.52-1.14h0a0.83,0.83,0,0,1,.41.39,0.94,0.94,0,0,0,.37.4h0a0.77,0.77,0,0,0,.17-0.71,2.68,2.68,0,0,0,0-.49c0.18-.12.59-0.24,0.2-0.39l-0.19-.06a1,1,0,0,1,.17-0.73h0a0.86,0.86,0,0,1,.35.42,0.79,0.79,0,0,0,.38.43h0a0.61,0.61,0,0,1,.32.18,0.59,0.59,0,0,0,.34.18h0a0.92,0.92,0,0,1,.31.08,0.88,0.88,0,0,0,.32.08h0c0.22,0,.41-1.87.64-1.87s0.45,2,.67,2,0.44-.77.66-0.77A0.61,0.61,0,0,0,40,99.09a0.61,0.61,0,0,1,.34-0.29c0.22,0,.44.32,0.67,0.32h0a0.6,0.6,0,0,0,.33-0.21,0.6,0.6,0,0,1,.34-0.22c0.22,0,.43,1,0.65,1h0a0.88,0.88,0,0,0,.34-0.51A0.87,0.87,0,0,1,43,98.62h0a0.6,0.6,0,0,0,.33-0.19,0.61,0.61,0,0,1,.33-0.19h0c0.22,0,.44.46,0.65,0.46s0.44,1.4.66,1.4,0.45-1.39.66-1.39S46.09,98,46.3,98h0a0.73,0.73,0,0,1,.33.41,0.71,0.71,0,0,0,.34.41h0c0.21,0,.43-0.61.65-0.62s0.44-.14.66-0.15h0a2.27,2.27,0,0,1,.34,1,2.24,2.24,0,0,0,.34,1h0c0.22,0,.41-2.13.64-2.13h0a1.48,1.48,0,0,1,.34.78,1.45,1.45,0,0,0,.34.78h0c0.22,0,.42-1.61.64-1.62h0.66a2,2,0,0,1,.35,1,7.77,7.77,0,0,0,.22.76l0.14-.1,0.19-.06a3.32,3.32,0,0,1,.44-1.24h0a0.7,0.7,0,0,1,.34.39,0.7,0.7,0,0,0,.34.39h0a0.3,0.3,0,0,1,.18.18l0.36-.06,0.48-.56,0.61-.17h0.66L56.44,98l0.7,0.11,0.51-.49,0.09,0a5.93,5.93,0,0,0-.37-1.74h0a0.93,0.93,0,0,0-.37.49,0.91,0.91,0,0,1-.37.49h0c-0.22,0-.38-0.94-0.61-1h0a0.71,0.71,0,0,0-.35.35,0.72,0.72,0,0,1-.36.35H55.24a1.47,1.47,0,0,0-.3,0,1.5,1.5,0,0,1-.3,0h0a1.33,1.33,0,0,0-.38.69,1.31,1.31,0,0,1-.38.69h0c-0.22,0-.4-0.68-0.63-0.7s-0.33-1.79-.55-1.8h0a0.79,0.79,0,0,0-.36.43,0.8,0.8,0,0,1-.36.42h0a0.64,0.64,0,0,0-.35.23,0.62,0.62,0,0,1-.34.23h0c-0.23,0-.43-0.21-0.66-0.22s-0.38-1-.6-1h0a2.05,2.05,0,0,0-.4.94,2.07,2.07,0,0,1-.4.94h0c-0.23,0-.32-1.92-0.55-1.94h0a0.7,0.7,0,0,0-.33.14,0.69,0.69,0,0,1-.33.14h0a0.71,0.71,0,0,0-.34.14,0.68,0.68,0,0,1-.33.14H47.15a1.77,1.77,0,0,0-.3,0,1.51,1.51,0,0,1-.29,0H46.52c-0.23,0-.43-0.37-0.65-0.39h0a1,1,0,0,0-.32.08,0.92,0.92,0,0,1-.31.08h0c-0.23,0-.4-0.88-0.62-0.9h0a0.71,0.71,0,0,0-.34.14,0.71,0.71,0,0,1-.33.14h0a2.18,2.18,0,0,0-.4,1,2.25,2.25,0,0,1-.4,1h0c-0.23,0-.41-0.73-0.63-0.74h0a1.41,1.41,0,0,0-.31,0,1.26,1.26,0,0,1-.3,0H41.08a0.61,0.61,0,0,0-.34.21,0.61,0.61,0,0,1-.33.21h0c-0.23,0-.39-1.73-0.6-1.74h0a0.63,0.63,0,0,0-.35.29,0.64,0.64,0,0,1-.33.29h0c-0.24,0-.46-0.35-0.67-0.35S37.94,95,37.74,95h0A1.68,1.68,0,0,1,37.34,95,1.6,1.6,0,0,0,37,94.93h0m20.67-6.41h0a0.63,0.63,0,0,0,.35.35h0a0.68,0.68,0,0,0,.32-0.41h0Zm4.82-.11,0.24,0.11-0.17-.13H62.46Zm-1.68-.25-0.33.21a0.37,0.37,0,0,0,.22.13h0l0.21,0.07-0.11-.4h0Zm27.91,0c-0.22,0-.41.9-0.64,0.91h0a0.64,0.64,0,0,1-.33-0.17,0.65,0.65,0,0,0-.34-0.17h0c-0.22,0-.42.52-0.65,0.54h0a0.71,0.71,0,0,1-.33-0.13A0.72,0.72,0,0,0,86,89h0c-0.22,0-.37,1.31-0.6,1.32h0A1,1,0,0,1,85,89.76a1,1,0,0,0-.37-0.54h0c-0.22,0-.39,1-0.62,1l-0.67,0h0A0.64,0.64,0,0,1,83,90a0.65,0.65,0,0,0-.34-0.18h0a1,1,0,0,1-.32-0.07A1,1,0,0,0,82,89.72h0a0.72,0.72,0,0,1-.35-0.38A0.73,0.73,0,0,0,81.3,89h0c-0.22,0-.44.09-0.66,0.1h0A0.83,0.83,0,0,1,80.31,89,0.85,0.85,0,0,0,80,88.87h0c-0.22,0-.4.92-0.62,0.93S79,91,78.75,91h0a1.77,1.77,0,0,1-.37-0.88A1.86,1.86,0,0,0,78,89.29h0A0.62,0.62,0,0,1,77.66,89a0.63,0.63,0,0,0-.34-0.27h0c-0.23,0-.43.53-0.64,0.54h0a0.72,0.72,0,0,1-.34-0.13A0.7,0.7,0,0,0,76,89h0c-0.23,0-.39,1.13-0.59,1.14h0A0.93,0.93,0,0,1,75,89.65a1,1,0,0,0-.36-0.51h0c-0.25,0-.37,1-0.55,1H73.94a4.62,4.62,0,0,1-.61-0.06,5,5,0,0,0-.52-0.06,0.1,0.1,0,0,0-.09,0,3,3,0,0,0,1,1.24c0.22,0.08.43,0.54,0.65,0.59h0a2,2,0,0,0,.49-0.83,1.94,1.94,0,0,1,.49-0.83h0c0.22,0,.33,1.69.56,1.7h0c0.22,0,.48-0.9.71-0.9s0.42-.95.65-1h0a0.93,0.93,0,0,1,.36.52,0.9,0.9,0,0,0,.36.52h0a0.73,0.73,0,0,1,.33.13,0.73,0.73,0,0,0,.34.13h0c0.22,0,.44.42,0.67,0.42h0a1.84,1.84,0,0,0,.37-0.89A1.73,1.73,0,0,1,80.16,90h0c0.22,0,.36,1.54.59,1.56h0a1.73,1.73,0,0,0,.44-0.8,1.67,1.67,0,0,1,.45-0.8h0c0.22,0,.26,1.36.49,1.4s0.29,0.76.5,0.81,0.41,0.13.63,0.18h0a1.21,1.21,0,0,0,.45-0.52,1.21,1.21,0,0,1,.45-0.52h0.06a0.76,0.76,0,0,0,.32-0.13,0.74,0.74,0,0,1,.33-0.13h0c0.21,0.05.37,0.35,0.59,0.4s0.36,0.41.58,0.46,0.39,0.3.61,0.34,0.32,0.75.54,0.79h0.1l0.25,0,0.26,0H88a1.26,1.26,0,0,0,.4-0.61,1.22,1.22,0,0,1,.41-0.61h0a0.73,0.73,0,0,0,.3-0.1,0.74,0.74,0,0,1,.31-0.1h0c0.22,0,.33,1.39.56,1.4h0.12l0.27-.26,0.6-.22,0.5-.39,0.66-.2,0.3-.61,0.39-.51L93,90.2l0.11-.67h0l-0.57-.47,0-.19a0.76,0.76,0,0,1-.37.37h0a0.65,0.65,0,0,1-.34-0.16,0.66,0.66,0,0,0-.33-0.16h0a0.61,0.61,0,0,1-.35-0.25,0.62,0.62,0,0,0-.34-0.25h0a1,1,0,0,1-.33-0.08,1,1,0,0,0-.32-0.07h0c-0.22,0-.44.15-0.67,0.16h0A0.67,0.67,0,0,1,89,88.28a0.68,0.68,0,0,0-.33-0.15h0M63.92,87.8l-0.16.09-0.09.24,0.07,0.06a0.69,0.69,0,0,0,.28.21h0a0.48,0.48,0,0,0,.21-0.6H63.92Zm8-.8c0.21,0,.41,0,0.63,0h0a0.19,0.19,0,0,0,.12-0.12l-0.51-.07-0.49-.09a0.41,0.41,0,0,0,.25.23m4-.57h0a1.21,1.21,0,0,0,.43.54h0a1,1,0,0,0,.31-0.07A1.05,1.05,0,0,1,77,86.83h0a0.57,0.57,0,0,0,.23-0.38h0l-0.66-.24Zm3.18-.32H78.65a0.84,0.84,0,0,0,.27.53c0.21,0,.44-0.22.68-0.23s0.43-.28.66-0.3A0.27,0.27,0,0,0,80.41,86h0L79.75,86Zm2.54-.32L81.28,86a0.77,0.77,0,0,0,.37.38h0c0.22,0,.42-0.32.64-0.35a0.44,0.44,0,0,0,.24-0.17l-0.24-.1H81.66Zm4.47-.07-0.57.14a1.38,1.38,0,0,0,.4.52h0a1.33,1.33,0,0,0,.44-0.52Z" style="fill: none"/>
    </clipPath>
    <linearGradient id="b" data-name="Dégradé sans nom 29" x1="-242.16" y1="433.86" x2="-241.16" y2="433.86" gradientTransform="matrix(0, 203.11, 203.11, 0, -88076.99, 49243.36)" gradientUnits="userSpaceOnUse">
      <stop offset="0" stop-color="#717a48"/>
      <stop offset="0.27" stop-color="#586b3b"/>
      <stop offset="0.53" stop-color="#435e31"/>
      <stop offset="1" stop-color="#435e31"/>
    </linearGradient>
    <clipPath id="c" transform="translate(-9.51 -9.48)">
      <path d="M35,99.85a0.64,0.64,0,0,0,.31.56h0l0-.07a1.07,1.07,0,0,1,0-.48h0c0-.14,0-0.3,0-0.44a1,1,0,0,1-.35-0.09l0,0a0.57,0.57,0,0,0,0,.55m20.55-1.53h0m-2.66-.14a3.32,3.32,0,0,0-.44,1.24l0.41-.12,0.63-.11,0.27,0A0.3,0.3,0,0,0,53.59,99h0a0.7,0.7,0,0,1-.34-0.39,0.7,0.7,0,0,0-.34-0.39h0m-1.33-.32H50.91c-0.22,0-.42,1.61-0.64,1.62h0a1.45,1.45,0,0,1-.34-0.78,1.48,1.48,0,0,0-.34-0.78h0c-0.22,0-.42,2.13-0.64,2.13h0a2.24,2.24,0,0,1-.34-1,2.27,2.27,0,0,0-.34-1h0c-0.22,0-.44.15-0.66,0.15s-0.43.61-.65,0.62h0a0.71,0.71,0,0,1-.34-0.41A0.73,0.73,0,0,0,46.3,98h0c-0.21,0-.42.74-0.65,0.74s-0.43,1.39-.66,1.39-0.43-1.4-.66-1.4-0.43-.46-0.65-0.46h0a0.61,0.61,0,0,0-.33.19,0.6,0.6,0,0,1-.33.19h0a0.87,0.87,0,0,0-.34.51,0.88,0.88,0,0,1-.34.51h0c-0.22,0-.43-1-0.65-1a0.6,0.6,0,0,0-.34.22,0.6,0.6,0,0,1-.33.21h0c-0.22,0-.44-0.32-0.67-0.32a0.61,0.61,0,0,0-.34.29,0.61,0.61,0,0,1-.33.29c-0.23,0-.44.77-0.66,0.77s-0.46-2-.67-2S37.91,100,37.69,100h0a0.88,0.88,0,0,1-.32-0.08A0.92,0.92,0,0,0,37,99.88h0a0.59,0.59,0,0,1-.34-0.18,0.61,0.61,0,0,0-.32-0.18h0A0.79,0.79,0,0,1,36,99.09a0.86,0.86,0,0,0-.35-0.42h0a1,1,0,0,0-.17.73l0.19,0.06c0.39,0.15,0,.27-0.2.39a2.68,2.68,0,0,1,0,.49,0.77,0.77,0,0,1-.17.71h0a0.94,0.94,0,0,1-.37-0.4,0.83,0.83,0,0,0-.41-0.39h0c-0.2,0-.29,1.12-0.52,1.14s-0.43.08-.66,0.1h0a1,1,0,0,1-.3-0.07,1,1,0,0,0-.31-0.07h0a1.69,1.69,0,0,1-.37-0.81,1.6,1.6,0,0,0-.38-0.8h0c-0.21,0-.4.42-0.63,0.43s-0.4.55-.62,0.56h0a0.7,0.7,0,0,1-.34-0.37,0.69,0.69,0,0,0-.34-0.37h0c-0.21,0-.37,1.74-0.59,1.74h0a0.8,0.8,0,0,1-.34-0.45,0.81,0.81,0,0,0-.34-0.46h0a0.6,0.6,0,0,1-.33-0.26,0.59,0.59,0,0,0-.33-0.26h0c-0.22,0-.42.47-0.64,0.48h0a0.6,0.6,0,0,1-.32-0.2,0.59,0.59,0,0,0-.33-0.2h0c-0.22,0-.42.61-0.64,0.62h0a0.61,0.61,0,0,1-.33-0.18,0.61,0.61,0,0,0-.33-0.18h0a0.59,0.59,0,0,1-.33-0.26,0.59,0.59,0,0,0-.33-0.26h0a0.71,0.71,0,0,1-.32-0.12A0.73,0.73,0,0,0,24,99.92h0c-0.22,0-.43.24-0.65,0.24S23,101,22.73,101h0a0.63,0.63,0,0,1-.33-0.34,0.64,0.64,0,0,0-.33-0.34h0c-0.22,0-.44.51-0.65,0.51a1,1,0,0,1-.33-0.08,1,1,0,0,0-.33-0.08h0l-0.66,0c-0.22,0-.44,1.15-0.65,1.15H18.78c-0.22,0-.44-0.15-0.66-0.15a0.92,0.92,0,0,1-.33-0.55,0.94,0.94,0,0,0-.33-0.55c-0.22,0-.44,1.14-0.65,1.14s-0.44.62-.66,0.62-0.44-.14-0.66-0.14-0.44-1.94-.65-1.94-0.44.38-.65,0.38-0.44-.33-0.65-0.33-0.45.39-.66,0.39-0.45.4-.65,0.4h0c-0.24,0-.45.27-0.65,0.27s-0.39-.85-0.6-0.88H10.88l0.14-.06a2.63,2.63,0,0,0,.28-1H11.19l-0.44.52-0.47.41-0.17.2a1.48,1.48,0,0,0,.26.24H10.3a0.76,0.76,0,0,0-.22,0H9.92l-0.1.12,0.42,0.53,0.39,0.51,0.54,0.34,0.53,0.36,0.58,0.26,0.62,0.17,0.53,0.41L14,103.73l0.73-.2L15.27,104l0.63,0.1,0.61,0.15,0.59,0.26,0.68-.12,0.64,0L19,104.52l0.57,0.38,0.67-.18,0.58,0.39,0.6,0.26,0.64,0h0.64l0.6,0.27,0.65-.13h0.63l0.62,0.15,0.65-.25,0.61,0.37,0.63,0.09,0.64-.37,0.63,0.31,0.63,0,0.64,0,0.62-.23,0.63,0,0.64,0,0.58-.39,0.65,0,0.65,0L34,104.9l0.61-.17,0.6-.18,0.7,0.17,0.63-.12,0.62-.14,0.57-.32,0.63-.13,0.57-.34,0.59-.26,0.61-.18,0.63-.13,0.7,0.11,0.56-.36,0.66,0,0.63-.14,0.56-.34,0.63-.14,0.58-.29,0.6-.21,0.59-.25,0.58-.28,0.64-.08,0.62-.15,0.56-.32,0.63-.11,0.66,0,0.6-.18,0.6-.19,0.58-.26,0.4-.28a7.77,7.77,0,0,1-.22-0.76,2,2,0,0,0-.35-1h0Zm-14.24-.93h0v0Zm-0.39-.36a3.54,3.54,0,0,1-.54.58h0a0.56,0.56,0,0,1-.26-0.1,1.81,1.81,0,0,0,.55.59l0.08,0a0.63,0.63,0,0,0,.4-0.37c0.09-.15.16-0.3,0.18-0.35l-0.07-.18A0.3,0.3,0,0,0,37,96.56H36.94Zm25.51-8.15h0.07l0.17,0.13Zm21.12-2.59-0.63.23-0.41-.17a0.44,0.44,0,0,1-.24.17c-0.22,0-.42.33-0.64,0.35h0A0.77,0.77,0,0,1,81.28,86L81,86.19,80.41,86a0.27,0.27,0,0,1-.15.06c-0.23,0-.44.29-0.66,0.3s-0.47.23-.68,0.23a0.84,0.84,0,0,1-.27-0.53H78.47l-0.62.24-0.63.12a0.57,0.57,0,0,1-.23.38h0a1.05,1.05,0,0,0-.32.07,1,1,0,0,1-.31.07h0a1.21,1.21,0,0,1-.43-0.54l-0.63-.08-0.62.16-0.64,0-0.63.09-0.6.37-0.14,0a0.19,0.19,0,0,1-.12.12h0c-0.22,0-.42,0-0.63,0a0.41,0.41,0,0,1-.25-0.23l-0.17,0-0.64,0H70.2L69.59,87,69,87.16l-0.65-.07-0.63.08-0.59.38-0.67-.24-0.63.12-0.59.4-0.64,0h-0.3a0.48,0.48,0,0,1-.21.6h0a0.69,0.69,0,0,1-.28-0.21l-0.07-.06,0.09-.24-0.43.24-0.68-.3-0.58.39-0.66-.14-0.62.08,0.11,0.4-0.21-.07h0a0.37,0.37,0,0,1-.22-0.13l-0.26.16-0.63.06-0.62.15-0.65-.28a0.68,0.68,0,0,1-.32.41h0a0.63,0.63,0,0,1-.35-0.35l-0.61.1-0.61.19H55.77l-0.6.24-0.63.06L53.89,89l-0.63,0-0.63.08L52,89.59l-0.65-.15-0.65-.19-0.62.2-0.63,0H48.86l-0.62.16-0.6.27-0.63,0-0.62,0-0.61.15H45.14l-0.67-.21-0.57.41-0.63.07-0.65,0L42,90.36l-0.54.52H40.81l-0.66,0H39.5l-0.56.42-0.62.1-0.64,0-0.55.43-0.63.09H35.86l-0.57.35-0.65,0L34,92.16l-0.52.55-0.69-.13L32.21,93l-0.72-.26L30.92,93l-0.62.13-0.63.09L29,93.38l-0.57.29-0.59.22-0.58.27-0.66,0-0.52.47-0.68-.07-0.6.19-0.53.41-0.59.2L23,95.22l-0.59.24-0.64.07L21.3,96,20.63,96,20,96.07l-0.55.35-0.64.06L18.35,97l-0.62.12-0.57.28-0.56.27-0.66,0-0.61.14-0.54.36-0.65.06-0.54.33L13,98.94l-0.61.12,0.09,0.12a0.67,0.67,0,0,0,.35.32h0a0.83,0.83,0,0,1,.32.1,0.82,0.82,0,0,0,.32.1h0a0.64,0.64,0,0,1,.33.15,0.64,0.64,0,0,0,.33.15h0c0.22,0,.44.26,0.66,0.26s0.44-.41.66-0.41h0a1,1,0,0,0,.34-0.61,1.08,1.08,0,0,1,.33-0.61c0.23,0,.45,0,0.66,0s0.45,0.7.66,0.7,0.47,1.3.68,1.3h0c0.24,0,.41-1.7.62-1.71h0a1.36,1.36,0,0,1,.45.72,1.79,1.79,0,0,0,.4.72h0c0.35-.06-0.41-1.16-0.4-1.3l0.16,0h0c0.06,0,.08,0-0.06-0.1a1.61,1.61,0,0,1-.37-0.69s0,0,0,0a2.16,2.16,0,0,1,.26.16,0.91,0.91,0,0,0,.4.16,0.17,0.17,0,0,0,.09,0c0.14-.09-0.15-1,0.11-1s0.27-1,.52-1h0a1.81,1.81,0,0,1,.41.79,1.59,1.59,0,0,0,.43.79h0c0.21,0,.3-1.84.53-1.85h0a0.66,0.66,0,0,1,.34.18,0.68,0.68,0,0,0,.35.17h0c0.21,0,.44-0.19.67-0.19h0c0.21,0,.45.85,0.68,0.85s0.45-1,.68-1h0c0.22,0,.42,1.09.65,1.09h0a1,1,0,0,0,.35-0.54,0.94,0.94,0,0,1,.36-0.54h0c0.22,0,.44.32,0.67,0.33h0a0.6,0.6,0,0,0,.33-0.24,0.6,0.6,0,0,1,.33-0.24h0c0.22,0,.41.59,0.63,0.6s0.37,1.8.59,1.81h0a1.07,1.07,0,0,0,.35-0.6,1.09,1.09,0,0,1,.35-0.6h0a0.78,0.78,0,0,0,.34-0.44,0.78,0.78,0,0,1,.34-0.44h0c0.22,0,.43.23,0.65,0.23h0l0.3,0,0.31,0h0c0.22,0,.42.81,0.64,0.81s0.44,0.19.66,0.19S32.9,98,33.11,98h0.67c0.23,0,.44-0.93.66-0.93h0a0.94,0.94,0,0,1,.35.55,1,1,0,0,0,.34.55h0c0.23,0,.4-1.3.61-1.31h0a0.71,0.71,0,0,1,.33.13l0,0c-0.13-.19-0.23-0.37-0.26-0.41a3,3,0,0,1,1.1-1.7h0a1.6,1.6,0,0,1,.33.06,1.68,1.68,0,0,0,.37.06h0c0.2,0,.45.52,0.69,0.52s0.43,0.35.67,0.35h0a0.64,0.64,0,0,0,.33-0.29,0.63,0.63,0,0,1,.35-0.29h0c0.22,0,.37,1.73.6,1.74h0a0.61,0.61,0,0,0,.33-0.21,0.61,0.61,0,0,1,.34-0.21h0.71a1.26,1.26,0,0,0,.3,0,1.41,1.41,0,0,1,.31,0h0c0.22,0,.4.73,0.63,0.74h0a2.25,2.25,0,0,0,.4-1,2.18,2.18,0,0,1,.4-1h0a0.71,0.71,0,0,0,.33-0.14A0.71,0.71,0,0,1,44.55,95h0c0.22,0,.39.88,0.62,0.9h0a0.92,0.92,0,0,0,.31-0.08,1,1,0,0,1,.32-0.08h0c0.22,0,.42.37,0.65,0.39h0.05a1.51,1.51,0,0,0,.29,0,1.77,1.77,0,0,1,.3,0h0.07a0.68,0.68,0,0,0,.33-0.14,0.71,0.71,0,0,1,.34-0.14h0a0.69,0.69,0,0,0,.33-0.14,0.7,0.7,0,0,1,.33-0.14h0c0.23,0,.32,1.92.55,1.94h0a2.07,2.07,0,0,0,.4-0.94,2.05,2.05,0,0,1,.4-0.94h0c0.22,0,.38,1,0.6,1s0.43,0.21.66,0.22h0a0.62,0.62,0,0,0,.34-0.23,0.64,0.64,0,0,1,.35-0.23h0a0.8,0.8,0,0,0,.36-0.42,0.79,0.79,0,0,1,.36-0.43h0c0.23,0,.33,1.79.55,1.8s0.4,0.68.63,0.7h0a1.31,1.31,0,0,0,.38-0.69,1.33,1.33,0,0,1,.38-0.69h0a1.5,1.5,0,0,0,.3,0,1.47,1.47,0,0,1,.3,0H55.3a0.72,0.72,0,0,0,.36-0.35A0.71,0.71,0,0,1,56,95.83h0c0.23,0,.39.94,0.61,1h0A0.91,0.91,0,0,0,57,96.31a0.93,0.93,0,0,1,.37-0.49h0a5.93,5.93,0,0,1,.37,1.74l0.49-.23,0.54,0L59,97.22A0.64,0.64,0,0,1,59.3,97h0a0.77,0.77,0,0,0,.33-0.12A0.74,0.74,0,0,1,60,96.8h0c0.21,0,.41.1,0.6,0.13h0.16A1,1,0,0,0,61,96.74a0.68,0.68,0,0,1,.34-0.2h0a0.46,0.46,0,0,1,.21.33l0.38-.2,0.58-.33,0.61-.22,0.64,0,0.66,0.08L65,95.79l0.7,0.27,0.59-.34L67,95.66l0.61-.26,0.64,0,0.63-.11,0.63-.1L70.11,95l0.68,0.33,0.59-.46L72,95l0.65,0.12,0.59-.5,0.65,0,0.63-.13,0.64,0,0.67,0.37,0.63-.24,0.65,0.05,0.63-.2,0.65,0.11,0.64-.13,0.65,0h0.64L81,94.35l0.65,0.08,0.64-.05,0.65,0.15,0.63-.14,0.63-.22,0.63-.1,0.67,0.21,0.58-.43,0.62-.12,0.64,0,0.65,0,0.62-.17,0.64-.1,0.64-.13L90.12,93H90c-0.23,0-.34-1.38-0.56-1.4h0a0.74,0.74,0,0,0-.31.1,0.73,0.73,0,0,1-.3.1h0a1.22,1.22,0,0,0-.41.61,1.26,1.26,0,0,1-.4.61h-0.1l-0.26,0-0.25,0h-0.1c-0.22,0-.33-0.75-0.54-0.79S86.31,92,86.1,92s-0.36-.41-0.58-0.46-0.37-.35-0.59-0.4h0a0.74,0.74,0,0,0-.33.13,0.76,0.76,0,0,1-.32.13H84.18a1.21,1.21,0,0,0-.45.52,1.21,1.21,0,0,1-.45.52h0c-0.21-.05-0.41-0.13-0.63-0.18s-0.28-.77-0.5-0.81S81.87,90,81.65,90h0a1.67,1.67,0,0,0-.45.8,1.73,1.73,0,0,1-.44.8h0c-0.23,0-.37-1.55-0.59-1.56h0a1.73,1.73,0,0,0-.38.89,1.84,1.84,0,0,1-.37.89h0c-0.23,0-.45-0.42-0.67-0.42h0a0.73,0.73,0,0,1-.34-0.13,0.73,0.73,0,0,0-.33-0.13h0a0.9,0.9,0,0,1-.36-0.52,0.93,0.93,0,0,0-.36-0.52h0c-0.23,0-.43,1-0.65,1S76.19,92,76,92h0c-0.23,0-.34-1.68-0.56-1.7h0a1.94,1.94,0,0,0-.49.83,2,2,0,0,1-.49.83h0c-0.22-.05-0.43-0.51-0.65-0.59a3,3,0,0,1-1-1.24,0.1,0.1,0,0,1,.09,0,5,5,0,0,1,.52.06,4.62,4.62,0,0,0,.61.06h0.14c0.18,0,.3-1,0.55-1h0a1,1,0,0,1,.36.51,0.93,0.93,0,0,0,.39.51h0c0.21,0,.36-1.13.59-1.14h0a0.7,0.7,0,0,1,.32.14,0.72,0.72,0,0,0,.34.13h0c0.21,0,.42-0.53.64-0.54h0a0.63,0.63,0,0,1,.34.27,0.62,0.62,0,0,0,.34.27h0a1.86,1.86,0,0,1,.37.88,1.77,1.77,0,0,0,.37.88h0c0.22,0,.38-1.24.61-1.25s0.4-.92.62-0.93h0a0.85,0.85,0,0,1,.32.09,0.83,0.83,0,0,0,.32.09h0c0.22,0,.44-0.09.66-0.1h0a0.73,0.73,0,0,1,.35.38,0.72,0.72,0,0,0,.35.38h0a1,1,0,0,1,.32.07,1,1,0,0,0,.32.07h0A0.65,0.65,0,0,1,83,90a0.64,0.64,0,0,0,.33.18h0l0.67,0c0.23,0,.4-1,0.62-1h0a1,1,0,0,1,.37.54,1,1,0,0,0,.36.54h0c0.23,0,.38-1.31.6-1.32h0a0.72,0.72,0,0,1,.34.13,0.71,0.71,0,0,0,.33.13h0c0.23,0,.43-0.52.65-0.54h0a0.65,0.65,0,0,1,.34.17A0.64,0.64,0,0,0,88,89h0c0.23,0,.41-0.9.64-0.91h0a0.68,0.68,0,0,1,.33.15,0.67,0.67,0,0,0,.33.15h0c0.22,0,.44-0.16.67-0.16h0a1,1,0,0,1,.32.07,1,1,0,0,0,.33.08h0a0.62,0.62,0,0,1,.34.25,0.61,0.61,0,0,0,.35.25h0a0.66,0.66,0,0,1,.33.16,0.65,0.65,0,0,0,.34.16h0a0.76,0.76,0,0,0,.37-0.37l-0.09-.46-0.44-.47-0.32-.6L91,87l-0.54-.36-0.6-.23-0.6-.26L88.68,86,88,86.26l-0.59-.44L86.75,86l-0.34-.18a1.33,1.33,0,0,1-.44.52h0a1.38,1.38,0,0,1-.4-0.52l-0.08,0L84.85,86l-0.63-.23Z" style="fill: none"/>
    </clipPath>
    <linearGradient id="d" data-name="Dégradé sans nom 30" x1="-242.18" y1="433.81" x2="-241.18" y2="433.81" gradientTransform="matrix(0, 195.95, 195.95, 0, -84962.77, 47523.56)" gradientUnits="userSpaceOnUse">
      <stop offset="0" stop-color="#435e31"/>
      <stop offset="0.43" stop-color="#264124"/>
      <stop offset="0.79" stop-color="#16220f"/>
      <stop offset="1" stop-color="#111807"/>
    </linearGradient>
    <clipPath id="e" transform="translate(-9.51 -9.48)">
      <path d="M73.23,51.3c0.1,1,1.92,14.41,5.59,18.33s5.55,13.52,5.55,13.52,4.52-.7,4.78-1A50.79,50.79,0,0,0,84.53,70c-0.47-.61-0.87-1.14-1.2-1.59-0.15-.21-0.14-0.42-0.26-0.6s-0.38-.33-0.48-0.49a3.87,3.87,0,0,1-.08-0.51c-0.11-.21-0.4-0.39-0.47-0.58-0.31-.88-2-15.27-2-15.27Z" style="fill: none"/>
    </clipPath>
    <linearGradient id="f" data-name="Dégradé sans nom 31" x1="-233.48" y1="441.34" x2="-232.48" y2="441.34" gradientTransform="matrix(15.92, 0, 0, -15.92, 3780.92, 7083.96)" gradientUnits="userSpaceOnUse">
      <stop offset="0" stop-color="#908ab3"/>
      <stop offset="1" stop-color="#6a628c"/>
    </linearGradient>
  </defs>
  <title>tondeuse</title>
  <g>
    <g style="clip-path: url(#a)">
      <rect x="0.41" y="76.24" width="83.15" height="16.64" style="fill: url(#b)"/>
    </g>
    <g style="clip-path: url(#c)">
      <rect x="0.31" y="76.29" width="82.64" height="20.09" style="fill: url(#d)"/>
    </g>
    <path d="M65.67,39A24.29,24.29,0,0,1,66,33.63s4.28-.84,4.52.91c0.17,1.24-.37,1.63-0.67,3.54-0.26,1.72-.32,4.08-0.91,5.61-1.18,1.51-5.25,6.15-9.2,7.87a7.17,7.17,0,0,1-.23-2C63,46,63.39,43.6,66,41.34c-0.07-.57-0.25-1.25-0.32-2.32" transform="translate(-9.51 -9.48)" style="fill: #d27d42"/>
    <path d="M64.71,36.69a17.7,17.7,0,0,0,4.87,1.81c0.6-2.58,2.69-11.59.4-11.15s-3.47,2-4.21,4.54c-0.51,1.78-.94,4.35-1.06,4.8" transform="translate(-9.51 -9.48)" style="fill: #a9ae8d"/>
    <path d="M86.84,82.22c1.37-.27,1.78-0.13,2,0.91s0.89,3.75-.54,4-2.05.36-2.87,1.06-1.85-5.14-1.85-5.14Z" transform="translate(-9.51 -9.48)" style="fill: #8f6860"/>
    <path d="M88.41,82c0,1.29-.93,2.88-2.42.83S88.41,82,88.41,82" transform="translate(-9.51 -9.48)" style="fill: #4e4769"/>
    <g style="clip-path: url(#e)">
      <rect x="63.72" y="41.47" width="15.92" height="32.21" style="fill: url(#f)"/>
    </g>
    <path d="M83.15,87a4.26,4.26,0,0,1-1.71,2.58c-0.54.33-2.77,2-2.91,2.6A1.22,1.22,0,0,0,79.26,94c1.15,0.56,3.54-.22,4.84-0.71s1.44-1.46,2.64-1.76,2.34-1.16,2.3-1.75,0.06-2.13-2.1-4.24S83.15,87,83.15,87" transform="translate(-9.51 -9.48)" style="fill: #8f6860"/>
    <path d="M79.45,92.82a11.88,11.88,0,0,0,4.08-1.46,14.88,14.88,0,0,0,3-3.07c0.41-.86-0.82-3.17-0.82-3.17L84.9,85a4.65,4.65,0,0,0-1.74,2,4.27,4.27,0,0,1-1.71,2.58c-0.54.33-2.77,2-2.91,2.6l0,0.21a0.89,0.89,0,0,0,1,.42" transform="translate(-9.51 -9.48)" style="fill: #a2827a"/>
    <path d="M83.78,86.95c1,0.51,1.5,1.57,2.37,1.46a1.64,1.64,0,0,0,.39-3c-1.48-1.23-2.75,1.5-2.75,1.5" transform="translate(-9.51 -9.48)" style="fill: #4e4769"/>
    <path d="M75.32,50.81A14.79,14.79,0,0,0,76.5,55.7c-1.2,3.45-5.14,13.93-4.87,15.87S73.82,74,75,75.19a80.76,80.76,0,0,1,7.75,12.26c2.86,0.16,4.55-2,4.51-2.81-1.12-2.94-5.64-10.81-7-11.85-1.55-1.16-1.55-1.16-1.63-1.58s-0.24-.82-0.78-0.75,0.58-.67-0.37-0.82-0.31-.58,0-1c2.65-3.72,5.82-8.78,6.45-10a7.5,7.5,0,0,0,.74-4.76,26.72,26.72,0,0,0-1.09-3.67Z" transform="translate(-9.51 -9.48)" style="fill: #918ab3"/>
    <path d="M75.18,51.47c-0.05,1,.72,4,1.41,4.46-0.44-1-1.22-3.76-1.41-4.46" transform="translate(-9.51 -9.48)" style="fill: #6a628c"/>
    <path d="M81.09,53.21c-1.51,0-4.27.17-5.22,4.25,2-4,3.5-4,5.22-4.25" transform="translate(-9.51 -9.48)" style="fill: #6a628c"/>
    <path d="M80.36,54a2.68,2.68,0,0,1,2.7.8,7.7,7.7,0,0,0-2.7-.8" transform="translate(-9.51 -9.48)" style="fill: #6a628c"/>
    <path d="M79.43,51.8a3,3,0,0,0,3.51.48c-1,.1-2.41.41-3.51-0.48" transform="translate(-9.51 -9.48)" style="fill: #6a628c"/>
    <path d="M76.63,54.43A5.49,5.49,0,0,1,78.71,53a2,2,0,0,0-2.08,1.45" transform="translate(-9.51 -9.48)" style="fill: #6a628c"/>
    <path d="M74.64,55a1.91,1.91,0,0,0,1.91.83A9.11,9.11,0,0,1,74.64,55" transform="translate(-9.51 -9.48)" style="fill: #6a628c"/>
    <path d="M74.37,70.54a5.84,5.84,0,0,0,2-.85c-0.25.81-1.07,0.95-2,.85" transform="translate(-9.51 -9.48)" style="fill: #6a628c"/>
    <path d="M75.25,72.17a2.87,2.87,0,0,1,1.87-1.44c-1,.81-1.87,1.44-1.87,1.44" transform="translate(-9.51 -9.48)" style="fill: #6a628c"/>
    <path d="M67.42,38.41c-1.58-1.66-1.62-4.83-.78-7,0.43,4.49.78,7,.78,7" transform="translate(-9.51 -9.48)" style="fill: #889567"/>
    <path d="M66.83,30.61c-0.71,2.58-.56,6.84.65,8.27s2.1,2,2.31,2.67A40.45,40.45,0,0,0,71.21,47,33.42,33.42,0,0,1,73,52.19c2.46,1.63,10.26.47,12-.88C85,50,84.2,47.15,83.85,45.1a16.55,16.55,0,0,1-.27-5.25c0.22-1.69,1.2-8.73-1.83-10.57a27.31,27.31,0,0,0-6.52-2.88c-1-.31-7.56,1.19-8.39,4.21" transform="translate(-9.51 -9.48)" style="fill: #a9ae8d"/>
    <path d="M73.14,21.68c0.14,1.34.77,3.43,1.38,4A8.21,8.21,0,0,0,76.44,27c-0.07,2.27-3.71,5.89-6.67,5.26S68.21,30,68.32,29.41s-0.15-1.12-.82-2.23a23.91,23.91,0,0,1-1.6-6.51c0.05-3.35,7-1.41,7.24,1" transform="translate(-9.51 -9.48)" style="fill: #de9c74"/>
    <path d="M71.09,20.69a0.9,0.9,0,0,1-1.09.19,5.83,5.83,0,0,1-.74,2.9,12.07,12.07,0,0,1-2.5,1.38c0.12,0.43.24,0.83,0.36,1.17,3.75-.55,3.94-4.87,4-5.63" transform="translate(-9.51 -9.48)" style="fill: #d27d42"/>
    <path d="M63.93,13a2.26,2.26,0,0,1,.51-2c0.75-.92,2-2,3.36-1.4,0.76,0.32,2.23.22,4.67,1,0.81,0.27,2.35,2.43,2.62,3.48a3.94,3.94,0,0,1-.23,2.51c-1.54,3.38-1.46,5.24-1.32,6.59C72.24,23,63.93,13,63.93,13" transform="translate(-9.51 -9.48)" style="fill: #503a24"/>
    <path d="M62.46,15.34a8.89,8.89,0,0,1,0,6.08c-1,2-1.32,2.42-.59,3.45s1,1.34,2.52,1.1a15.52,15.52,0,0,0,4.87-2.19,5.8,5.8,0,0,0,.74-2.9c1,0.48,1.57-.77,1.83-1.5,0.39-1.1-.81-3.09-1.73-0.89H69.22a2.46,2.46,0,0,0-.12-1.84,1.07,1.07,0,0,1,.08-1.3c0.34-.35,1.37-0.88,1.17-1.82s-1.69-2.16-3.66-1.93S62,14.34,62.46,15.34" transform="translate(-9.51 -9.48)" style="fill: #de9c74"/>
    <path d="M62.84,20.39c-0.09.63,0.69,1.17,1.08-.29s-0.69-2.47-1.08.29" transform="translate(-9.51 -9.48)" style="fill: #d27d42"/>
    <path d="M63.1,17.14a0.41,0.41,0,0,1,.46.34c0.16,0.47.2,0.71-.08,0.82S63,18,63,17.82s-0.15-.6.11-0.68" transform="translate(-9.51 -9.48)" style="fill: #503a24"/>
    <path d="M63.47,16a3.08,3.08,0,0,1-2.22,3.57l0,1.2a5.47,5.47,0,0,0,2.57-.9c0.52-.48.65-2.38-0.38-3.87" transform="translate(-9.51 -9.48)" style="fill: #de9c74"/>
    <path d="M70.42,19c0.23-.37.46-0.43,0.63-0.17a1,1,0,0,1-.61,1,0.78,0.78,0,0,1,0-.82" transform="translate(-9.51 -9.48)" style="fill: #d27d42"/>
    <path d="M64.65,23.14c0.61,0.61,1.47,1,1.82.52a4.54,4.54,0,0,0,.11-2.79,4.41,4.41,0,0,1-1.93,2.27" transform="translate(-9.51 -9.48)" style="fill: #fff"/>
    <path d="M63.59,23.35a4.76,4.76,0,0,0,2.88-2.43c0.39,1.24-1.51,2.58-2.88,2.43" transform="translate(-9.51 -9.48)" style="fill: #d27d42"/>
    <path d="M65.9,20.25c0.12,0.67.63,1.08,1.79,1a5.51,5.51,0,0,0-1.79-1" transform="translate(-9.51 -9.48)" style="fill: #d27d42"/>
    <path d="M62.64,15.73a0.51,0.51,0,0,1,.72-0.19c0-.68-0.13-1.1-0.62-1s-0.45.79-.1,1.17" transform="translate(-9.51 -9.48)" style="fill: #503a24"/>
    <path d="M65.66,14.37c-1-.09-1,0.74-1,1.34a2.38,2.38,0,0,1,2.44.2,2,2,0,0,0-1.48-1.54" transform="translate(-9.51 -9.48)" style="fill: #503a24"/>
    <path d="M65.21,17.19a0.41,0.41,0,0,1,.46.34c0.16,0.47.2,0.71-.08,0.82S65.16,18,65.1,17.87s-0.15-.6.11-0.68" transform="translate(-9.51 -9.48)" style="fill: #503a24"/>
    <path d="M72.38,49.2a19.76,19.76,0,0,0,8.22-1.83,31.07,31.07,0,0,0,2.88-6.29c0.48-2.14-4.39-.86-4.39-0.86l-2.41,6Z" transform="translate(-9.51 -9.48)" style="fill: #889567"/>
    <path d="M79.89,30.65c-1.44.89-1.84,11.83-1.84,11.83-1.3.36-2.45-9.12,1.84-11.83" transform="translate(-9.51 -9.48)" style="fill: #889567"/>
    <path d="M70,37.69A6,6,0,0,0,74.76,42,4.63,4.63,0,0,1,70,37.69" transform="translate(-9.51 -9.48)" style="fill: #889567"/>
    <path d="M82.62,46.38c-1,2.58-2.54,5.45-7.57,5.51,3.12-.23,5.91-2.77,7.57-5.51" transform="translate(-9.51 -9.48)" style="fill: #889567"/>
    <path d="M55.55,73.48a3.37,3.37,0,0,1,.49.26c-4.48,1.31-10.3,7.64-11.41,8.93a4.85,4.85,0,0,0-1.05,2.28L33.33,83.59l-0.1.21a6.5,6.5,0,0,0,.15,3.46l11.08,0.93c-0.15-2.09.06-3.88,1.16-5.17S52.55,75.41,57,74.09a5.89,5.89,0,0,0-1.48-.61" transform="translate(-9.51 -9.48)" style="fill: #5b5960"/>
    <path d="M36.29,78.15a1.4,1.4,0,0,1,.21,1.13c-0.08.71-.36,1.32-0.9,1.28a10.11,10.11,0,0,1-1.32-.36,1.27,1.27,0,0,1-.43-1.25,1.35,1.35,0,0,1,.78-1.18h0.3a4.72,4.72,0,0,1,1.37.4" transform="translate(-9.51 -9.48)" style="fill: #56545d"/>
    <path d="M36.66,79.34a1.19,1.19,0,0,1-1,1.21,1.09,1.09,0,0,1-.72-1.35,1.19,1.19,0,0,1,1-1.21,1.1,1.1,0,0,1,.72,1.35" transform="translate(-9.51 -9.48)" style="fill: #312e30"/>
    <path d="M44.63,82.67c1.1-1.28,6.93-7.61,11.41-8.93a3.36,3.36,0,0,0-.49-0.26,23.13,23.13,0,0,0-9.41-.56c-3.21,1-9.75,4.09-12.81,10.67l10.25,1.36a4.86,4.86,0,0,1,1.05-2.28" transform="translate(-9.51 -9.48)" style="fill: #7e787e"/>
    <path d="M44.46,88.19c-0.15-2.09.06-3.88,1.16-5.17S52.55,75.41,57,74.09a17.46,17.46,0,0,1,1.4,1.28l0.66,2.21c-3.76,2.27-10.27,10.54-10.6,16.13,2.12-1.49-1,3.88-3.12,3.24-1.27-.64-0.91-8.77-0.91-8.77" transform="translate(-9.51 -9.48)" style="fill: #312e30"/>
    <path d="M48.49,93.71c0.33-5.58,6.84-13.86,10.6-16.13a44.28,44.28,0,0,0-1.32,10.8A1.56,1.56,0,0,1,57,89.72L49.18,94Z" transform="translate(-9.51 -9.48)" style="fill: #161211"/>
    <path d="M24.48,103.36l-0.18-2.93a2.55,2.55,0,0,1,1.79-2.69c1.49-.57,6.12-1.26,8.06-1.64s7.26-1.85,6.9-3.76l0.54,7.08c-2,1.28-5,1.52-6.69,1.64A49.36,49.36,0,0,0,25,103.57a0.34,0.34,0,0,1-.48-0.21" transform="translate(-9.51 -9.48)" style="fill: #312e30"/>
    <path d="M17.38,96.65c-0.32,2.6-2.32,4.57-4.49,4.4s-3.66-2.41-3.34-5,2.32-4.57,4.49-4.4,3.66,2.41,3.34,5" transform="translate(-9.51 -9.48)" style="fill: #7e787e"/>
    <path d="M17.86,96.9c-0.32,2.6-2.11,4.59-4,4.46S10.68,99,11,96.41s2.11-4.59,4-4.46,3.17,2.35,2.86,4.95" transform="translate(-9.51 -9.48)" style="fill: #161211"/>
    <path d="M16.32,96.86a3.83,3.83,0,0,1-2.52,3.42l0.18,0c1.47,0.1,2.87-1.45,3.11-3.47S16.34,93.1,14.87,93a2,2,0,0,0-.35,0H14.44l-0.13,0c1.35,0.25,2.24,1.9,2,3.82" transform="translate(-9.51 -9.48)" style="fill: #c76117"/>
    <path d="M14.92,92.59a2.55,2.55,0,0,0-1.73.57A2.12,2.12,0,0,1,14.1,93l0.19,0,0.15,0h0.08a1.88,1.88,0,0,1,.35,0c1.47,0.11,2.47,1.83,2.22,3.85s-1.64,3.57-3.11,3.47l-0.19,0a2,2,0,0,1-.58,0,1.94,1.94,0,0,1-.5-0.1,2.22,2.22,0,0,0,1.22.49c1.63,0.12,3.18-1.61,3.45-3.85s-0.83-4.16-2.47-4.27" transform="translate(-9.51 -9.48)" style="fill: #fbbb22"/>
    <path d="M29.53,85.45l-4.89,2.2a18.25,18.25,0,0,0-6.55,4.75c-5.6,2.51-6.29,4.28-6.29,5.36v3.16l10.89,2.49c-0.15-2.24-.2-4.77,2.12-6.55l13.65-2.93c1.51-.64,6.09-5.66,6.09-5.66Z" transform="translate(-9.51 -9.48)" style="fill: #5b5960"/>
    <path d="M23.43,100.46v2.6l-0.75.36c-0.2-2.94-.32-4.88,2.12-6.55-0.12.39-1.37,3.59-1.37,3.59" transform="translate(-9.51 -9.48)" style="fill: #312e30"/>
    <path d="M41.05,92.34c0.36,1.91-5,3.38-6.9,3.76s-6.57,1.08-8.06,1.64a2.55,2.55,0,0,0-1.79,2.69l0.18,2.93-1-.3v-2.6a3.78,3.78,0,0,1,2.09-3.56c1.52-.75,8.57-1.07,11.41-2.48s7.35-6.15,7.35-6.15l1.1,0.12-4.33,3.94" transform="translate(-9.51 -9.48)" style="fill: #5b5960"/>
    <path d="M44.28,88.28S39.77,93,36.93,94.43,27,96.16,25.52,96.91a3.78,3.78,0,0,0-2.09,3.55,3.57,3.57,0,0,1,2.24-4c1.55-.45,8.54-1.11,11.44-2.69a50.55,50.55,0,0,0,7.17-5.47" transform="translate(-9.51 -9.48)" style="fill: #7e787e"/>
    <path d="M45.38,88.4l-4.33,3.94,0.54,7.08c0.84-.51,1.2-1,1.14-1.34L45.37,97Z" transform="translate(-9.51 -9.48)" style="fill: #312e30"/>
    <path d="M33,95.84c0.94,1,1,2.65.83,4.39-0.31,2.76-1.39,5.15-3.52,5a8.28,8.28,0,0,1-2.29-.77,5,5,0,0,1-1.91-4.85c0.26-2.32,1.53-4.2,3.25-4.62a4.76,4.76,0,0,1,3.65.87" transform="translate(-9.51 -9.48)" style="fill: #7e787e"/>
    <path d="M34.4,100.48c-0.31,2.76-2.08,4.88-3.95,4.73s-3.13-2.49-2.82-5.25,2.08-4.88,3.95-4.73,3.13,2.49,2.82,5.25" transform="translate(-9.51 -9.48)" style="fill: #161211"/>
    <path d="M31.46,96.33a2.13,2.13,0,0,0-1.46.49,1.72,1.72,0,0,1,.64-0.09c1.3,0.1,2.19,1.74,2,3.67s-1.45,3.41-2.76,3.31a1.75,1.75,0,0,1-.37-0.08,1.9,1.9,0,0,0,1.11.48c1.45,0.11,2.83-1.54,3.07-3.68s-0.74-4-2.19-4.09" transform="translate(-9.51 -9.48)" style="fill: #c76117"/>
    <polygon points="21.33 90.43 20.7 90.5 20.12 87.27 21.03 86.6 21.33 90.43" style="fill: #c76117"/>
    <polygon points="21.14 91.61 20.59 91.3 19.32 93.71 20.13 94.41 21.14 91.61" style="fill: #c76117"/>
    <polygon points="20.99 90.5 20.44 90.19 18.72 89.81 18.84 90.75 20.99 90.5" style="fill: #c76117"/>
    <path d="M33.94,100.44c-0.27,2.38-1.79,4.21-3.41,4.09s-2.71-2.15-2.44-4.54,1.79-4.21,3.41-4.09,2.7,2.15,2.44,4.54m-2.48-4.11c-1.45-.11-2.83,1.54-3.07,3.68s0.74,4,2.2,4.08,2.83-1.54,3.07-3.68-0.74-4-2.19-4.09" transform="translate(-9.51 -9.48)" style="fill: #fbbb22"/>
    <polygon points="21.92 90.56 21.46 90.13 23.19 88.04 23.94 88.74 21.92 90.56" style="fill: #c76117"/>
    <polygon points="21.84 90.98 21.26 91.25 22.26 93.77 23.19 93.34 21.84 90.98" style="fill: #c76117"/>
    <path d="M31.16,99l-0.78-.15a1.14,1.14,0,0,0-1,1.17,1,1,0,0,0,.69,1.29l0.78,0.15A23,23,0,0,0,31.16,99" transform="translate(-9.51 -9.48)" style="fill: #c76117"/>
    <path d="M31.16,99a1.14,1.14,0,0,0-1,1.17,1,1,0,0,0,.69,1.29,1.14,1.14,0,0,0,1-1.16A1.05,1.05,0,0,0,31.16,99" transform="translate(-9.51 -9.48)" style="fill: #fbbb22"/>
    <polygon points="21.91 90.72 21.28 90.79 20.99 86.67 22.01 86.55 21.91 90.72" style="fill: #fbbb22"/>
    <polygon points="23.93 88.43 21.36 90.45 21.68 91 24.24 89.48 23.93 88.43" style="fill: #fbbb22"/>
    <polygon points="23.93 92.71 21.77 90.55 21.27 90.93 23.31 93.7 23.93 92.71" style="fill: #fbbb22"/>
    <polygon points="18.7 91.42 21.53 91.13 21.61 90.5 18.81 89.96 18.7 91.42" style="fill: #fbbb22"/>
    <polygon points="20.87 94.86 21.8 90.86 21.21 90.63 19.86 94.36 20.87 94.86" style="fill: #fbbb22"/>
    <path d="M52.4,89.75c0.94,1,1,2.65.83,4.39-0.31,2.76-1.39,5.15-3.52,5a8.22,8.22,0,0,1-2.29-.77,5,5,0,0,1-1.91-4.84c0.26-2.32,1.53-4.2,3.25-4.62a4.75,4.75,0,0,1,3.65.87" transform="translate(-9.51 -9.48)" style="fill: #7e787e"/>
    <path d="M53.83,94.4c-0.31,2.76-2.08,4.88-3.95,4.73s-3.13-2.49-2.82-5.25S49.14,89,51,89.14s3.13,2.49,2.82,5.25" transform="translate(-9.51 -9.48)" style="fill: #161211"/>
    <path d="M50.89,90.25a2.13,2.13,0,0,0-1.46.49,1.69,1.69,0,0,1,.64-0.09c1.3,0.1,2.19,1.74,2,3.67s-1.45,3.41-2.76,3.31a1.7,1.7,0,0,1-.37-0.09A1.91,1.91,0,0,0,50,98c1.45,0.11,2.83-1.54,3.07-3.68s-0.74-4-2.19-4.09" transform="translate(-9.51 -9.48)" style="fill: #c76117"/>
    <polygon points="40.75 84.33 40.12 84.36 39.72 81.1 40.68 80.48 40.75 84.33" style="fill: #c76117"/>
    <polygon points="40.57 85.52 40.02 85.22 38.75 87.62 39.56 88.33 40.57 85.52" style="fill: #c76117"/>
    <polygon points="40.42 84.42 39.87 84.11 38.15 83.73 38.27 84.67 40.42 84.42" style="fill: #c76117"/>
    <path d="M53.37,94.36c-0.27,2.38-1.79,4.21-3.41,4.09s-2.71-2.15-2.44-4.54,1.79-4.21,3.41-4.09,2.7,2.15,2.44,4.54m-2.48-4.11c-1.45-.11-2.83,1.54-3.07,3.69s0.74,4,2.2,4.08,2.83-1.54,3.07-3.68-0.74-4-2.19-4.09" transform="translate(-9.51 -9.48)" style="fill: #fbbb22"/>
    <polygon points="41.35 84.48 40.89 84.05 42.62 81.96 43.37 82.66 41.35 84.48" style="fill: #c76117"/>
    <polygon points="41.27 84.9 40.69 85.17 41.7 87.69 42.62 87.26 41.27 84.9" style="fill: #c76117"/>
    <path d="M50.59,92.91l-0.78-.15a1.14,1.14,0,0,0-1,1.16,1.05,1.05,0,0,0,.69,1.29l0.78,0.15a23,23,0,0,0,.28-2.46" transform="translate(-9.51 -9.48)" style="fill: #c76117"/>
    <path d="M50.59,92.91a1.14,1.14,0,0,0-1,1.16,1.05,1.05,0,0,0,.69,1.29,1.14,1.14,0,0,0,1-1.16,1.05,1.05,0,0,0-.69-1.29" transform="translate(-9.51 -9.48)" style="fill: #fbbb22"/>
    <polygon points="41.32 84.65 40.68 84.68 40.63 80.55 41.65 80.49 41.32 84.65" style="fill: #fbbb22"/>
    <polygon points="43.36 82.35 40.79 84.37 41.11 84.92 43.67 83.4 43.36 82.35" style="fill: #fbbb22"/>
    <polygon points="43.36 86.63 41.21 84.47 40.7 84.85 42.74 87.62 43.36 86.63" style="fill: #fbbb22"/>
    <polygon points="38.14 85.34 40.96 85.04 41.04 84.42 38.25 83.88 38.14 85.34" style="fill: #fbbb22"/>
    <polygon points="40.3 88.78 41.24 84.78 40.65 84.55 39.29 88.28 40.3 88.78" style="fill: #fbbb22"/>
    <path d="M37.64,90.43C37.64,92,34,94,29.22,95.09c-5.21,1.16-9.78.74-9.79-1s4.56-4,9.78-4.94c4.81-.84,8.43-0.23,8.43,1.31" transform="translate(-9.51 -9.48)" style="fill: #161211"/>
    <path d="M35.95,90.61c0,0.62-2,2.8-2.57,2.8l-8.59.95a1.13,1.13,0,0,1-1.12-1.12v-5a1.12,1.12,0,0,1,1.12-1.12H35.14c0.62,0,1.27-.62,1.27,0Z" transform="translate(-9.51 -9.48)" style="fill: #161211"/>
    <path d="M29.43,91.71a8.78,8.78,0,0,1-.87,2.53c-0.12,0-2.3-.23-2.41-0.25a1.09,1.09,0,0,1-.73-1.18V89.87a1.82,1.82,0,0,1,1.07-1.75l1.87-.51c0.15-.05,3.1,0,3.1.76Z" transform="translate(-9.51 -9.48)" style="fill: #7e787e"/>
    <path d="M31.65,92a1.82,1.82,0,0,1-1.07,1.75l-1.86.51c-0.59.16-1.07-.36-1.07-1.16V90.12a1.82,1.82,0,0,1,1.07-1.75l1.86-.51c0.59-.16,1.07.36,1.07,1.16V92Z" transform="translate(-9.51 -9.48)" style="fill: #9e9a9b"/>
    <path d="M27.88,88.34c0.53-.14,4.61-2,4.86.35,0.9-.18,4.31-1.09,4.84-1.25a1.55,1.55,0,0,0,.35-1.37,12.39,12.39,0,0,0-.49-3.19,34,34,0,0,0-9.35,2.59,3.15,3.15,0,0,0-1.72,3,3.74,3.74,0,0,0,1.51-.16" transform="translate(-9.51 -9.48)" style="fill: #5b5960"/>
    <path d="M19.13,86.7C18.92,88.9,19,91.51,19,92c0.53,0.53,4,1.34,5.84,1.43V89.78c0-.74.12-1.53,1.09-1.34l0.46,0.06a3.74,3.74,0,0,1,.51-2,21.06,21.06,0,0,1-7.36-1.16,3.38,3.38,0,0,0-.39,1.31" transform="translate(-9.51 -9.48)" style="fill: #5b5960"/>
    <path d="M29.18,84.26a18.49,18.49,0,0,1-4.61-.09c-1.41-.18-1.74-0.72-1.65-1.23a6.3,6.3,0,0,0-3.4,2.44,21.07,21.07,0,0,0,7.35,1.16,2.93,2.93,0,0,1,1.22-1.08,34,34,0,0,1,9.35-2.59v0c-2.65-.34-7.33,1.21-8.25,1.42" transform="translate(-9.51 -9.48)" style="fill: #7e787e"/>
    <path d="M35.92,81.3a29.74,29.74,0,0,0-6.65,1.3,8.79,8.79,0,0,1-3.59-.09c-0.93-.12-2.46,0-2.39-0.46s1.65-1,1.65-1c-1.95.51-1.9,1.18-2,1.92-0.09.51,0.23,1,1.64,1.23a18.4,18.4,0,0,0,4.61.09c0.92-.21,5.6-1.75,8.25-1.42a1.85,1.85,0,0,0-1.51-1.55" transform="translate(-9.51 -9.48)" style="fill: #5b5960"/>
    <path d="M24.94,81s-1.58.58-1.65,1,1.46,0.35,2.39.46a8.8,8.8,0,0,0,3.59.09,29.73,29.73,0,0,1,6.65-1.3l0,0c-6.49-1.07-9-.76-11-0.26" transform="translate(-9.51 -9.48)" style="fill: #7e787e"/>
    <path d="M50,81.33l6.37-8.81h0a3.48,3.48,0,0,0,.78-1.72c0-.2,0-0.39.06-0.62a1.71,1.71,0,0,1,.3-0.78L58,69.73l-0.49-.32,9.35-14.33v0a2.33,2.33,0,0,0,.54-1.22,0.6,0.6,0,0,0-.15-0.41,2.93,2.93,0,0,0-1.36-.73,17.77,17.77,0,0,0-3.15-.59,31,31,0,0,0-3.51-.25,8.76,8.76,0,0,0-3.26.5A5.25,5.25,0,0,0,53.85,54l-0.45-.37,0.48,0.33-10,14.53-0.48-.33,0.49,0.32a20,20,0,0,1-1.38,1.75,3.83,3.83,0,0,0-.82,1.68l-0.09.2-5.05,7.56a0.59,0.59,0,0,1-1-.65l5.05-7.56,0.49,0.33-0.57-.13a5,5,0,0,1,1-2.15,19.61,19.61,0,0,0,1.32-1.66h0l10-14.53,0,0a6.45,6.45,0,0,1,2.64-2,9.89,9.89,0,0,1,3.69-.58,31.85,31.85,0,0,1,3.65.25,14.54,14.54,0,0,1,4.15.94,3.12,3.12,0,0,1,1.13.8,1.79,1.79,0,0,1,.43,1.17,3.39,3.39,0,0,1-.76,1.9l-0.48-.34,0.49,0.32L58.52,70.06v0a0.53,0.53,0,0,0-.1.26,7.25,7.25,0,0,1-.13,1.05,5.18,5.18,0,0,1-.92,1.82h0L51,82A0.59,0.59,0,1,1,50,81.33Z" transform="translate(-9.51 -9.48)" style="fill: #9e9a9b"/>
    <path d="M57.43,52a1,1,0,0,1-1.2-.4,5.29,5.29,0,0,1,.93-2.79c0.37-.2,1.48.92,1.48,0.92Z" transform="translate(-9.51 -9.48)" style="fill: #d27d42"/>
    <path d="M58.12,52.52a1.26,1.26,0,0,1-1.46-.67c-0.09-.56,1-3.14,1.51-3.35s1.73,1.37,1.73,1.37Z" transform="translate(-9.51 -9.48)" style="fill: #d27d42"/>
    <path d="M58.85,52.94a1.39,1.39,0,0,1-1.61-.74c-0.1-.65,1.13-3.48,1.67-3.7S60.83,50,60.83,50Z" transform="translate(-9.51 -9.48)" style="fill: #d27d42"/>
    <path d="M59.6,53.36a1.12,1.12,0,0,1-1.43-.58c0-.28.9-3.2,1.5-3.39s2.1,1.35,2.1,1.35Z" transform="translate(-9.51 -9.48)" style="fill: #d27d42"/>
    <path d="M62.78,52.11C61.87,52,61,51.93,60.29,51.89a0.59,0.59,0,1,1,.06-1.17c0.78,0,1.63.12,2.57,0.22A0.59,0.59,0,1,1,62.78,52.11Z" transform="translate(-9.51 -9.48)" style="fill: #9e9a9b"/>
    <path d="M78.54,34.45A33.88,33.88,0,0,0,77,41.93a3.07,3.07,0,0,1-.26,1.41c-1.81,1.05-7.92,5.3-9.35,5.8a9.66,9.66,0,0,1-4.77.35c-0.46-.07-1.72,1.25-2.18,1.69s0,2.36.3,2.57a1.3,1.3,0,0,0,.77.17,0.84,0.84,0,0,0,.93.56C63,54.52,64,54.5,64.22,54c0.82,0.05,1.21-1.11,1.27-1.22-0.2-.39,0-0.31-0.26-0.44A0.53,0.53,0,0,1,65,51.61a0.56,0.56,0,0,1,.75-0.16,2.74,2.74,0,0,1,1.11,1.26,1.06,1.06,0,0,0,.85-0.25,2.44,2.44,0,0,1,.44-0.4A38,38,0,0,0,80,46.5c0.4-.83,1.06-1.73,1.64-3A25.63,25.63,0,0,0,84,35.83Z" transform="translate(-9.51 -9.48)" style="fill: #de9c74"/>
    <path d="M61.53,53.91a14.34,14.34,0,0,1-.3-2.32,7.61,7.61,0,0,0,0,2.07,0.4,0.4,0,0,1-.4.14,1.5,1.5,0,0,0,.68.11" transform="translate(-9.51 -9.48)" style="fill: #d27d42"/>
    <path d="M80,46.5c0.4-.83,1.06-1.73,1.64-3A27.76,27.76,0,0,0,84,36.66l-6.21.68-0.57,2.92a16.61,16.61,0,0,0,5,1.12,46.38,46.38,0,0,1-2.27,4.83c-1,.33-3,1.65-3.89,2.05s-7.45,3.18-8.3,3.13c-0.13.93-.49,0.71-1.21,0.73a3.86,3.86,0,0,1,.35.58,1.39,1.39,0,0,0,1.29-.65A38,38,0,0,0,80,46.5" transform="translate(-9.51 -9.48)" style="fill: #d27d42"/>
    <path d="M77,40a22.61,22.61,0,0,0,6.75,1c1.1-3.9.53-9.85-1-11s-4.16,1.27-4.85,3.81A41.43,41.43,0,0,0,77,40" transform="translate(-9.51 -9.48)" style="fill: #a9ae8d"/>
    <path d="M64.91,52.59c0.48,0.39-.62.7-0.85,0.42a5.83,5.83,0,0,1-.22-1.87,4.36,4.36,0,0,0-.17,2.11,0.56,0.56,0,0,1-.65.33,3,3,0,0,1-.43-2.29,4.56,4.56,0,0,0,0,2.58c0.08,0.18-.47.53-0.8,0.4a1.13,1.13,0,0,0,.68.19C63,54.52,64,54.5,64.22,54a1,1,0,0,0,1.3-1,3.22,3.22,0,0,0,1-.18c-0.2-.39-1-0.35-1.28-0.48A0.53,0.53,0,0,1,65,51.61l0.14-.15c-0.4-.08-0.71.73-0.23,1.12" transform="translate(-9.51 -9.48)" style="fill: #d27d42"/>
    <path d="M66.9,55.06a2.33,2.33,0,0,0,.54-1.22,0.58,0.58,0,0,0-.08-0.3,1.43,1.43,0,0,0-.6-0.51,6.53,6.53,0,0,0-1.51-.52,0.59,0.59,0,0,1,.27-1.14,6.26,6.26,0,0,1,2.22.9,2.23,2.23,0,0,1,.64.7,1.78,1.78,0,0,1,.23.88,3.4,3.4,0,0,1-.76,1.9A0.59,0.59,0,0,1,66.9,55.06Z" transform="translate(-9.51 -9.48)" style="fill: #9e9a9b"/>
    <path d="M64.48,59.34V51.92l-0.06-.18A0.75,0.75,0,0,0,64,51.52a3.36,3.36,0,0,0-.89-0.1,8,8,0,0,0-.95.06,12.84,12.84,0,0,1-1.37.05c-1.36,0-3.32-.09-5.17-0.24a28.48,28.48,0,0,1-4.48-.62,2.11,2.11,0,0,0-.55-0.09,0.57,0.57,0,0,0-.32.07,0.21,0.21,0,0,0-.08.2v0c0,0.15.09,0.66,0.2,1.29,0.16,1,.4,2.23.6,3.26s0.35,1.83.35,1.83a0.31,0.31,0,0,1-.61.12S50.48,56,50.2,54.47c-0.14-.76-0.28-1.54-0.39-2.17s-0.19-1.13-.2-1.35V50.86a0.84,0.84,0,0,1,.34-0.71A1.17,1.17,0,0,1,50.62,50a2.72,2.72,0,0,1,.72.11,28.24,28.24,0,0,0,4.36.6c1.83,0.15,3.79.24,5.12,0.24a12.16,12.16,0,0,0,1.29,0,8.47,8.47,0,0,1,1-.07,3.26,3.26,0,0,1,1.34.23,1.17,1.17,0,0,1,.45.35,0.9,0.9,0,0,1,.18.54v0.14l-0.31,0H65.1v7.31a0.31,0.31,0,1,1-.62,0" transform="translate(-9.51 -9.48)" style="fill: #fbbb22"/>
    <path d="M57.53,69.41l9.35-14.33a0.59,0.59,0,1,1,1,.64L58.52,70.06a0.59,0.59,0,1,1-1-.64" transform="translate(-9.51 -9.48)" style="fill: #9e9a9b"/>
    <path d="M51.47,81.3a1.4,1.4,0,0,1,.21,1.13c-0.08.71-.36,1.32-0.9,1.28a10.1,10.1,0,0,1-1.32-.36A1.28,1.28,0,0,1,49,82.09a1.35,1.35,0,0,1,.78-1.18h0.3a4.72,4.72,0,0,1,1.37.4" transform="translate(-9.51 -9.48)" style="fill: #56545d"/>
    <path d="M51.84,82.49a1.19,1.19,0,0,1-1,1.22,1.1,1.1,0,0,1-.72-1.35,1.19,1.19,0,0,1,1-1.21,1.1,1.1,0,0,1,.72,1.35" transform="translate(-9.51 -9.48)" style="fill: #312e30"/>
    <path d="M46.14,72.92A22.71,22.71,0,0,0,35,80.72l4.49,0.37Z" transform="translate(-9.51 -9.48)" style="fill: #7e787e"/>
    <path d="M45.14,66.42l-1.36-4.27a0.59,0.59,0,1,1,1.12-.36l1.36,4.27a0.59,0.59,0,0,1-1.12.36" transform="translate(-9.51 -9.48)" style="fill: #9e9a9b"/>
  </g>
</svg>
