<?xml version="1.0" encoding="utf-8"?>
<!-- Generator: Adobe Illustrator 21.1.0, SVG Export Plug-In . SVG Version: 6.00 Build 0)  -->
<svg version="1.1" id="Calque_1" xmlns="http://www.w3.org/2000/svg" xmlns:xlink="http://www.w3.org/1999/xlink" x="0px" y="0px"
	 viewBox="0 0 425.9 394.3" style="enable-background:new 0 0 425.9 394.3;" xml:space="preserve">
<style type="text/css">
	.st0{fill:url(#SVGID_1_);}
	.st1{fill:#919295;}
	.st2{fill:url(#SVGID_2_);}
	.st3{fill:#C4D0D9;}
	.st4{clip-path:url(#SVGID_4_);fill:#FCF5E5;}
	.st5{fill:#010001;}
	.st6{fill:none;stroke:#C4D0D9;stroke-width:1.0564;}
	.st7{fill:#F8E3B4;}
	.st8{fill:#FCF5E5;}
	.st9{fill:#D4A795;}
	.st10{fill:#FFFFFF;}
	.st11{fill:#8BC3C5;}
	.st12{fill:#75BABC;}
	.st13{fill:#18ABB0;}
	.st14{fill:url(#SVGID_5_);}
	.st15{fill:url(#SVGID_6_);}
	.st16{fill:#D5B1CA;}
	.st17{fill:#FCCEB6;}
	.st18{fill:#7F4510;}
	.st19{fill:#F6C12F;}
	.st20{fill:#F2AB8A;}
	.st21{fill:#E2612D;}
	.st22{fill:#E77A3C;}
	.st23{fill:#E65332;}
	.st24{fill:#F7CBB4;}
	.st25{fill:#E93E81;}
	.st26{fill:#F0AC1A;}
	.st27{fill:#BF6F17;}
	.st28{fill:url(#SVGID_7_);}
	.st29{fill:url(#SVGID_8_);}
	.st30{fill:url(#SVGID_9_);}
	.st31{fill:url(#SVGID_10_);}
	.st32{fill:#AF2A61;}
	.st33{fill:url(#SVGID_11_);}
	.st34{fill:#8A8C8E;}
	.st35{fill:url(#SVGID_12_);}
	.st36{fill:url(#SVGID_13_);}
	.st37{fill:#EC855E;}
	.st38{fill:url(#SVGID_14_);}
</style>
<linearGradient id="SVGID_1_" gradientUnits="userSpaceOnUse" x1="56.1787" y1="212.8997" x2="296.5157" y2="212.8997" gradientTransform="matrix(1 0 0 -1 0 358.8571)">
	<stop  offset="0" style="stop-color:#B3B4B6"/>
	<stop  offset="5.332380e-02" style="stop-color:#CCCCCE"/>
	<stop  offset="0.119" style="stop-color:#E5E6E7"/>
	<stop  offset="0.1765" style="stop-color:#F6F6F7"/>
	<stop  offset="0.2191" style="stop-color:#FFFFFF"/>
	<stop  offset="0.3147" style="stop-color:#DDDEDF"/>
	<stop  offset="0.4504" style="stop-color:#BABBBD"/>
	<stop  offset="0.5751" style="stop-color:#A2A3A6"/>
	<stop  offset="0.6837" style="stop-color:#949698"/>
	<stop  offset="0.764" style="stop-color:#909193"/>
	<stop  offset="0.8063" style="stop-color:#939497"/>
	<stop  offset="0.8522" style="stop-color:#9D9EA1"/>
	<stop  offset="0.8998" style="stop-color:#AFB0B2"/>
	<stop  offset="0.9485" style="stop-color:#C8C8CA"/>
	<stop  offset="0.9977" style="stop-color:#E8E8E9"/>
	<stop  offset="1" style="stop-color:#EAEAEA"/>
</linearGradient>
<path class="st0" d="M293,124c-0.6-2.1-11.3-36-11.3-36s-79.6-66.6-136.3-51.1C84,53.6,45.3,107.6,58.9,157.6
	c1.7,6.4,11.2,29.1,16.6,39.9v0.1l0,0c3.8,8.1,9,15.3,15.3,21.7c23.5,31.7,71.2,46.3,119.3,33.2c46.1-12.5,79-46.8,85.3-84
	C297.5,156.1,296.6,137.3,293,124z"/>
<ellipse transform="matrix(0.9649 -0.2627 0.2627 0.9649 -27.4307 49.0858)" class="st1" cx="169.9" cy="127.1" rx="110.8" ry="90.2"/>
<radialGradient id="SVGID_2_" cx="174.15" cy="221.7286" r="97.9426" gradientTransform="matrix(1 0 0 -1 0 358.8571)" gradientUnits="userSpaceOnUse">
	<stop  offset="0" style="stop-color:#BAB6B1"/>
	<stop  offset="1" style="stop-color:#FFFFFF"/>
</radialGradient>
<path class="st2" d="M70.5,165.3c-12.7-46.5,23.4-96.9,80.7-112.5c57.2-15.6,113.9,9.5,126.6,56.1c12.7,46.6-23.4,96.9-80.7,112.5
	S83.2,211.9,70.5,165.3z"/>
<polygon class="st3" points="271.5,132.5 94.5,132.5 109.3,118.5 262.5,118.5 "/>
<g>
	<g>
		<defs>

				<ellipse id="SVGID_3_" transform="matrix(0.9649 -0.2627 0.2627 0.9649 -29.925 50.5612)" cx="174.1" cy="137.2" rx="107.4" ry="87.4"/>
		</defs>
		<clipPath id="SVGID_4_">
			<use xlink:href="#SVGID_3_"  style="overflow:visible;"/>
		</clipPath>
		<polygon class="st4" points="271.5,132.5 94.5,132.5 105.1,222.3 258.3,222.3 		"/>
	</g>
</g>
<polygon class="st5" points="98.5,131.4 111.9,119.9 260.6,120.4 266.5,130.9 "/>
<path class="st6" d="M110,121.5c7.5,0,151.2-0.1,151.2-0.1"/>
<line class="st6" x1="107.1" y1="123.8" x2="262.5" y2="123.7"/>
<line class="st6" x1="103.7" y1="126.3" x2="264.1" y2="126.1"/>
<line class="st6" x1="101.3" y1="128.8" x2="265" y2="128.7"/>
<g>
	<path class="st1" d="M258.1,150.7c-0.2,4.9-4.4,8.7-9.6,8.7c-5.1,0-9.6-3.8-9.9-8.7c-0.4-5.2,3.9-9.6,9.5-9.6
		C253.9,141.1,258.3,145.5,258.1,150.7z"/>
	<path class="st7" d="M257.6,150.3c-0.2,4.8-4.3,8.5-9.4,8.5c-5,0-9.4-3.7-9.7-8.5c-0.4-5.1,3.8-9.4,9.3-9.4
		C253.4,140.9,257.8,145.3,257.6,150.3z"/>
	<path class="st8" d="M257.1,149.8c-0.1,4.4-3.9,7.7-8.5,7.7c-4.5,0-8.5-3.4-8.8-7.7c-0.3-4.6,3.4-8.5,8.5-8.5
		C253.3,141.2,257.2,145.2,257.1,149.8z"/>
	<rect x="234.1" y="149.6" class="st9" width="3.8" height="0.9"/>

		<rect x="239" y="139.6" transform="matrix(0.7072 -0.7071 0.7071 0.7072 -29.9684 210.7221)" class="st9" width="0.9" height="3.8"/>
	<rect x="247.5" y="135.9" class="st9" width="0.9" height="3.8"/>

		<rect x="254.6" y="140.8" transform="matrix(0.7076 -0.7066 0.7066 0.7076 -24.7948 222.5723)" class="st9" width="3.8" height="0.9"/>
	<rect x="258.3" y="149.3" class="st9" width="3.8" height="0.9"/>
	<g>
		<path class="st9" d="M247.6,141.5c-0.3,1.7-0.3,3.5-0.2,5.2h0.8c-0.1-1.7,0-3.5,0.2-5.2C248.1,141.5,247.8,141.5,247.6,141.5z"/>
	</g>
	<path class="st10" d="M254.6,147.3c-0.3,1.2-1.5,1.9-2.8,1.6c-1.2-0.3-2.1-1.4-1.9-2.6c0.2-1.3,1.4-2.1,2.8-1.8
		C254.1,144.7,254.9,146,254.6,147.3z"/>
</g>
<path class="st11" d="M157.7,197.4c-11.1,2.4-8.4-6.6-8.4-10.5s-1.5-14.7-1.2-24c0.3-9.3-0.9-32.7,3.6-37.2s9.3-13.7,31.2-13.8
	c21.9-0.1,31.5,3,36,2.1s11.7,1.8,12.6,3.3c6.3-1.8,17.5-5.1,21.1,1.2h-3.1c-1.2,3.9-3,12.9-3,12.9c0,4.2,5.1,27.9,5.1,34.8
	c0,6.9-0.3,28.1-1.2,30.5c-2.1,2.1-4.7,2.7-4.7,2.7c-0.3,3.9-6.6,9-10.2,9c-3.6,0-5.8,2.2-5.8,0.1c-2.1-0.6-8.1-1.2-10.2-0.6
	c-2.1,0.6-4.5,2.4-9,1.2s-7.8,0.5-9.9,1.5c-4.4,2.1-7.9,1.8-14.4-1.2c-3.9-1.8-9,0-17.1-0.9c-8.1-0.9-10.2-1.8-10.5-3.3
	C158.3,203.7,157.7,197.4,157.7,197.4z"/>
<g>
	<path class="st12" d="M148.1,162.9c-0.3,9.3,1.2,20.1,1.2,24s-2.7,12.9,8.4,10.5c0,0,0.6,6.3,0.9,7.8c0.3,1.5,2.4,2.4,10.5,3.3
		c8.1,0.9,13.2-0.9,17.1,0.9c6.5,3,9.9,3.3,14.4,1.2c2.1-1,5.4-2.7,9.9-1.5s6.9-0.6,9-1.2c2.1-0.6,8.1,0,10.2,0.6
		c0,2.1,2.2-0.1,5.8-0.1s9.9-3.6,10.2-7.5c0,0,2.6-2.1,4.7-4.2c0.9-2.4,1.2-23.6,1.2-30.5c0-6.2-4.1-25.8-4.9-32.9l0,0
		c0.1,0.7-0.4,5.8-3.2,6s-4.4,1.4-9.7,2.3c-5.3,0.9-9.5,1.6-12.1-0.4c-4,1.2-11.8,1.8-13.6,0c-5.6,3-17.4,3-20.8,1.1
		c-3.3-1.9-15.8,0.9-17.6-1.4c-1.8-2.3-9.5-1.6-9.9-3c-0.4-1.4-1.6-3.7-4.8-3.7c-2.5,0-4.7-0.3-5.5-3.3
		C147.6,139.7,148.3,155.6,148.1,162.9z"/>
</g>
<path class="st13" d="M205.4,120.9c-0.7-1.8-1.8-3.1-3.1-4.1c-7.6,0.4-15.2,0.7-23,0.4c-3.6,3.1-13.2,11.7-13.8,18
	c1.6,3.2,4.6,1.9,5.3,1.8c-0.6,2.2,1.3,2.4,3.1,2.4s5.4-0.5,7,0.5s3.3,1.2,5.7,1s3.6-2.6,5.9-2.7c2.2-0.1,4.9,1.7,8.3,1.7
	c3.4,0,4.3-0.6,5-1.8c1.2,0.4,4.2-0.4,4.3-1.2c1.6,0.4,2.4-1,1.7-3.4C211.1,131.1,209.9,123.1,205.4,120.9z"/>
<g>
	<g>
		<path class="st13" d="M251.5,166.2c0-0.2,0-0.4,0-0.6C251.5,165.8,251.5,166,251.5,166.2z"/>
		<g>
			<path class="st13" d="M157.7,149.4c-1.8,5.1-2.1,39.1-2.1,48.3c0.6-0.1,1.3-0.2,2.1-0.3C157.2,186.9,157.7,154.9,157.7,149.4z"/>
		</g>
		<g>
			<path class="st13" d="M225.5,130.9c0.5-1,3.6-3.6,4.1-10.5c-1,1.5-2.1,5.4-5.4,10.4c-3.2,5-4.5,14.1-4.5,16.4
				c0,2.3,1.9,9.1,1.6,12.8c-0.3,3.7,6.2,44,6.2,46.1c0,0.6,0.1,1.4,0.2,2.1c0.8,0.1,1.6,0.3,2.1,0.4c-0.2-6.9-5-42.7-6.6-56.5
				C221.4,138.2,225,131.9,225.5,130.9z"/>
		</g>
		<g>
			<path class="st13" d="M247.7,120c-0.2,1.3-3.7,9.2-3.2,11.8c0.5,2.5,6.8,27.4,7.1,33.8c-0.2-7.5-5.1-30.1-5.1-34.2
				c0,0,1.8-9,3-12.9h3.1C249.2,115.4,247.9,118.7,247.7,120z"/>
		</g>
	</g>
</g>
<path class="st13" d="M177.9,145.5c-0.9,7.1,0,21.7-2.3,28.9c-0.9-9.9-0.9-29.9-0.9-29.9L177.9,145.5z"/>
<path class="st13" d="M168,153.2c2.9,2.2,6.3,0.8,7.2-0.1c1-0.9,1.5-2.9,2.5-3.7s2.3-2.6,2.3-4.5s0.2-2.7,0.9-3.9
	c0.7-1.1,6.7-8.4,5.7-11.5c-1-3.2-8.5-10.7-10.8-5.1c-2.4,5.5-1.8,14.5-1.9,16.1c-0.1,1.6-1.7,3.9-2.4,4.2c-0.7,0.4-3.5,1.8-4.4,2.8
	C166.2,148.5,166.3,151.8,168,153.2z"/>
<path class="st13" d="M203.6,204.5c1.1-7.7,0-46.1-0.7-50C201.7,164.9,200.3,195.2,203.6,204.5z"/>
<path class="st13" d="M201.1,129.2c4,8.1,2.3,10.9,2.1,12.9c-0.2,1.9,0.7,3.3,2.3,4.8c1.6,1.4,5.3,4.3,1.9,7.2
	c-2.5,2.2-5.8,2.5-7.4,1.2c-1.6-1.2-1.7-2.2-1.6-4.2c0.1-2-0.6-2.7-1.5-3.6c-0.8-0.9-1.3-2-1.2-3s0.3-0.9-0.2-1.7s-2.1-1.7-2.4-5.5
	c-0.3-3.8,0.9-9,0.9-9L201.1,129.2z"/>
<g>

		<linearGradient id="SVGID_5_" gradientUnits="userSpaceOnUse" x1="-1363.1044" y1="1011.6384" x2="-1309.8931" y2="1011.6384" gradientTransform="matrix(-0.897 -0.4419 -0.4419 0.897 -648.1456 -1205.8284)">
		<stop  offset="0" style="stop-color:#141415"/>
		<stop  offset="4.335745e-02" style="stop-color:#4B4A4D"/>
		<stop  offset="9.642448e-02" style="stop-color:#6A6B6D"/>
		<stop  offset="0.1452" style="stop-color:#808083"/>
		<stop  offset="0.1877" style="stop-color:#8D8E90"/>
		<stop  offset="0.2191" style="stop-color:#919295"/>
		<stop  offset="0.3525" style="stop-color:#757678"/>
		<stop  offset="0.5158" style="stop-color:#575759"/>
		<stop  offset="0.6659" style="stop-color:#3E3D3F"/>
		<stop  offset="0.7966" style="stop-color:#232223"/>
		<stop  offset="0.8933" style="stop-color:#141415"/>
		<stop  offset="1" style="stop-color:#797A7C"/>
	</linearGradient>
	<path class="st14" d="M55.5,329c0-0.1,0.1-0.3,0.2-0.4c2.6-3.9,15.2-1.5,28,5.3c12.7,6.7,21.3,15.4,19.4,19.6l41.4-92.9
		c0.9-2-3.5-10.7-12-15.7c-8.6-5.1-18.5-4.8-19.7-2.9l0,0L55.5,329L55.5,329z"/>
</g>
<g>

		<linearGradient id="SVGID_6_" gradientUnits="userSpaceOnUse" x1="-1359.1873" y1="953.981" x2="-1322.7332" y2="953.981" gradientTransform="matrix(-0.897 -0.4419 -0.4419 0.897 -648.1456 -1205.8284)">
		<stop  offset="0" style="stop-color:#B3B4B6"/>
		<stop  offset="5.332380e-02" style="stop-color:#CCCCCE"/>
		<stop  offset="0.119" style="stop-color:#E5E6E7"/>
		<stop  offset="0.1765" style="stop-color:#F6F6F7"/>
		<stop  offset="0.2191" style="stop-color:#FFFFFF"/>
		<stop  offset="0.3147" style="stop-color:#DDDEDF"/>
		<stop  offset="0.4504" style="stop-color:#BABBBD"/>
		<stop  offset="0.5751" style="stop-color:#A2A3A6"/>
		<stop  offset="0.6837" style="stop-color:#949698"/>
		<stop  offset="0.764" style="stop-color:#909193"/>
		<stop  offset="0.822" style="stop-color:#939497"/>
		<stop  offset="0.885" style="stop-color:#9E9FA1"/>
		<stop  offset="0.9499" style="stop-color:#B0B1B3"/>
		<stop  offset="1" style="stop-color:#C3C3C5"/>
	</linearGradient>
	<path class="st15" d="M112.7,242.2c0-0.1,0-0.1,0.1-0.2c1.2-1.9,11.1-2.2,19.7,2.9c8.6,5,12.9,13.7,12,15.7l5.8-12.9
		c0.8-1.8-3.2-10-11.2-14.8c-8.1-4.8-17.3-4.5-18.4-2.8l0,0L112.7,242.2L112.7,242.2z"/>
</g>
<line class="st6" x1="128.3" y1="131.4" x2="136.8" y2="119.9"/>
<path class="st13" d="M245.7,203.3c0-8.3-0.3-40.8-3.2-51.9C249.4,167,246.9,191.8,245.7,203.3z"/>
<path class="st16" d="M137.7,117.2c-1.2-2.6-11.6-9.2-21.2-9.2s-17.3,7.7-20.4,10.6s-7.2,7.5-4.6,9.1c2.6,1.5,6.5-1.5,9.1-3.1
	s6.9-5.5,8.7-4c1.8,1.6,3.7,4.4,3.7,5.6c0,1.2-3.2,4.1-4.5,5.2c-1.3,1.1-2.9,6.1-2.6,9s0,8.7,4,8.7s4.2-6.1,4.5-7.9
	c0.3-1.8,0-5,1.6-6.9c1.6-1.8,5.2-4.1,6.1-3s5.3,3,5.5,5.5c0.3,2.5-1.3,10.7,2.1,12.3c3.4,1.6,2.9-2.6,4.8-8.5
	c1.8-5.8,1.3-13.7-0.3-16.6C132.6,121.1,137.7,117.2,137.7,117.2z"/>
<path class="st17" d="M96.1,118.6c-3.1,2.9-7.2,7.5-4.6,9.1c2.6,1.5,6.5-1.5,9.1-3.1l0,0c-1-2.3-1.9-4.7-3.9-6.6
	C96.5,118.2,96.3,118.4,96.1,118.6z"/>
<path class="st17" d="M105.9,140.4c0.3,2.9,0,8.7,4,8.7c3.7,0,4.2-5.2,4.4-7.4c-2.9-0.2-5.8-0.5-8.4-1.7
	C105.9,140.2,105.9,140.3,105.9,140.4z"/>
<path class="st17" d="M127.5,140.3c-0.2,3.4-0.2,7.7,2.2,8.9c3.4,1.6,2.9-2.6,4.8-8.5c0-0.2,0.1-0.3,0.1-0.5
	C132.2,140.3,129.8,140.3,127.5,140.3z"/>
<path class="st16" d="M110.5,113.9c-2.2-0.8-8.9-2.7-9.4-7.2s-1-8.9,8.7-11.8c9.8-2.9,16.8,4.8,12.2,12.5c-2.9,4.8-5,7-5.5,7.2
	C115.9,114.8,113.8,115.1,110.5,113.9z"/>
<path class="st17" d="M110.9,113c-1.5-0.5-6.2-1.9-6.6-5s-0.7-6.2,6.1-8.2c6.8-2,11.7,3.3,8.5,8.7c-2,3.3-3.5,4.9-3.8,5
	C114.7,113.6,113.2,113.9,110.9,113z"/>
<ellipse class="st18" cx="109.5" cy="108.6" rx="1.1" ry="1.2"/>
<ellipse class="st18" cx="115.8" cy="106.8" rx="1.1" ry="1.2"/>
<g>
	<path class="st19" d="M122.4,99c5,1.7,7.7,0,12.9-2.1s7.5-5.2,12-4.8c4.5,0.3,12.7,0,20.1,4.8c7.4,4.8,7.2,7.7,7.2,7.7l-4,3.1
		c-2.9-2.2-5.8-5.8-8.9-6.4c-3.1-0.5-8.1,0.2-9.4,2.9c-3.4,1-13.7,1.9-13.7,1.9c-1.2-0.9-2.3-2.1-4-1.2c-2.6,1.4-6.2,1.7-14.6-0.7
		L122.4,99z"/>
	<path class="st20" d="M122.4,99c-0.7-0.2-1.7-1.1-1.9-1.9c-0.3-1.5-2.9-2.2-2.6,0.6c-1.3-1-1.9-3.2-2.5-3.7
		c-0.8-0.7-4.9-0.5-4.6,3.2s4.2,5.6,9.1,7"/>
	<path class="st21" d="M152.5,69.8c1.7-3.1,8.7-6.6,14.4-0.9c5.6,5.6,7,19.6,4.1,22.5c-3,2.9-2.2-1.4-2-2.1c-1.2,3-1.9,3.1-2.4,2.8
		c-0.5-0.3-0.8,0.4-1.3,0.6c-1,0.6-0.7-1.6-1.3-1.4s-0.4,4.2-2,4.2s-1.6-1.5-1.5-3.2s-0.4-19.3-5.1-18.6
		C153,72.2,152.5,69.8,152.5,69.8z"/>
	<path class="st22" d="M133.4,142c-0.1,0-0.1,0.1-0.2,0.1c-1.5,0.4-5,2-4.8,3.4c0.4,2.9,3.4,3.1,6.9,1.9c1.7-0.6,3.4-1.7,4.7-3.3
		C137.6,144.2,135.3,143.9,133.4,142z"/>
	<path class="st20" d="M135.1,133.9c0.3,3.3-0.4,7.3-1.7,8.1c1.9,1.9,4.2,2.2,6.6,2c1.4-1.8,2.3-4.4,2.4-7.8
		C142.5,129.5,135.1,133.9,135.1,133.9z"/>
	<path class="st20" d="M161.3,139.5c-2.1-1-2.6-6.3-2.6-9.4l-6.6,4.9c0.2,3.1,1,5.3,2.1,6.9C157.3,142.2,160.5,142.1,161.3,139.5z"
		/>
	<path class="st22" d="M161.6,139.6c-0.1,0-0.3-0.1-0.4-0.1c-0.8,2.6-3.9,2.7-7.1,2.4c0.8,1.1,1.9,1.9,3,2.2c2.7,0.8,8,3.1,9.5,0.1
		C168.1,141.2,164.1,140.1,161.6,139.6z"/>
	<path class="st19" d="M123.8,130c-0.6,2.5-1.5,3.3-2,4.2c1.2,0.3,3.4,1,4.6,2.3s4.4-1.3,6.1-0.4c1.8,0.9,3.7,2.9,5.3,1.9
		c1.6-1,3.2-1.5,4.9-0.6c1.7,0.9,6,2.3,7.4,1c1.3-1.3,2.7-2.2,4-1.1c1.3,1.1,2.4,2.9,3.9,1.3c1.5-1.5,1.2-4.5,4-3.9
		c2.8,0.6,2.9,3.7,9.9,1.1c-1.7-2.2-1.5-5.3-1.5-5.3l-23.8-3.6L123.8,130z"/>
	<path class="st22" d="M138.9,95.6c0.1,2.4,3.1,10.3,3.1,10.3l6.6-0.8c1.3-2.6,1.6-9.2,1.8-12.5h3.9c-0.5,5.5-2,11.7-2,11.7
		c2.3,0,7,0.8,10.4,4.1c3.4,3.4,7.1,8.1,7.7,22c-2.3,2.2-4.4,0.2-6,0.6c-1.7,0.3-1.5,1.7-3,1.6c-1.6-0.1-3.9-1.5-4.8,0.1
		s-2.5,2.4-4.3,1.2c-1.9-1.2-1.3,0.5-3.9,0.6c-2.7,0.1-3-1.1-4.2-0.3c-1.2,0.8-4.5,1-6.3,0.2c-1.8-0.8-2.2-3-3.4-2.5
		c-1.1,0.6-3.8,1.2-5.6,0.6c-1.8-0.7-4.5-2.1-5.1-1.9c1.7-7.9,3.6-22.6,14.4-23.8c-0.8-2.1-2.8-8.5-2.3-10
		C136.6,96.3,138.9,95.6,138.9,95.6z"/>
	<path class="st21" d="M136.8,70.1c-1-2.8-4.6-7.2-9.7-5.9c-5.1,1.3-9.5,7.3-9.6,13.5s-2,7-2.5,7.4s1.2,3,3.4,1.3
		c-1.3,3.2-0.1,9.3,2.2,9.2c2.3-0.1,1.7-1.6,1.7-1.6c1.2,2.1,2.7-0.2,2.7-0.2c0.9,2.2,4,2.3,3.8,0.6c-0.2-1.6-0.2-2.4-0.2-2.4
		c1,0.3,2,1.2,2.4-1.8C131.4,87.4,136.8,70.1,136.8,70.1z"/>
	<path class="st21" d="M129.5,84c-0.7-3.7,1.6-16.2,15-16.4s15.4,14.7,13.6,18.3C148.3,89.5,129.5,84,129.5,84z"/>
	<path class="st20" d="M129.5,84c-0.9,5.3,2,7.4,6.2,9.9c4.1,2.4,6.2,3.4,9.4,3c3.3-0.4,14.3-5.4,13.4-11.2c-0.9-5.7-5-11.4-14.2-11
		C135.2,75.1,130.2,79.5,129.5,84z"/>
	<path class="st23" d="M137.9,88.8c2.1,2.5,5.6,3.4,8,3.3c2.4-0.1,5.5-1,6.4-4.2c1.5,2.5-3,5.5-6.9,5.7
		C141.4,93.7,138.1,91.1,137.9,88.8z"/>
	<path class="st23" d="M136.7,89.5c1.4,0.1,2.4-1,2.4-1.3C137.9,87.9,136.7,89.5,136.7,89.5z"/>
	<path class="st23" d="M151.3,87.4c0.4,0.3,1.7,0.5,2.1,0.2C152.8,89,151.3,87.9,151.3,87.4z"/>
	<ellipse cx="139.8" cy="84.5" rx="1.1" ry="1.2"/>
	<ellipse cx="149.4" cy="84.4" rx="1.1" ry="1.2"/>

		<ellipse transform="matrix(0.8214 -0.5703 0.5703 0.8214 -23.6099 97.9811)" class="st24" cx="144.7" cy="86.7" rx="0.9" ry="0.8"/>
</g>
<g>
	<path class="st25" d="M204.6,65c0.5-1.8,2.6-3.3,3.9-4.8c1.3-1.5,1.3-4,1.3-5.1l-2.6,0.1C205.4,56.9,202.4,59.4,204.6,65z"/>
	<g>
		<path class="st26" d="M211.1,89.5c1.8-0.3,2.2-1.8,2.2-1.8c-0.9,0.4-3.2,1-3.2,0s1.5-4.3,2.1-6.2c0.6-1.8,4.4-9.5-1.1-13.5
			c-2.5-1.8-5.3-2-8.1-1.3c2,2,1.3,6.7,0,9.9c-1.3,3.3-4.5,14.2,1.2,14.7c0.3,3,9.9,3.3,11.9-2.6C214,90.2,211.4,89.6,211.1,89.5z"
			/>
	</g>
	<g>
		<path class="st27" d="M203,76.5c-1.3,3.3-4.5,14.2,1.2,14.7c0.3,3,9.9,3.3,11.9-2.6c-1.3,2.9-5,4.4-8.6,3.6s-1.5-8.7-0.5-11
			s4.4-7.8-0.3-11.8c-0.6-0.5-1.5-0.6-2.6-0.5C204.5,71.2,203.9,74.2,203,76.5z"/>
	</g>
	<path class="st26" d="M169.2,90.7c4.2,0.5,8.9-2.8,9.2-7s-4.5-17.4,1.3-17.6l4.3-3.6c-5.2-2.9-10-2.4-13.4,0.3
		c-3.4,2.8-6.7,7.7-5.8,13.1c0.9,5.3,6.9,9.2,0.3,11.5c-1.8,0.6,0.9,0.9,1.6,0.8c-2.7,1.2-1.3,1.7,2,1.7
		C167.7,90.4,168.6,90.6,169.2,90.7z"/>
	<g>
		<path class="st27" d="M169.2,90.7c4.2,0.5,8.9-2.8,9.2-7s-4.5-17.4,1.3-17.6l1.1-0.9c-0.5-0.2-1-0.3-1.6-0.2
			c-6.4,0.7-3.7,9.1-3,11.2s0.8,7.1-1,10.4s-5.6,4.1-6.9,3.8C168.3,90.6,168.8,90.7,169.2,90.7z"/>
		<path class="st27" d="M171.3,76.1c3.4,9.9-3.5,13.2-6.1,13.2l0,0c0.1,0.4,1.4,0.6,3.5,0.5C175.6,86.6,174.5,77.9,171.3,76.1z"/>
		<path class="st27" d="M168.1,77c-1.5-2.8-0.6-7.4-0.3-8.2c-2.3,2.2-2,5.9-0.5,8.8s4.5,9.5-2.8,10.3c0.3,0.3,1.7,0.3,2.1,0.2
			C169.5,86.7,171.2,83.2,168.1,77z"/>
	</g>
	<path class="st26" d="M180.2,78.9c-3.8-4.5-2-12.2-0.2-14.8c1.8-2.6,7.4-7.6,13.2-3.8c4.2-2.5,10.5,1.3,12.2,6.5
		c2,6.4,0.2,15.1-6.6,17.3C192,86.3,180.2,78.9,180.2,78.9z"/>
	<g>
		<g>
			<g>
				<path class="st27" d="M198.8,84.1c6.8-2.2,8.7-10.8,6.6-17.3c-0.1-0.4-0.3-0.7-0.4-1.1c1.4,3.4,0.7,11.3-1.3,13.5
					c1.1-2.5,1.4-6.9-0.1-8.6c1.9,4.5-1.1,10.3-3.4,11.9c0,0,0.5-2.1,1.2-3.7c2-4.2,0.4-6.1-1-6.7c-1.4-0.7-5-1.4-5.2-4.3
					c-1.1,1.6-5.5,3.4-7.5,3.3l2.2-1.7l1.7-1.6c-1.8,0.4-6.1,2.9-10.1,0.8c-2.8,1.7-2.7,6.6-1.4,10.4
					C180.2,78.9,192,86.3,198.8,84.1z"/>
			</g>
		</g>
	</g>

		<linearGradient id="SVGID_7_" gradientUnits="userSpaceOnUse" x1="164.4061" y1="218.8499" x2="184.6022" y2="218.8499" gradientTransform="matrix(1 0 0 -1 0 358.8571)">
		<stop  offset="0.5393" style="stop-color:#F2AB8A"/>
		<stop  offset="0.8055" style="stop-color:#EF9C78"/>
		<stop  offset="1" style="stop-color:#EE9570"/>
	</linearGradient>
	<path class="st28" d="M165.9,154.8c2.9,2.2,6.2,0.8,7.2-0.1c1-0.9,1.5-2.9,2.5-3.7s2.3-2.6,2.3-4.5s0.2-2.7,0.9-3.9
		c0.7-1.1,6.7-8.4,5.7-11.5c-1-3.2-8.5-10.7-10.8-5.1c-2.4,5.5-1.8,14.5-1.9,16.1c-0.1,1.6-1.7,3.9-2.4,4.2
		c-0.7,0.4-3.5,1.8-4.4,2.8S164.2,153.5,165.9,154.8z"/>
	<g>
		<path class="st10" d="M169.4,146.3c-0.7,0.4-3.5,1.8-4.4,2.8s-0.8,4.3,1,5.6c2.9,2.2,6.2,0.8,7.2-0.1c1-0.9,1.5-2.9,2.5-3.7
			s2.3-2.6,2.3-4.5s0.2-2.7,0.9-3.9c0-0.1,0.1-0.1,0.2-0.2l0,0c-3.7,3-7.3,0.4-7.2-1l0,0c0,0.3,0,0.5,0,0.7
			C171.6,143.7,170.1,146,169.4,146.3z"/>
		<g>
			<path class="st10" d="M171.4,147.9c1.7,0.7,5.4,0.6,6.5-2l0,0c0-1.5,0.2-2.3,0.9-3.3c0-0.1,0.1-0.1,0.2-0.2l0,0
				c-3.7,3-7.3,0.4-7.2-1l0,0c0,0.3,0,0.5,0,0.7c-0.1,0.9-0.6,2.1-1.3,3l0,0C170.2,145.8,169.9,147.3,171.4,147.9z"/>
			<path class="st25" d="M169.4,146.3c-0.7,0.4-3.5,1.8-4.4,2.8s-0.8,4.3,1,5.6c2.9,2.2,6.2,0.8,7.2-0.1c1-0.9,1.5-2.9,2.5-3.7
				s2.3-2.6,2.3-4.5c0-0.2,0-0.4,0-0.6l0,0c-1.1,2.6-4.8,2.7-6.5,2c-1.5-0.6-1.3-2.2-1-2.8l0,0C170.1,145.7,169.6,146.2,169.4,146.3
				z"/>
		</g>
	</g>

		<linearGradient id="SVGID_8_" gradientUnits="userSpaceOnUse" x1="194.5737" y1="216.142" x2="210.24" y2="216.142" gradientTransform="matrix(1 0 0 -1 0 358.8571)">
		<stop  offset="0.5393" style="stop-color:#F2AB8A"/>
		<stop  offset="0.8055" style="stop-color:#EF9C78"/>
		<stop  offset="1" style="stop-color:#EE9570"/>
	</linearGradient>
	<path class="st29" d="M202.5,129.7c4.1,8.1,2.3,10.9,2.1,12.9c-0.2,1.9,0.7,3.3,2.3,4.8c1.6,1.4,5.3,4.3,1.9,7.2
		c-2.5,2.2-5.8,2.5-7.4,1.2c-1.6-1.2-1.7-2.2-1.6-4.2c0.1-2-0.6-2.7-1.5-3.6c-0.8-0.9-1.3-2-1.2-3s0.3-0.9-0.2-1.7s-2.1-1.7-2.4-5.5
		c-0.3-3.8,0.9-9,0.9-9L202.5,129.7z"/>
	<g>
		<path class="st10" d="M202.4,148.8c1.3,0,3.9-0.9,2.8-3.5l0,0c-0.5-0.8-0.7-1.7-0.6-2.8c0-0.5,0.2-1,0.3-1.6
			c-0.7,4.5-7.6,2.8-8.4,1.6c0.2,0.2,0.4,0.5,0.5,0.7c0.4,0.7,0.4,0.7,0.3,1.3c0.2,0.9,1.1,1.8,1.7,2.6
			C199.9,148.1,201.1,148.9,202.4,148.8z"/>
		<path class="st25" d="M198.4,147.9c0.8,0.9,1.5,1.6,1.5,3.6c-0.1,2,0,3,1.6,4.2s4.9,0.9,7.4-1.2c3.3-2.9-0.4-5.8-1.9-7.2
			c-0.7-0.6-1.3-1.3-1.7-2l0,0c1,2.6-1.5,3.4-2.8,3.5c-1.3,0-2.6-0.7-3.4-1.7c-0.6-0.8-1.5-1.6-1.7-2.6c0,0.1,0,0.2-0.1,0.4
			C197.1,146,197.6,147,198.4,147.9z"/>
	</g>

		<linearGradient id="SVGID_9_" gradientUnits="userSpaceOnUse" x1="208.088" y1="256.4685" x2="195.1016" y2="250.5016" gradientTransform="matrix(1 0 0 -1 0 358.8571)">
		<stop  offset="0" style="stop-color:#FFFFFF"/>
		<stop  offset="1" style="stop-color:#75B2DB"/>
	</linearGradient>
	<path class="st30" d="M199.5,89.4c2.1-0.3,2.6,0,4.8,1.8c2.1,1.8,2.5,3.3,2.7,5.2c0.2,1.9-0.5,3.9,1,4.7c1.5,0.8,3.3,1.7,3.8,3
		c0.6,1.4,0.9,3.7,2.3,5.3c1.4,1.6,2.2,3.4,0.1,5l0.5,1.7l-4.8,2.4c-0.3-0.6-1-2.1-1-2.1c-4.4-0.1-4.5-5.5-5.1-6.3s-3.6-2-3.7-4
		c0-0.9-4.9,0.2-5.4-4.7C194.1,96.4,197.5,89.6,199.5,89.4z"/>

		<linearGradient id="SVGID_10_" gradientUnits="userSpaceOnUse" x1="171.7712" y1="258.7588" x2="180.1572" y2="251.6935" gradientTransform="matrix(1 0 0 -1 0 358.8571)">
		<stop  offset="0" style="stop-color:#FFFFFF"/>
		<stop  offset="1" style="stop-color:#75B2DB"/>
	</linearGradient>
	<path class="st31" d="M163.9,113.2c0-0.1,1.6-2.6,1.6-2.6c-0.8-0.7-1.3-2.7-0.9-3.4c0.4-0.8,2.1-2.6,4-3.6s2.5-1,2.7-1.8
		c0.1-0.8,0.2-1,0.9-1.4c0.7-0.3,0.5-3.8,1-4.8s3.6-5.1,4.4-5.5c0.8-0.4,2.9-1.4,5-0.6s3.2,11.3,2.1,13.5c-1.1,2.2-3.6,3.6-4.5,4.7
		s-6.1,6.9-9.8,5.6c-1.1,1.2-2.7,3-2.7,3C166.7,115,164.7,113.3,163.9,113.2z"/>
	<path class="st25" d="M180.8,89.9c-3.3,1.8-1.5,7.6-0.3,11.5s2.1,4.5,0,6.6s-14,14.5-14.6,23.1c1.6,3.9,4.6,2.4,5.4,2.2
		c-0.6,2.7,1.3,3,3.1,3s5.4-0.6,7,0.6c1.6,1.2,3.3,1.5,5.7,1.2s3.6-3.1,5.8-3.3s4.9,2.1,8.4,2.1c3.4,0,4.3-0.7,4.9-2.2
		c1.2,0.4,4.2-0.4,4.3-1.5c1.6,0.4,2.4-1.2,1.6-4.2c-0.7-3-2.1-12.7-6.6-15.4c-1.9-5.8-6.9-7.9-9.6-8.2c-2.7-0.3-0.6-4,0-5.1
		c0.6-1,4.6-5,2.1-9.6C195.5,86.1,180.8,89.9,180.8,89.9z"/>
	<g>
		<g>
			<g>
				<path class="st32" d="M201.6,113.8c1.9,4.6,3.1,18.1,3.4,22.4c0.5-0.4,0.8-0.9,1.1-1.5c0.2,0.1,0.4,0.1,0.7,0.1l0,0
					C206.4,127,205,119.7,201.6,113.8z"/>
			</g>
			<g>
				<path class="st32" d="M210.3,133.5c0.1-0.1,0.1-0.2,0.2-0.4c0.2,0.1,0.5,0.1,0.7,0.1c0-2.2-3.5-15.4-5.3-18.6
					C208,120.4,209.9,129.4,210.3,133.5z"/>
			</g>
			<g>
				<path class="st32" d="M170.1,133.6c0.5-0.1,0.8-0.2,1-0.3c0.8-2.8,3.6-10.9,6-15.2C174.8,120.5,172,126.5,170.1,133.6z"/>
			</g>
		</g>
	</g>
	<path class="st10" d="M180.8,89.3c-1,1.3,0.5,5,7,2.2C186.6,88.8,183.8,88.7,180.8,89.3z"/>
	<path class="st10" d="M189.2,90.8c0.4,1.8,2.3,3,4.2,2.8s5-0.7,4.1-2.9C196.5,88.5,189.2,90.8,189.2,90.8z"/>

		<linearGradient id="SVGID_11_" gradientUnits="userSpaceOnUse" x1="189.7055" y1="291.0904" x2="189.3859" y2="267.5319" gradientTransform="matrix(1 0 0 -1 0 358.8571)">
		<stop  offset="0.5393" style="stop-color:#F2AB8A"/>
		<stop  offset="0.8055" style="stop-color:#EF9C78"/>
		<stop  offset="1" style="stop-color:#EE9570"/>
	</linearGradient>
	<path class="st33" d="M182.4,69.8c-1.4,0.9-3,4.9-2.4,7.3c0.5,2.4,0.2,3.1-0.7,4.4c-0.9,1.2-1.8,4.2-0.9,6.3
		c0.9,2.1,4.2,2.6,5.2,2.8c1,0.2,2.2,0.1,2.8,0.7s1.9,0.5,2.3,0.2c0.4-0.3,1.3-0.6,2.8-0.5s5.8,1.8,8.2-2.1s0.5-6.1,0.3-7
		s-0.5-2.7-0.2-3.6c0.3-1,1.4-4.4-0.6-5.7c-2-1.4-4.8-1.1-4.1-4.1c-2.2,2.7-5.1,3.1-7.3,2.5c3.8-1.5,3.9-2.8,3.9-3.3
		C190.7,68.7,184.6,71.7,182.4,69.8z"/>
	<path class="st34" d="M182.4,77.1c2.7-1.4,4,1.1,3.5,3.6C181.2,81.1,182.3,77.8,182.4,77.1z"/>
	<path d="M182.4,77.1c2.7-1.4,4,1.1,3.5,3.6C181.2,81.1,182.3,77.8,182.4,77.1z M185.6,80.4c0.4-2-1.5-3.8-3-3.1
		C182.5,77.9,182.2,80.5,185.6,80.4z"/>
	<path class="st34" d="M192.8,80.5c1.5-2.6,4.8-3.3,5.4-0.7C198,81.2,195.1,83.4,192.8,80.5z"/>
	<path d="M192.8,80.5c1.5-2.6,4.8-3.3,5.4-0.7C198,81.2,195.1,83.4,192.8,80.5z M198,79.8c-0.6-1.8-3.6-1.4-5,0.5
		C195.2,82.4,197.8,80.8,198,79.8z"/>
	<path class="st23" d="M185.3,85.9c0.6,0.8,1,0.6,1.4,0.4s0.6-0.4,0.9-0.4c0.3,0.1,0.4,0.5,0.6,0.5c0.2,0,0.5-0.6,0.8-0.6
		c0.7,0.1,0.6,0.8,1.2,0.9c0.6,0,0.8-0.2,0.8-0.3c0-0.1,0.7,0.2,0.3,0.5s-0.9,0.4-1.3,0.4c-0.4,0-1.1,0.5-1.3,0.8
		c-0.3,0.5-1.4,0.6-1.7-0.2c-0.2-0.6-0.5-0.8-0.7-0.9c-0.3-0.1-1-0.4-1.2-0.5C184.7,86.2,185,85.5,185.3,85.9z"/>

		<linearGradient id="SVGID_12_" gradientUnits="userSpaceOnUse" x1="161.0295" y1="241.6656" x2="167.7351" y2="241.6656" gradientTransform="matrix(1 0 0 -1 0 358.8571)">
		<stop  offset="0.5393" style="stop-color:#F2AB8A"/>
		<stop  offset="0.8055" style="stop-color:#EF9C78"/>
		<stop  offset="1" style="stop-color:#EE9570"/>
	</linearGradient>
	<path class="st35" d="M167.6,116.2c0.5,1.6-0.6,2.4-0.9,2.8c-0.2,0.4-0.5,1.2-0.9,1.1s-1-1-0.7-1.6c0.2-0.6,0.7-1.1,0.8-1.5
		c-0.5,0.4-1.1,1.7-1.2,2.2c0,0.6,0.3,1,0.5,1.3s-0.3,0.8-1,0.6c-0.2-0.1-0.3-0.1-0.4-0.2c0,0.3-0.5,0.5-0.8,0.4s-1.5-1-1.7-1.5
		c-0.3-0.5-0.2-1.3-0.2-1.6c0-0.2-0.2-0.6-0.2-1.1s1-2.6,2.9-4.1C166,113.8,167.6,116.2,167.6,116.2z"/>

		<linearGradient id="SVGID_13_" gradientUnits="userSpaceOnUse" x1="210.0574" y1="238.3962" x2="217.2883" y2="238.3962" gradientTransform="matrix(1 0 0 -1 0 358.8571)">
		<stop  offset="0.5393" style="stop-color:#F2AB8A"/>
		<stop  offset="0.8055" style="stop-color:#EF9C78"/>
		<stop  offset="1" style="stop-color:#EE9570"/>
	</linearGradient>
	<path class="st36" d="M210.1,118.4c0.2,0.9-0.2,1.8,0.1,2.8s2.9,1.6,3.1,2.3c0.2,0.6,0.8-0.8,0.5-1.1s-1.1-0.6-1.3-0.9
		c-0.1-0.3-0.3-1.3,0-1.3c0.2-0.1,1.1,0.6,1.3,1.1s0.3,2.6,0.7,2.8s0.7-0.1,0.8-0.4c0.5,0,0.8-0.5,0.9-0.7c0.5,0,0.7-0.4,0.7-0.8
		c0.3-0.4,0.4-1.6,0.3-2.1c-0.1-0.5-0.8-1.5-1.4-2.1c-0.6-0.6-1.6-0.9-1.7-1.3L210.1,118.4z"/>
	<path class="st25" d="M182.2,61.6c-1.1,1-3.2,3.9-3.2,4.6c-1.7,0.2-1.6-5.1,0-5.5C179.7,60.6,182.4,61.4,182.2,61.6z"/>
	<path class="st25" d="M180,61.5c1-2,0.7-8.1,0.3-9.7c-1.7-0.5-5.3,0.2-5.3,0.2c0.3,3.1,2.3,9.3,3,10.3
		C178.6,62.6,180,61.5,180,61.5z"/>
	<path class="st25" d="M170.4,70.3c2.1-0.7,7.6-3.8,8.7-5.4l-1.2-1.5c-3.9,0-9.3,1.9-9.5,4.6C169.1,69,169.9,70,170.4,70.3z"/>
	<path d="M182.5,78.6c0-0.8,0.6-1.4,1.4-1.4c0.8,0,1.5,0.6,1.7,1.5s-0.5,1.7-1.4,1.7C183.2,80.3,182.5,79.5,182.5,78.6z"/>
	<path d="M194,80.4c0.2,0.8,1,1.3,1.9,1.2c0.9-0.1,1.6-0.9,1.6-1.8s-1-1.6-2-1.4C194.4,78.6,193.7,79.6,194,80.4z"/>
	<path class="st10" d="M182.9,78c0-0.2,0.2-0.4,0.5-0.4s0.6,0.2,0.6,0.4c0.1,0.3-0.2,0.5-0.5,0.5S182.9,78.3,182.9,78z"/>
	<path class="st10" d="M194.5,79.5c0-0.2,0.2-0.4,0.5-0.4s0.6,0.2,0.6,0.4c0.1,0.3-0.2,0.5-0.5,0.5S194.5,79.8,194.5,79.5z"/>
	<path class="st27" d="M194.3,62.7c4.2-2.7,8.8,1.2,9.3,4.9C201.6,64.4,199.1,62.2,194.3,62.7z"/>
	<path class="st25" d="M203.9,63.9c1.8-0.5,3.1,1.2,2.4,2.4c-0.4,0.8-0.7,1.2-0.7,1.2C205.2,66.7,204.4,64.5,203.9,63.9z"/>
	<path class="st27" d="M211.3,71.5c3.2,3.3-1,10.9-1.8,12.6c-2.3,4.8,0.3,7,3.9,3.5c-0.1,1.7-5.9,4.5-6.1-0.4
		c-0.1-3.1,2.9-6.5,3.7-8.6C211.7,76.4,212.3,74.2,211.3,71.5z"/>
	<path class="st25" d="M206,65.8c3.3,0,5.3,2.7,6.6,7.1l-2.4,0.7c-1.1-0.5-4.3-2.4-5-7.1L206,65.8z"/>
	<path class="st32" d="M170.4,69.6c0.9-2.6,6.6-4.5,8.7-4.7C175.4,67.1,170.9,69.4,170.4,69.6z"/>
	<path class="st32" d="M205.8,66.8c2.4,1.3,4.1,6,4.1,6C208.4,71.8,206.1,69.6,205.8,66.8z"/>
	<path class="st32" d="M209.1,56.7c0.4,1.6-3.3,5.1-3.3,5.1C206.7,60.1,207.6,57.8,209.1,56.7z"/>
	<path class="st27" d="M182.7,74c0.6-0.6,2-1.6,4.2,0c-0.1-1.3-1.3-2-2.2-2.2C183.9,71.7,182.6,72.9,182.7,74z"/>
	<path class="st27" d="M194.2,73.9c0.8-0.5,3.3-0.5,4,1.2c0.5-2-1-2.6-1.6-2.6C196,72.4,194.4,72.4,194.2,73.9z"/>
	<path class="st37" d="M187.8,82.2c-0.2,0.6-0.1,1.1,0.8,1.3c0.9,0.3,1.9-0.2,1.7-1.1c1.1,0.8,0.1,2-1.3,2
		C187.8,84.4,186.4,83.4,187.8,82.2z"/>
</g>
<linearGradient id="SVGID_14_" gradientUnits="userSpaceOnUse" x1="52.7014" y1="228.1536" x2="287.804" y2="228.1536" gradientTransform="matrix(1 0 0 -1 0 358.8571)">
	<stop  offset="0" style="stop-color:#D2D3D4"/>
	<stop  offset="7.432439e-02" style="stop-color:#E5E6E7"/>
	<stop  offset="0.1574" style="stop-color:#F6F6F7"/>
	<stop  offset="0.2191" style="stop-color:#FFFFFF"/>
	<stop  offset="0.4251" style="stop-color:#EEEEEF"/>
	<stop  offset="0.7552" style="stop-color:#DEDEDF"/>
	<stop  offset="1" style="stop-color:#D8D9DA"/>
</linearGradient>
<path class="st38" d="M198.9,227.7c-49.5,13.5-98.6-1.5-122.7-34.1c-9.7-9.9-16.9-22-20.7-35.7c-14-51.4,25.9-106.9,89-124.1
	s125.6,10.5,139.6,61.9c1.8,6.7,2.7,13.5,2.8,20.3C294.2,163.2,256.6,212,198.9,227.7z M279.4,116.9c-0.1-6.3-0.9-12.7-2.6-19
	c-13.1-48-71.6-74-130.6-57.9c-59.1,16.1-96.3,68.1-83.3,116.1c3.5,12.8,10.2,24.1,19.3,33.4C104.8,220,150.7,234,197,221.4
	C251,206.7,286.2,161.1,279.4,116.9z"/>
<g>

		<image style="overflow:visible;enable-background:new    ;" width="133" height="113" xlink:href="1A353D9A.png"  transform="matrix(1 0 0 1 170 29.3173)">
	</image>
</g>
<g>

		<image style="overflow:visible;enable-background:new    ;" width="176" height="172" xlink:href="1A353D9E.png"  transform="matrix(1 0 0 1 0 238.3173)">
	</image>
</g>
<g>

		<image style="overflow:visible;enable-background:new    ;" width="175" height="172" xlink:href="1A353D99.png"  transform="matrix(1 0 0 1 277 238.3173)">
	</image>
</g>
<path class="st18" d="M110.9,111.4c1.1,0.3,3.9,0.3,5.8-1.4C115.6,112.4,112,112.1,110.9,111.4z"/>
</svg>
