<?xml version="1.0" encoding="utf-8"?>
<!-- Generator: Adobe Illustrator 21.1.0, SVG Export Plug-In . SVG Version: 6.00 Build 0)  -->
<svg version="1.1" id="Calque_1" xmlns="http://www.w3.org/2000/svg" xmlns:xlink="http://www.w3.org/1999/xlink" x="0px" y="0px"
	 viewBox="0 0 322.6 374.3" style="enable-background:new 0 0 322.6 374.3;" xml:space="preserve">
<style type="text/css">
	.st0{fill:url(#SVGID_1_);}
	.st1{fill:#919295;}
	.st2{fill:url(#SVGID_2_);}
	.st3{clip-path:url(#SVGID_4_);fill:#FCF5E5;}
	.st4{fill:url(#SVGID_5_);}
	.st5{fill:url(#SVGID_6_);}
	.st6{fill:url(#SVGID_7_);}
	.st7{fill:#C4D0D9;}
	.st8{fill:#010001;}
	.st9{fill:none;stroke:#C4D0D9;stroke-width:1.0016;}
	.st10{fill:#D4A795;}
	.st11{fill:#F7E1AE;}
	.st12{fill:#9C7C6F;}
	.st13{opacity:0.6;}
	.st14{fill:#B17BA6;}
	.st15{fill:#D0B0D4;}
	.st16{fill:#D38552;}
	.st17{fill:#E8AB80;}
	.st18{fill:#75B2DB;}
	.st19{fill:#D28551;}
	.st20{fill:#D18450;}
	.st21{fill:#D0834F;}
	.st22{fill:#CF824E;}
	.st23{fill:#CE814D;}
	.st24{fill:#CD804C;}
	.st25{fill:#CC804C;}
	.st26{fill:#CB7F4B;}
	.st27{fill:#CA7E4A;}
	.st28{fill:#C97D49;}
	.st29{fill:#C87C48;}
	.st30{fill:#C77C47;}
	.st31{fill:#C67B46;}
	.st32{fill:#C57A45;}
	.st33{fill:#C47945;}
	.st34{fill:#C37844;}
	.st35{fill:#C27843;}
	.st36{fill:#C17742;}
	.st37{fill:#C07641;}
	.st38{fill:#BF7540;}
	.st39{fill:#BE7540;}
	.st40{fill:#BD743F;}
	.st41{fill:#BC733E;}
	.st42{fill:#BB723D;}
	.st43{fill:#BA713C;}
	.st44{fill:#B9713C;}
	.st45{fill:#B8703B;}
	.st46{fill:#B76F3A;}
	.st47{fill:#B66E39;}
	.st48{fill:#B56E38;}
	.st49{fill:#B46D38;}
	.st50{fill:#B36C37;}
	.st51{fill:#B26B36;}
	.st52{fill:url(#SVGID_8_);}
	.st53{fill:#B16B35;}
	.st54{fill:#B06A35;}
	.st55{fill:#AF6934;}
	.st56{fill:#AE6833;}
	.st57{fill:#AD6832;}
	.st58{fill:#AC6732;}
	.st59{fill:#AB6631;}
	.st60{fill:#AB6630;}
	.st61{fill:#AA6530;}
	.st62{fill:#7F4510;}
	.st63{fill:#7E8083;}
	.st64{fill:#F9B3A9;}
	.st65{fill:#F8E3B4;}
	.st66{fill:#FCF5E5;}
	.st67{fill:#FFFFFF;}
	.st68{fill:#E2612D;}
</style>
<linearGradient id="SVGID_1_" gradientUnits="userSpaceOnUse" x1="55.6787" y1="423.7568" x2="296.0157" y2="423.7568" gradientTransform="matrix(1 0 0 -1 0 564.5714)">
	<stop  offset="0" style="stop-color:#B3B4B6"/>
	<stop  offset="5.332380e-02" style="stop-color:#CCCCCE"/>
	<stop  offset="0.119" style="stop-color:#E5E6E7"/>
	<stop  offset="0.1765" style="stop-color:#F6F6F7"/>
	<stop  offset="0.2191" style="stop-color:#FFFFFF"/>
	<stop  offset="0.3147" style="stop-color:#DDDEDF"/>
	<stop  offset="0.4504" style="stop-color:#BABBBD"/>
	<stop  offset="0.5751" style="stop-color:#A2A3A6"/>
	<stop  offset="0.6837" style="stop-color:#949698"/>
	<stop  offset="0.764" style="stop-color:#909193"/>
	<stop  offset="0.8063" style="stop-color:#939497"/>
	<stop  offset="0.8522" style="stop-color:#9D9EA1"/>
	<stop  offset="0.8998" style="stop-color:#AFB0B2"/>
	<stop  offset="0.9485" style="stop-color:#C8C8CA"/>
	<stop  offset="0.9977" style="stop-color:#E8E8E9"/>
	<stop  offset="1" style="stop-color:#EAEAEA"/>
</linearGradient>
<path class="st0" d="M292.5,118.9c-0.6-2.1-11.3-36-11.3-36s-79.6-66.6-136.3-51.1C83.5,48.5,44.8,102.6,58.4,152.5
	c1.7,6.4,11.2,29.1,16.6,39.9v0.1l0,0c3.8,8.1,9,15.3,15.3,21.7c23.5,31.7,71.2,46.3,119.3,33.2c46.1-12.5,79-46.8,85.3-84
	C297,151,296.1,132.2,292.5,118.9z"/>
<ellipse transform="matrix(0.9649 -0.2627 0.2627 0.9649 -26.098 48.7711)" class="st1" cx="169.3" cy="122" rx="110.8" ry="90.2"/>
<radialGradient id="SVGID_2_" cx="173.65" cy="432.5857" r="97.9426" gradientTransform="matrix(1 0 0 -1 0 564.5714)" gradientUnits="userSpaceOnUse">
	<stop  offset="0" style="stop-color:#BAB6B1"/>
	<stop  offset="1" style="stop-color:#FFFFFF"/>
</radialGradient>
<path class="st2" d="M70,160.2c-12.7-46.6,23.4-96.9,80.7-112.5c57.2-15.6,113.9,9.5,126.6,56.1c12.7,46.6-23.4,96.9-80.7,112.5
	S82.7,206.8,70,160.2z"/>
<g>
	<g>
		<defs>
			
				<ellipse id="SVGID_3_" transform="matrix(0.9649 -0.2627 0.2627 0.9649 -28.5923 50.2465)" cx="173.6" cy="132.1" rx="107.4" ry="87.4"/>
		</defs>
		<clipPath id="SVGID_4_">
			<use xlink:href="#SVGID_3_"  style="overflow:visible;"/>
		</clipPath>
		<polygon class="st3" points="258,141 90.5,141 100.5,226 252.1,227.2 		"/>
	</g>
</g>
<g>
	
		<linearGradient id="SVGID_5_" gradientUnits="userSpaceOnUse" x1="-1104.3467" y1="1066.8859" x2="-1051.1353" y2="1066.8859" gradientTransform="matrix(-0.897 -0.4419 -0.4419 0.897 -392.126 -1146.1832)">
		<stop  offset="0" style="stop-color:#141415"/>
		<stop  offset="4.335745e-02" style="stop-color:#4B4A4D"/>
		<stop  offset="9.642448e-02" style="stop-color:#6A6B6D"/>
		<stop  offset="0.1452" style="stop-color:#808083"/>
		<stop  offset="0.1877" style="stop-color:#8D8E90"/>
		<stop  offset="0.2191" style="stop-color:#919295"/>
		<stop  offset="0.3525" style="stop-color:#757678"/>
		<stop  offset="0.5158" style="stop-color:#575759"/>
		<stop  offset="0.6659" style="stop-color:#3E3D3F"/>
		<stop  offset="0.7966" style="stop-color:#232223"/>
		<stop  offset="0.8933" style="stop-color:#141415"/>
		<stop  offset="1" style="stop-color:#797A7C"/>
	</linearGradient>
	<path class="st4" d="M55,323.9c0-0.1,0.1-0.3,0.2-0.4c2.6-3.9,15.2-1.5,28,5.3c12.7,6.7,21.3,15.4,19.4,19.6l41.4-92.9
		c0.9-2-3.5-10.7-12-15.7c-8.6-5.1-18.5-4.8-19.7-2.9l0,0L55,323.9L55,323.9z"/>
</g>
<g>
	
		<linearGradient id="SVGID_6_" gradientUnits="userSpaceOnUse" x1="-1100.4296" y1="1009.2285" x2="-1063.9755" y2="1009.2285" gradientTransform="matrix(-0.897 -0.4419 -0.4419 0.897 -392.126 -1146.1832)">
		<stop  offset="0" style="stop-color:#B3B4B6"/>
		<stop  offset="5.332380e-02" style="stop-color:#CCCCCE"/>
		<stop  offset="0.119" style="stop-color:#E5E6E7"/>
		<stop  offset="0.1765" style="stop-color:#F6F6F7"/>
		<stop  offset="0.2191" style="stop-color:#FFFFFF"/>
		<stop  offset="0.3147" style="stop-color:#DDDEDF"/>
		<stop  offset="0.4504" style="stop-color:#BABBBD"/>
		<stop  offset="0.5751" style="stop-color:#A2A3A6"/>
		<stop  offset="0.6837" style="stop-color:#949698"/>
		<stop  offset="0.764" style="stop-color:#909193"/>
		<stop  offset="0.822" style="stop-color:#939497"/>
		<stop  offset="0.885" style="stop-color:#9E9FA1"/>
		<stop  offset="0.9499" style="stop-color:#B0B1B3"/>
		<stop  offset="1" style="stop-color:#C3C3C5"/>
	</linearGradient>
	<path class="st5" d="M112.2,237.1c0-0.1,0-0.1,0.1-0.2c1.2-1.9,11.1-2.2,19.7,2.9c8.6,5,12.9,13.7,12,15.7l5.8-12.9
		c0.8-1.8-3.2-10-11.2-14.8c-8.1-4.8-17.3-4.5-18.4-2.8l0,0L112.2,237.1L112.2,237.1z"/>
</g>
<linearGradient id="SVGID_7_" gradientUnits="userSpaceOnUse" x1="52.2014" y1="439.0107" x2="287.3039" y2="439.0107" gradientTransform="matrix(1 0 0 -1 0 564.5714)">
	<stop  offset="0" style="stop-color:#D2D3D4"/>
	<stop  offset="7.432439e-02" style="stop-color:#E5E6E7"/>
	<stop  offset="0.1574" style="stop-color:#F6F6F7"/>
	<stop  offset="0.2191" style="stop-color:#FFFFFF"/>
	<stop  offset="0.4251" style="stop-color:#EEEEEF"/>
	<stop  offset="0.7552" style="stop-color:#DEDEDF"/>
	<stop  offset="1" style="stop-color:#D8D9DA"/>
</linearGradient>
<path class="st6" d="M198.4,222.6c-49.5,13.5-98.6-1.5-122.7-34.1c-9.7-9.9-16.9-22-20.7-35.7C41,101.4,80.9,45.9,144,28.7
	s125.6,10.5,139.6,61.9c1.8,6.7,2.7,13.5,2.8,20.3C293.7,158.1,256.1,206.9,198.4,222.6z M278.9,111.8c-0.1-6.3-0.9-12.7-2.6-19
	c-13.1-48-71.6-74-130.6-57.9C86.6,51,49.4,103,62.4,151c3.5,12.8,10.2,24.1,19.3,33.4c22.6,30.5,68.5,44.5,114.8,31.9
	C250.5,201.6,285.7,156,278.9,111.8z"/>
<g>
	
		<image style="overflow:visible;enable-background:new    ;" width="175" height="172" xlink:href="447F0BDD.png"  transform="matrix(1 0 0 1 0 233.1744)">
	</image>
</g>
<g>
	<polygon class="st7" points="258,141 90.2,141 104.2,127.7 249.4,127.7 	"/>
	<polygon class="st8" points="93.9,140 106.6,129 247.7,129.5 253.2,139.5 	"/>
	<path class="st9" d="M104.9,130.6c7.1,0,143.4-0.1,143.4-0.1"/>
	<line class="st9" x1="102.1" y1="132.8" x2="249.4" y2="132.7"/>
	<line class="st9" x1="98.8" y1="135.1" x2="250.9" y2="135"/>
	<line class="st9" x1="96.6" y1="137.5" x2="251.9" y2="137.4"/>
</g>
<g>
	<path class="st10" d="M233.8,95.2c2.5-0.6,2.7-4.5,0.5-6.8s-4.8-2.3-6.4-0.7c-1.5,1.6-0.4,4.4,0.9,5.7
		C230.2,94.6,232.4,95.5,233.8,95.2z"/>
	<path class="st11" d="M231.7,94.4c1.4-0.3,1.5-2.5,0.3-3.8s-2.8-1.3-3.6-0.4c-0.9,0.9-0.2,2.5,0.5,3.2
		C229.6,94,230.9,94.6,231.7,94.4z"/>
	<path class="st10" d="M207,91.1c-1.6-1.3-0.4-4.6,1.9-5.7s4.2-0.2,4.8,1.6c0.6,1.8-1.2,3.8-2.5,4.3C209.8,91.8,207.9,91.8,207,91.1
		z"/>
	<path class="st11" d="M208.9,90.4c-0.9-0.7-0.3-2.3,1-2.8s2.4-0.1,2.7,0.8c0.3,0.9-0.6,1.9-1.4,2.1
		C210.5,90.8,209.4,90.8,208.9,90.4z"/>
	<path class="st10" d="M251.8,110.1c-0.7-4-6.6-5.6-13.1-3.5s-14.1,7.5-21.9,5.2s-13.9-6.2-18.3-7.9c-4.4-1.7-8.1,0-7.8,3.5
		c0.2,3.5,10,9.3,15.3,11.9c-0.3,3.6,1.1,5.5,0.8,7c-0.4,1.5-3.4,1.9-5.1,0.9c-1.6-1-4.1-2.7-5.3-0.6c-1.2,2.1,0.5,9.6,5.1,12.4
		c4.5,2.7,11.5-0.3,15.1-1.4c3.6-1.1,3.9-3.2,6.2-2.5c2.3,0.6,8.9,4.7,12.4,5.2s8.6-5,9.9-9.5c1.2-4.4-4.4-5-8.6-3.5
		c0.9-1.4-0.6-6.5-2.2-7.4C237.9,117.2,252.8,115.5,251.8,110.1z"/>
	<path class="st11" d="M238.6,106.6C238.7,106.6,238.7,106.6,238.6,106.6c6.6-2.1,12.4-0.5,13.2,3.5c0.7,3.6-5.6,5.5-11,7.2
		C237.9,114.4,236.6,110.2,238.6,106.6z"/>
	<g>
		<g>
			<g>
				<path class="st11" d="M234.1,137.2c0.4-2.6,6.5-9.2,9-10.3l0,0c1.6,0.6,2.5,1.8,1.9,3.8c-1.2,4.4-6.4,10-9.9,9.5
					c-0.1,0-0.2,0-0.4-0.1C234.3,139.3,234,138.2,234.1,137.2z"/>
			</g>
			<g>
				<path class="st11" d="M196.5,126.6c0.3-0.6,0.8-0.9,1.3-0.9c1.5,1,3.3,3.9,4.5,6.5c1.3,2.9,1.9,5.8,1.7,7.7
					c-0.9-0.2-1.7-0.5-2.4-0.9C197,136.2,195.3,128.6,196.5,126.6z"/>
			</g>
		</g>
	</g>
	<path class="st11" d="M198.6,103.9c1.1,0.4,2.3,1,3.7,1.6c1,4.4,0.3,8.1-2.1,10.5c-4.6-2.8-9.2-6.3-9.3-8.6
		C190.5,103.9,194.2,102.2,198.6,103.9z"/>
	
		<ellipse transform="matrix(0.1429 -0.9897 0.9897 0.1429 82.9682 307.9444)" class="st12" cx="219.3" cy="106.1" rx="9.4" ry="12.3"/>
	
		<ellipse transform="matrix(0.1429 -0.9897 0.9897 0.1429 89.0662 303.189)" class="st10" cx="219.6" cy="100.2" rx="13.1" ry="15.8"/>
	<ellipse transform="matrix(0.1429 -0.9897 0.9897 0.1429 84.0836 306.4505)" class="st11" cx="219" cy="104.7" rx="8.2" ry="9.9"/>
	<path class="st12" d="M222.9,111.8c-2.3,1-4.4-2.6-4.4-3.6c-0.4-0.4-1.1-0.1-1.1-0.1c-0.6,1.6-1.3,2.5-3.8,2.6
		c1.6,0.5,3.9-0.1,4.4-1.3C218.1,111.6,221.3,112.8,222.9,111.8z"/>
	<path d="M221.4,106.7c0.2-1.1-1.1-2.2-2.8-2.5c-1.7-0.2-3.2,0.5-3.4,1.6c-0.2,1.1,2.9,3.4,2.9,3.4S221.3,107.8,221.4,106.7z"/>
	<ellipse transform="matrix(0.9943 -0.1069 0.1069 0.9943 -9.0715 23.3738)" class="st12" cx="213.5" cy="96.3" rx="1.9" ry="1.6"/>
	<ellipse transform="matrix(0.1428 -0.9898 0.9898 0.1428 96.5376 307.9153)" class="st12" cx="226" cy="98.2" rx="1.5" ry="1.9"/>
	<ellipse transform="matrix(0.143 -0.9897 0.9897 0.143 96.5061 307.8659)" cx="226" cy="98.2" rx="1.2" ry="1.3"/>
	<ellipse transform="matrix(0.143 -0.9897 0.9897 0.143 87.6317 293.7351)" cx="213.4" cy="96.3" rx="1.2" ry="1.3"/>
	<path class="st11" d="M221.2,117.3c-7.3-0.5-8.7,5.9-8.7,8.5c0,2.5,4.3,6.8,11.2,5.3c5.5-1.2,7.3-5.3,5.5-8.7
		C227.6,119,224.9,117.6,221.2,117.3z"/>
	<ellipse transform="matrix(0.143 -0.9897 0.9897 0.143 64.1648 329.0461)" class="st12" cx="222.1" cy="127.5" rx="1.2" ry="1.3"/>
</g>
<g class="st13">
	<g>
		<path class="st14" d="M70,160.2c0.2,0.6,0.3,1.1,0.5,1.7c3.1-0.6,4-1.7,4-1.7c3,7.5,6,4.1,10.5,2.6s5.1-1,8.4,2.3
			s8.5,3.7,12.6,1.1c3,4.9,7.5,2.3,10.9,1.1c3.4-1.1,8.6-1.1,11.3,0c2.6,1.1,7.5-1.5,7.9-6.4c4.9-1.9,6.4-2.3,6.4-9.8
			c0-6.7-2.4-84-2.9-99.9C88.8,70.1,58.2,116.8,70,160.2z"/>
	</g>
	<g>
		<path class="st15" d="M133.5,53.7L136,161c2-0.8,3.4-1.3,4.4-2.2l-4-106.3C135.4,52.9,134.4,53.3,133.5,53.7z"/>
		<path class="st15" d="M112.1,65.4l-2.2,103.7c2.3,0.3,4.8-1,6.9-1.7c3.4-1.1,8.6-1.1,11.3,0c0.8,0.4,1.9,0.3,3,0L128.6,56
			C122.7,58.7,117.2,61.9,112.1,65.4z"/>
		<path class="st15" d="M96.5,78.1l-2.8,87.5c3,2.7,7.3,3.1,11.1,1.3l0.3-96.4C102.1,72.9,99.2,75.4,96.5,78.1z"/>
		<path class="st15" d="M80.3,98.1L77,164.3c2.2,1.7,4.6-0.2,7.8-1.3l1.5-73.4C84.1,92.3,82.1,95.2,80.3,98.1z"/>
		<path class="st15" d="M70,160.2c0.2,0.6,0.3,1.1,0.5,1.7c0.3-0.1,0.5-0.1,0.8-0.2l1-47C66.9,129.5,65.8,145.1,70,160.2z"/>
	</g>
</g>
<g>
	<path class="st16" d="M165.4,64.6c-1.5-2.5-3.2-6.2-8.3-5.6c-5.1,0.6-5.6,4.1-5,5.8c0.6,1.7,1.6,4.3,3.5,5.1
		c1.9,0.8,6.8,1.6,6.8,1.6L165.4,64.6z"/>
	<path class="st16" d="M182.6,66.5c1.2-2,6.4-3.9,8-4.2c1.6-0.3,5.9-1.4,6.8,2.5s-0.2,5.5-1.3,6.3c-1.1,0.8-7.6,2.3-9.2,2.2
		C185.4,73.2,181.4,68.5,182.6,66.5z"/>
	<g>
		<path class="st16" d="M148.2,123.7c0-0.1-0.1-0.1-0.1-0.2c-1.5,0.9-3,1.6-3.6,1.1c-1.4-1.2-2.9-2.4-3.7-3
			c-1.6-1.3-6.2-1.2-7.4,3.4c-1.2,4.5,2.5,15.4,6.3,16.7c3,1,9.2-1.5,13.6-3.6C158.4,135.2,152.1,122.3,148.2,123.7z"/>
		<g>
			<path class="st17" d="M145,137.1c-1.4-1.4-2.6-4.4-2.3-8.8c0.3-3.5-0.7-6.3-2.7-7.2c-2-0.8-5.6-0.1-6.6,3.8
				c-1,3.7,1.3,11.8,4.3,15.2c1,0.8,1.9,1.4,2.6,1.5C144.5,142.5,146.5,138.6,145,137.1z"/>
		</g>
		<path class="st16" d="M155.4,95.7c-2.4-1.3-4.3-3-5.2-4.5c-1.9-3.2-4.8-1.7-5.6-0.9c-0.8,0.8-3.2,3.3-2.7,5.8
			c1.2,6.3,4.7,9.2,7.8,11C150.1,105.4,152.2,98.9,155.4,95.7z"/>
		<path class="st16" d="M178,139.5c1.3,1.3,3.6,2.8,7.5,4.1c7.8,2.7,12.4-5.6,13.5-9.1c1-3.5,2.8-8.3-0.9-10.8
			c-3.8-2.5-6.6-0.3-8.5-0.3c-0.3,0-0.5-0.1-0.7-0.4c-0.1,0-0.1,0-0.2,0C184.6,122.2,177.6,134.1,178,139.5z"/>
		<g>
			<path class="st17" d="M199,134.5c1-3.5,2.8-8.3-0.9-10.8c-0.4-0.2-0.7-0.4-1.1-0.6c0,0,0,0-0.1,0c-4.1-0.3-6.1,2.5-6.3,5.1
				c-0.6,8.9-7,9.6-5.7,13c0.5,1.3,1.5,2.3,2.8,2.9C194.1,144.7,198,137.7,199,134.5z"/>
		</g>
		<path class="st16" d="M199.7,106.2c2.4-3.4,5-10.5,5.8-14.9s-0.4-5.7-3.1-6.7s-4.3,0.3-4.8,0.9s-1.3,3-2.5,5.4
			c-1,2.1-1.8,3.6-3.6,4.9l0,0c-2.3,5-2.5,9.4,2.2,15.3c0.2-0.2,1.2-0.9,1.2-0.9C196.3,109.6,198.8,107.5,199.7,106.2z"/>
		<g>
			<path class="st17" d="M152.8,94L152.8,94c-1.2-1-2.1-1.9-2.6-2.8c-1.9-3.2-4.8-1.7-5.6-0.9c-0.8,0.8-3.2,3.3-2.7,5.8
				c0.6,3.5,2,5.9,3.6,7.7C143.7,98.8,148.1,92.1,152.8,94z"/>
			<path class="st17" d="M202.4,84.6c-2.7-1-4.3,0.3-4.8,0.9s-1.3,3-2.5,5.4c-0.1,0.2-0.2,0.3-0.2,0.5c2.2,3.6,6,4.4,9.5,4.4
				c0.5-1.6,0.9-3.2,1.1-4.5C206.3,86.9,205.2,85.6,202.4,84.6z"/>
		</g>
		<path class="st18" d="M191.5,95.9C191.5,95.9,191.5,95.8,191.5,95.9c-0.4,0.2-0.7,0.4-1.2,0.7c-2.7,1.4-5.8,0.8-7,0.6
			c-4.8-0.5-11.1,0.8-17.9,1c-3.6,0.1-7.2-1-10.1-2.5c-3.2,3.2-5.3,9.7-5.7,11.5c0,0,0,0.6,0.1,1.7c1,1.2,3.4,2.7,6.1,3.2
			c-2.3,3.8-3.5,3.9-3.7,8.9c-0.2-0.1-2.2,1.4-4.1,2.6c0,0.1,0.1,0.1,0.1,0.2c3.9-1.4,7.3,12.2,5.2,14.3c1.3-0.6,2.4-1.2,3.3-1.6
			c1.2,1.2,5.4,1.7,8.2,1.8s7,0.9,11-1.8c0.9,2,2.3,3.1,3.6,4.3c-0.4-5.4,6.3-18,10-17.3c0.1,0-0.8-0.4-0.7-0.4
			c-1.6-1.8-2.2-4.3-2.4-7.8c3-0.7,5.9-1.1,8.3-3.1l0.3-1.9c0,0-1,0.7-1.2,0.9C189,105.3,189.2,100.9,191.5,95.9z"/>
	</g>
	<g>
		<path class="st16" d="M155.8,63.4c0.7-1,5.3-1.1,6.7,4.2C159.6,70.1,154.2,65.6,155.8,63.4z"/>
		<path class="st19" d="M155.8,63.5c0.7-1,5.3-1,6.6,4.1C159.6,70,154.3,65.6,155.8,63.5z"/>
		<path class="st20" d="M155.9,63.5c0.7-1,5.3-1,6.6,4.1C159.7,70,154.3,65.6,155.9,63.5z"/>
		<path class="st21" d="M155.9,63.5c0.7-1,5.3-0.9,6.5,4.1C159.7,69.9,154.3,65.6,155.9,63.5z"/>
		<path class="st22" d="M155.9,63.6c0.7-1,5.2-0.8,6.5,4C159.8,69.8,154.4,65.6,155.9,63.6z"/>
		<path class="st23" d="M155.9,63.6c0.7-1,5.2-0.7,6.4,4C159.9,69.8,154.4,65.6,155.9,63.6z"/>
		<path class="st24" d="M155.9,63.6c0.7-1,5.2-0.6,6.4,4C159.9,69.7,154.5,65.6,155.9,63.6z"/>
		<path class="st25" d="M156,63.7c0.7-1,5.2-0.6,6.3,3.9C160,69.7,154.5,65.5,156,63.7z"/>
		<path class="st26" d="M156,63.7c0.7-1,5.2-0.5,6.3,3.9C160,69.6,154.6,65.5,156,63.7z"/>
		<path class="st27" d="M156,63.7c0.7-1,5.2-0.4,6.2,3.8C160.1,69.6,154.6,65.5,156,63.7z"/>
		<path class="st28" d="M156,63.7c0.8-1,5.2-0.3,6.2,3.8C160.2,69.5,154.7,65.5,156,63.7z"/>
		<path class="st29" d="M156.1,63.8c0.8-1,5.2-0.3,6.1,3.8C160.2,69.5,154.7,65.5,156.1,63.8z"/>
		<path class="st30" d="M156.1,63.8c0.8-1,5.2-0.2,6.1,3.7C160.3,69.4,154.8,65.5,156.1,63.8z"/>
		<path class="st31" d="M156.1,63.8c0.8-1,5.2-0.1,6,3.7C160.4,69.3,154.8,65.5,156.1,63.8z"/>
		<path class="st32" d="M156.1,63.9c0.8-1,5.2,0,6,3.7C160.4,69.3,154.9,65.5,156.1,63.9z"/>
		<path class="st33" d="M156.2,63.9c0.8-1,5.1,0,5.9,3.6C160.5,69.2,154.9,65.5,156.2,63.9z"/>
		<path class="st34" d="M156.2,63.9c0.8-1,5.1,0.1,5.9,3.6C160.5,69.2,155,65.4,156.2,63.9z"/>
		<path class="st35" d="M156.2,64c0.8-1,5.1,0.2,5.8,3.5C160.6,69.1,155,65.4,156.2,64z"/>
		<path class="st36" d="M156.2,64c0.8-1,5.1,0.3,5.8,3.5C160.7,69.1,155,65.4,156.2,64z"/>
		<path class="st37" d="M156.3,64c0.8-1,5.1,0.3,5.7,3.5C160.7,69,155.1,65.4,156.3,64z"/>
		<path class="st38" d="M156.3,64.1c0.8-1,5.1,0.4,5.7,3.4C160.8,68.9,155.1,65.4,156.3,64.1z"/>
		<path class="st39" d="M156.3,64.1c0.8-1,5.1,0.5,5.6,3.4C160.8,68.9,155.2,65.4,156.3,64.1z"/>
		<path class="st40" d="M156.3,64.1c0.8-1,5.1,0.6,5.6,3.4C160.9,68.8,155.2,65.4,156.3,64.1z"/>
		<path class="st41" d="M156.4,64.2c0.8-1,5.1,0.6,5.5,3.3C161,68.8,155.3,65.4,156.4,64.2z"/>
		<path class="st42" d="M156.4,64.2c0.8-1,5.1,0.7,5.4,3.3C161,68.7,155.3,65.4,156.4,64.2z"/>
		<path class="st43" d="M156.4,64.2c0.9-1,5.1,0.8,5.4,3.2C161.1,68.7,155.4,65.3,156.4,64.2z"/>
		<path class="st44" d="M156.4,64.3c0.9-1,5,0.9,5.3,3.2C161.2,68.6,155.4,65.3,156.4,64.3z"/>
		<path class="st45" d="M156.5,64.3c0.9-1,5,1,5.3,3.2C161.2,68.6,155.5,65.3,156.5,64.3z"/>
		<path class="st46" d="M156.5,64.3c0.9-0.9,5,1,5.2,3.1C161.3,68.5,155.5,65.3,156.5,64.3z"/>
		<path class="st47" d="M156.5,64.3c0.9-0.9,5,1.1,5.2,3.1C161.3,68.4,155.6,65.3,156.5,64.3z"/>
		<path class="st48" d="M156.5,64.4c0.9-0.9,5,1.2,5.1,3.1C161.4,68.4,155.6,65.3,156.5,64.4z"/>
		<path class="st49" d="M156.6,64.4c0.9-0.9,5,1.3,5.1,3C161.5,68.3,155.7,65.3,156.6,64.4z"/>
		<path class="st50" d="M156.6,64.4c0.9-0.9,5,1.3,5,3C161.5,68.3,155.8,65.3,156.6,64.4z"/>
		<path class="st51" d="M156.6,64.5c0.9-0.9,5,1.4,5,3C161.6,68.2,155.8,65.3,156.6,64.5z"/>
	</g>
	<g>
		<path class="st16" d="M184.9,69.9c0.4-2.6,8.6-5.4,9.9-2.8C196.1,69.6,184.6,71.6,184.9,69.9z"/>
		<path class="st19" d="M184.9,69.9c0.4-2.5,8.5-5.3,9.8-2.8C196,69.6,184.7,71.5,184.9,69.9z"/>
		<path class="st20" d="M185,69.8c0.4-2.5,8.4-5.2,9.7-2.7C195.9,69.6,184.8,71.5,185,69.8z"/>
		<path class="st21" d="M185,69.8c0.4-2.4,8.3-5.1,9.5-2.7C195.8,69.5,184.8,71.4,185,69.8z"/>
		<path class="st22" d="M185.1,69.8c0.3-2.4,8.2-5,9.4-2.7C195.8,69.5,184.9,71.4,185.1,69.8z"/>
		<path class="st23" d="M185.2,69.8c0.3-2.3,8.1-4.9,9.3-2.6C195.7,69.4,184.9,71.3,185.2,69.8z"/>
		<path class="st24" d="M185.2,69.7c0.3-2.3,8-4.8,9.2-2.6C195.6,69.4,185,71.2,185.2,69.7z"/>
		<path class="st25" d="M185.3,69.7c0.3-2.2,7.9-4.7,9.1-2.5S185.1,71.2,185.3,69.7z"/>
		<path class="st26" d="M185.3,69.7c0.3-2.2,7.8-4.6,9-2.5S185.1,71.1,185.3,69.7z"/>
		<path class="st27" d="M185.4,69.7c0.3-2.1,7.7-4.6,8.8-2.5C195.4,69.3,185.2,71.1,185.4,69.7z"/>
		<path class="st28" d="M185.5,69.6c0.3-2.1,7.6-4.5,8.7-2.4C195.4,69.2,185.3,71,185.5,69.6z"/>
		<path class="st29" d="M185.5,69.6c0.3-2,7.4-4.4,8.6-2.4C195.3,69.2,185.3,71,185.5,69.6z"/>
		<path class="st30" d="M185.6,69.6c0.3-2,7.3-4.3,8.5-2.4C195.2,69.2,185.4,70.9,185.6,69.6z"/>
		<path class="st31" d="M185.6,69.6c0.3-1.9,7.2-4.2,8.4-2.3C195.1,69.1,185.5,70.8,185.6,69.6z"/>
		<path class="st32" d="M185.7,69.6c0.3-1.9,7.1-4.1,8.3-2.3C195.1,69.1,185.5,70.8,185.7,69.6z"/>
		<path class="st33" d="M185.8,69.5c0.3-1.8,7-4,8.1-2.2C195,69,185.6,70.7,185.8,69.5z"/>
		<path class="st34" d="M185.8,69.5c0.3-1.8,6.9-3.9,8-2.2C194.9,69,185.6,70.7,185.8,69.5z"/>
		<path class="st35" d="M185.9,69.5c0.3-1.7,6.8-3.8,7.9-2.2C194.9,69,185.7,70.6,185.9,69.5z"/>
		<path class="st36" d="M185.9,69.5c0.2-1.6,6.7-3.7,7.8-2.1C194.8,68.9,185.8,70.5,185.9,69.5z"/>
		<path class="st37" d="M186,69.4c0.2-1.6,6.6-3.6,7.7-2.1C194.7,68.9,185.8,70.5,186,69.4z"/>
		<path class="st38" d="M186.1,69.4c0.2-1.5,6.5-3.5,7.5-2C194.6,68.8,185.9,70.4,186.1,69.4z"/>
		<path class="st39" d="M186.1,69.4c0.2-1.5,6.4-3.4,7.4-2C194.6,68.8,186,70.4,186.1,69.4z"/>
		<path class="st40" d="M186.2,69.4c0.2-1.4,6.3-3.3,7.3-2C194.5,68.8,186,70.3,186.2,69.4z"/>
		<path class="st41" d="M186.2,69.3c0.2-1.4,6.2-3.2,7.2-1.9C194.4,68.7,186.1,70.3,186.2,69.3z"/>
		<path class="st42" d="M186.3,69.3c0.2-1.3,6.1-3.1,7.1-1.9C194.4,68.7,186.2,70.2,186.3,69.3z"/>
		<path class="st43" d="M186.4,69.3c0.2-1.3,6-3,7-1.8C194.3,68.6,186.2,70.1,186.4,69.3z"/>
		<path class="st44" d="M186.4,69.3c0.2-1.2,5.9-2.9,6.8-1.8S186.3,70.1,186.4,69.3z"/>
		<path class="st45" d="M186.5,69.2c0.2-1.2,5.8-2.8,6.7-1.8C194.2,68.6,186.3,70,186.5,69.2z"/>
		<path class="st46" d="M186.5,69.2c0.2-1.1,5.7-2.7,6.6-1.7C194.1,68.5,186.4,70,186.5,69.2z"/>
		<path class="st47" d="M186.6,69.2c0.2-1.1,5.6-2.6,6.5-1.7C194,68.5,186.5,69.9,186.6,69.2z"/>
		<path class="st48" d="M186.7,69.2c0.2-1,5.5-2.6,6.4-1.6C193.9,68.4,186.5,69.8,186.7,69.2z"/>
		<path class="st49" d="M186.7,69.2c0.2-1,5.4-2.5,6.3-1.6C193.9,68.4,186.6,69.8,186.7,69.2z"/>
		<path class="st50" d="M186.8,69.1c0.2-0.9,5.2-2.4,6.1-1.6C193.8,68.4,186.7,69.7,186.8,69.1z"/>
		<path class="st51" d="M186.8,69.1c0.1-0.9,5.1-2.3,6-1.5C193.7,68.3,186.7,69.7,186.8,69.1z"/>
	</g>
	
		<linearGradient id="SVGID_8_" gradientUnits="userSpaceOnUse" x1="171.1306" y1="501.8441" x2="173.9447" y2="465.8538" gradientTransform="matrix(1 0 0 -1 0 564.5714)">
		<stop  offset="0.882" style="stop-color:#D38552"/>
		<stop  offset="0.949" style="stop-color:#BD743F"/>
		<stop  offset="1" style="stop-color:#B26B36"/>
	</linearGradient>
	<path class="st52" d="M162.8,65.2c1.4-1.4,6.4-3.3,11.9-3.2c6.9,0.1,13.6,4.2,14.2,5.3c0.6,1.1,2.2,3,2,9.3s-2.8,15.5-4,17.7
		c-1.2,2.2-9.7,9.9-20.8,8.4c-8.3-1.1-11.5-7.6-11.4-8.9s0-4.2,1.7-7.7s2.3-7.1,1.9-9.4s0-5.5,0.9-7
		C160.1,68.2,162.2,65.8,162.8,65.2z"/>
	<g>
		<path class="st16" d="M174.2,88.1c1.1,1.5,3.7,0.9,5,0.2c0.7-0.4,1.8-1.4,2.2-2.7c0.5-1.3,0.3-2.7-1.7-3.8c-2.2-1.2-4.5,1.3-5,2.2
			C174.1,84.8,173.4,87,174.2,88.1z"/>
		<path class="st19" d="M174.7,84c-0.4,0.6-0.9,1.8-0.8,2.8c0,0.5,0.1,0.9,0.4,1.2c1.1,1.5,3.6,0.9,4.9,0.2c0.3-0.1,0.6-0.4,1-0.7
			c0.3-0.3,0.6-0.6,0.8-1c0.2-0.3,0.4-0.6,0.5-0.9c0.4-1.2,0.3-2.7-1.7-3.8c-0.6-0.3-1.2-0.4-1.7-0.3c-0.7,0.1-1.3,0.5-1.8,0.9
			C175.5,83,174.9,83.6,174.7,84z"/>
		<path class="st20" d="M174.7,84c-0.4,0.6-0.8,1.8-0.8,2.8c0,0.5,0.1,0.9,0.3,1.2c1.1,1.5,3.5,0.9,4.8,0.2c0.3-0.1,0.6-0.4,1-0.7
			c0.3-0.3,0.6-0.6,0.8-1c0.2-0.3,0.3-0.6,0.5-0.9c0.4-1.2,0.2-2.6-1.6-3.7c-0.6-0.3-1.1-0.4-1.7-0.3c-0.7,0.1-1.3,0.5-1.8,0.9
			C175.5,83.1,175,83.7,174.7,84z"/>
		<path class="st21" d="M174.7,84.1c-0.4,0.6-0.8,1.7-0.8,2.7c0,0.5,0.1,0.9,0.3,1.2c1.1,1.5,3.4,0.9,4.7,0.3c0.3-0.1,0.6-0.4,1-0.7
			c0.3-0.3,0.6-0.6,0.8-1c0.2-0.3,0.4-0.6,0.5-0.9c0.4-1.2,0.2-2.6-1.6-3.6c-0.6-0.3-1.1-0.4-1.7-0.3c-0.7,0.1-1.3,0.5-1.8,0.9
			C175.5,83.2,175,83.8,174.7,84.1z"/>
		<path class="st22" d="M174.7,84.2c-0.4,0.6-0.8,1.7-0.8,2.7c0,0.4,0.1,0.9,0.3,1.2c1,1.4,3.4,0.9,4.6,0.3c0.3-0.1,0.6-0.4,1-0.7
			c0.3-0.3,0.6-0.6,0.8-1c0.2-0.3,0.4-0.6,0.5-0.9c0.4-1.2,0.2-2.5-1.6-3.5c-0.6-0.3-1.1-0.4-1.7-0.3s-1.3,0.5-1.8,0.9
			C175.5,83.2,175,83.8,174.7,84.2z"/>
		<path class="st23" d="M174.8,84.2c-0.4,0.6-0.8,1.7-0.8,2.6c0,0.4,0.1,0.8,0.3,1.2c1,1.4,3.3,0.9,4.5,0.3c0.3-0.1,0.6-0.4,1-0.7
			c0.3-0.3,0.6-0.6,0.8-1c0.2-0.3,0.3-0.6,0.5-0.9c0.4-1.2,0.2-2.5-1.5-3.5c-0.5-0.3-1.1-0.4-1.6-0.3c-0.6,0.1-1.2,0.5-1.7,0.8
			C175.5,83.3,175,83.9,174.8,84.2z"/>
		<path class="st24" d="M174.8,84.3c-0.4,0.6-0.8,1.7-0.8,2.6c0,0.4,0.1,0.8,0.3,1.1c1,1.4,3.2,0.9,4.4,0.3c0.3-0.1,0.6-0.4,1-0.7
			c0.3-0.3,0.6-0.6,0.8-1c0.2-0.3,0.3-0.6,0.5-0.9c0.4-1.1,0.2-2.4-1.5-3.4c-0.5-0.3-1.1-0.4-1.6-0.3c-0.6,0.1-1.2,0.4-1.7,0.8
			C175.5,83.4,175,84,174.8,84.3z"/>
		<path class="st25" d="M174.8,84.4c-0.4,0.5-0.8,1.6-0.8,2.5c0,0.4,0.1,0.8,0.3,1.1c1,1.4,3.1,0.9,4.4,0.3c0.3-0.1,0.6-0.4,1-0.7
			c0.3-0.3,0.6-0.6,0.8-1c0.2-0.3,0.3-0.6,0.5-0.9c0.4-1.1,0.2-2.4-1.5-3.3c-0.5-0.3-1.1-0.4-1.6-0.3c-0.6,0.1-1.2,0.4-1.7,0.8
			C175.5,83.5,175,84,174.8,84.4z"/>
		<path class="st26" d="M174.8,84.4c-0.4,0.5-0.8,1.6-0.8,2.5c0,0.4,0.1,0.8,0.3,1.1c0.9,1.3,3.1,0.9,4.3,0.3c0.3-0.1,0.6-0.4,1-0.7
			c0.3-0.3,0.6-0.6,0.8-0.9c0.2-0.3,0.3-0.6,0.5-0.9c0.4-1.1,0.2-2.3-1.5-3.3c-0.5-0.3-1.1-0.4-1.6-0.3c-0.6,0.1-1.2,0.4-1.7,0.8
			C175.5,83.5,175,84.1,174.8,84.4z"/>
		<path class="st27" d="M174.8,84.5c-0.4,0.5-0.8,1.6-0.8,2.4c0,0.4,0.1,0.8,0.3,1.1c0.9,1.3,3,0.9,4.2,0.3c0.3-0.1,0.6-0.4,1-0.7
			c0.3-0.3,0.6-0.6,0.8-0.9c0.2-0.3,0.3-0.6,0.5-0.9c0.3-1.1,0.2-2.3-1.4-3.2c-0.5-0.3-1-0.4-1.5-0.3c-0.6,0.1-1.2,0.4-1.7,0.8
			C175.5,83.6,175,84.2,174.8,84.5z"/>
		<path class="st28" d="M174.8,84.6c-0.4,0.5-0.8,1.5-0.7,2.4c0,0.4,0.1,0.8,0.3,1.1c0.9,1.3,2.9,0.9,4.1,0.4c0.3-0.1,0.6-0.3,1-0.6
			c0.3-0.3,0.6-0.6,0.8-0.9c0.2-0.3,0.3-0.6,0.4-0.9c0.3-1,0.2-2.2-1.4-3.1c-0.5-0.3-1-0.4-1.5-0.3c-0.6,0.1-1.2,0.4-1.6,0.8
			C175.5,83.7,175,84.2,174.8,84.6z"/>
		<path class="st29" d="M174.8,84.6c-0.4,0.5-0.7,1.5-0.7,2.3c0,0.4,0.1,0.8,0.3,1c0.9,1.3,2.8,0.9,4,0.4c0.3-0.1,0.6-0.3,1-0.6
			c0.3-0.3,0.6-0.6,0.8-0.9c0.2-0.3,0.3-0.6,0.4-0.9c0.3-1,0.2-2.1-1.4-3c-0.5-0.3-1-0.4-1.5-0.3c-0.6,0.1-1.1,0.4-1.6,0.8
			C175.5,83.8,175.1,84.3,174.8,84.6z"/>
		<path class="st30" d="M174.8,84.7c-0.4,0.5-0.7,1.5-0.7,2.3c0,0.4,0.1,0.7,0.3,1c0.8,1.3,2.8,0.9,3.9,0.4c0.3-0.1,0.6-0.3,1-0.6
			c0.3-0.3,0.6-0.6,0.8-0.9c0.2-0.3,0.3-0.6,0.4-0.9c0.3-1,0.2-2.1-1.3-3c-0.5-0.3-1-0.4-1.5-0.3c-0.6,0.1-1.1,0.4-1.6,0.7
			C175.5,83.8,175.1,84.4,174.8,84.7z"/>
		<path class="st31" d="M174.9,84.7c-0.4,0.5-0.7,1.4-0.7,2.3c0,0.4,0.1,0.7,0.3,1c0.8,1.2,2.7,0.9,3.8,0.4c0.3-0.1,0.6-0.3,1-0.6
			c0.3-0.3,0.6-0.6,0.8-0.9c0.2-0.3,0.3-0.6,0.4-0.9c0.3-1,0.1-2-1.3-2.9c-0.5-0.3-1-0.4-1.5-0.3c-0.6,0.1-1.1,0.4-1.6,0.7
			C175.5,83.9,175.1,84.4,174.9,84.7z"/>
		<path class="st32" d="M174.9,84.8c-0.4,0.5-0.7,1.4-0.7,2.2c0,0.4,0.1,0.7,0.2,1c0.8,1.2,2.6,0.9,3.7,0.4c0.3-0.1,0.6-0.3,1-0.6
			c0.3-0.3,0.6-0.6,0.8-0.9c0.2-0.3,0.3-0.6,0.4-0.9c0.3-1,0.1-2-1.3-2.8c-0.5-0.3-1-0.4-1.4-0.3c-0.6,0.1-1.1,0.4-1.6,0.7
			C175.5,84,175.1,84.5,174.9,84.8z"/>
		<path class="st33" d="M174.9,84.9c-0.4,0.5-0.7,1.4-0.7,2.2c0,0.4,0.1,0.7,0.2,1c0.8,1.2,2.5,0.9,3.6,0.4c0.3-0.1,0.6-0.3,1-0.6
			c0.3-0.2,0.6-0.6,0.8-0.9c0.2-0.3,0.3-0.6,0.4-0.9c0.3-0.9,0.1-1.9-1.2-2.8c-0.5-0.3-0.9-0.4-1.4-0.3c-0.6,0.1-1.1,0.4-1.5,0.7
			C175.5,84.1,175.1,84.6,174.9,84.9z"/>
		<path class="st34" d="M174.9,84.9c-0.3,0.5-0.7,1.3-0.7,2.1c0,0.4,0.1,0.7,0.2,0.9c0.7,1.2,2.5,0.9,3.5,0.4c0.3-0.1,0.6-0.3,1-0.6
			c0.3-0.2,0.6-0.5,0.8-0.9c0.2-0.3,0.3-0.6,0.4-0.9c0.3-0.9,0.1-1.9-1.2-2.7c-0.5-0.3-0.9-0.4-1.4-0.3s-1.1,0.4-1.5,0.7
			C175.6,84.2,175.1,84.6,174.9,84.9z"/>
		<path class="st35" d="M174.9,85c-0.3,0.5-0.7,1.3-0.7,2.1c0,0.3,0.1,0.7,0.2,0.9c0.7,1.2,2.4,0.9,3.5,0.5c0.3-0.1,0.6-0.3,1-0.6
			c0.3-0.2,0.6-0.5,0.8-0.9c0.2-0.3,0.3-0.6,0.4-0.9c0.3-0.9,0.1-1.8-1.2-2.6c-0.4-0.3-0.9-0.4-1.4-0.3s-1,0.3-1.5,0.7
			C175.6,84.2,175.1,84.7,174.9,85z"/>
		<path class="st36" d="M174.9,85.1c-0.3,0.5-0.7,1.3-0.7,2c0,0.3,0.1,0.6,0.2,0.9c0.7,1.1,2.3,0.8,3.4,0.5c0.3-0.1,0.6-0.3,1-0.6
			c0.3-0.2,0.6-0.5,0.8-0.9c0.2-0.3,0.3-0.6,0.4-0.9c0.2-0.9,0.1-1.8-1.1-2.5c-0.4-0.3-0.9-0.4-1.4-0.3s-1,0.3-1.5,0.7
			C175.6,84.3,175.1,84.8,174.9,85.1z"/>
		<path class="st37" d="M174.9,85.1c-0.3,0.4-0.6,1.3-0.6,2c0,0.3,0.1,0.6,0.2,0.9c0.7,1.1,2.2,0.8,3.3,0.5c0.3-0.1,0.6-0.3,1-0.6
			c0.3-0.2,0.6-0.5,0.8-0.9c0.2-0.3,0.3-0.6,0.4-0.9c0.2-0.8,0.1-1.7-1.1-2.5c-0.4-0.3-0.9-0.3-1.3-0.3c-0.5,0.1-1,0.3-1.5,0.6
			C175.6,84.4,175.2,84.8,174.9,85.1z"/>
		<path class="st38" d="M174.9,85.2c-0.3,0.4-0.6,1.2-0.6,1.9c0,0.3,0.1,0.6,0.2,0.8c0.6,1.1,2.2,0.8,3.2,0.5c0.3-0.1,0.6-0.3,1-0.5
			c0.3-0.2,0.6-0.5,0.8-0.9c0.2-0.3,0.3-0.6,0.4-0.9c0.2-0.8,0.1-1.7-1.1-2.4c-0.4-0.3-0.9-0.3-1.3-0.3c-0.5,0.1-1,0.3-1.4,0.6
			C175.6,84.5,175.2,84.9,174.9,85.2z"/>
		<path class="st39" d="M175,85.3c-0.3,0.4-0.6,1.2-0.6,1.9c0,0.3,0.1,0.6,0.2,0.8c0.6,1.1,2.1,0.8,3.1,0.5c0.3-0.1,0.6-0.3,1-0.5
			c0.3-0.2,0.6-0.5,0.8-0.8c0.2-0.3,0.3-0.6,0.4-0.9c0.2-0.8,0.1-1.6-1-2.3c-0.4-0.3-0.9-0.3-1.3-0.3c-0.5,0.1-1,0.3-1.4,0.6
			C175.6,84.5,175.2,85,175,85.3z"/>
		<path class="st40" d="M175,85.3c-0.3,0.4-0.6,1.2-0.6,1.8c0,0.3,0,0.6,0.2,0.8c0.6,1.1,2,0.8,3,0.5c0.3-0.1,0.6-0.3,1-0.5
			c0.3-0.2,0.6-0.5,0.8-0.8c0.2-0.3,0.3-0.6,0.4-0.9c0.2-0.8,0.1-1.6-1-2.3c-0.4-0.3-0.8-0.3-1.3-0.3c-0.5,0.1-1,0.3-1.4,0.6
			C175.6,84.6,175.2,85,175,85.3z"/>
		<path class="st41" d="M175,85.4c-0.3,0.4-0.6,1.1-0.6,1.8c0,0.3,0,0.6,0.2,0.8c0.6,1,2,0.8,2.9,0.5c0.3-0.1,0.6-0.3,1-0.5
			c0.3-0.2,0.6-0.5,0.8-0.8c0.2-0.3,0.3-0.6,0.4-0.9c0.2-0.7,0.1-1.5-1-2.2c-0.4-0.3-0.8-0.3-1.3-0.3c-0.5,0.1-1,0.3-1.4,0.6
			C175.6,84.7,175.2,85.1,175,85.4z"/>
		<path class="st42" d="M175,85.5c-0.3,0.4-0.6,1.1-0.6,1.7c0,0.3,0,0.6,0.2,0.8c0.5,1,1.9,0.8,2.8,0.5c0.3-0.1,0.6-0.3,1-0.5
			c0.3-0.2,0.6-0.5,0.8-0.8c0.2-0.3,0.3-0.6,0.4-0.9c0.2-0.7,0-1.5-0.9-2.1c-0.4-0.3-0.8-0.3-1.2-0.3c-0.5,0.1-0.9,0.3-1.3,0.6
			C175.6,84.8,175.2,85.2,175,85.5z"/>
		<path class="st43" d="M175,85.5c-0.3,0.4-0.6,1.1-0.6,1.7c0,0.3,0,0.5,0.1,0.7c0.5,1,1.8,0.8,2.7,0.6c0.3-0.1,0.6-0.3,1-0.5
			c0.3-0.2,0.6-0.5,0.8-0.8c0.2-0.3,0.3-0.6,0.4-0.9c0.2-0.7,0-1.4-0.9-2.1c-0.4-0.3-0.8-0.3-1.2-0.3c-0.5,0.1-0.9,0.3-1.3,0.6
			C175.6,84.8,175.2,85.2,175,85.5z"/>
		<path class="st44" d="M175,85.6c-0.3,0.4-0.6,1-0.6,1.6c0,0.3,0,0.5,0.1,0.7c0.5,1,1.7,0.8,2.6,0.6c0.3-0.1,0.6-0.2,1-0.5
			c0.3-0.2,0.6-0.5,0.8-0.8c0.2-0.3,0.3-0.6,0.4-0.9c0.2-0.7,0-1.4-0.9-2c-0.4-0.2-0.8-0.3-1.2-0.3c-0.5,0.1-0.9,0.3-1.3,0.5
			C175.6,84.9,175.2,85.3,175,85.6z"/>
		<path class="st45" d="M175,85.7c-0.3,0.4-0.5,1-0.6,1.6c0,0.3,0,0.5,0.1,0.7c0.5,1,1.7,0.8,2.6,0.6c0.3-0.1,0.6-0.2,1-0.5
			c0.3-0.2,0.6-0.5,0.8-0.8c0.2-0.3,0.3-0.6,0.4-0.9c0.1-0.6,0-1.3-0.8-1.9c-0.4-0.2-0.8-0.3-1.2-0.3c-0.4,0.1-0.9,0.3-1.3,0.5
			C175.6,85,175.2,85.4,175,85.7z"/>
		<path class="st46" d="M175,85.7c-0.3,0.4-0.5,1-0.5,1.5c0,0.3,0,0.5,0.1,0.7c0.4,0.9,1.6,0.8,2.5,0.6c0.3-0.1,0.6-0.2,1-0.5
			c0.3-0.2,0.6-0.5,0.8-0.8c0.2-0.3,0.3-0.6,0.4-0.9c0.1-0.6,0-1.3-0.8-1.8c-0.4-0.2-0.7-0.3-1.1-0.3c-0.4,0.1-0.9,0.2-1.3,0.5
			C175.6,85.1,175.3,85.4,175,85.7z"/>
		<path class="st47" d="M175.1,85.8c-0.3,0.4-0.5,0.9-0.5,1.5c0,0.3,0,0.5,0.1,0.7c0.4,0.9,1.5,0.8,2.4,0.6c0.3-0.1,0.7-0.2,1-0.5
			c0.3-0.2,0.6-0.5,0.8-0.8c0.2-0.3,0.3-0.6,0.4-0.9c0.1-0.6,0-1.2-0.8-1.8c-0.3-0.2-0.7-0.3-1.1-0.3s-0.9,0.2-1.2,0.5
			C175.6,85.1,175.3,85.5,175.1,85.8z"/>
		<path class="st48" d="M175.1,85.9c-0.3,0.4-0.5,0.9-0.5,1.4c0,0.2,0,0.5,0.1,0.6c0.4,0.9,1.4,0.8,2.3,0.6c0.3-0.1,0.7-0.2,1-0.4
			c0.3-0.2,0.6-0.5,0.8-0.8c0.2-0.3,0.3-0.6,0.4-0.9c0.1-0.6,0-1.2-0.7-1.7c-0.3-0.2-0.7-0.3-1.1-0.3s-0.8,0.2-1.2,0.5
			C175.6,85.2,175.3,85.6,175.1,85.9z"/>
		<path class="st49" d="M175.1,85.9c-0.3,0.3-0.5,0.9-0.5,1.4c0,0.2,0,0.5,0.1,0.6c0.4,0.9,1.4,0.8,2.2,0.6c0.3-0.1,0.7-0.2,1-0.4
			c0.3-0.2,0.6-0.5,0.8-0.8c0.2-0.3,0.3-0.6,0.4-0.9c0.1-0.6,0-1.1-0.7-1.6c-0.3-0.2-0.7-0.3-1.1-0.3s-0.8,0.2-1.2,0.5
			C175.6,85.3,175.3,85.6,175.1,85.9z"/>
		<path class="st50" d="M175.1,86c-0.3,0.3-0.5,0.9-0.5,1.3c0,0.2,0,0.4,0.1,0.6c0.3,0.9,1.3,0.8,2.1,0.7c0.3-0.1,0.7-0.2,1-0.4
			c0.3-0.2,0.6-0.5,0.8-0.8c0.2-0.3,0.3-0.6,0.4-0.9c0.1-0.5,0-1.1-0.7-1.6c-0.3-0.2-0.7-0.3-1.1-0.3s-0.8,0.2-1.2,0.4
			C175.7,85.4,175.3,85.7,175.1,86z"/>
		<path class="st51" d="M175.1,86c-0.3,0.3-0.5,0.8-0.5,1.3c0,0.2,0,0.4,0.1,0.6c0.3,0.8,1.2,0.8,2,0.7c0.3-0.1,0.7-0.2,1-0.4
			c0.3-0.2,0.6-0.5,0.8-0.7c0.2-0.3,0.3-0.6,0.4-0.9c0.1-0.5,0-1-0.6-1.5c-0.3-0.2-0.7-0.3-1-0.3c-0.4,0-0.8,0.2-1.2,0.4
			C175.7,85.4,175.3,85.8,175.1,86z"/>
		<path class="st53" d="M175.1,86.1c-0.3,0.3-0.5,0.8-0.5,1.2c0,0.2,0,0.4,0.1,0.6c0.3,0.8,1.2,0.8,1.9,0.7c0.3-0.1,0.7-0.2,1-0.4
			c0.3-0.2,0.6-0.5,0.8-0.7c0.2-0.3,0.3-0.6,0.4-0.9c0.1-0.5,0-1-0.6-1.4c-0.3-0.2-0.7-0.3-1-0.3c-0.4,0-0.8,0.2-1.1,0.4
			C175.7,85.5,175.3,85.8,175.1,86.1z"/>
		<path class="st54" d="M175.1,86.2c-0.3,0.3-0.4,0.8-0.5,1.2c0,0.2,0,0.4,0.1,0.5c0.3,0.8,1.1,0.8,1.8,0.7c0.3-0.1,0.7-0.2,1-0.4
			c0.3-0.2,0.6-0.4,0.8-0.7c0.2-0.3,0.3-0.6,0.4-0.9c0.1-0.5,0-0.9-0.6-1.3c-0.3-0.2-0.6-0.3-1-0.3s-0.8,0.2-1.1,0.4
			C175.7,85.6,175.3,85.9,175.1,86.2z"/>
		<path class="st55" d="M175.1,86.2c-0.2,0.3-0.4,0.7-0.5,1.1c0,0.2,0,0.4,0.1,0.5c0.2,0.8,1,0.8,1.7,0.7c0.3-0.1,0.7-0.2,1-0.4
			c0.3-0.2,0.6-0.4,0.8-0.7c0.2-0.3,0.3-0.6,0.4-0.9c0.1-0.4,0-0.9-0.6-1.3c-0.3-0.2-0.6-0.3-1-0.3s-0.8,0.2-1.1,0.4
			C175.7,85.7,175.4,86,175.1,86.2z"/>
		<path class="st56" d="M175.1,86.3c-0.2,0.3-0.4,0.7-0.4,1.1c0,0.2,0,0.4,0,0.5c0.2,0.7,0.9,0.8,1.7,0.7c0.3,0,0.7-0.2,1-0.4
			c0.3-0.2,0.6-0.4,0.8-0.7c0.2-0.3,0.3-0.6,0.4-0.9c0.1-0.4-0.1-0.8-0.5-1.2c-0.3-0.2-0.6-0.3-1-0.3s-0.7,0.2-1.1,0.4
			C175.7,85.8,175.4,86,175.1,86.3z"/>
		<path class="st57" d="M175.2,86.4c-0.2,0.3-0.4,0.7-0.4,1c0,0.2,0,0.3,0,0.5c0.2,0.7,0.9,0.8,1.6,0.7c0.3,0,0.7-0.2,1-0.4
			c0.3-0.2,0.6-0.4,0.8-0.7c0.2-0.3,0.4-0.6,0.4-0.9c0-0.4-0.1-0.8-0.5-1.1c-0.3-0.2-0.6-0.3-0.9-0.3c-0.4,0-0.7,0.2-1.1,0.4
			S175.4,86.1,175.2,86.4z"/>
		<path class="st58" d="M175.2,86.4c-0.2,0.3-0.4,0.6-0.4,1c0,0.2,0,0.3,0,0.5c0.2,0.7,0.8,0.8,1.5,0.8c0.3,0,0.7-0.2,1-0.3
			c0.3-0.2,0.6-0.4,0.8-0.7c0.2-0.3,0.4-0.6,0.4-0.9c0-0.4-0.1-0.7-0.5-1.1c-0.3-0.2-0.6-0.3-0.9-0.3s-0.7,0.2-1,0.3
			C175.7,85.9,175.4,86.2,175.2,86.4z"/>
		<path class="st59" d="M175.2,86.5c-0.2,0.3-0.4,0.6-0.4,0.9c0,0.2,0,0.3,0,0.4c0.1,0.7,0.7,0.8,1.4,0.8c0.3,0,0.7-0.2,1-0.3
			c0.3-0.2,0.6-0.4,0.8-0.7c0.2-0.3,0.4-0.6,0.4-0.9s-0.1-0.7-0.4-1c-0.3-0.2-0.6-0.3-0.9-0.3s-0.7,0.1-1,0.3
			C175.7,86,175.4,86.2,175.2,86.5z"/>
		<path class="st60" d="M175.2,86.6c-0.2,0.3-0.4,0.6-0.4,0.9c0,0.2,0,0.3,0,0.4c0.1,0.7,0.6,0.8,1.3,0.8c0.3,0,0.7-0.1,1-0.3
			c0.3-0.2,0.6-0.4,0.8-0.7c0.2-0.3,0.4-0.6,0.4-0.9s-0.1-0.6-0.4-0.9c-0.2-0.2-0.5-0.3-0.9-0.3c-0.3,0-0.7,0.1-1,0.3
			C175.7,86.1,175.4,86.3,175.2,86.6z"/>
		<path class="st61" d="M174.8,87.4c-0.1,1,0.5,1.3,1.2,1.2c0.3,0,0.7-0.1,1-0.3c0.3-0.2,0.6-0.4,0.8-0.7c0.2-0.3,0.4-0.6,0.4-0.9
			s-0.1-0.6-0.4-0.8c-0.2-0.2-0.5-0.3-0.9-0.3c-0.3,0-0.7,0.1-1,0.3c-0.3,0.2-0.6,0.4-0.8,0.7C175,86.9,174.8,87.2,174.8,87.4z"/>
	</g>
	<g>
		<path class="st16" d="M158.7,84.5c-0.2-0.4-0.5-1.3-0.5-2.3s0.4-1.9,1.5-2.5c1.5-0.8,2.5,0,3.2,1.2c0.7,1.1,1,2.6,1,3.3
			c0,1.3-0.7,2.5-1.6,2.7c-0.7,0.2-1.5-0.1-2.2-0.6C159.5,85.7,158.9,85.1,158.7,84.5z"/>
		<path class="st19" d="M159.7,79.8c0.8-0.4,1.5-0.4,2.1,0c0.4,0.3,0.8,0.7,1.1,1.2c0.7,1.1,1,2.6,1,3.2c0,1.3-0.7,2.4-1.6,2.7
			c-0.7,0.2-1.5-0.1-2.2-0.6s-1.2-1.1-1.4-1.7c-0.2-0.4-0.5-1.3-0.5-2.3c0-0.6,0.1-1.1,0.5-1.6C159,80.3,159.3,80,159.7,79.8z"/>
		<path class="st20" d="M159.7,79.9c0.8-0.4,1.5-0.4,2.1,0c0.4,0.3,0.8,0.7,1.1,1.2c0.7,1.1,1,2.5,1,3.2c0,1.2-0.7,2.4-1.6,2.6
			c-0.7,0.2-1.5-0.1-2.1-0.6c-0.7-0.5-1.2-1.1-1.4-1.6c-0.2-0.4-0.5-1.3-0.5-2.2c0-0.6,0.1-1.1,0.4-1.6S159.3,80.1,159.7,79.9z"/>
		<path class="st21" d="M159.8,79.9c0.8-0.4,1.5-0.3,2.1,0c0.4,0.3,0.8,0.7,1.1,1.2c0.7,1.1,1,2.5,0.9,3.1c0,1.2-0.7,2.4-1.5,2.6
			c-0.7,0.2-1.5-0.1-2.1-0.5c-0.7-0.5-1.2-1.1-1.4-1.6c-0.2-0.4-0.5-1.3-0.5-2.2c0-0.6,0.1-1.1,0.4-1.6
			C159,80.5,159.3,80.2,159.8,79.9z"/>
		<path class="st22" d="M159.8,80c0.8-0.4,1.5-0.3,2.1,0c0.4,0.3,0.8,0.7,1.1,1.1c0.6,1,1,2.4,0.9,3.1c0,1.2-0.7,2.3-1.5,2.6
			c-0.7,0.2-1.4-0.1-2.1-0.5c-0.6-0.4-1.2-1.1-1.4-1.6c-0.2-0.4-0.5-1.3-0.5-2.2c0-0.6,0.1-1.1,0.4-1.6
			C159,80.5,159.3,80.2,159.8,80z"/>
		<path class="st23" d="M159.8,80.1c0.8-0.4,1.5-0.3,2,0c0.4,0.3,0.8,0.7,1.1,1.1c0.6,1,0.9,2.4,0.9,3c0,1.2-0.7,2.3-1.5,2.5
			c-0.7,0.2-1.4-0.1-2-0.5s-1.1-1-1.4-1.5c-0.2-0.4-0.5-1.3-0.5-2.2c0-0.6,0.1-1.1,0.4-1.6C159.1,80.6,159.4,80.3,159.8,80.1z"/>
		<path class="st24" d="M159.8,80.2c0.8-0.4,1.5-0.3,2,0c0.4,0.3,0.8,0.7,1.1,1.1c0.6,1,0.9,2.4,0.9,3c0,1.2-0.7,2.3-1.5,2.5
			c-0.7,0.2-1.4-0.1-2-0.5s-1.1-1-1.4-1.5c-0.2-0.4-0.5-1.2-0.5-2.1c0-0.6,0.1-1.1,0.4-1.6C159.1,80.7,159.4,80.4,159.8,80.2z"/>
		<path class="st25" d="M159.8,80.2c0.8-0.4,1.5-0.3,2,0c0.4,0.3,0.8,0.7,1.1,1.1c0.6,1,0.9,2.3,0.9,2.9c0,1.2-0.7,2.2-1.5,2.5
			c-0.7,0.2-1.4-0.1-2-0.5s-1.1-1-1.3-1.5c-0.2-0.4-0.5-1.2-0.5-2.1c0-0.6,0.1-1.1,0.4-1.6C159.1,80.8,159.4,80.4,159.8,80.2z"/>
		<path class="st26" d="M159.9,80.3c0.8-0.4,1.5-0.3,2,0c0.4,0.3,0.8,0.7,1.1,1.1c0.6,1,0.9,2.3,0.9,2.9c0,1.1-0.7,2.2-1.4,2.5
			c-0.6,0.2-1.3-0.1-1.9-0.5s-1.1-1-1.3-1.4c-0.2-0.4-0.5-1.2-0.5-2.1c0-0.6,0.1-1.1,0.4-1.6C159.2,80.8,159.4,80.5,159.9,80.3z"/>
		<path class="st27" d="M159.9,80.4c0.8-0.4,1.4-0.3,2,0c0.4,0.2,0.8,0.7,1.1,1.1c0.6,0.9,0.9,2.2,0.8,2.9c0,1.1-0.6,2.2-1.4,2.4
			c-0.6,0.2-1.3-0.1-1.9-0.4c-0.6-0.4-1.1-0.9-1.3-1.4c-0.2-0.4-0.5-1.2-0.5-2.1c0-0.6,0.1-1.1,0.3-1.6
			C159.2,80.9,159.5,80.6,159.9,80.4z"/>
		<path class="st28" d="M159.9,80.5c0.8-0.4,1.4-0.3,2,0c0.4,0.2,0.8,0.6,1.1,1.1c0.6,0.9,0.9,2.2,0.8,2.8c0,1.1-0.6,2.2-1.4,2.4
			c-0.6,0.2-1.3-0.1-1.9-0.4c-0.6-0.4-1.1-0.9-1.3-1.4c-0.2-0.4-0.5-1.2-0.5-2c0-0.5,0.1-1.1,0.3-1.6
			C159.2,81,159.5,80.7,159.9,80.5z"/>
		<path class="st29" d="M159.9,80.5c0.8-0.4,1.4-0.3,2,0c0.4,0.2,0.8,0.6,1.1,1.1c0.6,0.9,0.8,2.1,0.8,2.8c0,1.1-0.6,2.1-1.4,2.4
			c-0.6,0.2-1.3,0-1.8-0.4c-0.6-0.4-1-0.9-1.3-1.3c-0.2-0.4-0.5-1.2-0.5-2c0-0.5,0.1-1.1,0.3-1.6C159.2,81,159.5,80.7,159.9,80.5z"
			/>
		<path class="st30" d="M160,80.6c0.8-0.4,1.4-0.3,2,0c0.4,0.2,0.8,0.6,1.1,1.1c0.5,0.9,0.8,2.1,0.8,2.7c0,1.1-0.6,2.1-1.4,2.3
			c-0.6,0.2-1.2,0-1.8-0.4c-0.6-0.4-1-0.9-1.3-1.3c-0.2-0.4-0.5-1.2-0.6-2c0-0.5,0.1-1.1,0.3-1.6C159.3,81.1,159.5,80.8,160,80.6z"
			/>
		<path class="st31" d="M160,80.7c0.8-0.4,1.4-0.3,1.9,0c0.4,0.2,0.8,0.6,1.1,1.1c0.5,0.9,0.8,2.1,0.8,2.7c0,1.1-0.6,2.1-1.4,2.3
			c-0.6,0.2-1.2,0-1.8-0.4c-0.6-0.3-1-0.8-1.2-1.3c-0.2-0.4-0.5-1.1-0.6-2c0-0.5,0-1.1,0.3-1.6C159.3,81.2,159.6,80.9,160,80.7z"/>
		<path class="st32" d="M160,80.8c0.8-0.4,1.4-0.3,1.9,0c0.4,0.2,0.8,0.6,1.1,1c0.5,0.8,0.8,2,0.8,2.6c0,1-0.6,2-1.3,2.3
			c-0.6,0.2-1.2,0-1.7-0.4c-0.5-0.3-1-0.8-1.2-1.2c-0.2-0.4-0.5-1.1-0.6-1.9c0-0.5,0-1.1,0.3-1.6C159.3,81.3,159.6,80.9,160,80.8z"
			/>
		<path class="st33" d="M160,80.8c0.8-0.3,1.4-0.3,1.9,0c0.4,0.2,0.8,0.6,1,1c0.5,0.8,0.8,2,0.7,2.6c0,1-0.6,2-1.3,2.2
			c-0.6,0.2-1.2,0-1.7-0.3s-1-0.8-1.2-1.2c-0.2-0.4-0.5-1.1-0.6-1.9c0-0.5,0-1.1,0.3-1.6C159.3,81.3,159.6,81,160,80.8z"/>
		<path class="st34" d="M160,80.9c0.7-0.3,1.4-0.3,1.9,0c0.4,0.2,0.8,0.6,1,1c0.5,0.8,0.7,1.9,0.7,2.5c0,1-0.6,2-1.3,2.2
			c-0.6,0.2-1.2,0-1.7-0.3s-1-0.8-1.2-1.2c-0.2-0.4-0.5-1.1-0.6-1.9c0-0.5,0-1.1,0.3-1.6C159.4,81.4,159.6,81.1,160,80.9z"/>
		<path class="st35" d="M160.1,81c0.7-0.3,1.4-0.3,1.9,0c0.4,0.2,0.8,0.6,1,1c0.5,0.8,0.7,1.9,0.7,2.5c0,1-0.6,1.9-1.3,2.2
			c-0.5,0.2-1.1,0-1.6-0.3s-0.9-0.8-1.2-1.1c-0.2-0.4-0.5-1.1-0.6-1.9c0-0.5,0-1.1,0.2-1.6C159.4,81.5,159.7,81.2,160.1,81z"/>
		<path class="st36" d="M160.1,81.1c0.7-0.3,1.4-0.3,1.9,0c0.4,0.2,0.8,0.6,1,1c0.5,0.7,0.7,1.8,0.7,2.5c0,1-0.5,1.9-1.3,2.2
			c-0.5,0.2-1.1,0-1.6-0.3s-0.9-0.7-1.2-1.1c-0.3-0.4-0.5-1.1-0.6-1.8c0-0.5,0-1.1,0.2-1.6C159.4,81.5,159.7,81.2,160.1,81.1z"/>
		<path class="st37" d="M160.1,81.1c0.7-0.3,1.4-0.2,1.9,0c0.4,0.2,0.8,0.6,1,1c0.5,0.7,0.7,1.8,0.7,2.4c0,1-0.5,1.9-1.3,2.1
			c-0.5,0.2-1.1,0-1.6-0.3s-0.9-0.7-1.1-1c-0.3-0.4-0.5-1.1-0.6-1.8c-0.1-0.5,0-1.1,0.2-1.6C159.5,81.6,159.7,81.3,160.1,81.1z"/>
		<path class="st38" d="M160.1,81.2c0.7-0.3,1.4-0.2,1.9,0c0.4,0.2,0.8,0.6,1,1c0.4,0.7,0.7,1.8,0.6,2.4c0,0.9-0.5,1.8-1.2,2.1
			c-0.5,0.1-1.1,0-1.5-0.3c-0.5-0.3-0.9-0.7-1.1-1c-0.3-0.4-0.6-1-0.6-1.8c-0.1-0.5,0-1.1,0.2-1.6C159.5,81.7,159.7,81.4,160.1,81.2
			z"/>
		<path class="st39" d="M160.1,81.3c0.7-0.3,1.3-0.2,1.9,0c0.4,0.2,0.8,0.6,1,1c0.4,0.7,0.7,1.7,0.6,2.3c0,0.9-0.5,1.8-1.2,2.1
			c-0.5,0.1-1,0-1.5-0.2c-0.5-0.3-0.9-0.7-1.1-1c-0.3-0.4-0.6-1-0.6-1.8c-0.1-0.5,0-1.1,0.2-1.6C159.5,81.8,159.8,81.4,160.1,81.3z"
			/>
		<path class="st40" d="M160.2,81.4c0.7-0.3,1.3-0.2,1.8,0c0.4,0.2,0.8,0.6,1,1c0.4,0.7,0.6,1.7,0.6,2.3c0,0.9-0.5,1.8-1.2,2
			c-0.5,0.1-1,0-1.5-0.2s-0.9-0.6-1.1-0.9c-0.3-0.4-0.6-1-0.6-1.7c-0.1-0.5,0-1.1,0.2-1.5C159.5,81.8,159.8,81.5,160.2,81.4z"/>
		<path class="st41" d="M160.2,81.4c0.7-0.3,1.3-0.2,1.8,0c0.4,0.2,0.8,0.6,1,0.9c0.4,0.6,0.6,1.6,0.6,2.2c0,0.9-0.5,1.8-1.2,2
			c-0.5,0.1-1,0-1.4-0.2c-0.5-0.2-0.8-0.6-1.1-0.9c-0.3-0.4-0.6-1-0.7-1.7c-0.1-0.5,0-1.1,0.2-1.5C159.6,81.9,159.8,81.6,160.2,81.4
			z"/>
		<path class="st42" d="M160.2,81.5c0.7-0.3,1.3-0.2,1.8,0c0.4,0.2,0.8,0.6,1,0.9c0.4,0.6,0.6,1.6,0.6,2.2c0,0.9-0.5,1.7-1.2,2
			c-0.5,0.1-1,0-1.4-0.2c-0.5-0.2-0.8-0.6-1.1-0.9c-0.3-0.4-0.6-1-0.7-1.7c-0.1-0.5,0-1.1,0.1-1.5C159.6,82,159.8,81.7,160.2,81.5z"
			/>
		<path class="st43" d="M160.2,81.6c0.7-0.3,1.3-0.2,1.8,0.1c0.4,0.2,0.8,0.6,1,0.9c0.4,0.6,0.6,1.5,0.6,2.1c0,0.9-0.5,1.7-1.2,2
			c-0.5,0.1-0.9,0-1.4-0.2s-0.8-0.6-1.1-0.8c-0.3-0.4-0.6-1-0.7-1.7c-0.1-0.5,0-1.1,0.1-1.5C159.6,82.1,159.9,81.7,160.2,81.6z"/>
		<path class="st44" d="M160.3,81.7c0.7-0.3,1.3-0.2,1.8,0.1c0.4,0.2,0.8,0.6,1,0.9c0.4,0.6,0.6,1.5,0.5,2.1c0,0.8-0.5,1.7-1.1,1.9
			c-0.5,0.1-0.9,0-1.3-0.2s-0.8-0.5-1-0.8c-0.3-0.3-0.6-1-0.7-1.6c-0.1-0.5-0.1-1.1,0.1-1.5C159.6,82.1,159.9,81.8,160.3,81.7z"/>
		<path class="st45" d="M160.3,81.7c0.7-0.3,1.3-0.2,1.8,0.1c0.4,0.2,0.8,0.6,1,0.9c0.4,0.6,0.6,1.4,0.5,2c-0.1,0.8-0.4,1.6-1.1,1.9
			c-0.4,0.1-0.9,0-1.3-0.1c-0.4-0.2-0.8-0.5-1-0.8c-0.3-0.3-0.6-0.9-0.7-1.6c-0.1-0.5-0.1-1.1,0.1-1.5
			C159.7,82.2,159.9,81.9,160.3,81.7z"/>
		<path class="st46" d="M160.3,81.8c0.7-0.3,1.3-0.2,1.8,0.1c0.4,0.2,0.8,0.6,1,0.9c0.3,0.5,0.5,1.4,0.5,2c0,0.8-0.4,1.6-1.1,1.9
			c-0.4,0.1-0.9,0-1.3-0.1c-0.4-0.2-0.8-0.5-1-0.7c-0.3-0.3-0.6-0.9-0.7-1.6c-0.1-0.5-0.1-1.1,0.1-1.5
			C159.7,82.3,159.9,81.9,160.3,81.8z"/>
		<path class="st47" d="M160.3,81.9c0.7-0.3,1.3-0.2,1.8,0.1c0.4,0.2,0.8,0.6,1,0.9c0.3,0.5,0.5,1.4,0.5,2c0,0.8-0.4,1.6-1.1,1.8
			c-0.4,0.1-0.8,0-1.2-0.1c-0.4-0.2-0.8-0.5-1-0.7c-0.3-0.3-0.6-0.9-0.7-1.5c-0.1-0.5-0.1-1.1,0.1-1.5C159.7,82.3,160,82,160.3,81.9
			z"/>
		<path class="st48" d="M160.3,81.9c0.7-0.3,1.3-0.2,1.7,0.1c0.4,0.2,0.8,0.6,1,0.9c0.3,0.5,0.5,1.3,0.5,1.9c0,0.8-0.4,1.5-1.1,1.8
			c-0.4,0.1-0.8,0.1-1.2-0.1c-0.4-0.2-0.7-0.4-1-0.7c-0.3-0.3-0.6-0.9-0.7-1.5c-0.1-0.5-0.1-1.1,0.1-1.5
			C159.8,82.4,160,82.1,160.3,81.9z"/>
		<path class="st49" d="M160.4,82c0.7-0.3,1.3-0.2,1.7,0.1c0.4,0.2,0.8,0.6,1,0.9c0.3,0.5,0.5,1.3,0.4,1.9c0,0.8-0.4,1.5-1.1,1.8
			c-0.4,0.1-0.8,0.1-1.1-0.1c-0.4-0.1-0.7-0.4-1-0.6c-0.3-0.3-0.6-0.9-0.7-1.5c-0.1-0.5-0.1-1.1,0-1.5C159.8,82.5,160,82.2,160.4,82
			z"/>
		<path class="st50" d="M160.4,82.1c0.7-0.3,1.3-0.2,1.7,0.1c0.4,0.2,0.8,0.6,1,0.9c0.3,0.4,0.5,1.2,0.4,1.8c0,0.7-0.4,1.5-1,1.7
			c-0.4,0.1-0.8,0.1-1.1-0.1c-0.4-0.1-0.7-0.4-0.9-0.6c-0.3-0.3-0.6-0.9-0.7-1.5c-0.1-0.5-0.1-1.1,0-1.5
			C159.8,82.6,160,82.2,160.4,82.1z"/>
		<path class="st51" d="M160.4,82.2c0.7-0.2,1.2-0.2,1.7,0.1c0.4,0.2,0.8,0.6,0.9,0.8c0.3,0.4,0.4,1.2,0.4,1.8c0,0.7-0.4,1.4-1,1.7
			c-0.4,0.1-0.7,0.1-1.1,0s-0.7-0.4-0.9-0.6c-0.3-0.3-0.6-0.9-0.7-1.4s-0.1-1,0-1.5S160.1,82.3,160.4,82.2z"/>
		<path class="st53" d="M160.4,82.2c0.7-0.2,1.2-0.1,1.7,0.1c0.4,0.2,0.8,0.5,0.9,0.8c0.3,0.4,0.4,1.1,0.4,1.7c0,0.7-0.4,1.4-1,1.7
			c-0.4,0.1-0.7,0.1-1,0c-0.4-0.1-0.7-0.3-0.9-0.5c-0.3-0.3-0.6-0.8-0.8-1.4c-0.1-0.5-0.1-1,0-1.5C159.9,82.7,160.1,82.4,160.4,82.2
			z"/>
		<path class="st54" d="M160.4,82.3c0.7-0.2,1.2-0.1,1.7,0.1c0.4,0.2,0.8,0.5,0.9,0.8c0.2,0.4,0.4,1.1,0.4,1.7c0,0.7-0.4,1.4-1,1.7
			c-0.4,0.1-0.7,0.1-1,0c-0.4-0.1-0.7-0.3-0.9-0.5c-0.3-0.3-0.6-0.8-0.8-1.4c-0.1-0.5-0.1-1,0-1.5C159.9,82.8,160.1,82.4,160.4,82.3
			z"/>
		<path class="st55" d="M160.5,82.4c0.7-0.2,1.2-0.1,1.7,0.1c0.4,0.2,0.8,0.5,0.9,0.8c0.2,0.4,0.4,1.1,0.4,1.6c0,0.7-0.3,1.4-1,1.6
			c-0.3,0.1-0.7,0.1-1,0c-0.4-0.1-0.6-0.3-0.9-0.5c-0.4-0.3-0.6-0.8-0.8-1.4c-0.1-0.5-0.1-1,0-1.5C159.9,82.8,160.1,82.5,160.5,82.4
			z"/>
		<path class="st56" d="M160.5,82.5c0.6-0.2,1.2-0.1,1.7,0.1c0.4,0.2,0.8,0.5,0.9,0.8c0.2,0.3,0.4,1,0.3,1.6c0,0.7-0.3,1.3-0.9,1.6
			c-0.3,0.1-0.7,0.1-0.9,0c-0.3-0.1-0.6-0.2-0.9-0.4c-0.4-0.3-0.6-0.8-0.8-1.3c-0.1-0.5-0.1-1,0-1.5
			C159.9,82.9,160.2,82.6,160.5,82.5z"/>
		<path class="st57" d="M160.5,82.5c0.6-0.2,1.2-0.1,1.6,0.1s0.8,0.5,0.9,0.8c0.2,0.3,0.4,1,0.3,1.6c0,0.6-0.3,1.3-0.9,1.6
			c-0.3,0.1-0.6,0.1-0.9,0.1c-0.3-0.1-0.6-0.2-0.8-0.4c-0.4-0.3-0.6-0.8-0.8-1.3c-0.1-0.5-0.2-1,0-1.5C160,83,160.2,82.7,160.5,82.5
			z"/>
		<path class="st58" d="M160.5,82.6c0.6-0.2,1.2-0.1,1.6,0.1s0.7,0.5,0.9,0.8c0.2,0.3,0.3,0.9,0.3,1.5s-0.3,1.3-0.9,1.5
			c-0.3,0.1-0.6,0.1-0.9,0.1c-0.3-0.1-0.6-0.2-0.8-0.4c-0.4-0.3-0.7-0.8-0.8-1.3c-0.1-0.5-0.2-1-0.1-1.5
			C160,83.1,160.2,82.7,160.5,82.6z"/>
		<path class="st59" d="M160.6,82.7c0.6-0.2,1.2-0.1,1.6,0.1s0.7,0.5,0.9,0.8c0.2,0.3,0.3,0.9,0.3,1.5s-0.3,1.2-0.9,1.5
			c-0.3,0.1-0.6,0.1-0.8,0.1c-0.3,0-0.6-0.2-0.8-0.3c-0.4-0.3-0.7-0.8-0.8-1.3c-0.1-0.5-0.2-1-0.1-1.5
			C160,83.1,160.2,82.8,160.6,82.7z"/>
		<path class="st60" d="M160.6,82.8c0.6-0.2,1.2-0.1,1.6,0.1s0.7,0.5,0.9,0.8c0.2,0.3,0.3,0.8,0.3,1.4s-0.3,1.2-0.9,1.5
			c-0.3,0.1-0.6,0.1-0.8,0.1c-0.3,0-0.6-0.1-0.8-0.3c-0.4-0.3-0.7-0.7-0.8-1.2c-0.1-0.5-0.2-1-0.1-1.5
			C160.1,83.2,160.3,82.9,160.6,82.8z"/>
		<path class="st61" d="M162.5,86.5c0.6-0.3,0.8-0.9,0.9-1.5c0-0.6-0.1-1.1-0.2-1.4c-0.2-0.2-0.5-0.5-0.9-0.8
			c-0.4-0.2-1-0.3-1.6-0.1c-0.3,0.1-0.5,0.4-0.6,0.9c-0.1,0.4,0,1,0.1,1.5c0.2,0.5,0.4,0.9,0.8,1.2
			C161.3,86.7,161.8,86.8,162.5,86.5z"/>
	</g>
	<path class="st17" d="M160.1,92.5c0.7-4.7,5-8,8.9-7.4s6.4,5.2,5.7,9.8c-0.7,4.7-4.9,7.8-8.8,7.2C162,101.5,159.4,97.2,160.1,92.5z
		"/>
	<path d="M160.9,83.1c1.1-0.7,3.5,1.8,1.6,3.4c-0.5,0.4-1.8-0.2-2-1S160.3,83.5,160.9,83.1z"/>
	<path d="M175.1,88.3c-0.5-1.6,0.7-3.7,2.9-3.2C180.2,85.7,177,89.5,175.1,88.3z"/>
	<path class="st62" d="M178.9,71.3c-0.4,1.2,0,2,1.3,2.6c1.3,0.7,1.7,0.7,1.6,2.1c1.1-0.7,1.8-3.2,0.5-4.1
		C181.3,71.2,179.8,70.9,178.9,71.3z"/>
	<path class="st62" d="M165.3,69.9c0,1.2-0.3,2.2-2.2,2.4c-1.9,0.3-3.1,0.7-3.1,1.5C160.1,72,160.7,69.2,165.3,69.9z"/>
	<circle cx="167.6" cy="89.9" r="3.1"/>
	
		<ellipse transform="matrix(0.9846 -0.1748 0.1748 0.9846 -12.8775 30.5239)" class="st63" cx="166.8" cy="88.4" rx="1.1" ry="0.8"/>
	<ellipse transform="matrix(0.9872 -0.1593 0.1593 0.9872 -11.3293 26.807)" class="st63" cx="161.5" cy="84.1" rx="0.3" ry="0.5"/>
	<ellipse transform="matrix(0.723 -0.6909 0.6909 0.723 -10.3275 146.0314)" class="st63" cx="176.9" cy="85.9" rx="0.5" ry="0.3"/>
	<path class="st62" d="M160.9,93c1.9,3.3,8.5,4.6,13,0.5C171.3,98.4,164.1,99.9,160.9,93z"/>
	<path class="st64" d="M166.8,96.7c0.3,0.5-0.6,1.8-1.6,1.8s-1-2.8,0.4-2.3C166.1,96.4,166.6,96.3,166.8,96.7z"/>
</g>
<g>
	
		<image style="overflow:visible;enable-background:new    ;" width="133" height="113" xlink:href="447F0BDF.png"  transform="matrix(1 0 0 1 170 24.1744)">
	</image>
</g>
<g>
	<path class="st1" d="M250,158.7c-0.2,4.9-4.4,8.7-9.6,8.7c-5.1,0-9.6-3.8-9.9-8.7c-0.4-5.2,3.9-9.6,9.5-9.6
		C245.7,149.1,250.2,153.5,250,158.7z"/>
	<path class="st65" d="M249.5,158.3c-0.2,4.8-4.3,8.5-9.4,8.5c-5,0-9.4-3.7-9.7-8.5c-0.4-5.1,3.8-9.4,9.3-9.4
		C245.3,148.9,249.7,153.2,249.5,158.3z"/>
	<path class="st66" d="M248.9,157.7c-0.1,4.4-3.9,7.7-8.5,7.7c-4.5,0-8.5-3.4-8.8-7.7c-0.3-4.6,3.4-8.5,8.5-8.5
		C245.1,149.2,249.1,153.1,248.9,157.7z"/>
	<rect x="225.9" y="157.6" class="st10" width="3.8" height="0.9"/>
	
		<rect x="230.8" y="147.5" transform="matrix(0.7071 -0.7071 0.7071 0.7071 -37.9145 207.2697)" class="st10" width="0.9" height="3.8"/>
	<rect x="239.3" y="143.8" class="st10" width="0.9" height="3.8"/>
	
		<rect x="246.4" y="148.7" transform="matrix(0.7077 -0.7065 0.7065 0.7077 -32.8006 219.0222)" class="st10" width="3.8" height="0.9"/>
	<rect x="250.2" y="157.2" class="st10" width="3.8" height="0.9"/>
	<g>
		<path class="st10" d="M239.4,149.5c-0.3,1.7-0.3,3.5-0.2,5.2h0.8c-0.1-1.7,0-3.5,0.2-5.2C240,149.5,239.7,149.5,239.4,149.5z"/>
	</g>
	<path class="st67" d="M246.4,155.2c-0.3,1.2-1.5,1.9-2.8,1.6c-1.2-0.3-2.1-1.4-1.9-2.6c0.2-1.3,1.4-2.1,2.8-1.8
		S246.8,154,246.4,155.2z"/>
</g>
<path class="st68" d="M221.4,157.3c0,1.1-0.9,1.9-1.9,1.9h-1.4c-1.1,0-1.9-0.9-1.9-1.9v-3.1c0-1.1,0.9-1.9,1.9-1.9h1.4
	c1.1,0,1.9,0.9,1.9,1.9V157.3z"/>
</svg>
